<?xml version="1.0" encoding="UTF-8" standalone="no" ?>
<svg width="250" height="250" viewBox="0 0 250 250" fill="none" xmlns="http://www.w3.org/2000/svg">
    <rect width="250" height="250" rx="25" transform="matrix(-1 0 0 1 250 0)" fill="white" />
    <path d="M219.155 191.891L30.3007 190.095C25.3303 190.048 21.2598 194.039 21.2089 199.009L21.0553 214.008C21.0044 218.979 24.9924 223.046 29.9627 223.093L218.817 224.889C223.788 224.937 227.858 220.946 227.909 215.976L228.063 200.976C228.114 196.006 224.126 191.938 219.155 191.891Z" fill="#EC6664" stroke="#972928" stroke-width="2" />
    <rect x="-1.0102" y="0.990437" width="117.631" height="33" rx="9" transform="matrix(-0.999955 -0.00951012 -0.0102407 0.999948 138.036 144.99)" fill="#AFD2A4" stroke="#517048" stroke-width="2" />
    <rect x="-1.0102" y="0.990437" width="72.9099" height="33" rx="9" transform="matrix(-0.999955 -0.00951012 -0.0102407 0.999948 93.3008 99.7028)" fill="#74C1DD" stroke="#065789" stroke-width="2" />
    <mask id="path-5-outside-1_604_28" maskUnits="userSpaceOnUse" x="32.0459" y="21" width="37" height="69" fill="black">
        <rect fill="white" x="32.0459" y="21" width="37" height="69" />
        <path d="M66.9454 73.504C66.9454 78.688 66.0174 82.4 64.1614 84.64C62.3054 86.816 59.4894 87.904 55.7134 87.904C53.2174 87.904 51.2014 87.52 49.6654 86.752C48.1294 85.984 46.9454 84.576 46.1134 82.528C45.3454 80.48 44.9294 77.728 44.8654 74.272L44.6734 38.464C41.6014 38.464 39.0734 37.92 37.0894 36.832C35.1054 35.68 34.1134 33.792 34.1134 31.168C34.1134 29.056 35.0094 27.328 36.8014 25.984C38.6574 24.576 41.2174 23.872 44.4814 23.872C45.7614 23.872 47.5534 23.904 49.8574 23.968C52.2254 23.968 53.8894 23.968 54.8494 23.968C59.5854 23.968 62.7534 24.768 64.3534 26.368C66.0174 27.904 66.8494 30.624 66.8494 34.528L66.9454 73.504Z" />
    </mask>
    <path d="M66.9454 73.504C66.9454 78.688 66.0174 82.4 64.1614 84.64C62.3054 86.816 59.4894 87.904 55.7134 87.904C53.2174 87.904 51.2014 87.52 49.6654 86.752C48.1294 85.984 46.9454 84.576 46.1134 82.528C45.3454 80.48 44.9294 77.728 44.8654 74.272L44.6734 38.464C41.6014 38.464 39.0734 37.92 37.0894 36.832C35.1054 35.68 34.1134 33.792 34.1134 31.168C34.1134 29.056 35.0094 27.328 36.8014 25.984C38.6574 24.576 41.2174 23.872 44.4814 23.872C45.7614 23.872 47.5534 23.904 49.8574 23.968C52.2254 23.968 53.8894 23.968 54.8494 23.968C59.5854 23.968 62.7534 24.768 64.3534 26.368C66.0174 27.904 66.8494 30.624 66.8494 34.528L66.9454 73.504Z" fill="#74C1DD" />
    <path d="M66.9454 73.504L68.9454 73.504L68.9454 73.4991L66.9454 73.504ZM64.1614 84.64L65.6831 85.9379L65.6923 85.927L65.7014 85.916L64.1614 84.64ZM49.6654 86.752L48.771 88.5409L48.771 88.5409L49.6654 86.752ZM46.1134 82.528L44.2407 83.2302L44.2503 83.2556L44.2605 83.2808L46.1134 82.528ZM44.8654 74.272L42.8654 74.2827L42.8655 74.2959L42.8657 74.309L44.8654 74.272ZM44.6734 38.464L46.6734 38.4533L46.6627 36.464H44.6734V38.464ZM37.0894 36.832L36.0851 38.5616L36.1063 38.5739L36.1277 38.5856L37.0894 36.832ZM36.8014 25.984L38.0014 27.584L38.0102 27.5774L36.8014 25.984ZM49.8574 23.968L49.8019 25.9672L49.8296 25.968H49.8574V23.968ZM64.3534 26.368L62.9392 27.7822L62.9675 27.8105L62.9968 27.8376L64.3534 26.368ZM66.8494 34.528L64.8494 34.528L64.8494 34.5329L66.8494 34.528ZM64.9454 73.504C64.9454 78.5479 64.0233 81.6719 62.6214 83.364L65.7014 85.916C68.0115 83.1281 68.9454 78.8281 68.9454 73.504H64.9454ZM62.6397 83.3421C61.2765 84.9404 59.1034 85.904 55.7134 85.904V89.904C59.8754 89.904 63.3343 88.6916 65.6831 85.9379L62.6397 83.3421ZM55.7134 85.904C53.3974 85.904 51.7212 85.5438 50.5598 84.9631L48.771 88.5409C50.6816 89.4962 53.0374 89.904 55.7134 89.904V85.904ZM50.5598 84.9631C49.5716 84.4691 48.6693 83.5056 47.9663 81.7752L44.2605 83.2808C45.2215 85.6464 46.6871 87.4989 48.771 88.5409L50.5598 84.9631ZM47.9861 81.8258C47.3305 80.0775 46.927 77.5798 46.8651 74.235L42.8657 74.309C42.9318 77.8762 43.3603 80.8825 44.2407 83.2302L47.9861 81.8258ZM46.8654 74.2613L46.6734 38.4533L42.6734 38.4747L42.8654 74.2827L46.8654 74.2613ZM44.6734 36.464C41.8226 36.464 39.6537 35.9572 38.0511 35.0784L36.1277 38.5856C38.4931 39.8828 41.3802 40.464 44.6734 40.464V36.464ZM38.0937 35.1024C36.8253 34.3659 36.1134 33.2019 36.1134 31.168H32.1134C32.1134 34.3821 33.3855 36.9941 36.0851 38.5616L38.0937 35.1024ZM36.1134 31.168C36.1134 29.7287 36.6774 28.577 38.0014 27.584L35.6014 24.384C33.3414 26.079 32.1134 28.3833 32.1134 31.168H36.1134ZM38.0102 27.5774C39.4032 26.5206 41.4829 25.872 44.4814 25.872V21.872C40.9519 21.872 37.9116 22.6314 35.5926 24.3906L38.0102 27.5774ZM44.4814 25.872C45.7338 25.872 47.5043 25.9034 49.8019 25.9672L49.9129 21.9688C47.6025 21.9046 45.789 21.872 44.4814 21.872V25.872ZM49.8574 25.968C49.862 25.968 49.8666 25.968 49.8713 25.968C49.8759 25.968 49.8805 25.968 49.8851 25.968C49.8897 25.968 49.8943 25.968 49.899 25.968C49.9036 25.968 49.9082 25.968 49.9128 25.968C49.9174 25.968 49.922 25.968 49.9266 25.968C49.9312 25.968 49.9358 25.968 49.9404 25.968C49.945 25.968 49.9495 25.968 49.9541 25.968C49.9587 25.968 49.9633 25.968 49.9679 25.968C49.9725 25.968 49.977 25.968 49.9816 25.968C49.9862 25.968 49.9908 25.968 49.9953 25.968C49.9999 25.968 50.0045 25.968 50.009 25.968C50.0136 25.968 50.0182 25.968 50.0227 25.968C50.0273 25.968 50.0319 25.968 50.0364 25.968C50.041 25.968 50.0455 25.968 50.0501 25.968C50.0546 25.968 50.0592 25.968 50.0637 25.968C50.0683 25.968 50.0728 25.968 50.0773 25.968C50.0819 25.968 50.0864 25.968 50.0909 25.968C50.0955 25.968 50.1 25.968 50.1045 25.968C50.1091 25.968 50.1136 25.968 50.1181 25.968C50.1226 25.968 50.1272 25.968 50.1317 25.968C50.1362 25.968 50.1407 25.968 50.1452 25.968C50.1497 25.968 50.1542 25.968 50.1587 25.968C50.1633 25.968 50.1678 25.968 50.1723 25.968C50.1768 25.968 50.1813 25.968 50.1858 25.968C50.1903 25.968 50.1947 25.968 50.1992 25.968C50.2037 25.968 50.2082 25.968 50.2127 25.968C50.2172 25.968 50.2217 25.968 50.2262 25.968C50.2306 25.968 50.2351 25.968 50.2396 25.968C50.2441 25.968 50.2485 25.968 50.253 25.968C50.2575 25.968 50.2619 25.968 50.2664 25.968C50.2709 25.968 50.2753 25.968 50.2798 25.968C50.2842 25.968 50.2887 25.968 50.2931 25.968C50.2976 25.968 50.3021 25.968 50.3065 25.968C50.3109 25.968 50.3154 25.968 50.3198 25.968C50.3243 25.968 50.3287 25.968 50.3332 25.968C50.3376 25.968 50.342 25.968 50.3465 25.968C50.3509 25.968 50.3553 25.968 50.3597 25.968C50.3642 25.968 50.3686 25.968 50.373 25.968C50.3774 25.968 50.3819 25.968 50.3863 25.968C50.3907 25.968 50.3951 25.968 50.3995 25.968C50.4039 25.968 50.4083 25.968 50.4127 25.968C50.4171 25.968 50.4215 25.968 50.4259 25.968C50.4303 25.968 50.4347 25.968 50.4391 25.968C50.4435 25.968 50.4479 25.968 50.4523 25.968C50.4567 25.968 50.4611 25.968 50.4655 25.968C50.4698 25.968 50.4742 25.968 50.4786 25.968C50.483 25.968 50.4874 25.968 50.4917 25.968C50.4961 25.968 50.5005 25.968 50.5048 25.968C50.5092 25.968 50.5136 25.968 50.5179 25.968C50.5223 25.968 50.5267 25.968 50.531 25.968C50.5354 25.968 50.5397 25.968 50.5441 25.968C50.5484 25.968 50.5528 25.968 50.5571 25.968C50.5615 25.968 50.5658 25.968 50.5701 25.968C50.5745 25.968 50.5788 25.968 50.5832 25.968C50.5875 25.968 50.5918 25.968 50.5962 25.968C50.6005 25.968 50.6048 25.968 50.6091 25.968C50.6135 25.968 50.6178 25.968 50.6221 25.968C50.6264 25.968 50.6307 25.968 50.635 25.968C50.6394 25.968 50.6437 25.968 50.648 25.968C50.6523 25.968 50.6566 25.968 50.6609 25.968C50.6652 25.968 50.6695 25.968 50.6738 25.968C50.6781 25.968 50.6824 25.968 50.6867 25.968C50.691 25.968 50.6953 25.968 50.6995 25.968C50.7038 25.968 50.7081 25.968 50.7124 25.968C50.7167 25.968 50.721 25.968 50.7252 25.968C50.7295 25.968 50.7338 25.968 50.7381 25.968C50.7423 25.968 50.7466 25.968 50.7509 25.968C50.7551 25.968 50.7594 25.968 50.7636 25.968C50.7679 25.968 50.7722 25.968 50.7764 25.968C50.7807 25.968 50.7849 25.968 50.7892 25.968C50.7934 25.968 50.7977 25.968 50.8019 25.968C50.8062 25.968 50.8104 25.968 50.8146 25.968C50.8189 25.968 50.8231 25.968 50.8273 25.968C50.8316 25.968 50.8358 25.968 50.84 25.968C50.8443 25.968 50.8485 25.968 50.8527 25.968C50.8569 25.968 50.8611 25.968 50.8654 25.968C50.8696 25.968 50.8738 25.968 50.878 25.968C50.8822 25.968 50.8864 25.968 50.8906 25.968C50.8948 25.968 50.899 25.968 50.9032 25.968C50.9074 25.968 50.9116 25.968 50.9158 25.968C50.92 25.968 50.9242 25.968 50.9284 25.968C50.9326 25.968 50.9368 25.968 50.941 25.968C50.9452 25.968 50.9493 25.968 50.9535 25.968C50.9577 25.968 50.9619 25.968 50.9661 25.968C50.9702 25.968 50.9744 25.968 50.9786 25.968C50.9827 25.968 50.9869 25.968 50.9911 25.968C50.9952 25.968 50.9994 25.968 51.0035 25.968C51.0077 25.968 51.0119 25.968 51.016 25.968C51.0202 25.968 51.0243 25.968 51.0285 25.968C51.0326 25.968 51.0367 25.968 51.0409 25.968C51.045 25.968 51.0492 25.968 51.0533 25.968C51.0574 25.968 51.0616 25.968 51.0657 25.968C51.0698 25.968 51.074 25.968 51.0781 25.968C51.0822 25.968 51.0863 25.968 51.0905 25.968C51.0946 25.968 51.0987 25.968 51.1028 25.968C51.1069 25.968 51.111 25.968 51.1151 25.968C51.1193 25.968 51.1234 25.968 51.1275 25.968C51.1316 25.968 51.1357 25.968 51.1398 25.968C51.1439 25.968 51.148 25.968 51.1521 25.968C51.1562 25.968 51.1602 25.968 51.1643 25.968C51.1684 25.968 51.1725 25.968 51.1766 25.968C51.1807 25.968 51.1848 25.968 51.1888 25.968C51.1929 25.968 51.197 25.968 51.2011 25.968C51.2051 25.968 51.2092 25.968 51.2133 25.968C51.2173 25.968 51.2214 25.968 51.2254 25.968C51.2295 25.968 51.2336 25.968 51.2376 25.968C51.2417 25.968 51.2457 25.968 51.2498 25.968C51.2538 25.968 51.2579 25.968 51.2619 25.968C51.266 25.968 51.27 25.968 51.2741 25.968C51.2781 25.968 51.2821 25.968 51.2862 25.968C51.2902 25.968 51.2942 25.968 51.2983 25.968C51.3023 25.968 51.3063 25.968 51.3103 25.968C51.3144 25.968 51.3184 25.968 51.3224 25.968C51.3264 25.968 51.3304 25.968 51.3344 25.968C51.3385 25.968 51.3425 25.968 51.3465 25.968C51.3505 25.968 51.3545 25.968 51.3585 25.968C51.3625 25.968 51.3665 25.968 51.3705 25.968C51.3745 25.968 51.3785 25.968 51.3825 25.968C51.3865 25.968 51.3904 25.968 51.3944 25.968C51.3984 25.968 51.4024 25.968 51.4064 25.968C51.4104 25.968 51.4143 25.968 51.4183 25.968C51.4223 25.968 51.4263 25.968 51.4302 25.968C51.4342 25.968 51.4382 25.968 51.4421 25.968C51.4461 25.968 51.4501 25.968 51.454 25.968C51.458 25.968 51.4619 25.968 51.4659 25.968C51.4698 25.968 51.4738 25.968 51.4777 25.968C51.4817 25.968 51.4856 25.968 51.4896 25.968C51.4935 25.968 51.4975 25.968 51.5014 25.968C51.5053 25.968 51.5093 25.968 51.5132 25.968C51.5171 25.968 51.5211 25.968 51.525 25.968C51.5289 25.968 51.5328 25.968 51.5368 25.968C51.5407 25.968 51.5446 25.968 51.5485 25.968C51.5524 25.968 51.5563 25.968 51.5603 25.968C51.5642 25.968 51.5681 25.968 51.572 25.968C51.5759 25.968 51.5798 25.968 51.5837 25.968C51.5876 25.968 51.5915 25.968 51.5954 25.968C51.5993 25.968 51.6032 25.968 51.6071 25.968C51.6109 25.968 51.6148 25.968 51.6187 25.968C51.6226 25.968 51.6265 25.968 51.6304 25.968C51.6342 25.968 51.6381 25.968 51.642 25.968C51.6459 25.968 51.6497 25.968 51.6536 25.968C51.6575 25.968 51.6613 25.968 51.6652 25.968C51.6691 25.968 51.6729 25.968 51.6768 25.968C51.6806 25.968 51.6845 25.968 51.6883 25.968C51.6922 25.968 51.696 25.968 51.6999 25.968C51.7037 25.968 51.7076 25.968 51.7114 25.968C51.7153 25.968 51.7191 25.968 51.7229 25.968C51.7268 25.968 51.7306 25.968 51.7344 25.968C51.7383 25.968 51.7421 25.968 51.7459 25.968C51.7497 25.968 51.7536 25.968 51.7574 25.968C51.7612 25.968 51.765 25.968 51.7688 25.968C51.7726 25.968 51.7764 25.968 51.7803 25.968C51.7841 25.968 51.7879 25.968 51.7917 25.968C51.7955 25.968 51.7993 25.968 51.8031 25.968C51.8069 25.968 51.8107 25.968 51.8145 25.968C51.8183 25.968 51.822 25.968 51.8258 25.968C51.8296 25.968 51.8334 25.968 51.8372 25.968C51.841 25.968 51.8447 25.968 51.8485 25.968C51.8523 25.968 51.8561 25.968 51.8598 25.968C51.8636 25.968 51.8674 25.968 51.8711 25.968C51.8749 25.968 51.8787 25.968 51.8824 25.968C51.8862 25.968 51.89 25.968 51.8937 25.968C51.8975 25.968 51.9012 25.968 51.905 25.968C51.9087 25.968 51.9125 25.968 51.9162 25.968C51.92 25.968 51.9237 25.968 51.9274 25.968C51.9312 25.968 51.9349 25.968 51.9386 25.968C51.9424 25.968 51.9461 25.968 51.9498 25.968C51.9536 25.968 51.9573 25.968 51.961 25.968C51.9647 25.968 51.9685 25.968 51.9722 25.968C51.9759 25.968 51.9796 25.968 51.9833 25.968C51.987 25.968 51.9907 25.968 51.9944 25.968C51.9981 25.968 52.0019 25.968 52.0056 25.968C52.0093 25.968 52.013 25.968 52.0166 25.968C52.0203 25.968 52.024 25.968 52.0277 25.968C52.0314 25.968 52.0351 25.968 52.0388 25.968C52.0425 25.968 52.0462 25.968 52.0498 25.968C52.0535 25.968 52.0572 25.968 52.0609 25.968C52.0645 25.968 52.0682 25.968 52.0719 25.968C52.0756 25.968 52.0792 25.968 52.0829 25.968C52.0865 25.968 52.0902 25.968 52.0939 25.968C52.0975 25.968 52.1012 25.968 52.1048 25.968C52.1085 25.968 52.1121 25.968 52.1158 25.968C52.1194 25.968 52.1231 25.968 52.1267 25.968C52.1304 25.968 52.134 25.968 52.1376 25.968C52.1413 25.968 52.1449 25.968 52.1485 25.968C52.1522 25.968 52.1558 25.968 52.1594 25.968C52.163 25.968 52.1667 25.968 52.1703 25.968C52.1739 25.968 52.1775 25.968 52.1811 25.968C52.1848 25.968 52.1884 25.968 52.192 25.968C52.1956 25.968 52.1992 25.968 52.2028 25.968C52.2064 25.968 52.21 25.968 52.2136 25.968C52.2172 25.968 52.2208 25.968 52.2244 25.968C52.228 25.968 52.2316 25.968 52.2352 25.968C52.2388 25.968 52.2423 25.968 52.2459 25.968C52.2495 25.968 52.2531 25.968 52.2567 25.968C52.2602 25.968 52.2638 25.968 52.2674 25.968C52.271 25.968 52.2745 25.968 52.2781 25.968C52.2817 25.968 52.2852 25.968 52.2888 25.968C52.2924 25.968 52.2959 25.968 52.2995 25.968C52.303 25.968 52.3066 25.968 52.3101 25.968C52.3137 25.968 52.3172 25.968 52.3208 25.968C52.3243 25.968 52.3279 25.968 52.3314 25.968C52.3349 25.968 52.3385 25.968 52.342 25.968C52.3456 25.968 52.3491 25.968 52.3526 25.968C52.3561 25.968 52.3597 25.968 52.3632 25.968C52.3667 25.968 52.3702 25.968 52.3738 25.968C52.3773 25.968 52.3808 25.968 52.3843 25.968C52.3878 25.968 52.3913 25.968 52.3948 25.968C52.3983 25.968 52.4018 25.968 52.4054 25.968C52.4089 25.968 52.4124 25.968 52.4159 25.968C52.4193 25.968 52.4228 25.968 52.4263 25.968C52.4298 25.968 52.4333 25.968 52.4368 25.968C52.4403 25.968 52.4438 25.968 52.4473 25.968C52.4507 25.968 52.4542 25.968 52.4577 25.968C52.4612 25.968 52.4646 25.968 52.4681 25.968C52.4716 25.968 52.475 25.968 52.4785 25.968C52.482 25.968 52.4854 25.968 52.4889 25.968C52.4924 25.968 52.4958 25.968 52.4993 25.968C52.5027 25.968 52.5062 25.968 52.5096 25.968C52.5131 25.968 52.5165 25.968 52.52 25.968C52.5234 25.968 52.5268 25.968 52.5303 25.968C52.5337 25.968 52.5372 25.968 52.5406 25.968C52.544 25.968 52.5474 25.968 52.5509 25.968C52.5543 25.968 52.5577 25.968 52.5611 25.968C52.5646 25.968 52.568 25.968 52.5714 25.968C52.5748 25.968 52.5782 25.968 52.5816 25.968C52.5851 25.968 52.5885 25.968 52.5919 25.968C52.5953 25.968 52.5987 25.968 52.6021 25.968C52.6055 25.968 52.6089 25.968 52.6123 25.968C52.6157 25.968 52.6191 25.968 52.6225 25.968C52.6258 25.968 52.6292 25.968 52.6326 25.968C52.636 25.968 52.6394 25.968 52.6428 25.968C52.6461 25.968 52.6495 25.968 52.6529 25.968C52.6563 25.968 52.6596 25.968 52.663 25.968C52.6664 25.968 52.6697 25.968 52.6731 25.968C52.6765 25.968 52.6798 25.968 52.6832 25.968C52.6865 25.968 52.6899 25.968 52.6932 25.968C52.6966 25.968 52.6999 25.968 52.7033 25.968C52.7066 25.968 52.71 25.968 52.7133 25.968C52.7167 25.968 52.72 25.968 52.7233 25.968C52.7267 25.968 52.73 25.968 52.7333 25.968C52.7367 25.968 52.74 25.968 52.7433 25.968C52.7466 25.968 52.75 25.968 52.7533 25.968C52.7566 25.968 52.7599 25.968 52.7632 25.968C52.7666 25.968 52.7699 25.968 52.7732 25.968C52.7765 25.968 52.7798 25.968 52.7831 25.968C52.7864 25.968 52.7897 25.968 52.793 25.968C52.7963 25.968 52.7996 25.968 52.8029 25.968C52.8062 25.968 52.8095 25.968 52.8128 25.968C52.816 25.968 52.8193 25.968 52.8226 25.968C52.8259 25.968 52.8292 25.968 52.8324 25.968C52.8357 25.968 52.839 25.968 52.8423 25.968C52.8455 25.968 52.8488 25.968 52.8521 25.968C52.8553 25.968 52.8586 25.968 52.8619 25.968C52.8651 25.968 52.8684 25.968 52.8716 25.968C52.8749 25.968 52.8781 25.968 52.8814 25.968C52.8846 25.968 52.8879 25.968 52.8911 25.968C52.8944 25.968 52.8976 25.968 52.9009 25.968C52.9041 25.968 52.9073 25.968 52.9106 25.968C52.9138 25.968 52.917 25.968 52.9203 25.968C52.9235 25.968 52.9267 25.968 52.9299 25.968C52.9332 25.968 52.9364 25.968 52.9396 25.968C52.9428 25.968 52.946 25.968 52.9493 25.968C52.9525 25.968 52.9557 25.968 52.9589 25.968C52.9621 25.968 52.9653 25.968 52.9685 25.968C52.9717 25.968 52.9749 25.968 52.9781 25.968C52.9813 25.968 52.9845 25.968 52.9877 25.968C52.9909 25.968 52.9941 25.968 52.9972 25.968C53.0004 25.968 53.0036 25.968 53.0068 25.968C53.01 25.968 53.0131 25.968 53.0163 25.968C53.0195 25.968 53.0227 25.968 53.0258 25.968C53.029 25.968 53.0322 25.968 53.0353 25.968C53.0385 25.968 53.0417 25.968 53.0448 25.968C53.048 25.968 53.0511 25.968 53.0543 25.968C53.0574 25.968 53.0606 25.968 53.0637 25.968C53.0669 25.968 53.07 25.968 53.0732 25.968C53.0763 25.968 53.0795 25.968 53.0826 25.968C53.0857 25.968 53.0889 25.968 53.092 25.968C53.0951 25.968 53.0983 25.968 53.1014 25.968C53.1045 25.968 53.1076 25.968 53.1108 25.968C53.1139 25.968 53.117 25.968 53.1201 25.968C53.1232 25.968 53.1263 25.968 53.1295 25.968C53.1326 25.968 53.1357 25.968 53.1388 25.968C53.1419 25.968 53.145 25.968 53.1481 25.968C53.1512 25.968 53.1543 25.968 53.1574 25.968C53.1605 25.968 53.1636 25.968 53.1666 25.968C53.1697 25.968 53.1728 25.968 53.1759 25.968C53.179 25.968 53.1821 25.968 53.1851 25.968C53.1882 25.968 53.1913 25.968 53.1944 25.968C53.1974 25.968 53.2005 25.968 53.2036 25.968C53.2067 25.968 53.2097 25.968 53.2128 25.968C53.2158 25.968 53.2189 25.968 53.222 25.968C53.225 25.968 53.2281 25.968 53.2311 25.968C53.2342 25.968 53.2372 25.968 53.2403 25.968C53.2433 25.968 53.2464 25.968 53.2494 25.968C53.2524 25.968 53.2555 25.968 53.2585 25.968C53.2615 25.968 53.2646 25.968 53.2676 25.968C53.2706 25.968 53.2737 25.968 53.2767 25.968C53.2797 25.968 53.2827 25.968 53.2858 25.968C53.2888 25.968 53.2918 25.968 53.2948 25.968C53.2978 25.968 53.3008 25.968 53.3038 25.968C53.3068 25.968 53.3098 25.968 53.3129 25.968C53.3159 25.968 53.3189 25.968 53.3219 25.968C53.3248 25.968 53.3278 25.968 53.3308 25.968C53.3338 25.968 53.3368 25.968 53.3398 25.968C53.3428 25.968 53.3458 25.968 53.3488 25.968C53.3517 25.968 53.3547 25.968 53.3577 25.968C53.3607 25.968 53.3636 25.968 53.3666 25.968C53.3696 25.968 53.3726 25.968 53.3755 25.968C53.3785 25.968 53.3814 25.968 53.3844 25.968C53.3874 25.968 53.3903 25.968 53.3933 25.968C53.3962 25.968 53.3992 25.968 53.4021 25.968C53.4051 25.968 53.408 25.968 53.411 25.968C53.4139 25.968 53.4169 25.968 53.4198 25.968C53.4227 25.968 53.4257 25.968 53.4286 25.968C53.4315 25.968 53.4345 25.968 53.4374 25.968C53.4403 25.968 53.4432 25.968 53.4462 25.968C53.4491 25.968 53.452 25.968 53.4549 25.968C53.4578 25.968 53.4608 25.968 53.4637 25.968C53.4666 25.968 53.4695 25.968 53.4724 25.968C53.4753 25.968 53.4782 25.968 53.4811 25.968C53.484 25.968 53.4869 25.968 53.4898 25.968C53.4927 25.968 53.4956 25.968 53.4985 25.968C53.5014 25.968 53.5043 25.968 53.5071 25.968C53.51 25.968 53.5129 25.968 53.5158 25.968C53.5187 25.968 53.5215 25.968 53.5244 25.968C53.5273 25.968 53.5302 25.968 53.533 25.968C53.5359 25.968 53.5388 25.968 53.5416 25.968C53.5445 25.968 53.5474 25.968 53.5502 25.968C53.5531 25.968 53.5559 25.968 53.5588 25.968C53.5616 25.968 53.5645 25.968 53.5673 25.968C53.5702 25.968 53.573 25.968 53.5759 25.968C53.5787 25.968 53.5815 25.968 53.5844 25.968C53.5872 25.968 53.5901 25.968 53.5929 25.968C53.5957 25.968 53.5985 25.968 53.6014 25.968C53.6042 25.968 53.607 25.968 53.6098 25.968C53.6127 25.968 53.6155 25.968 53.6183 25.968C53.6211 25.968 53.6239 25.968 53.6267 25.968C53.6295 25.968 53.6323 25.968 53.6351 25.968C53.638 25.968 53.6408 25.968 53.6436 25.968C53.6464 25.968 53.6491 25.968 53.6519 25.968C53.6547 25.968 53.6575 25.968 53.6603 25.968C53.6631 25.968 53.6659 25.968 53.6687 25.968C53.6715 25.968 53.6742 25.968 53.677 25.968C53.6798 25.968 53.6826 25.968 53.6853 25.968C53.6881 25.968 53.6909 25.968 53.6936 25.968C53.6964 25.968 53.6992 25.968 53.7019 25.968C53.7047 25.968 53.7075 25.968 53.7102 25.968C53.713 25.968 53.7157 25.968 53.7185 25.968C53.7212 25.968 53.724 25.968 53.7267 25.968C53.7295 25.968 53.7322 25.968 53.7349 25.968C53.7377 25.968 53.7404 25.968 53.7431 25.968C53.7459 25.968 53.7486 25.968 53.7513 25.968C53.7541 25.968 53.7568 25.968 53.7595 25.968C53.7622 25.968 53.765 25.968 53.7677 25.968C53.7704 25.968 53.7731 25.968 53.7758 25.968C53.7785 25.968 53.7813 25.968 53.784 25.968C53.7867 25.968 53.7894 25.968 53.7921 25.968C53.7948 25.968 53.7975 25.968 53.8002 25.968C53.8029 25.968 53.8056 25.968 53.8083 25.968C53.8109 25.968 53.8136 25.968 53.8163 25.968C53.819 25.968 53.8217 25.968 53.8244 25.968C53.8271 25.968 53.8297 25.968 53.8324 25.968C53.8351 25.968 53.8378 25.968 53.8404 25.968C53.8431 25.968 53.8458 25.968 53.8484 25.968C53.8511 25.968 53.8538 25.968 53.8564 25.968C53.8591 25.968 53.8617 25.968 53.8644 25.968C53.867 25.968 53.8697 25.968 53.8723 25.968C53.875 25.968 53.8776 25.968 53.8803 25.968C53.8829 25.968 53.8856 25.968 53.8882 25.968C53.8908 25.968 53.8935 25.968 53.8961 25.968C53.8987 25.968 53.9014 25.968 53.904 25.968C53.9066 25.968 53.9092 25.968 53.9119 25.968C53.9145 25.968 53.9171 25.968 53.9197 25.968C53.9223 25.968 53.9249 25.968 53.9276 25.968C53.9302 25.968 53.9328 25.968 53.9354 25.968C53.938 25.968 53.9406 25.968 53.9432 25.968C53.9458 25.968 53.9484 25.968 53.951 25.968C53.9536 25.968 53.9562 25.968 53.9588 25.968C53.9613 25.968 53.9639 25.968 53.9665 25.968C53.9691 25.968 53.9717 25.968 53.9743 25.968C53.9768 25.968 53.9794 25.968 53.982 25.968C53.9846 25.968 53.9871 25.968 53.9897 25.968C53.9923 25.968 53.9948 25.968 53.9974 25.968C54 25.968 54.0025 25.968 54.0051 25.968C54.0076 25.968 54.0102 25.968 54.0127 25.968C54.0153 25.968 54.0178 25.968 54.0204 25.968C54.0229 25.968 54.0255 25.968 54.028 25.968C54.0306 25.968 54.0331 25.968 54.0356 25.968C54.0382 25.968 54.0407 25.968 54.0432 25.968C54.0458 25.968 54.0483 25.968 54.0508 25.968C54.0533 25.968 54.0559 25.968 54.0584 25.968C54.0609 25.968 54.0634 25.968 54.0659 25.968C54.0684 25.968 54.071 25.968 54.0735 25.968C54.076 25.968 54.0785 25.968 54.081 25.968C54.0835 25.968 54.086 25.968 54.0885 25.968C54.091 25.968 54.0935 25.968 54.096 25.968C54.0985 25.968 54.101 25.968 54.1034 25.968C54.1059 25.968 54.1084 25.968 54.1109 25.968C54.1134 25.968 54.1159 25.968 54.1183 25.968C54.1208 25.968 54.1233 25.968 54.1258 25.968C54.1282 25.968 54.1307 25.968 54.1332 25.968C54.1356 25.968 54.1381 25.968 54.1406 25.968C54.143 25.968 54.1455 25.968 54.1479 25.968C54.1504 25.968 54.1528 25.968 54.1553 25.968C54.1577 25.968 54.1602 25.968 54.1626 25.968C54.1651 25.968 54.1675 25.968 54.1699 25.968C54.1724 25.968 54.1748 25.968 54.1773 25.968C54.1797 25.968 54.1821 25.968 54.1846 25.968C54.187 25.968 54.1894 25.968 54.1918 25.968C54.1943 25.968 54.1967 25.968 54.1991 25.968C54.2015 25.968 54.2039 25.968 54.2063 25.968C54.2087 25.968 54.2112 25.968 54.2136 25.968C54.216 25.968 54.2184 25.968 54.2208 25.968C54.2232 25.968 54.2256 25.968 54.228 25.968C54.2304 25.968 54.2328 25.968 54.2351 25.968C54.2375 25.968 54.2399 25.968 54.2423 25.968C54.2447 25.968 54.2471 25.968 54.2495 25.968C54.2518 25.968 54.2542 25.968 54.2566 25.968C54.259 25.968 54.2613 25.968 54.2637 25.968C54.2661 25.968 54.2684 25.968 54.2708 25.968C54.2732 25.968 54.2755 25.968 54.2779 25.968C54.2802 25.968 54.2826 25.968 54.285 25.968C54.2873 25.968 54.2897 25.968 54.292 25.968C54.2944 25.968 54.2967 25.968 54.299 25.968C54.3014 25.968 54.3037 25.968 54.3061 25.968C54.3084 25.968 54.3107 25.968 54.3131 25.968C54.3154 25.968 54.3177 25.968 54.3201 25.968C54.3224 25.968 54.3247 25.968 54.327 25.968C54.3293 25.968 54.3317 25.968 54.334 25.968C54.3363 25.968 54.3386 25.968 54.3409 25.968C54.3432 25.968 54.3455 25.968 54.3478 25.968C54.3501 25.968 54.3524 25.968 54.3547 25.968C54.357 25.968 54.3593 25.968 54.3616 25.968C54.3639 25.968 54.3662 25.968 54.3685 25.968C54.3708 25.968 54.3731 25.968 54.3754 25.968C54.3776 25.968 54.3799 25.968 54.3822 25.968C54.3845 25.968 54.3868 25.968 54.389 25.968C54.3913 25.968 54.3936 25.968 54.3958 25.968C54.3981 25.968 54.4004 25.968 54.4026 25.968C54.4049 25.968 54.4072 25.968 54.4094 25.968C54.4117 25.968 54.4139 25.968 54.4162 25.968C54.4184 25.968 54.4207 25.968 54.4229 25.968C54.4252 25.968 54.4274 25.968 54.4296 25.968C54.4319 25.968 54.4341 25.968 54.4364 25.968C54.4386 25.968 54.4408 25.968 54.4431 25.968C54.4453 25.968 54.4475 25.968 54.4497 25.968C54.452 25.968 54.4542 25.968 54.4564 25.968C54.4586 25.968 54.4608 25.968 54.463 25.968C54.4653 25.968 54.4675 25.968 54.4697 25.968C54.4719 25.968 54.4741 25.968 54.4763 25.968C54.4785 25.968 54.4807 25.968 54.4829 25.968C54.4851 25.968 54.4873 25.968 54.4895 25.968C54.4917 25.968 54.4939 25.968 54.496 25.968C54.4982 25.968 54.5004 25.968 54.5026 25.968C54.5048 25.968 54.507 25.968 54.5091 25.968C54.5113 25.968 54.5135 25.968 54.5157 25.968C54.5178 25.968 54.52 25.968 54.5222 25.968C54.5243 25.968 54.5265 25.968 54.5286 25.968C54.5308 25.968 54.533 25.968 54.5351 25.968C54.5373 25.968 54.5394 25.968 54.5416 25.968C54.5437 25.968 54.5459 25.968 54.548 25.968C54.5502 25.968 54.5523 25.968 54.5544 25.968C54.5566 25.968 54.5587 25.968 54.5608 25.968C54.563 25.968 54.5651 25.968 54.5672 25.968C54.5694 25.968 54.5715 25.968 54.5736 25.968C54.5757 25.968 54.5778 25.968 54.58 25.968C54.5821 25.968 54.5842 25.968 54.5863 25.968C54.5884 25.968 54.5905 25.968 54.5926 25.968C54.5947 25.968 54.5968 25.968 54.5989 25.968C54.601 25.968 54.6031 25.968 54.6052 25.968C54.6073 25.968 54.6094 25.968 54.6115 25.968C54.6136 25.968 54.6157 25.968 54.6178 25.968C54.6199 25.968 54.6219 25.968 54.624 25.968C54.6261 25.968 54.6282 25.968 54.6302 25.968C54.6323 25.968 54.6344 25.968 54.6365 25.968C54.6385 25.968 54.6406 25.968 54.6427 25.968C54.6447 25.968 54.6468 25.968 54.6488 25.968C54.6509 25.968 54.6529 25.968 54.655 25.968C54.6571 25.968 54.6591 25.968 54.6611 25.968C54.6632 25.968 54.6652 25.968 54.6673 25.968C54.6693 25.968 54.6714 25.968 54.6734 25.968C54.6754 25.968 54.6775 25.968 54.6795 25.968C54.6815 25.968 54.6836 25.968 54.6856 25.968C54.6876 25.968 54.6896 25.968 54.6917 25.968C54.6937 25.968 54.6957 25.968 54.6977 25.968C54.6997 25.968 54.7017 25.968 54.7037 25.968C54.7057 25.968 54.7078 25.968 54.7098 25.968C54.7118 25.968 54.7138 25.968 54.7158 25.968C54.7178 25.968 54.7198 25.968 54.7217 25.968C54.7237 25.968 54.7257 25.968 54.7277 25.968C54.7297 25.968 54.7317 25.968 54.7337 25.968C54.7357 25.968 54.7376 25.968 54.7396 25.968C54.7416 25.968 54.7436 25.968 54.7455 25.968C54.7475 25.968 54.7495 25.968 54.7514 25.968C54.7534 25.968 54.7554 25.968 54.7573 25.968C54.7593 25.968 54.7613 25.968 54.7632 25.968C54.7652 25.968 54.7671 25.968 54.7691 25.968C54.771 25.968 54.773 25.968 54.7749 25.968C54.7769 25.968 54.7788 25.968 54.7807 25.968C54.7827 25.968 54.7846 25.968 54.7865 25.968C54.7885 25.968 54.7904 25.968 54.7923 25.968C54.7943 25.968 54.7962 25.968 54.7981 25.968C54.8 25.968 54.802 25.968 54.8039 25.968C54.8058 25.968 54.8077 25.968 54.8096 25.968C54.8115 25.968 54.8135 25.968 54.8154 25.968C54.8173 25.968 54.8192 25.968 54.8211 25.968C54.823 25.968 54.8249 25.968 54.8268 25.968C54.8287 25.968 54.8306 25.968 54.8325 25.968C54.8343 25.968 54.8362 25.968 54.8381 25.968C54.84 25.968 54.8419 25.968 54.8438 25.968C54.8456 25.968 54.8475 25.968 54.8494 25.968V21.968C54.8475 21.968 54.8456 21.968 54.8438 21.968C54.8419 21.968 54.84 21.968 54.8381 21.968C54.8362 21.968 54.8343 21.968 54.8325 21.968C54.8306 21.968 54.8287 21.968 54.8268 21.968C54.8249 21.968 54.823 21.968 54.8211 21.968C54.8192 21.968 54.8173 21.968 54.8154 21.968C54.8135 21.968 54.8115 21.968 54.8096 21.968C54.8077 21.968 54.8058 21.968 54.8039 21.968C54.802 21.968 54.8 21.968 54.7981 21.968C54.7962 21.968 54.7943 21.968 54.7923 21.968C54.7904 21.968 54.7885 21.968 54.7865 21.968C54.7846 21.968 54.7827 21.968 54.7807 21.968C54.7788 21.968 54.7769 21.968 54.7749 21.968C54.773 21.968 54.771 21.968 54.7691 21.968C54.7671 21.968 54.7652 21.968 54.7632 21.968C54.7613 21.968 54.7593 21.968 54.7573 21.968C54.7554 21.968 54.7534 21.968 54.7514 21.968C54.7495 21.968 54.7475 21.968 54.7455 21.968C54.7436 21.968 54.7416 21.968 54.7396 21.968C54.7376 21.968 54.7357 21.968 54.7337 21.968C54.7317 21.968 54.7297 21.968 54.7277 21.968C54.7257 21.968 54.7237 21.968 54.7217 21.968C54.7198 21.968 54.7178 21.968 54.7158 21.968C54.7138 21.968 54.7118 21.968 54.7098 21.968C54.7078 21.968 54.7057 21.968 54.7037 21.968C54.7017 21.968 54.6997 21.968 54.6977 21.968C54.6957 21.968 54.6937 21.968 54.6917 21.968C54.6896 21.968 54.6876 21.968 54.6856 21.968C54.6836 21.968 54.6815 21.968 54.6795 21.968C54.6775 21.968 54.6754 21.968 54.6734 21.968C54.6714 21.968 54.6693 21.968 54.6673 21.968C54.6652 21.968 54.6632 21.968 54.6611 21.968C54.6591 21.968 54.6571 21.968 54.655 21.968C54.6529 21.968 54.6509 21.968 54.6488 21.968C54.6468 21.968 54.6447 21.968 54.6427 21.968C54.6406 21.968 54.6385 21.968 54.6365 21.968C54.6344 21.968 54.6323 21.968 54.6302 21.968C54.6282 21.968 54.6261 21.968 54.624 21.968C54.6219 21.968 54.6199 21.968 54.6178 21.968C54.6157 21.968 54.6136 21.968 54.6115 21.968C54.6094 21.968 54.6073 21.968 54.6052 21.968C54.6031 21.968 54.601 21.968 54.5989 21.968C54.5968 21.968 54.5947 21.968 54.5926 21.968C54.5905 21.968 54.5884 21.968 54.5863 21.968C54.5842 21.968 54.5821 21.968 54.58 21.968C54.5778 21.968 54.5757 21.968 54.5736 21.968C54.5715 21.968 54.5694 21.968 54.5672 21.968C54.5651 21.968 54.563 21.968 54.5608 21.968C54.5587 21.968 54.5566 21.968 54.5544 21.968C54.5523 21.968 54.5502 21.968 54.548 21.968C54.5459 21.968 54.5437 21.968 54.5416 21.968C54.5394 21.968 54.5373 21.968 54.5351 21.968C54.533 21.968 54.5308 21.968 54.5286 21.968C54.5265 21.968 54.5243 21.968 54.5222 21.968C54.52 21.968 54.5178 21.968 54.5157 21.968C54.5135 21.968 54.5113 21.968 54.5091 21.968C54.507 21.968 54.5048 21.968 54.5026 21.968C54.5004 21.968 54.4982 21.968 54.496 21.968C54.4939 21.968 54.4917 21.968 54.4895 21.968C54.4873 21.968 54.4851 21.968 54.4829 21.968C54.4807 21.968 54.4785 21.968 54.4763 21.968C54.4741 21.968 54.4719 21.968 54.4697 21.968C54.4675 21.968 54.4653 21.968 54.463 21.968C54.4608 21.968 54.4586 21.968 54.4564 21.968C54.4542 21.968 54.452 21.968 54.4497 21.968C54.4475 21.968 54.4453 21.968 54.4431 21.968C54.4408 21.968 54.4386 21.968 54.4364 21.968C54.4341 21.968 54.4319 21.968 54.4296 21.968C54.4274 21.968 54.4252 21.968 54.4229 21.968C54.4207 21.968 54.4184 21.968 54.4162 21.968C54.4139 21.968 54.4117 21.968 54.4094 21.968C54.4072 21.968 54.4049 21.968 54.4026 21.968C54.4004 21.968 54.3981 21.968 54.3958 21.968C54.3936 21.968 54.3913 21.968 54.389 21.968C54.3868 21.968 54.3845 21.968 54.3822 21.968C54.3799 21.968 54.3776 21.968 54.3754 21.968C54.3731 21.968 54.3708 21.968 54.3685 21.968C54.3662 21.968 54.3639 21.968 54.3616 21.968C54.3593 21.968 54.357 21.968 54.3547 21.968C54.3524 21.968 54.3501 21.968 54.3478 21.968C54.3455 21.968 54.3432 21.968 54.3409 21.968C54.3386 21.968 54.3363 21.968 54.334 21.968C54.3317 21.968 54.3293 21.968 54.327 21.968C54.3247 21.968 54.3224 21.968 54.3201 21.968C54.3177 21.968 54.3154 21.968 54.3131 21.968C54.3107 21.968 54.3084 21.968 54.3061 21.968C54.3037 21.968 54.3014 21.968 54.299 21.968C54.2967 21.968 54.2944 21.968 54.292 21.968C54.2897 21.968 54.2873 21.968 54.285 21.968C54.2826 21.968 54.2802 21.968 54.2779 21.968C54.2755 21.968 54.2732 21.968 54.2708 21.968C54.2684 21.968 54.2661 21.968 54.2637 21.968C54.2613 21.968 54.259 21.968 54.2566 21.968C54.2542 21.968 54.2518 21.968 54.2495 21.968C54.2471 21.968 54.2447 21.968 54.2423 21.968C54.2399 21.968 54.2375 21.968 54.2351 21.968C54.2328 21.968 54.2304 21.968 54.228 21.968C54.2256 21.968 54.2232 21.968 54.2208 21.968C54.2184 21.968 54.216 21.968 54.2136 21.968C54.2112 21.968 54.2087 21.968 54.2063 21.968C54.2039 21.968 54.2015 21.968 54.1991 21.968C54.1967 21.968 54.1943 21.968 54.1918 21.968C54.1894 21.968 54.187 21.968 54.1846 21.968C54.1821 21.968 54.1797 21.968 54.1773 21.968C54.1748 21.968 54.1724 21.968 54.1699 21.968C54.1675 21.968 54.1651 21.968 54.1626 21.968C54.1602 21.968 54.1577 21.968 54.1553 21.968C54.1528 21.968 54.1504 21.968 54.1479 21.968C54.1455 21.968 54.143 21.968 54.1406 21.968C54.1381 21.968 54.1356 21.968 54.1332 21.968C54.1307 21.968 54.1282 21.968 54.1258 21.968C54.1233 21.968 54.1208 21.968 54.1183 21.968C54.1159 21.968 54.1134 21.968 54.1109 21.968C54.1084 21.968 54.1059 21.968 54.1034 21.968C54.101 21.968 54.0985 21.968 54.096 21.968C54.0935 21.968 54.091 21.968 54.0885 21.968C54.086 21.968 54.0835 21.968 54.081 21.968C54.0785 21.968 54.076 21.968 54.0735 21.968C54.071 21.968 54.0684 21.968 54.0659 21.968C54.0634 21.968 54.0609 21.968 54.0584 21.968C54.0559 21.968 54.0533 21.968 54.0508 21.968C54.0483 21.968 54.0458 21.968 54.0432 21.968C54.0407 21.968 54.0382 21.968 54.0356 21.968C54.0331 21.968 54.0306 21.968 54.028 21.968C54.0255 21.968 54.0229 21.968 54.0204 21.968C54.0178 21.968 54.0153 21.968 54.0127 21.968C54.0102 21.968 54.0076 21.968 54.0051 21.968C54.0025 21.968 54 21.968 53.9974 21.968C53.9948 21.968 53.9923 21.968 53.9897 21.968C53.9871 21.968 53.9846 21.968 53.982 21.968C53.9794 21.968 53.9768 21.968 53.9743 21.968C53.9717 21.968 53.9691 21.968 53.9665 21.968C53.9639 21.968 53.9613 21.968 53.9588 21.968C53.9562 21.968 53.9536 21.968 53.951 21.968C53.9484 21.968 53.9458 21.968 53.9432 21.968C53.9406 21.968 53.938 21.968 53.9354 21.968C53.9328 21.968 53.9302 21.968 53.9276 21.968C53.9249 21.968 53.9223 21.968 53.9197 21.968C53.9171 21.968 53.9145 21.968 53.9119 21.968C53.9092 21.968 53.9066 21.968 53.904 21.968C53.9014 21.968 53.8987 21.968 53.8961 21.968C53.8935 21.968 53.8908 21.968 53.8882 21.968C53.8856 21.968 53.8829 21.968 53.8803 21.968C53.8776 21.968 53.875 21.968 53.8723 21.968C53.8697 21.968 53.867 21.968 53.8644 21.968C53.8617 21.968 53.8591 21.968 53.8564 21.968C53.8538 21.968 53.8511 21.968 53.8484 21.968C53.8458 21.968 53.8431 21.968 53.8404 21.968C53.8378 21.968 53.8351 21.968 53.8324 21.968C53.8297 21.968 53.8271 21.968 53.8244 21.968C53.8217 21.968 53.819 21.968 53.8163 21.968C53.8136 21.968 53.8109 21.968 53.8083 21.968C53.8056 21.968 53.8029 21.968 53.8002 21.968C53.7975 21.968 53.7948 21.968 53.7921 21.968C53.7894 21.968 53.7867 21.968 53.784 21.968C53.7813 21.968 53.7785 21.968 53.7758 21.968C53.7731 21.968 53.7704 21.968 53.7677 21.968C53.765 21.968 53.7622 21.968 53.7595 21.968C53.7568 21.968 53.7541 21.968 53.7513 21.968C53.7486 21.968 53.7459 21.968 53.7431 21.968C53.7404 21.968 53.7377 21.968 53.7349 21.968C53.7322 21.968 53.7295 21.968 53.7267 21.968C53.724 21.968 53.7212 21.968 53.7185 21.968C53.7157 21.968 53.713 21.968 53.7102 21.968C53.7075 21.968 53.7047 21.968 53.7019 21.968C53.6992 21.968 53.6964 21.968 53.6936 21.968C53.6909 21.968 53.6881 21.968 53.6853 21.968C53.6826 21.968 53.6798 21.968 53.677 21.968C53.6742 21.968 53.6715 21.968 53.6687 21.968C53.6659 21.968 53.6631 21.968 53.6603 21.968C53.6575 21.968 53.6547 21.968 53.6519 21.968C53.6491 21.968 53.6464 21.968 53.6436 21.968C53.6408 21.968 53.638 21.968 53.6351 21.968C53.6323 21.968 53.6295 21.968 53.6267 21.968C53.6239 21.968 53.6211 21.968 53.6183 21.968C53.6155 21.968 53.6127 21.968 53.6098 21.968C53.607 21.968 53.6042 21.968 53.6014 21.968C53.5985 21.968 53.5957 21.968 53.5929 21.968C53.5901 21.968 53.5872 21.968 53.5844 21.968C53.5815 21.968 53.5787 21.968 53.5759 21.968C53.573 21.968 53.5702 21.968 53.5673 21.968C53.5645 21.968 53.5616 21.968 53.5588 21.968C53.5559 21.968 53.5531 21.968 53.5502 21.968C53.5474 21.968 53.5445 21.968 53.5416 21.968C53.5388 21.968 53.5359 21.968 53.533 21.968C53.5302 21.968 53.5273 21.968 53.5244 21.968C53.5215 21.968 53.5187 21.968 53.5158 21.968C53.5129 21.968 53.51 21.968 53.5071 21.968C53.5043 21.968 53.5014 21.968 53.4985 21.968C53.4956 21.968 53.4927 21.968 53.4898 21.968C53.4869 21.968 53.484 21.968 53.4811 21.968C53.4782 21.968 53.4753 21.968 53.4724 21.968C53.4695 21.968 53.4666 21.968 53.4637 21.968C53.4608 21.968 53.4578 21.968 53.4549 21.968C53.452 21.968 53.4491 21.968 53.4462 21.968C53.4432 21.968 53.4403 21.968 53.4374 21.968C53.4345 21.968 53.4315 21.968 53.4286 21.968C53.4257 21.968 53.4227 21.968 53.4198 21.968C53.4169 21.968 53.4139 21.968 53.411 21.968C53.408 21.968 53.4051 21.968 53.4021 21.968C53.3992 21.968 53.3962 21.968 53.3933 21.968C53.3903 21.968 53.3874 21.968 53.3844 21.968C53.3814 21.968 53.3785 21.968 53.3755 21.968C53.3726 21.968 53.3696 21.968 53.3666 21.968C53.3636 21.968 53.3607 21.968 53.3577 21.968C53.3547 21.968 53.3517 21.968 53.3488 21.968C53.3458 21.968 53.3428 21.968 53.3398 21.968C53.3368 21.968 53.3338 21.968 53.3308 21.968C53.3278 21.968 53.3248 21.968 53.3219 21.968C53.3189 21.968 53.3159 21.968 53.3129 21.968C53.3098 21.968 53.3068 21.968 53.3038 21.968C53.3008 21.968 53.2978 21.968 53.2948 21.968C53.2918 21.968 53.2888 21.968 53.2858 21.968C53.2827 21.968 53.2797 21.968 53.2767 21.968C53.2737 21.968 53.2706 21.968 53.2676 21.968C53.2646 21.968 53.2615 21.968 53.2585 21.968C53.2555 21.968 53.2524 21.968 53.2494 21.968C53.2464 21.968 53.2433 21.968 53.2403 21.968C53.2372 21.968 53.2342 21.968 53.2311 21.968C53.2281 21.968 53.225 21.968 53.222 21.968C53.2189 21.968 53.2158 21.968 53.2128 21.968C53.2097 21.968 53.2067 21.968 53.2036 21.968C53.2005 21.968 53.1974 21.968 53.1944 21.968C53.1913 21.968 53.1882 21.968 53.1851 21.968C53.1821 21.968 53.179 21.968 53.1759 21.968C53.1728 21.968 53.1697 21.968 53.1666 21.968C53.1636 21.968 53.1605 21.968 53.1574 21.968C53.1543 21.968 53.1512 21.968 53.1481 21.968C53.145 21.968 53.1419 21.968 53.1388 21.968C53.1357 21.968 53.1326 21.968 53.1295 21.968C53.1263 21.968 53.1232 21.968 53.1201 21.968C53.117 21.968 53.1139 21.968 53.1108 21.968C53.1076 21.968 53.1045 21.968 53.1014 21.968C53.0983 21.968 53.0951 21.968 53.092 21.968C53.0889 21.968 53.0857 21.968 53.0826 21.968C53.0795 21.968 53.0763 21.968 53.0732 21.968C53.07 21.968 53.0669 21.968 53.0637 21.968C53.0606 21.968 53.0574 21.968 53.0543 21.968C53.0511 21.968 53.048 21.968 53.0448 21.968C53.0417 21.968 53.0385 21.968 53.0353 21.968C53.0322 21.968 53.029 21.968 53.0258 21.968C53.0227 21.968 53.0195 21.968 53.0163 21.968C53.0131 21.968 53.01 21.968 53.0068 21.968C53.0036 21.968 53.0004 21.968 52.9972 21.968C52.9941 21.968 52.9909 21.968 52.9877 21.968C52.9845 21.968 52.9813 21.968 52.9781 21.968C52.9749 21.968 52.9717 21.968 52.9685 21.968C52.9653 21.968 52.9621 21.968 52.9589 21.968C52.9557 21.968 52.9525 21.968 52.9493 21.968C52.946 21.968 52.9428 21.968 52.9396 21.968C52.9364 21.968 52.9332 21.968 52.9299 21.968C52.9267 21.968 52.9235 21.968 52.9203 21.968C52.917 21.968 52.9138 21.968 52.9106 21.968C52.9073 21.968 52.9041 21.968 52.9009 21.968C52.8976 21.968 52.8944 21.968 52.8911 21.968C52.8879 21.968 52.8846 21.968 52.8814 21.968C52.8781 21.968 52.8749 21.968 52.8716 21.968C52.8684 21.968 52.8651 21.968 52.8619 21.968C52.8586 21.968 52.8553 21.968 52.8521 21.968C52.8488 21.968 52.8455 21.968 52.8423 21.968C52.839 21.968 52.8357 21.968 52.8324 21.968C52.8292 21.968 52.8259 21.968 52.8226 21.968C52.8193 21.968 52.816 21.968 52.8128 21.968C52.8095 21.968 52.8062 21.968 52.8029 21.968C52.7996 21.968 52.7963 21.968 52.793 21.968C52.7897 21.968 52.7864 21.968 52.7831 21.968C52.7798 21.968 52.7765 21.968 52.7732 21.968C52.7699 21.968 52.7666 21.968 52.7632 21.968C52.7599 21.968 52.7566 21.968 52.7533 21.968C52.75 21.968 52.7466 21.968 52.7433 21.968C52.74 21.968 52.7367 21.968 52.7333 21.968C52.73 21.968 52.7267 21.968 52.7233 21.968C52.72 21.968 52.7167 21.968 52.7133 21.968C52.71 21.968 52.7066 21.968 52.7033 21.968C52.6999 21.968 52.6966 21.968 52.6932 21.968C52.6899 21.968 52.6865 21.968 52.6832 21.968C52.6798 21.968 52.6765 21.968 52.6731 21.968C52.6697 21.968 52.6664 21.968 52.663 21.968C52.6596 21.968 52.6563 21.968 52.6529 21.968C52.6495 21.968 52.6461 21.968 52.6428 21.968C52.6394 21.968 52.636 21.968 52.6326 21.968C52.6292 21.968 52.6258 21.968 52.6225 21.968C52.6191 21.968 52.6157 21.968 52.6123 21.968C52.6089 21.968 52.6055 21.968 52.6021 21.968C52.5987 21.968 52.5953 21.968 52.5919 21.968C52.5885 21.968 52.5851 21.968 52.5816 21.968C52.5782 21.968 52.5748 21.968 52.5714 21.968C52.568 21.968 52.5646 21.968 52.5611 21.968C52.5577 21.968 52.5543 21.968 52.5509 21.968C52.5474 21.968 52.544 21.968 52.5406 21.968C52.5372 21.968 52.5337 21.968 52.5303 21.968C52.5268 21.968 52.5234 21.968 52.52 21.968C52.5165 21.968 52.5131 21.968 52.5096 21.968C52.5062 21.968 52.5027 21.968 52.4993 21.968C52.4958 21.968 52.4924 21.968 52.4889 21.968C52.4854 21.968 52.482 21.968 52.4785 21.968C52.475 21.968 52.4716 21.968 52.4681 21.968C52.4646 21.968 52.4612 21.968 52.4577 21.968C52.4542 21.968 52.4507 21.968 52.4473 21.968C52.4438 21.968 52.4403 21.968 52.4368 21.968C52.4333 21.968 52.4298 21.968 52.4263 21.968C52.4228 21.968 52.4193 21.968 52.4159 21.968C52.4124 21.968 52.4089 21.968 52.4054 21.968C52.4018 21.968 52.3983 21.968 52.3948 21.968C52.3913 21.968 52.3878 21.968 52.3843 21.968C52.3808 21.968 52.3773 21.968 52.3738 21.968C52.3702 21.968 52.3667 21.968 52.3632 21.968C52.3597 21.968 52.3561 21.968 52.3526 21.968C52.3491 21.968 52.3456 21.968 52.342 21.968C52.3385 21.968 52.3349 21.968 52.3314 21.968C52.3279 21.968 52.3243 21.968 52.3208 21.968C52.3172 21.968 52.3137 21.968 52.3101 21.968C52.3066 21.968 52.303 21.968 52.2995 21.968C52.2959 21.968 52.2924 21.968 52.2888 21.968C52.2852 21.968 52.2817 21.968 52.2781 21.968C52.2745 21.968 52.271 21.968 52.2674 21.968C52.2638 21.968 52.2602 21.968 52.2567 21.968C52.2531 21.968 52.2495 21.968 52.2459 21.968C52.2423 21.968 52.2388 21.968 52.2352 21.968C52.2316 21.968 52.228 21.968 52.2244 21.968C52.2208 21.968 52.2172 21.968 52.2136 21.968C52.21 21.968 52.2064 21.968 52.2028 21.968C52.1992 21.968 52.1956 21.968 52.192 21.968C52.1884 21.968 52.1848 21.968 52.1811 21.968C52.1775 21.968 52.1739 21.968 52.1703 21.968C52.1667 21.968 52.163 21.968 52.1594 21.968C52.1558 21.968 52.1522 21.968 52.1485 21.968C52.1449 21.968 52.1413 21.968 52.1376 21.968C52.134 21.968 52.1304 21.968 52.1267 21.968C52.1231 21.968 52.1194 21.968 52.1158 21.968C52.1121 21.968 52.1085 21.968 52.1048 21.968C52.1012 21.968 52.0975 21.968 52.0939 21.968C52.0902 21.968 52.0865 21.968 52.0829 21.968C52.0792 21.968 52.0756 21.968 52.0719 21.968C52.0682 21.968 52.0645 21.968 52.0609 21.968C52.0572 21.968 52.0535 21.968 52.0498 21.968C52.0462 21.968 52.0425 21.968 52.0388 21.968C52.0351 21.968 52.0314 21.968 52.0277 21.968C52.024 21.968 52.0203 21.968 52.0166 21.968C52.013 21.968 52.0093 21.968 52.0056 21.968C52.0019 21.968 51.9981 21.968 51.9944 21.968C51.9907 21.968 51.987 21.968 51.9833 21.968C51.9796 21.968 51.9759 21.968 51.9722 21.968C51.9685 21.968 51.9647 21.968 51.961 21.968C51.9573 21.968 51.9536 21.968 51.9498 21.968C51.9461 21.968 51.9424 21.968 51.9386 21.968C51.9349 21.968 51.9312 21.968 51.9274 21.968C51.9237 21.968 51.92 21.968 51.9162 21.968C51.9125 21.968 51.9087 21.968 51.905 21.968C51.9012 21.968 51.8975 21.968 51.8937 21.968C51.89 21.968 51.8862 21.968 51.8824 21.968C51.8787 21.968 51.8749 21.968 51.8711 21.968C51.8674 21.968 51.8636 21.968 51.8598 21.968C51.8561 21.968 51.8523 21.968 51.8485 21.968C51.8447 21.968 51.841 21.968 51.8372 21.968C51.8334 21.968 51.8296 21.968 51.8258 21.968C51.822 21.968 51.8183 21.968 51.8145 21.968C51.8107 21.968 51.8069 21.968 51.8031 21.968C51.7993 21.968 51.7955 21.968 51.7917 21.968C51.7879 21.968 51.7841 21.968 51.7803 21.968C51.7764 21.968 51.7726 21.968 51.7688 21.968C51.765 21.968 51.7612 21.968 51.7574 21.968C51.7536 21.968 51.7497 21.968 51.7459 21.968C51.7421 21.968 51.7383 21.968 51.7344 21.968C51.7306 21.968 51.7268 21.968 51.7229 21.968C51.7191 21.968 51.7153 21.968 51.7114 21.968C51.7076 21.968 51.7037 21.968 51.6999 21.968C51.696 21.968 51.6922 21.968 51.6883 21.968C51.6845 21.968 51.6806 21.968 51.6768 21.968C51.6729 21.968 51.6691 21.968 51.6652 21.968C51.6613 21.968 51.6575 21.968 51.6536 21.968C51.6497 21.968 51.6459 21.968 51.642 21.968C51.6381 21.968 51.6342 21.968 51.6304 21.968C51.6265 21.968 51.6226 21.968 51.6187 21.968C51.6148 21.968 51.6109 21.968 51.6071 21.968C51.6032 21.968 51.5993 21.968 51.5954 21.968C51.5915 21.968 51.5876 21.968 51.5837 21.968C51.5798 21.968 51.5759 21.968 51.572 21.968C51.5681 21.968 51.5642 21.968 51.5603 21.968C51.5563 21.968 51.5524 21.968 51.5485 21.968C51.5446 21.968 51.5407 21.968 51.5368 21.968C51.5328 21.968 51.5289 21.968 51.525 21.968C51.5211 21.968 51.5171 21.968 51.5132 21.968C51.5093 21.968 51.5053 21.968 51.5014 21.968C51.4975 21.968 51.4935 21.968 51.4896 21.968C51.4856 21.968 51.4817 21.968 51.4777 21.968C51.4738 21.968 51.4698 21.968 51.4659 21.968C51.4619 21.968 51.458 21.968 51.454 21.968C51.4501 21.968 51.4461 21.968 51.4421 21.968C51.4382 21.968 51.4342 21.968 51.4302 21.968C51.4263 21.968 51.4223 21.968 51.4183 21.968C51.4143 21.968 51.4104 21.968 51.4064 21.968C51.4024 21.968 51.3984 21.968 51.3944 21.968C51.3904 21.968 51.3865 21.968 51.3825 21.968C51.3785 21.968 51.3745 21.968 51.3705 21.968C51.3665 21.968 51.3625 21.968 51.3585 21.968C51.3545 21.968 51.3505 21.968 51.3465 21.968C51.3425 21.968 51.3385 21.968 51.3344 21.968C51.3304 21.968 51.3264 21.968 51.3224 21.968C51.3184 21.968 51.3144 21.968 51.3103 21.968C51.3063 21.968 51.3023 21.968 51.2983 21.968C51.2942 21.968 51.2902 21.968 51.2862 21.968C51.2821 21.968 51.2781 21.968 51.2741 21.968C51.27 21.968 51.266 21.968 51.2619 21.968C51.2579 21.968 51.2538 21.968 51.2498 21.968C51.2457 21.968 51.2417 21.968 51.2376 21.968C51.2336 21.968 51.2295 21.968 51.2254 21.968C51.2214 21.968 51.2173 21.968 51.2133 21.968C51.2092 21.968 51.2051 21.968 51.2011 21.968C51.197 21.968 51.1929 21.968 51.1888 21.968C51.1848 21.968 51.1807 21.968 51.1766 21.968C51.1725 21.968 51.1684 21.968 51.1643 21.968C51.1602 21.968 51.1562 21.968 51.1521 21.968C51.148 21.968 51.1439 21.968 51.1398 21.968C51.1357 21.968 51.1316 21.968 51.1275 21.968C51.1234 21.968 51.1193 21.968 51.1151 21.968C51.111 21.968 51.1069 21.968 51.1028 21.968C51.0987 21.968 51.0946 21.968 51.0905 21.968C51.0863 21.968 51.0822 21.968 51.0781 21.968C51.074 21.968 51.0698 21.968 51.0657 21.968C51.0616 21.968 51.0574 21.968 51.0533 21.968C51.0492 21.968 51.045 21.968 51.0409 21.968C51.0367 21.968 51.0326 21.968 51.0285 21.968C51.0243 21.968 51.0202 21.968 51.016 21.968C51.0119 21.968 51.0077 21.968 51.0035 21.968C50.9994 21.968 50.9952 21.968 50.9911 21.968C50.9869 21.968 50.9827 21.968 50.9786 21.968C50.9744 21.968 50.9702 21.968 50.9661 21.968C50.9619 21.968 50.9577 21.968 50.9535 21.968C50.9493 21.968 50.9452 21.968 50.941 21.968C50.9368 21.968 50.9326 21.968 50.9284 21.968C50.9242 21.968 50.92 21.968 50.9158 21.968C50.9116 21.968 50.9074 21.968 50.9032 21.968C50.899 21.968 50.8948 21.968 50.8906 21.968C50.8864 21.968 50.8822 21.968 50.878 21.968C50.8738 21.968 50.8696 21.968 50.8654 21.968C50.8611 21.968 50.8569 21.968 50.8527 21.968C50.8485 21.968 50.8443 21.968 50.84 21.968C50.8358 21.968 50.8316 21.968 50.8273 21.968C50.8231 21.968 50.8189 21.968 50.8146 21.968C50.8104 21.968 50.8062 21.968 50.8019 21.968C50.7977 21.968 50.7934 21.968 50.7892 21.968C50.7849 21.968 50.7807 21.968 50.7764 21.968C50.7722 21.968 50.7679 21.968 50.7636 21.968C50.7594 21.968 50.7551 21.968 50.7509 21.968C50.7466 21.968 50.7423 21.968 50.7381 21.968C50.7338 21.968 50.7295 21.968 50.7252 21.968C50.721 21.968 50.7167 21.968 50.7124 21.968C50.7081 21.968 50.7038 21.968 50.6995 21.968C50.6953 21.968 50.691 21.968 50.6867 21.968C50.6824 21.968 50.6781 21.968 50.6738 21.968C50.6695 21.968 50.6652 21.968 50.6609 21.968C50.6566 21.968 50.6523 21.968 50.648 21.968C50.6437 21.968 50.6394 21.968 50.635 21.968C50.6307 21.968 50.6264 21.968 50.6221 21.968C50.6178 21.968 50.6135 21.968 50.6091 21.968C50.6048 21.968 50.6005 21.968 50.5962 21.968C50.5918 21.968 50.5875 21.968 50.5832 21.968C50.5788 21.968 50.5745 21.968 50.5701 21.968C50.5658 21.968 50.5615 21.968 50.5571 21.968C50.5528 21.968 50.5484 21.968 50.5441 21.968C50.5397 21.968 50.5354 21.968 50.531 21.968C50.5267 21.968 50.5223 21.968 50.5179 21.968C50.5136 21.968 50.5092 21.968 50.5048 21.968C50.5005 21.968 50.4961 21.968 50.4917 21.968C50.4874 21.968 50.483 21.968 50.4786 21.968C50.4742 21.968 50.4698 21.968 50.4655 21.968C50.4611 21.968 50.4567 21.968 50.4523 21.968C50.4479 21.968 50.4435 21.968 50.4391 21.968C50.4347 21.968 50.4303 21.968 50.4259 21.968C50.4215 21.968 50.4171 21.968 50.4127 21.968C50.4083 21.968 50.4039 21.968 50.3995 21.968C50.3951 21.968 50.3907 21.968 50.3863 21.968C50.3819 21.968 50.3774 21.968 50.373 21.968C50.3686 21.968 50.3642 21.968 50.3597 21.968C50.3553 21.968 50.3509 21.968 50.3465 21.968C50.342 21.968 50.3376 21.968 50.3332 21.968C50.3287 21.968 50.3243 21.968 50.3198 21.968C50.3154 21.968 50.3109 21.968 50.3065 21.968C50.3021 21.968 50.2976 21.968 50.2931 21.968C50.2887 21.968 50.2842 21.968 50.2798 21.968C50.2753 21.968 50.2709 21.968 50.2664 21.968C50.2619 21.968 50.2575 21.968 50.253 21.968C50.2485 21.968 50.2441 21.968 50.2396 21.968C50.2351 21.968 50.2306 21.968 50.2262 21.968C50.2217 21.968 50.2172 21.968 50.2127 21.968C50.2082 21.968 50.2037 21.968 50.1992 21.968C50.1947 21.968 50.1903 21.968 50.1858 21.968C50.1813 21.968 50.1768 21.968 50.1723 21.968C50.1678 21.968 50.1633 21.968 50.1587 21.968C50.1542 21.968 50.1497 21.968 50.1452 21.968C50.1407 21.968 50.1362 21.968 50.1317 21.968C50.1272 21.968 50.1226 21.968 50.1181 21.968C50.1136 21.968 50.1091 21.968 50.1045 21.968C50.1 21.968 50.0955 21.968 50.0909 21.968C50.0864 21.968 50.0819 21.968 50.0773 21.968C50.0728 21.968 50.0683 21.968 50.0637 21.968C50.0592 21.968 50.0546 21.968 50.0501 21.968C50.0455 21.968 50.041 21.968 50.0364 21.968C50.0319 21.968 50.0273 21.968 50.0227 21.968C50.0182 21.968 50.0136 21.968 50.009 21.968C50.0045 21.968 49.9999 21.968 49.9953 21.968C49.9908 21.968 49.9862 21.968 49.9816 21.968C49.977 21.968 49.9725 21.968 49.9679 21.968C49.9633 21.968 49.9587 21.968 49.9541 21.968C49.9495 21.968 49.945 21.968 49.9404 21.968C49.9358 21.968 49.9312 21.968 49.9266 21.968C49.922 21.968 49.9174 21.968 49.9128 21.968C49.9082 21.968 49.9036 21.968 49.899 21.968C49.8943 21.968 49.8897 21.968 49.8851 21.968C49.8805 21.968 49.8759 21.968 49.8713 21.968C49.8666 21.968 49.862 21.968 49.8574 21.968V25.968ZM54.8494 25.968C57.1192 25.968 58.9178 26.1612 60.2877 26.5071C61.6682 26.8557 62.4833 27.3264 62.9392 27.7822L65.7676 24.9538C64.6235 23.8096 63.0546 23.0803 61.2671 22.6289C59.469 22.1748 57.3156 21.968 54.8494 21.968V25.968ZM62.9968 27.8376C64.0362 28.797 64.8494 30.8012 64.8494 34.528H68.8494C68.8494 30.4468 67.9986 27.011 65.71 24.8984L62.9968 27.8376ZM64.8494 34.5329L64.9454 73.5089L68.9454 73.4991L68.8494 34.5231L64.8494 34.5329Z" fill="#065789" mask="url(#path-5-outside-1_604_28)" />
    <mask id="path-7-outside-2_604_28" maskUnits="userSpaceOnUse" x="103.393" y="44.0711" width="77.17" height="85.5922" fill="black">
        <rect fill="white" x="103.393" y="44.0711" width="77.17" height="85.5922" />
        <path d="M141.713 102.136L151.511 106.325C156.454 108.438 157.743 112.261 155.379 117.793C154.045 120.912 152.295 122.808 150.127 123.482C148.044 124.123 145.001 123.588 140.999 121.877L117.078 111.65C112.958 109.889 110.36 108.152 109.283 106.438C108.29 104.691 108.561 102.023 110.095 98.433C110.599 97.256 111.144 96.306 111.732 95.5827C112.344 94.8006 113.15 94.136 114.15 93.5889C115.15 93.0418 116.372 92.6247 117.817 92.3377C121.901 91.5778 125.131 90.9405 127.509 90.4257C129.887 89.911 132.231 89.3123 134.541 88.6295C136.936 87.9131 138.759 87.2308 140.01 86.5826C141.287 85.8756 142.526 85.0131 143.726 83.9952C144.986 83.0025 145.981 81.8965 146.711 80.6774C147.5 79.4833 148.272 78.0036 149.026 76.2382C150.435 72.9427 150.11 70.8547 148.05 69.9742C145.814 69.0181 143.866 70.4821 142.205 74.366C141.274 76.5434 139.964 77.6538 138.275 77.6973C136.586 77.7408 134.359 77.1714 131.593 75.9889C127.827 74.3788 125.619 72.4605 124.97 70.2341C124.38 68.0329 124.902 65.0197 126.538 61.1946C128.173 57.3695 131.326 54.9591 135.998 53.9633C140.753 52.9339 146.368 53.8029 152.841 56.5704C168.848 63.4135 174.247 72.9258 169.039 85.1073C167.831 87.932 166.401 90.3829 164.747 92.4601C163.119 94.4784 161.494 96.0807 159.873 97.267C158.277 98.3945 156.354 99.3122 154.102 100.02C151.91 100.753 149.918 101.259 148.129 101.538C146.339 101.817 144.2 102.016 141.713 102.136Z" />
    </mask>
    <path d="M141.713 102.136L151.511 106.325C156.454 108.438 157.743 112.261 155.379 117.793C154.045 120.912 152.295 122.808 150.127 123.482C148.044 124.123 145.001 123.588 140.999 121.877L117.078 111.65C112.958 109.889 110.36 108.152 109.283 106.438C108.29 104.691 108.561 102.023 110.095 98.433C110.599 97.256 111.144 96.306 111.732 95.5827C112.344 94.8006 113.15 94.136 114.15 93.5889C115.15 93.0418 116.372 92.6247 117.817 92.3377C121.901 91.5778 125.131 90.9405 127.509 90.4257C129.887 89.911 132.231 89.3123 134.541 88.6295C136.936 87.9131 138.759 87.2308 140.01 86.5826C141.287 85.8756 142.526 85.0131 143.726 83.9952C144.986 83.0025 145.981 81.8965 146.711 80.6774C147.5 79.4833 148.272 78.0036 149.026 76.2382C150.435 72.9427 150.11 70.8547 148.05 69.9742C145.814 69.0181 143.866 70.4821 142.205 74.366C141.274 76.5434 139.964 77.6538 138.275 77.6973C136.586 77.7408 134.359 77.1714 131.593 75.9889C127.827 74.3788 125.619 72.4605 124.97 70.2341C124.38 68.0329 124.902 65.0197 126.538 61.1946C128.173 57.3695 131.326 54.9591 135.998 53.9633C140.753 52.9339 146.368 53.8029 152.841 56.5704C168.848 63.4135 174.247 72.9258 169.039 85.1073C167.831 87.932 166.401 90.3829 164.747 92.4601C163.119 94.4784 161.494 96.0807 159.873 97.267C158.277 98.3945 156.354 99.3122 154.102 100.02C151.91 100.753 149.918 101.259 148.129 101.538C146.339 101.817 144.2 102.016 141.713 102.136Z" fill="#AFD2A4" />
    <path d="M141.713 102.136L141.617 100.139L140.927 103.975L141.713 102.136ZM150.127 123.482L150.715 125.394L150.721 125.392L150.127 123.482ZM109.283 106.438L107.544 107.427L107.566 107.465L107.59 107.503L109.283 106.438ZM111.732 95.5827L113.284 96.8439L113.295 96.8302L113.306 96.8162L111.732 95.5827ZM114.15 93.5889L115.11 95.3433L115.11 95.3433L114.15 93.5889ZM117.817 92.3377L117.451 90.3715L117.439 90.3737L117.427 90.376L117.817 92.3377ZM127.509 90.4257L127.932 92.3805L127.932 92.3805L127.509 90.4257ZM134.541 88.6295L135.108 90.5476L135.114 90.5456L134.541 88.6295ZM140.01 86.5826L140.93 88.3586L140.955 88.3458L140.979 88.3322L140.01 86.5826ZM143.726 83.9952L142.488 82.4244L142.46 82.4465L142.433 82.4696L143.726 83.9952ZM146.711 80.6774L145.042 79.5749L145.018 79.6118L144.995 79.6499L146.711 80.6774ZM124.97 70.2341L123.038 70.7521L123.044 70.773L123.05 70.7939L124.97 70.2341ZM135.998 53.9633L136.415 55.9194L136.421 55.9181L135.998 53.9633ZM164.747 92.4601L166.304 93.716L166.312 93.7057L164.747 92.4601ZM159.873 97.267L161.027 98.9004L161.041 98.8908L161.054 98.8809L159.873 97.267ZM154.102 100.02L153.502 98.1122L153.485 98.1176L153.468 98.1233L154.102 100.02ZM148.129 101.538L148.437 103.514L148.437 103.514L148.129 101.538ZM140.927 103.975L150.725 108.164L152.297 104.486L142.499 100.297L140.927 103.975ZM150.725 108.164C152.856 109.075 153.883 110.208 154.29 111.416C154.716 112.679 154.621 114.476 153.54 117.006L157.218 118.579C158.501 115.577 158.944 112.698 158.081 110.138C157.199 107.523 155.109 105.688 152.297 104.486L150.725 108.164ZM153.54 117.006C152.321 119.857 150.911 121.144 149.533 121.573L150.721 125.392C153.679 124.472 155.769 121.966 157.218 118.579L153.54 117.006ZM149.539 121.571C148.182 121.988 145.72 121.72 141.786 120.038L140.213 123.716C144.282 125.455 147.905 126.258 150.715 125.394L149.539 121.571ZM141.786 120.038L117.864 109.811L116.292 113.489L140.213 123.716L141.786 120.038ZM117.864 109.811C115.874 108.96 114.314 108.141 113.151 107.364C111.972 106.575 111.306 105.898 110.976 105.374L107.59 107.503C108.337 108.691 109.509 109.74 110.928 110.689C112.363 111.649 114.163 112.579 116.292 113.489L117.864 109.811ZM111.022 105.45C110.532 104.588 110.432 102.732 111.934 99.2192L108.256 97.6468C106.689 101.313 106.048 104.795 107.544 107.427L111.022 105.45ZM111.934 99.2192C112.39 98.1543 112.848 97.3805 113.284 96.8439L110.179 94.3216C109.44 95.2314 108.807 96.3578 108.256 97.6468L111.934 99.2192ZM113.306 96.8162C113.729 96.2767 114.314 95.7792 115.11 95.3433L113.19 91.8345C111.987 92.4929 110.96 93.3246 110.157 94.3492L113.306 96.8162ZM115.11 95.3433C115.888 94.9177 116.906 94.5577 118.207 94.2994L117.427 90.376C115.838 90.6917 114.411 91.1659 113.19 91.8345L115.11 95.3433ZM118.183 94.304C122.274 93.5426 125.527 92.9012 127.932 92.3805L127.086 88.471C124.736 88.9798 121.527 89.613 117.451 90.3715L118.183 94.304ZM127.932 92.3805C130.358 91.8554 132.75 91.2444 135.108 90.5476L133.974 86.7115C131.712 87.3801 129.416 87.9666 127.086 88.471L127.932 92.3805ZM135.114 90.5456C137.552 89.8163 139.514 89.0919 140.93 88.3586L139.09 84.8067C138.003 85.3697 136.319 86.01 133.968 86.7135L135.114 90.5456ZM140.979 88.3322C142.38 87.5566 143.726 86.6173 145.02 85.5208L142.433 82.4696C141.325 83.4089 140.194 84.1945 139.041 84.833L140.979 88.3322ZM144.964 85.566C146.391 84.442 147.557 83.1577 148.427 81.7048L144.995 79.6499C144.405 80.6353 143.581 81.563 142.488 82.4244L144.964 85.566ZM148.38 81.7798C149.253 80.4585 150.078 78.8654 150.865 77.0244L147.187 75.452C146.465 77.1418 145.747 78.5082 145.042 79.5749L148.38 81.7798ZM150.865 77.0244C151.626 75.2446 152.063 73.4833 151.815 71.8926C151.539 70.1194 150.454 68.8269 148.836 68.1352L147.264 71.8131C147.706 72.002 147.814 72.1938 147.863 72.5085C147.94 73.0059 147.835 73.9363 147.187 75.452L150.865 77.0244ZM148.836 68.1352C147.059 67.3752 145.255 67.5956 143.71 68.7562C142.32 69.8013 141.246 71.5216 140.366 73.5798L144.044 75.1522C144.825 73.3265 145.556 72.3729 146.113 71.954C146.517 71.6507 146.805 71.6171 147.264 71.8131L148.836 68.1352ZM140.366 73.5798C139.599 75.3748 138.821 75.6826 138.224 75.698L138.327 79.6967C141.107 79.625 142.95 77.712 144.044 75.1522L140.366 73.5798ZM138.224 75.698C136.966 75.7304 135.055 75.2941 132.379 74.1499L130.807 77.8279C133.662 79.0486 136.207 79.7513 138.327 79.6967L138.224 75.698ZM132.379 74.1499C128.763 72.6038 127.279 71.0092 126.89 69.6743L123.05 70.7939C123.959 73.9117 126.891 76.1538 130.807 77.8279L132.379 74.1499ZM126.902 69.7161C126.49 68.1818 126.79 65.6927 128.377 61.9808L124.699 60.4084C123.015 64.3467 122.269 67.8839 123.038 70.7521L126.902 69.7161ZM128.377 61.9808C129.716 58.849 132.271 56.8027 136.415 55.9194L135.581 52.0073C130.382 53.1155 126.63 55.89 124.699 60.4084L128.377 61.9808ZM136.421 55.9181C140.627 55.0076 145.8 55.7351 152.055 58.4093L153.627 54.7314C146.936 51.8706 140.88 50.8601 135.575 52.0086L136.421 55.9181ZM152.055 58.4093C159.877 61.7535 164.767 65.615 167.156 69.8242C169.481 73.9207 169.616 78.6691 167.2 84.3211L170.878 85.8935C173.67 79.3641 173.709 73.2656 170.635 67.8497C167.625 62.5466 161.812 58.2304 153.627 54.7314L152.055 58.4093ZM167.2 84.3211C166.052 87.0062 164.709 89.2973 163.182 91.2144L166.312 93.7057C168.093 91.4685 169.611 88.8577 170.878 85.8935L167.2 84.3211ZM163.191 91.2042C161.641 93.1243 160.139 94.5941 158.692 95.6531L161.054 98.8809C162.849 97.5673 164.596 95.8324 166.304 93.716L163.191 91.2042ZM158.719 95.6336C157.324 96.6196 155.596 97.454 153.502 98.1122L154.702 101.928C157.112 101.17 159.231 100.17 161.027 98.9004L158.719 95.6336ZM153.468 98.1233C151.354 98.83 149.474 99.3042 147.821 99.5619L148.437 103.514C150.362 103.214 152.465 102.676 154.736 101.917L153.468 98.1233ZM147.821 99.5619C146.122 99.8267 144.057 100.021 141.617 100.139L141.809 104.134C144.343 104.012 146.556 103.807 148.437 103.514L147.821 99.5619Z" fill="#517048" mask="url(#path-7-outside-2_604_28)" />
    <mask id="path-9-outside-3_604_28" maskUnits="userSpaceOnUse" x="156.352" y="118.832" width="80.1362" height="68.6881" fill="black">
        <rect fill="white" x="156.352" y="118.832" width="80.1362" height="68.6881" />
        <path d="M207.969 153.109C211.032 152.439 211.942 149.259 210.697 143.57C210.438 142.382 209.957 140.784 209.256 138.775C208.63 136.816 208.215 135.367 208.01 134.429C207.025 129.927 209.221 127.089 214.598 125.912C220.163 124.695 224.367 130.589 227.212 143.593C229.058 152.034 229.064 158.649 227.229 163.44C225.395 168.231 222.258 171.112 217.819 172.083C211.629 173.437 206.102 171.829 201.237 167.259C200.092 171.309 198.614 174.286 196.803 176.189C195.068 178.14 192.231 179.547 188.292 180.409C182.853 181.599 177.942 180.413 173.559 176.851C169.253 173.338 166.314 167.986 164.741 160.796C162.772 151.793 162.263 145.124 163.214 140.788C164.242 136.502 166.631 133.948 170.383 133.128C173.509 132.444 175.771 132.604 177.17 133.608C178.632 134.599 179.609 136.22 180.101 138.47C180.347 139.596 180.605 141.374 180.875 143.804C181.144 146.235 181.416 148.075 181.689 149.326C183.18 156.141 185.176 159.274 187.677 158.727C189.365 158.358 190.378 157.449 190.716 155.999C191.116 154.536 190.92 151.991 190.127 148.364C189.334 144.738 189.242 142.072 189.851 140.367C190.461 138.661 192.047 137.528 194.611 136.967C198.487 136.119 200.986 138.258 202.108 143.385C202.832 146.699 203.522 149.103 204.177 150.598C204.845 152.155 205.394 153.017 205.824 153.186C206.316 153.34 207.031 153.314 207.969 153.109Z" />
    </mask>
    <path d="M207.969 153.109C211.032 152.439 211.942 149.259 210.697 143.57C210.438 142.382 209.957 140.784 209.256 138.775C208.63 136.816 208.215 135.367 208.01 134.429C207.025 129.927 209.221 127.089 214.598 125.912C220.163 124.695 224.367 130.589 227.212 143.593C229.058 152.034 229.064 158.649 227.229 163.44C225.395 168.231 222.258 171.112 217.819 172.083C211.629 173.437 206.102 171.829 201.237 167.259C200.092 171.309 198.614 174.286 196.803 176.189C195.068 178.14 192.231 179.547 188.292 180.409C182.853 181.599 177.942 180.413 173.559 176.851C169.253 173.338 166.314 167.986 164.741 160.796C162.772 151.793 162.263 145.124 163.214 140.788C164.242 136.502 166.631 133.948 170.383 133.128C173.509 132.444 175.771 132.604 177.17 133.608C178.632 134.599 179.609 136.22 180.101 138.47C180.347 139.596 180.605 141.374 180.875 143.804C181.144 146.235 181.416 148.075 181.689 149.326C183.18 156.141 185.176 159.274 187.677 158.727C189.365 158.358 190.378 157.449 190.716 155.999C191.116 154.536 190.92 151.991 190.127 148.364C189.334 144.738 189.242 142.072 189.851 140.367C190.461 138.661 192.047 137.528 194.611 136.967C198.487 136.119 200.986 138.258 202.108 143.385C202.832 146.699 203.522 149.103 204.177 150.598C204.845 152.155 205.394 153.017 205.824 153.186C206.316 153.34 207.031 153.314 207.969 153.109Z" fill="#EC6664" />
    <path d="M209.256 138.775L207.35 139.383L207.358 139.409L207.367 139.435L209.256 138.775ZM227.229 163.44L225.362 162.725L225.362 162.725L227.229 163.44ZM201.237 167.259L202.606 165.801L200.208 163.548L199.312 166.715L201.237 167.259ZM196.803 176.189L195.354 174.81L195.331 174.834L195.308 174.86L196.803 176.189ZM173.559 176.851L172.295 178.401L172.298 178.403L173.559 176.851ZM163.214 140.788L161.269 140.322L161.265 140.341L161.261 140.36L163.214 140.788ZM177.17 133.608L176.004 135.233L176.026 135.249L176.048 135.264L177.17 133.608ZM180.875 143.804L182.862 143.584L182.862 143.584L180.875 143.804ZM190.716 155.999L188.787 155.471L188.777 155.508L188.768 155.545L190.716 155.999ZM189.851 140.367L191.735 141.04L191.735 141.04L189.851 140.367ZM204.177 150.598L206.015 149.809L206.012 149.802L206.009 149.795L204.177 150.598ZM205.824 153.186L205.095 155.048L205.16 155.073L205.225 155.094L205.824 153.186ZM208.396 155.063C209.476 154.827 210.456 154.346 211.254 153.572C212.048 152.804 212.567 151.838 212.872 150.772C213.463 148.706 213.298 146.099 212.651 143.143L208.744 143.997C209.341 146.731 209.344 148.558 209.026 149.672C208.876 150.196 208.671 150.506 208.471 150.7C208.276 150.889 207.994 151.057 207.542 151.156L208.396 155.063ZM212.651 143.143C212.366 141.839 211.855 140.153 211.144 138.116L207.367 139.435C208.059 141.414 208.509 142.925 208.744 143.997L212.651 143.143ZM211.161 138.167C210.538 136.216 210.148 134.842 209.964 134.002L206.056 134.856C206.283 135.891 206.722 137.415 207.35 139.383L211.161 138.167ZM209.964 134.002C209.559 132.152 209.862 130.972 210.5 130.147C211.193 129.253 212.562 128.405 215.026 127.866L214.171 123.959C211.258 124.596 208.84 125.756 207.337 127.7C205.779 129.714 205.476 132.204 206.056 134.856L209.964 134.002ZM215.026 127.866C216.006 127.652 216.855 127.755 217.653 128.137C218.483 128.534 219.378 129.294 220.297 130.581C222.161 133.194 223.853 137.598 225.258 144.021L229.166 143.166C227.726 136.584 225.894 131.539 223.553 128.258C222.369 126.599 220.992 125.3 219.38 124.529C217.736 123.742 215.973 123.564 214.171 123.959L215.026 127.866ZM225.258 144.021C227.072 152.313 226.991 158.471 225.362 162.725L229.097 164.155C231.137 158.828 231.044 151.755 229.166 143.166L225.258 144.021ZM225.362 162.725C223.731 166.982 221.079 169.322 217.392 170.129L218.246 174.037C223.437 172.901 227.058 169.48 229.097 164.155L225.362 162.725ZM217.392 170.129C211.886 171.333 207.021 169.948 202.606 165.801L199.868 168.716C205.183 173.709 211.373 175.54 218.246 174.037L217.392 170.129ZM199.312 166.715C198.208 170.621 196.845 173.243 195.354 174.81L198.252 177.567C200.383 175.328 201.976 171.997 203.162 167.803L199.312 166.715ZM195.308 174.86C193.969 176.366 191.601 177.638 187.865 178.455L188.719 182.363C192.861 181.457 196.166 179.915 198.298 177.517L195.308 174.86ZM187.865 178.455C183.03 179.513 178.739 178.483 174.821 175.299L172.298 178.403C177.145 182.342 182.676 183.685 188.719 182.363L187.865 178.455ZM174.824 175.301C170.966 172.154 168.202 167.261 166.695 160.369L162.787 161.224C164.425 168.712 167.54 174.521 172.295 178.401L174.824 175.301ZM166.695 160.369C164.735 151.408 164.315 145.102 165.168 141.217L161.261 140.36C160.21 145.145 160.809 152.178 162.787 161.224L166.695 160.369ZM165.159 141.255C165.613 139.362 166.334 137.991 167.237 137.025C168.128 136.073 169.29 135.414 170.81 135.081L169.955 131.174C167.724 131.662 165.815 132.69 164.317 134.292C162.831 135.879 161.843 137.928 161.269 140.322L165.159 141.255ZM170.81 135.081C173.817 134.424 175.333 134.751 176.004 135.233L178.337 131.984C176.21 130.457 173.201 130.464 169.955 131.174L170.81 135.081ZM176.048 135.264C176.968 135.887 177.73 136.99 178.147 138.898L182.055 138.043C181.487 135.449 180.295 133.31 178.292 131.953L176.048 135.264ZM178.147 138.898C178.37 139.914 178.618 141.605 178.887 144.025L182.862 143.584C182.592 141.143 182.325 139.277 182.055 138.043L178.147 138.898ZM178.887 144.025C179.159 146.474 179.439 148.398 179.736 149.753L183.643 148.898C183.392 147.752 183.13 145.995 182.862 143.584L178.887 144.025ZM179.736 149.753C180.495 153.225 181.426 155.992 182.617 157.862C183.219 158.807 183.962 159.642 184.898 160.181C185.885 160.749 186.986 160.926 188.104 160.681L187.249 156.774C187.117 156.803 187.03 156.793 186.893 156.714C186.705 156.606 186.387 156.334 185.991 155.713C185.186 154.449 184.374 152.241 183.643 148.898L179.736 149.753ZM188.104 160.681C189.197 160.442 190.214 159.997 191.039 159.257C191.879 158.502 192.411 157.538 192.664 156.453L188.768 155.545C188.683 155.91 188.539 156.125 188.366 156.28C188.178 156.449 187.845 156.643 187.249 156.774L188.104 160.681ZM192.645 156.527C192.933 155.473 192.969 154.206 192.863 152.839C192.755 151.443 192.489 149.804 192.081 147.937L188.173 148.792C188.558 150.551 188.786 151.997 188.875 153.147C188.966 154.324 188.899 155.062 188.787 155.471L192.645 156.527ZM192.081 147.937C191.299 144.365 191.327 142.18 191.735 141.04L187.968 139.693C187.156 141.965 187.368 145.111 188.173 148.792L192.081 147.937ZM191.735 141.04C192.018 140.247 192.82 139.406 195.038 138.921L194.183 135.013C191.275 135.649 188.904 137.075 187.968 139.693L191.735 141.04ZM195.038 138.921C196.506 138.6 197.418 138.879 198.092 139.455C198.865 140.117 199.635 141.44 200.154 143.813L204.061 142.958C203.459 140.204 202.418 137.893 200.693 136.416C198.867 134.853 196.592 134.486 194.183 135.013L195.038 138.921ZM200.154 143.813C200.883 147.148 201.606 149.714 202.345 151.4L206.009 149.795C205.438 148.492 204.781 146.25 204.061 142.958L200.154 143.813ZM202.339 151.386C202.691 152.209 203.045 152.925 203.402 153.486C203.581 153.768 203.789 154.054 204.029 154.307C204.255 154.545 204.607 154.857 205.095 155.048L206.552 151.323C206.698 151.38 206.797 151.446 206.85 151.485C206.878 151.505 206.898 151.522 206.91 151.533C206.922 151.544 206.928 151.551 206.929 151.552C206.93 151.553 206.915 151.538 206.887 151.5C206.859 151.463 206.822 151.41 206.777 151.339C206.585 151.038 206.33 150.544 206.015 149.809L202.339 151.386ZM205.225 155.094C206.228 155.408 207.365 155.289 208.396 155.063L207.542 151.156C207.153 151.241 206.863 151.276 206.658 151.283C206.446 151.291 206.386 151.266 206.422 151.277L205.225 155.094Z" fill="#972928" mask="url(#path-9-outside-3_604_28)" />
</svg>

