<?xml version="1.0" standalone="no"?>
<!DOCTYPE svg PUBLIC "-//W3C//DTD SVG 20010904//EN"
 "http://www.w3.org/TR/2001/REC-SVG-20010904/DTD/svg10.dtd">
<svg version="1.0" xmlns="http://www.w3.org/2000/svg"
 width="1155.000000pt" height="1280.000000pt" viewBox="0 0 1155.000000 1280.000000"
 preserveAspectRatio="xMidYMid meet">
<metadata>
Created by potrace 1.15, written by Peter Selinger 2001-2017
</metadata>
<g transform="translate(0.000000,1280.000000) scale(0.100000,-0.100000)"
fill="#000000" stroke="none">
<path d="M4560 12784 c-258 -68 -917 -532 -1298 -914 -208 -207 -344 -404
-422 -611 -117 -312 -88 -644 85 -994 30 -61 55 -115 55 -120 0 -6 -18 -71
-41 -145 -64 -213 -89 -320 -99 -432 -12 -126 -30 -189 -82 -293 -56 -111
-108 -181 -238 -320 -62 -66 -128 -143 -147 -171 -77 -115 -113 -298 -94 -471
30 -263 124 -480 283 -648 121 -128 250 -209 513 -320 187 -79 285 -133 346
-190 154 -142 425 -308 659 -404 46 -19 62 -33 98 -85 48 -71 50 -91 27 -219
-46 -260 -260 -444 -432 -372 -20 9 -61 36 -90 62 -77 65 -149 92 -244 93 -42
0 -97 -6 -123 -14 -46 -14 -47 -14 -63 11 -11 16 -13 29 -7 37 41 55 84 129
98 169 57 168 -46 427 -202 506 -50 26 -192 51 -285 51 -164 0 -305 -49 -393
-137 l-50 -50 -143 137 -143 136 47 140 c54 157 65 245 46 360 -39 230 -208
477 -486 711 -129 108 -316 235 -389 262 -64 24 -116 28 -116 9 0 -28 52 -122
115 -210 37 -51 75 -109 85 -128 32 -64 77 -204 95 -297 17 -90 19 -93 45 -93
30 0 67 26 119 83 61 67 63 67 122 -25 143 -223 171 -374 101 -533 -28 -64
-34 -70 -59 -68 -32 2 -566 269 -590 295 -14 15 -13 20 6 50 12 18 41 49 66
68 24 19 44 38 44 41 1 8 -665 209 -693 209 -12 0 281 -599 314 -640 l19 -25
11 31 c23 64 46 99 72 108 26 9 36 1 237 -205 l209 -214 -14 -28 c-68 -132
-565 -203 -840 -119 -35 10 -60 24 -62 33 -3 15 21 51 100 155 62 81 66 79
-164 81 -173 1 -222 4 -333 26 -72 14 -154 29 -184 32 -52 7 -53 7 -46 -16 35
-111 171 -266 356 -404 405 -302 834 -388 1139 -229 54 28 188 124 305 218 24
19 24 19 62 -10 44 -33 133 -114 291 -266 l112 -108 -50 -66 c-101 -132 -141
-242 -141 -385 0 -128 46 -236 139 -327 61 -59 110 -89 207 -129 l80 -32 5
-43 c18 -134 131 -213 320 -225 77 -5 202 7 244 23 13 5 16 -1 16 -28 0 -73
100 -162 211 -188 l47 -11 -6 -65 c-9 -113 19 -173 146 -313 l71 -79 -30 -56
c-144 -265 -157 -580 -36 -881 50 -123 123 -232 308 -457 92 -112 166 -204
164 -206 -2 -2 -48 17 -103 42 -96 45 -154 57 -167 36 -4 -6 17 -79 46 -163
49 -141 53 -159 53 -248 1 -89 -1 -98 -27 -132 -15 -20 -56 -57 -92 -82 -146
-104 -323 -147 -745 -180 -1403 -107 -2015 -254 -2151 -517 -17 -32 -23 -61
-23 -114 0 -62 4 -81 37 -147 74 -149 189 -230 411 -287 196 -50 372 -64 746
-56 179 3 342 9 362 12 31 5 39 3 44 -12 58 -172 185 -253 518 -334 129 -31
361 -67 526 -81 184 -16 756 -16 1000 0 298 20 785 60 915 76 299 38 640 116
950 220 458 153 694 266 740 356 32 62 6 178 -79 347 -134 267 -275 644 -311
832 -27 135 -26 136 64 48 133 -128 436 -317 706 -441 281 -128 382 -157 910
-262 427 -85 1106 -228 1260 -265 44 -11 217 -51 385 -89 388 -88 531 -140
704 -255 109 -73 242 -211 252 -262 8 -45 1 -59 -61 -106 -134 -102 -449 -195
-781 -233 l-51 -5 -38 107 c-49 143 -91 239 -128 290 -38 53 -104 88 -150 79
-29 -5 -34 -12 -46 -54 -46 -175 -279 -346 -732 -537 -74 -31 -249 -102 -389
-157 -400 -156 -471 -188 -468 -207 9 -50 200 -93 503 -112 202 -12 702 -7
920 11 66 5 262 14 435 20 663 22 1098 51 1272 86 l28 6 -38 47 c-20 27 -63
80 -96 120 -32 39 -57 74 -54 76 3 3 31 12 62 20 130 34 264 111 336 192 51
58 107 171 120 242 50 271 -119 551 -425 704 -170 84 -1216 395 -2010 597
-461 117 -602 157 -825 235 -505 176 -890 442 -1106 766 -159 239 -262 515
-415 1115 l-43 170 47 72 c112 167 148 291 154 527 7 234 -17 393 -103 675
-36 117 -183 533 -232 655 -79 195 -89 296 -42 414 50 128 126 215 405 461
319 282 440 422 548 635 148 291 186 596 131 1041 l-7 52 44 24 c415 232 603
361 823 567 353 329 542 673 587 1071 13 120 7 298 -15 410 -35 184 -178 456
-375 715 -157 208 -515 537 -660 607 -47 23 -133 35 -174 24 -32 -8 -51 -54
-42 -98 4 -18 20 -59 36 -90 128 -255 219 -648 219 -948 l0 -126 -32 -30
c-141 -132 -424 -225 -754 -250 l-91 -7 -21 44 c-86 175 -441 456 -797 629
-308 151 -538 200 -933 200 -414 0 -785 -71 -1045 -201 -43 -21 -80 -39 -82
-39 -13 0 -134 168 -162 225 -28 59 -33 80 -33 142 0 151 68 266 279 468 213
203 271 264 312 327 60 94 63 145 9 173 -36 18 -78 18 -150 -1z"/>
</g>
</svg>
