<?xml version="1.0" standalone="no"?>
<!DOCTYPE svg PUBLIC "-//W3C//DTD SVG 20010904//EN"
 "http://www.w3.org/TR/2001/REC-SVG-20010904/DTD/svg10.dtd">
<svg version="1.0" xmlns="http://www.w3.org/2000/svg"
 width="1263.000000pt" height="1280.000000pt" viewBox="0 0 1263.000000 1280.000000"
 preserveAspectRatio="xMidYMid meet">
<metadata>
Created by potrace 1.15, written by Peter Selinger 2001-2017
</metadata>
<g transform="translate(0.000000,1280.000000) scale(0.100000,-0.100000)"
fill="#000000" stroke="none">
<path d="M7390 12794 c-14 -2 -59 -9 -100 -15 -41 -6 -167 -37 -280 -69 -245
-69 -335 -81 -612 -81 -274 0 -343 7 -843 80 -148 22 -315 45 -370 52 -129 15
-427 15 -530 0 -1331 -196 -2999 -1320 -3852 -2596 -438 -656 -690 -1359 -780
-2175 -21 -197 -24 -758 -5 -965 79 -843 297 -1688 681 -2648 117 -291 170
-405 466 -997 409 -815 500 -1034 606 -1450 71 -281 68 -303 -56 -415 -54 -50
-89 -91 -99 -116 -14 -34 -16 -124 -16 -713 l0 -673 703 -7 c678 -6 890 -2
1092 24 267 34 481 102 624 199 l64 44 -7 213 c-15 478 -73 895 -197 1411
-104 438 -255 912 -574 1808 -436 1224 -590 1756 -695 2395 -113 698 -99 1220
50 1762 250 914 884 1663 1775 2098 349 170 718 286 1105 346 154 24 179 25
270 15 146 -16 271 -14 327 5 26 9 71 34 100 55 41 31 61 39 95 39 33 0 39 -3
30 -12 -26 -26 -11 -35 72 -42 123 -9 375 -42 581 -77 845 -140 1485 -400
1954 -794 547 -459 948 -1194 1081 -1980 54 -315 64 -766 26 -1085 -90 -735
-250 -1325 -716 -2635 -219 -615 -271 -765 -354 -1020 -285 -877 -414 -1510
-446 -2190 -16 -327 -18 -306 34 -343 105 -76 267 -140 456 -180 253 -55 451
-64 1278 -56 l702 7 0 654 0 653 -45 56 c-118 144 -167 326 -145 542 29 286
136 560 438 1117 380 704 702 1428 919 2070 489 1449 565 2808 216 3890 -93
288 -269 662 -438 933 -101 161 -298 428 -436 590 -223 262 -567 612 -824 838
-268 236 -602 484 -911 677 -650 405 -1261 649 -1850 737 -132 20 -500 36
-564 24z m-2332 -161 c-27 -2 -69 -2 -95 0 -27 2 -5 3 47 3 52 0 74 -1 48 -3z
m-3960 -2415 c-43 -58 -232 -330 -298 -428 -66 -99 -91 -132 -70 -90 46 91
369 550 387 550 3 0 -6 -15 -19 -32z"/>
</g>
</svg>
