<svg width="437" height="172" viewBox="0 0 437 172" fill="none" xmlns="http://www.w3.org/2000/svg">
<g filter="url(#filter0_b_170_141)">
<path d="M232.87 96.9202C247.261 97.1133 267.653 119.07 267.548 126.77C267.443 134.47 296.048 158.26 281.657 158.067C267.266 157.874 209.214 141.159 209.318 133.459C209.423 125.759 218.479 96.727 232.87 96.9202Z" fill="#337096"/>
<path d="M91.6454 138.379C79.4855 146.029 24.7108 136.483 20.5651 129.977C16.4194 123.47 41.5886 92.6855 63.4538 107.365C74.9802 94.989 91.8828 88.9067 96.0285 95.4131C100.174 101.92 103.805 130.728 91.6454 138.379Z" fill="#087E8B"/>
<path d="M413.383 131.407C401.223 139.057 366.495 123.037 362.349 116.531C355.685 106.073 369.55 83.4252 391.415 98.1048C402.942 85.7288 413.62 81.9346 417.766 88.441C421.912 94.9474 425.543 123.756 413.383 131.407Z" fill="#087E8B"/>
<path d="M136.737 151.644C130.136 138.935 142.327 109.349 149.214 105.817C157.232 92.3712 177.779 109.46 172.522 125.736C179.122 138.445 187.151 151.567 180.264 155.099C173.378 158.631 143.338 164.353 136.737 151.644Z" fill="#AFD2A4"/>
<path d="M143.604 77.2236C142.418 91.4767 126.296 126.842 118.573 126.208C110.849 125.573 102.26 96.6726 103.446 82.4194C104.631 68.1663 95.7221 32.4483 103.445 33.0828C111.169 33.7173 144.789 62.9704 143.604 77.2236Z" fill="#EC6664"/>
<path d="M306.262 147.474C293.566 140.738 267.293 112.002 270.943 105.209C274.593 98.4154 304.698 102.046 317.394 108.782C330.09 115.518 366.619 121.562 362.969 128.355C359.319 135.148 318.958 154.21 306.262 147.474Z" fill="#EC6664"/>
<path d="M87.5607 82.5333C75.931 90.9588 40.9377 93.3718 36.3721 87.1491C31.8065 80.9264 45.723 64.1567 57.3526 55.7312C68.9823 47.3057 79.7751 33.0375 84.3407 39.2602C88.9062 45.4829 99.1904 74.1078 87.5607 82.5333Z" fill="#74C1DD"/>
<path d="M176.343 78.4103C187.245 69.0726 221.924 63.8387 226.984 69.6717C232.044 75.5047 219.547 93.3437 208.646 102.682C197.744 112.019 188.155 127.113 183.095 121.28C178.036 115.447 165.442 87.7481 176.343 78.4103Z" fill="#74C1DD"/>
<path d="M60.6423 23.0556C60.6423 37.4497 38.9059 58.1402 31.1851 58.1402C23.4643 58.1402 0 87.0694 0 72.6753C0 58.2812 15.9751 0 23.6959 0C31.4167 0 60.6423 8.66149 60.6423 23.0556Z" fill="#337096"/>
</g>
<defs>
<filter id="filter0_b_170_141" x="-16" y="-16" width="453.693" height="191.49" filterUnits="userSpaceOnUse" color-interpolation-filters="sRGB">
<feFlood flood-opacity="0" result="BackgroundImageFix"/>
<feGaussianBlur in="BackgroundImageFix" stdDeviation="8"/>
<feComposite in2="SourceAlpha" operator="in" result="effect1_backgroundBlur_170_141"/>
<feBlend mode="normal" in="SourceGraphic" in2="effect1_backgroundBlur_170_141" result="shape"/>
</filter>
</defs>
</svg>
