<?xml version="1.0" standalone="no"?>
<!DOCTYPE svg PUBLIC "-//W3C//DTD SVG 20010904//EN"
 "http://www.w3.org/TR/2001/REC-SVG-20010904/DTD/svg10.dtd">
<svg version="1.0" xmlns="http://www.w3.org/2000/svg"
 width="1280.000000pt" height="1279.000000pt" viewBox="0 0 1280.000000 1279.000000"
 preserveAspectRatio="xMidYMid meet">
<metadata>
Created by potrace 1.15, written by Peter Selinger 2001-2017
</metadata>
<g transform="translate(0.000000,1279.000000) scale(0.100000,-0.100000)"
fill="#000000" stroke="none">
<path d="M4152 10582 c-5 -15 -44 -61 -86 -103 l-76 -76 0 -84 0 -84 -92 -23
c-113 -28 -268 -100 -390 -184 -115 -78 -319 -278 -416 -408 -189 -255 -350
-579 -432 -875 -12 -44 -35 -105 -50 -136 -16 -30 -31 -71 -35 -90 -6 -34 -7
-34 -63 -35 -68 -1 -125 -27 -169 -78 -111 -125 -31 -309 145 -334 l47 -7 7
-85 c17 -198 108 -403 257 -578 39 -46 43 -55 29 -63 -53 -30 -197 -146 -283
-229 l-100 -97 -165 -33 c-346 -69 -624 -163 -910 -306 -102 -52 -266 -131
-365 -177 -492 -227 -754 -452 -820 -703 -19 -72 -21 -233 -2 -239 6 -2 151
-8 322 -14 171 -6 366 -18 435 -26 312 -39 518 -118 745 -287 159 -119 409
-280 745 -483 162 -98 381 -234 485 -302 580 -378 1179 -544 2118 -584 396
-18 949 8 1322 62 402 57 995 202 1510 369 330 107 435 120 769 96 121 -9 265
-16 320 -16 375 0 698 155 1017 487 126 131 238 273 427 538 452 637 628 823
974 1033 213 128 335 167 508 160 135 -6 230 -33 381 -107 l97 -48 12 41 c20
67 64 136 155 241 48 55 100 118 115 141 l29 41 -227 6 c-125 4 -315 16 -422
27 -282 29 -550 50 -641 50 -43 0 -79 4 -79 9 0 10 94 93 158 139 24 17 73 41
110 53 93 30 114 42 222 123 104 78 212 137 336 185 187 72 302 186 344 341
17 61 28 190 17 190 -5 0 -46 -26 -90 -59 -141 -101 -197 -123 -457 -181 -279
-63 -371 -123 -457 -297 -34 -68 -38 -86 -43 -178 -6 -117 -19 -144 -80 -175
l-41 -21 31 62 c107 211 102 550 -10 702 -35 47 -97 92 -147 106 -19 6 -62 36
-98 70 -79 74 -175 131 -280 168 -74 25 -92 27 -240 28 -189 0 -249 -14 -320
-77 -80 -70 -135 -197 -135 -310 0 -58 0 -58 29 -58 l30 0 -6 88 c-7 106 4
146 53 196 136 140 453 146 719 13 33 -16 77 -43 99 -60 34 -27 37 -32 20 -38
-11 -4 -32 -8 -49 -8 -47 -2 -128 -45 -163 -86 -80 -98 -58 -242 53 -343 116
-107 262 -90 317 36 17 38 19 59 15 136 -3 50 -8 102 -12 116 l-8 25 31 -29
c58 -54 76 -114 80 -271 4 -167 -11 -257 -62 -360 -26 -53 -47 -80 -86 -109
l-51 -39 -117 56 c-341 163 -965 351 -1499 453 l-142 27 23 46 c53 105 96 273
96 372 l0 49 38 0 c50 0 136 44 166 84 46 62 57 130 30 194 -34 82 -113 134
-205 136 l-58 1 -11 45 c-6 25 -22 65 -35 90 -13 25 -44 112 -70 194 -237 755
-757 1323 -1296 1416 -41 7 -75 14 -77 16 -2 1 6 20 17 42 15 29 31 44 61 56
49 19 60 15 60 -23 0 -42 29 -72 70 -74 33 -2 35 0 32 28 -4 39 -27 73 -58 87
-32 15 -30 24 10 64 37 37 84 48 71 17 -24 -55 -12 -116 31 -155 35 -31 92
-27 128 8 39 40 36 96 -8 140 -19 19 -41 34 -50 34 -30 0 -16 19 19 26 69 13
150 0 202 -32 62 -39 94 -95 101 -179 4 -59 3 -65 -22 -90 -29 -28 -27 -47 2
-29 43 27 53 102 26 193 -19 64 -76 123 -141 145 -58 20 -156 20 -208 0 -22
-9 -62 -20 -89 -24 -51 -10 -92 -39 -107 -77 -5 -15 -20 -24 -45 -29 -46 -9
-99 -55 -114 -100 -18 -53 -26 -33 -20 53 7 101 -4 222 -23 258 l-14 29 -8
-24 c-4 -14 -43 -61 -86 -106 l-79 -83 0 -83 0 -83 -92 -22 c-116 -28 -305
-120 -418 -204 -356 -262 -656 -719 -813 -1239 -20 -63 -49 -144 -66 -180 -17
-36 -31 -74 -31 -85 0 -18 -7 -20 -58 -21 -112 -1 -210 -82 -220 -183 -9 -93
35 -167 123 -207 27 -13 64 -24 82 -24 34 0 34 2 48 -133 18 -161 99 -343 226
-502 38 -48 55 -77 47 -80 -31 -10 -650 -115 -847 -143 l-63 -9 -83 62 c-46
35 -91 67 -100 73 -16 8 -12 17 37 78 152 191 230 369 246 567 l7 82 47 7
c176 25 256 209 145 334 -44 51 -101 77 -169 78 -56 1 -57 1 -63 35 -4 19 -19
60 -35 90 -15 31 -38 92 -50 136 -82 297 -250 634 -441 887 -90 120 -298 322
-404 394 -161 110 -315 176 -472 204 -84 15 -90 25 -40 75 23 23 48 36 86 44
59 12 63 11 68 -21 8 -54 58 -92 112 -86 22 3 26 8 24 32 -3 36 -46 83 -84 91
-36 8 -36 15 -1 47 30 30 71 48 108 48 24 0 24 0 8 -31 -32 -62 9 -136 88
-157 80 -22 168 25 168 90 0 34 -59 96 -101 105 -90 18 6 38 143 31 166 -10
276 -91 286 -211 5 -63 -8 -94 -43 -103 -29 -7 -34 -24 -7 -24 69 2 94 112 47
207 -49 97 -141 143 -302 151 -84 4 -113 1 -171 -17 -39 -11 -87 -21 -109 -21
-51 -1 -116 -31 -143 -68 -17 -23 -35 -32 -79 -41 -74 -15 -116 -41 -141 -91
-11 -22 -22 -40 -24 -40 -3 0 -4 60 -3 133 2 168 -25 282 -51 209z m604 -141
c72 -33 97 -96 50 -126 -65 -43 -136 -36 -180 16 -31 37 -33 68 -5 103 25 32
74 35 135 7z m3617 -21 c43 -48 33 -109 -20 -128 -76 -26 -145 78 -97 147 23
32 79 23 117 -19z m-3878 -82 c22 -10 55 -53 55 -73 0 -3 -11 -5 -24 -5 -29 0
-72 36 -81 68 -7 26 9 29 50 10z m3672 -10 c22 -20 32 -68 15 -68 -23 0 -52
34 -52 61 0 35 6 36 37 7z m2976 -2427 c18 -7 29 -24 40 -58 25 -79 27 -95 16
-139 -14 -54 -56 -99 -107 -115 -36 -10 -45 -9 -86 11 -101 49 -131 204 -52
269 41 35 139 51 189 32z"/>
</g>
</svg>
