<svg width="375" height="847" viewBox="0 0 375 847" fill="none" xmlns="http://www.w3.org/2000/svg">
<g clip-path="url(#clip0_665_52)">
<rect width="375" height="847" fill="#F1F1F1"/>
<rect width="375" height="847" fill="#3C3C3C"/>
<path d="M177.802 31.7397C163.443 31.6059 143.006 9.64663 143.078 1.91497C143.15 -5.81668 114.511 -29.5828 128.869 -29.449C143.228 -29.3153 201.217 -12.7761 201.145 -5.04446C201.073 2.68719 192.16 31.8734 177.802 31.7397Z" fill="#337096"/>
<path d="M217.013 303.486C230.681 299.084 257.001 313.477 259.371 320.836C261.741 328.196 296.414 341.717 282.746 346.118C269.078 350.52 208.832 353.114 206.462 345.755C204.092 338.395 203.345 307.887 217.013 303.486Z" fill="#337096"/>
<path d="M197.287 755.381C211.644 755.622 231.917 777.734 231.787 785.465C231.657 793.196 260.118 817.175 245.76 816.934C231.403 816.693 173.539 799.721 173.669 791.99C173.799 784.259 182.93 755.14 197.287 755.381Z" fill="#337096"/>
<path d="M160.641 489.357C146.641 492.548 121.679 475.912 119.96 468.373C118.242 460.835 84.882 444.338 98.8823 441.147C112.883 437.955 173.125 440.632 174.843 448.17C176.561 455.709 174.642 486.165 160.641 489.357Z" fill="#337096"/>
<path d="M318.527 -10.4761C330.626 -18.2084 385.315 -8.85259 389.479 -2.33734C393.642 4.1779 368.66 35.1915 346.784 20.5444C335.336 33.0184 318.498 39.1958 314.334 32.6805C310.171 26.1653 306.427 -2.74377 318.527 -10.4761Z" fill="#087E8B"/>
<path d="M90.2227 346.553C78.6927 355.112 23.484 349.599 18.8755 343.39C14.267 337.182 37.0213 304.499 59.8676 317.582C70.4161 304.339 86.7815 297 91.39 303.209C95.9985 309.417 101.753 337.994 90.2227 346.553Z" fill="#087E8B"/>
<path d="M56.2503 797.544C44.0931 805.185 -10.5241 795.421 -14.6389 788.875C-18.7536 782.329 6.45931 751.503 28.2258 766.313C39.7665 753.925 56.6503 747.874 60.765 754.42C64.8798 760.966 68.4075 789.902 56.2503 797.544Z" fill="#087E8B"/>
<path d="M287.475 449.352C298.945 440.713 354.191 445.842 358.842 452.018C363.494 458.194 340.968 491.035 318.031 478.111C307.575 491.427 291.261 498.879 286.609 492.703C281.958 486.527 276.005 457.99 287.475 449.352Z" fill="#087E8B"/>
<path d="M-2.44123 -2.13075C9.65851 -9.86307 44.3746 6.07642 48.5382 12.5917C55.2303 23.0638 41.4926 45.8602 19.616 31.213C8.16821 43.687 -2.46989 47.5411 -6.63344 41.0259C-10.797 34.5106 -14.541 5.60157 -2.44123 -2.13075Z" fill="#087E8B"/>
<path d="M377.271 788.598C365.114 796.24 330.518 780.041 326.404 773.495C319.79 762.973 333.698 740.28 355.464 755.09C367.005 742.702 377.671 738.928 381.786 745.474C385.901 752.02 389.429 780.956 377.271 788.598Z" fill="#087E8B"/>
<path d="M-30.1459 446.335C-17.8878 438.857 16.4889 455.516 20.5159 462.116C26.9885 472.726 12.779 495.231 -8.78782 480.131C-20.4929 492.364 -31.209 495.996 -35.236 489.395C-39.2629 482.795 -42.4041 453.814 -30.1459 446.335Z" fill="#087E8B"/>
<path d="M273.483 -23.6059C280.122 -10.8734 268.084 18.8823 261.228 22.4572C253.284 35.9906 232.713 18.9193 237.89 2.55507C231.251 -10.1774 223.185 -23.3183 230.041 -26.8932C236.897 -30.468 266.844 -36.3384 273.483 -23.6059Z" fill="#AFD2A4"/>
<path d="M136.93 340.372C130.427 327.569 142.782 297.944 149.676 294.442C157.763 280.994 178.152 298.284 172.8 314.592C179.303 327.394 187.228 340.621 180.335 344.122C173.441 347.624 143.433 353.174 136.93 340.372Z" fill="#AFD2A4"/>
<path d="M101.195 811.01C94.6509 798.228 106.911 768.563 113.794 765.04C121.838 751.566 142.281 768.791 136.982 785.116C143.526 797.898 151.493 811.098 144.611 814.622C137.728 818.145 107.738 823.792 101.195 811.01Z" fill="#AFD2A4"/>
<path d="M241.166 451.611C247.538 464.479 234.883 493.978 227.954 497.409C219.73 510.774 199.519 493.278 205.035 477.025C198.663 464.157 190.873 450.851 197.802 447.42C204.731 443.988 234.793 438.743 241.166 451.611Z" fill="#AFD2A4"/>
<path d="M266.945 51.142C268.068 36.8266 284.004 1.25157 291.713 1.85629C299.421 2.46101 308.112 31.4419 306.989 45.7573C305.866 60.0727 314.905 95.897 307.197 95.2923C299.489 94.6876 265.822 65.4574 266.945 51.142Z" fill="#EC6664"/>
<path d="M143.264 285.698C141.989 300 125.674 335.404 117.973 334.717C110.272 334.03 101.89 304.958 103.166 290.655C104.441 276.353 95.7847 240.434 103.486 241.121C111.188 241.808 144.54 271.395 143.264 285.698Z" fill="#EC6664"/>
<path d="M109.291 733.313C108.061 747.62 91.8592 783.074 84.1556 782.412C76.4521 781.75 67.9778 752.705 69.2078 738.398C70.4379 724.092 61.667 688.201 69.3705 688.863C77.0741 689.525 110.521 719.006 109.291 733.313Z" fill="#EC6664"/>
<path d="M238.073 503.207C239.494 488.918 256.167 453.682 263.861 454.447C271.555 455.213 279.641 484.368 278.22 498.657C276.799 512.946 285.09 548.951 277.396 548.186C269.702 547.42 236.652 517.496 238.073 503.207Z" fill="#EC6664"/>
<path d="M104.366 -18.7109C117.061 -12.0008 143.395 16.7407 139.781 23.5766C136.168 30.4125 106.118 26.8932 93.4224 20.1831C80.7273 13.473 44.2568 7.55811 47.8699 0.722247C51.4831 -6.11361 91.6706 -25.421 104.366 -18.7109Z" fill="#EC6664"/>
<path d="M297.496 343.522C288.094 332.668 273.963 296.338 279.808 291.276C285.652 286.213 312.386 300.382 321.787 311.235C331.189 322.089 363.038 340.816 357.194 345.879C351.349 350.941 306.897 354.376 297.496 343.522Z" fill="#EC6664"/>
<path d="M270.344 806.379C257.699 799.575 231.581 770.637 235.245 763.828C238.909 757.02 268.933 760.763 281.577 767.568C294.222 774.373 330.647 780.56 326.983 787.369C323.319 794.178 282.988 813.184 270.344 806.379Z" fill="#EC6664"/>
<path d="M78.5567 446.832C87.837 457.79 101.563 494.274 95.6632 499.271C89.763 504.268 63.1882 489.804 53.9079 478.847C44.6276 467.889 12.9881 448.81 18.8884 443.812C24.7886 438.815 69.2764 435.874 78.5567 446.832Z" fill="#EC6664"/>
<path d="M322.837 45.5769C334.404 37.0689 369.307 34.4999 373.888 40.7285C378.47 46.9571 364.656 63.8524 353.088 72.3604C341.521 80.8685 330.813 95.2391 326.232 89.0105C321.65 82.7818 311.27 54.0849 322.837 45.5769Z" fill="#74C1DD"/>
<path d="M87.3168 281.666C75.6593 290.051 40.7312 292.247 36.2166 285.97C31.7021 279.693 45.6953 262.946 57.3528 254.562C69.0103 246.178 79.8708 231.922 84.3854 238.199C88.9 244.476 98.9743 273.282 87.3168 281.666Z" fill="#74C1DD"/>
<path d="M52.3591 738.46C40.7284 746.882 5.80748 749.19 1.27292 742.927C-3.26165 736.664 10.6781 719.873 22.3088 711.451C33.9395 703.03 44.7546 688.74 49.2891 695.003C53.8237 701.265 63.9898 730.039 52.3591 738.46Z" fill="#74C1DD"/>
<path d="M294.068 507.806C305.81 499.541 340.759 497.7 345.209 504.022C349.66 510.345 335.497 526.949 323.755 535.214C312.013 543.479 301.008 557.624 296.558 551.301C292.107 544.979 282.326 516.072 294.068 507.806Z" fill="#74C1DD"/>
<path d="M234.276 53.0873C223.439 62.5082 188.861 67.9081 183.788 62.0728C178.715 56.2376 191.109 38.2745 201.946 28.8536C212.783 19.4327 222.286 4.23862 227.359 10.0739C232.432 15.9092 245.113 43.6664 234.276 53.0873Z" fill="#74C1DD"/>
<path d="M176.953 272.101C187.89 262.796 222.523 257.765 227.533 263.654C232.544 269.543 219.959 287.373 209.023 296.678C198.086 305.983 188.421 321.075 183.411 315.186C178.4 309.297 166.016 281.406 176.953 272.101Z" fill="#74C1DD"/>
<path d="M142.974 732.612C153.881 723.272 188.498 718.131 193.527 724.004C198.556 729.877 186.029 747.747 175.122 757.087C164.215 766.426 154.598 781.549 149.569 775.676C144.54 769.803 132.067 741.952 142.974 732.612Z" fill="#74C1DD"/>
<path d="M205.104 517.874C197.233 529.884 165.422 544.474 158.955 540.236C152.488 535.998 159.536 515.344 167.407 503.333C175.277 491.323 180.296 474.119 186.763 478.357C193.23 482.595 212.974 505.864 205.104 517.874Z" fill="#74C1DD"/>
<path d="M349.717 105.33C349.657 90.9711 371.338 70.2395 379.07 70.2071C386.802 70.1747 410.179 41.217 410.239 55.5763C410.3 69.9356 394.545 128.143 386.813 128.175C379.081 128.208 349.777 119.69 349.717 105.33Z" fill="#337096"/>
<path d="M61.0752 221.63C60.9823 235.989 39.0812 256.488 31.3493 256.438C23.6175 256.388 -0.0670619 285.095 0.0258763 270.736C0.118814 256.377 16.493 198.341 24.2249 198.391C31.9567 198.441 61.1681 207.271 61.0752 221.63Z" fill="#337096"/>
<path d="M25.9263 678.507C25.8792 692.867 4.04351 713.436 -3.68843 713.41C-11.4204 713.385 -35.0133 742.167 -34.9662 727.808C-34.919 713.448 -18.7299 655.361 -10.9979 655.386C-3.26596 655.411 25.9735 664.148 25.9263 678.507Z" fill="#337096"/>
<path d="M319.698 568.107C319.937 553.749 342.045 533.474 349.776 533.602C357.507 533.731 381.482 505.266 381.243 519.624C381.005 533.981 364.041 591.848 356.311 591.719C348.58 591.59 319.459 582.464 319.698 568.107Z" fill="#337096"/>
<path d="M46.1302 76.6052C45.7488 90.9596 23.4402 111.015 15.7109 110.809C7.98164 110.604 -16.275 138.829 -15.8936 124.474C-15.5121 110.12 2.02509 52.425 9.75435 52.6304C17.4836 52.8358 46.5117 62.2509 46.1302 76.6052Z" fill="#337096"/>
<path d="M364.339 253.591C364.873 239.241 387.394 219.425 395.121 219.713C402.848 220.001 427.404 192.036 426.869 206.385C426.335 220.735 408.183 278.24 400.457 277.952C392.73 277.664 363.804 267.94 364.339 253.591Z" fill="#337096"/>
<path d="M329.29 709.501C329.779 695.15 352.237 675.263 359.964 675.526C367.692 675.789 392.159 647.746 391.67 662.097C391.181 676.448 373.213 734.011 365.486 733.747C357.758 733.484 328.801 723.852 329.29 709.501Z" fill="#337096"/>
<path d="M10.7753 523.066C10.095 537.409 -12.6264 556.995 -20.3497 556.629C-28.073 556.263 -52.9122 583.976 -52.2319 569.633C-51.5516 555.29 -32.8167 497.972 -25.0934 498.339C-17.3701 498.705 11.4557 508.723 10.7753 523.066Z" fill="#337096"/>
<path d="M69.8936 22.2297C84.1865 20.8493 115.477 36.5245 116.22 44.2206C116.963 51.9168 96.4443 59.3492 82.1514 60.7296C67.8585 62.11 51.3003 68.9655 50.557 61.2693C49.8137 53.5731 55.6007 23.6101 69.8936 22.2297Z" fill="#74C1DD"/>
<path d="M333.162 254.081C346.611 259.111 367.852 286.926 365.143 294.168C362.435 301.41 340.735 299.086 327.286 294.056C313.836 289.025 295.949 287.921 298.657 280.679C301.366 273.437 319.712 249.051 333.162 254.081Z" fill="#74C1DD"/>
<path d="M305.121 763.698C290.818 764.971 259.646 749.063 258.96 741.361C258.274 733.659 278.848 726.381 293.151 725.107C307.454 723.834 324.063 717.102 324.749 724.804C325.435 732.505 319.424 762.424 305.121 763.698Z" fill="#74C1DD"/>
<path d="M29.5733 494.448C43.5177 491.021 76.7414 502.02 78.5867 509.529C80.432 517.038 61.1992 527.351 47.2547 530.778C33.3102 534.205 17.9136 543.377 16.0683 535.868C14.223 528.359 15.6288 497.875 29.5733 494.448Z" fill="#74C1DD"/>
<path d="M183.49 81.653C181.927 95.9271 164.904 130.995 157.218 130.154C149.532 129.312 141.736 100.078 143.299 85.8036C144.862 71.5295 136.929 35.4442 144.615 36.2857C152.301 37.1272 185.052 67.3789 183.49 81.653Z" fill="#EC6664"/>
<path d="M227.041 247.078C228.756 232.822 246.151 197.937 253.828 198.861C261.505 199.784 268.988 229.1 267.273 243.357C265.558 257.613 273.106 293.781 265.429 292.858C257.753 291.934 225.326 261.335 227.041 247.078Z" fill="#EC6664"/>
<path d="M191.972 703.427C193.642 689.165 210.926 654.225 218.605 655.124C226.285 656.023 233.862 685.315 232.193 699.577C230.523 713.839 238.186 749.982 230.506 749.084C222.827 748.185 190.303 717.689 191.972 703.427Z" fill="#EC6664"/>
<path d="M154 540.973C152.14 555.211 134.391 589.917 126.724 588.916C119.057 587.914 111.872 558.524 113.732 544.286C115.591 530.047 108.412 493.804 116.079 494.806C123.746 495.807 155.86 526.734 154 540.973Z" fill="#EC6664"/>
<path d="M124.952 110.275C112.621 117.632 58.2456 106.598 54.2843 99.958C50.3231 93.3178 76.2469 63.0871 97.6627 78.4002C109.489 66.2842 126.509 60.6276 130.47 67.2678C134.431 73.908 137.284 102.919 124.952 110.275Z" fill="#087E8B"/>
<path d="M285.88 210.082C298.29 202.858 352.544 214.47 356.434 221.152C360.324 227.834 334.08 257.787 312.828 242.246C300.874 254.235 283.794 259.71 279.904 253.028C276.014 246.346 273.47 217.307 285.88 210.082Z" fill="#087E8B"/>
<path d="M250.722 675.243C263.108 667.979 317.399 679.419 321.311 686.088C325.222 692.758 299.073 722.794 277.772 707.321C265.856 719.348 248.794 724.878 244.883 718.208C240.971 711.538 238.335 682.507 250.722 675.243Z" fill="#087E8B"/>
<path d="M95.8792 576.37C83.3969 583.468 29.2634 571.305 25.4413 564.583C21.6192 557.862 48.1669 528.178 69.2591 543.934C81.3349 532.067 98.4691 526.766 102.291 533.487C106.113 540.208 108.362 569.272 95.8792 576.37Z" fill="#087E8B"/>
<path d="M227.029 109.526C220.785 96.5955 233.733 67.2241 240.695 63.8618C249.051 50.5791 269.088 68.275 263.41 84.4722C269.655 97.4029 277.312 110.786 270.35 114.148C263.387 117.51 233.274 122.457 227.029 109.526Z" fill="#AFD2A4"/>
<path d="M183.801 218.742C189.907 231.739 176.647 260.971 169.649 264.259C161.152 277.451 141.305 259.543 147.155 243.407C141.049 230.411 133.534 216.947 140.532 213.659C147.53 210.371 177.695 205.746 183.801 218.742Z" fill="#AFD2A4"/>
<path d="M148.642 675.229C154.789 688.206 141.623 717.48 134.635 720.79C126.18 734.01 106.276 716.165 112.075 700.01C105.927 687.033 98.37 673.594 105.358 670.283C112.345 666.973 142.495 662.252 148.642 675.229Z" fill="#AFD2A4"/>
<path d="M199.95 573.747C193.976 560.689 207.533 531.593 214.564 528.377C223.194 515.271 242.858 533.38 236.845 549.456C242.818 562.514 250.195 576.053 243.164 579.27C236.133 582.486 205.923 586.805 199.95 573.747Z" fill="#AFD2A4"/>
<path d="M175.394 123.745C177.483 109.539 200.207 82.9231 207.857 84.048C215.507 85.1729 217.799 106.876 215.71 121.082C213.621 135.289 216.303 153.008 208.654 151.884C201.004 150.759 173.304 137.952 175.394 123.745Z" fill="#74C1DD"/>
<path d="M235.585 199.075C233.345 213.259 210.338 239.63 202.7 238.424C195.063 237.217 193.002 215.491 195.243 201.308C197.483 187.124 194.99 169.377 202.627 170.584C210.265 171.79 237.826 184.892 235.585 199.075Z" fill="#74C1DD"/>
<path d="M200.383 661.396C198.188 675.587 175.265 702.032 167.623 700.85C159.982 699.668 157.852 677.948 160.048 663.758C162.243 649.567 159.693 631.828 167.334 633.01C174.975 634.192 202.578 647.206 200.383 661.396Z" fill="#74C1DD"/>
<path d="M145.029 591.887C147.413 577.727 170.687 551.591 178.312 552.875C185.937 554.159 187.776 575.905 185.392 590.065C183.007 604.225 185.32 621.996 177.696 620.712C170.071 619.428 142.644 606.047 145.029 591.887Z" fill="#74C1DD"/>
<path d="M306.415 98.9214C320.763 99.4967 340.514 122.074 340.205 129.8C339.895 137.526 367.79 162.161 353.442 161.586C339.094 161.011 281.641 142.696 281.951 134.97C282.261 127.244 292.067 98.3461 306.415 98.9214Z" fill="#337096"/>
<path d="M104.307 228.5C89.966 227.772 70.456 204.985 70.8482 197.263C71.2403 189.541 43.6098 164.609 57.9507 165.338C72.2917 166.066 129.546 184.992 129.154 192.714C128.762 200.436 118.648 229.228 104.307 228.5Z" fill="#337096"/>
<path d="M69.1797 686.24C54.8365 685.557 35.254 662.833 35.6215 655.11C35.989 647.386 8.27918 622.543 22.6224 623.225C36.9655 623.908 94.28 642.652 93.9124 650.375C93.5449 658.098 83.5229 686.922 69.1797 686.24Z" fill="#337096"/>
<path d="M276.539 558.797C290.871 559.671 310.149 582.655 309.678 590.373C309.208 598.091 336.583 623.302 322.25 622.428C307.918 621.554 250.859 602.047 251.329 594.329C251.8 586.611 262.206 557.923 276.539 558.797Z" fill="#337096"/>
<path d="M256.506 185.655C246.427 175.427 229.994 140.079 235.501 134.652C241.009 129.225 268.597 141.648 278.675 151.876C288.754 162.104 321.74 178.748 316.233 184.175C310.725 189.602 266.585 195.883 256.506 185.655Z" fill="#EC6664"/>
<path d="M155.138 142.304C165.107 152.639 181.162 188.16 175.597 193.528C170.033 198.896 142.578 186.18 132.609 175.845C122.64 165.51 89.8339 148.515 95.3988 143.147C100.964 137.779 145.168 131.969 155.138 142.304Z" fill="#EC6664"/>
<path d="M119.735 598.882C129.737 609.185 145.906 644.655 140.358 650.041C134.81 655.426 107.316 642.798 97.314 632.495C87.3121 622.192 54.4516 605.302 59.9994 599.916C65.5472 594.53 109.733 588.579 119.735 598.882Z" fill="#EC6664"/>
<path d="M224.835 644.473C214.971 634.037 199.277 598.354 204.896 593.043C210.516 587.732 237.839 600.727 247.703 611.162C257.566 621.598 290.198 638.925 284.579 644.236C278.96 649.548 234.698 654.908 224.835 644.473Z" fill="#EC6664"/>
<path d="M375.732 211.065C363.401 218.421 329.191 201.422 325.23 194.781C318.863 184.108 333.295 161.745 354.711 177.058C366.537 164.942 377.289 161.417 381.25 168.057C385.211 174.698 388.064 203.708 375.732 211.065Z" fill="#087E8B"/>
<path d="M36.1888 115.624C48.5984 108.4 82.6246 125.763 86.5148 132.445C92.7675 143.185 78.0976 165.393 56.8463 149.853C44.8917 161.842 34.1032 165.252 30.213 158.57C26.3228 151.888 23.7792 122.849 36.1888 115.624Z" fill="#087E8B"/>
<path d="M-2.29784 575.582C10.0886 568.318 44.1701 585.572 48.0815 592.242C54.3685 602.962 39.7694 625.217 18.4687 609.744C6.55238 621.771 -4.22527 625.216 -8.13673 618.546C-12.0482 611.877 -14.6843 582.846 -2.29784 575.582Z" fill="#087E8B"/>
<path d="M343.506 674.36C331.024 681.458 297.176 663.75 293.354 657.028C287.21 646.225 302.105 624.167 323.197 639.923C335.273 628.056 346.096 624.755 349.918 631.477C353.74 638.198 355.988 667.262 343.506 674.36Z" fill="#087E8B"/>
<path d="M-19.0944 183.255C-25.68 170.494 -13.5172 140.789 -6.64632 137.243C1.35367 123.743 21.8536 140.901 16.6081 157.243C23.1937 170.003 31.2041 183.178 24.3333 186.724C17.4624 190.27 -12.5088 196.015 -19.0944 183.255Z" fill="#AFD2A4"/>
<path d="M400.168 606.025C405.989 619.152 392.094 648.087 385.026 651.222C376.243 664.226 356.792 645.889 362.993 629.884C357.172 616.758 349.953 603.133 357.021 599.999C364.089 596.865 394.347 592.899 400.168 606.025Z" fill="#AFD2A4"/>
<path d="M-0.936021 339.886C-14.7079 343.951 -53.6284 341.776 -55.8175 334.361C-58.0066 326.945 -34.0434 308.474 -20.2716 304.408C-6.49968 300.343 23.731 279.102 25.9201 286.517C28.1092 293.933 12.8359 335.82 -0.936021 339.886Z" fill="#EC6664"/>
<path d="M406.931 492.989C394.722 500.547 356.609 508.729 352.54 502.155C348.47 495.581 366.704 471.436 378.913 463.878C391.122 456.32 414.669 427.849 418.739 434.423C422.809 440.997 419.141 485.431 406.931 492.989Z" fill="#EC6664"/>
<path d="M97.1946 839.456C89.5684 851.623 60.1621 857.551 53.6106 853.444C47.0592 849.338 11.8218 861.311 19.448 849.144C27.0741 836.977 71.5077 796.211 78.0591 800.317C84.6105 804.423 104.821 827.289 97.1946 839.456Z" fill="#337096"/>
<path d="M371.15 820.656C372.026 834.989 355.258 865.707 347.54 866.179C339.823 866.65 333.118 845.882 332.242 831.55C331.366 817.217 325.098 800.427 332.816 799.956C340.533 799.484 370.274 806.323 371.15 820.656Z" fill="#74C1DD"/>
<path d="M202.256 843.535C201.073 857.845 184.988 893.353 177.283 892.716C169.577 892.079 161.007 863.062 162.19 848.752C163.373 834.441 154.485 798.579 162.19 799.216C169.896 799.853 203.439 829.224 202.256 843.535Z" fill="#EC6664"/>
<path d="M306.757 855.671C293.045 859.932 265.914 842.778 263.62 835.394C251.721 825.164 272.189 807.968 287.367 815.982C301.079 811.721 315.449 806.129 317.743 813.513C320.037 820.897 320.47 851.411 306.757 855.671Z" fill="#AFD2A4"/>
<path d="M-21.0319 845.436C-34.4488 840.319 -64.0821 814.993 -61.3271 807.769C-58.5721 800.544 -28.3165 800.383 -14.8995 805.5C-1.48258 810.616 35.4365 812.052 32.6815 819.277C29.9265 826.501 -7.61492 850.552 -21.0319 845.436Z" fill="#EC6664"/>
<path d="M154.124 842.605C158.093 856.405 148.398 890.033 140.968 892.17C133.537 894.307 122.48 875.491 118.512 861.691C114.543 847.891 104.778 832.864 112.208 830.727C119.639 828.59 150.155 828.805 154.124 842.605Z" fill="#74C1DD"/>
<path d="M243.739 886.38C230.372 881.135 205.801 831.389 208.626 824.191C211.45 816.993 251.224 818.979 252.23 845.287C269.051 847.218 283.944 857.211 281.12 864.409C278.296 871.606 257.106 891.625 243.739 886.38Z" fill="#087E8B"/>
<path d="M35.5249 389.568C35.5249 388.113 35.3872 386.972 35.1119 386.146C34.8365 385.281 34.3449 384.632 33.6369 384.199C32.9682 383.766 32.2209 383.491 31.3949 383.373C30.6082 383.216 29.5069 383.137 28.0909 383.137V396.117C29.1922 396.117 30.1559 396.019 30.9819 395.822C31.8472 395.625 32.6339 395.291 33.3419 394.819C34.0499 394.347 34.5809 393.678 34.9349 392.813C35.3282 391.908 35.5249 390.827 35.5249 389.568ZM28.0909 407.15C28.0909 410.336 27.5009 412.617 26.3209 413.994C25.1409 415.331 23.3315 416 20.8929 416C18.4542 416 16.6645 415.39 15.5239 414.171C14.3832 412.912 13.8129 410.71 13.8129 407.563V382.665C13.8129 380.266 14.4619 378.496 15.7599 377.355C17.0579 376.175 18.7689 375.585 20.8929 375.585H31.3949C33.9515 375.585 36.3115 375.939 38.4749 376.647C40.6382 377.316 42.5065 378.279 44.0799 379.538C45.6925 380.757 46.9315 382.311 47.7969 384.199C48.7015 386.048 49.1539 388.113 49.1539 390.394C49.1539 393.187 48.3475 395.625 46.7349 397.71C45.1222 399.755 42.9982 401.289 40.3629 402.312C37.7275 403.335 34.7579 403.846 31.4539 403.846H28.0909V407.15ZM77.7214 387.326C77.7214 385.438 77.0331 384.14 75.6564 383.432C74.2797 382.724 71.9591 382.37 68.6944 382.37V392.577C71.7624 392.577 74.0241 392.203 75.4794 391.456C76.9741 390.669 77.7214 389.293 77.7214 387.326ZM68.6944 407.15C68.6944 413.05 66.3934 416 61.7914 416C59.4707 416 57.7597 415.39 56.6584 414.171C55.5964 412.912 55.0654 410.71 55.0654 407.563V382.665C55.0654 380.384 55.6751 378.653 56.8944 377.473C58.1531 376.254 59.7854 375.644 61.7914 375.644H74.1814C79.0194 375.644 82.9331 376.785 85.9224 379.066C88.9117 381.308 90.4064 384.199 90.4064 387.739C90.4064 390.414 89.8361 392.518 88.6954 394.052C87.5941 395.547 85.8044 396.648 83.3264 397.356C85.2144 397.474 86.9647 398.398 88.5774 400.129C90.1901 401.82 90.9964 403.944 90.9964 406.501C90.9964 409.097 90.7407 411.103 90.2294 412.519C89.7574 413.896 89.0691 414.82 88.1644 415.292C87.2597 415.764 85.9814 416 84.3294 416C82.0087 416 80.2977 415.528 79.1964 414.584C78.1344 413.601 77.6034 412.126 77.6034 410.159C77.6034 407.72 77.3674 405.852 76.8954 404.554C76.4234 403.217 75.8137 402.351 75.0664 401.958C74.3191 401.565 73.2767 401.368 71.9394 401.368L68.6944 401.427V407.15ZM111.689 407.15C111.689 410.218 111.119 412.46 109.978 413.876C108.838 415.292 107.107 416 104.786 416C102.505 416 100.814 415.39 99.7123 414.171C98.6503 412.952 98.1193 410.769 98.1193 407.622V382.665C98.1193 377.945 100.342 375.585 104.786 375.585C107.068 375.585 108.779 376.018 109.919 376.883C111.099 377.748 111.689 379.499 111.689 382.134V407.15ZM138.68 407.74C140.017 407.74 141.158 407.15 142.102 405.97C143.085 404.79 143.774 403.335 144.167 401.604C144.6 399.873 144.816 398.025 144.816 396.058C144.816 394.052 144.6 392.164 144.167 390.394C143.734 388.585 143.026 387.051 142.043 385.792C141.099 384.533 139.978 383.904 138.68 383.904C137.421 383.904 136.32 384.533 135.376 385.792C134.432 387.051 133.724 388.585 133.252 390.394C132.78 392.203 132.544 394.091 132.544 396.058C132.544 398.025 132.76 399.873 133.193 401.604C133.665 403.335 134.373 404.79 135.317 405.97C136.3 407.15 137.421 407.74 138.68 407.74ZM149.123 414.053C146.016 415.587 142.515 416.354 138.621 416.354C134.766 416.354 131.285 415.587 128.178 414.053C125.11 412.48 122.652 410.139 120.803 407.032C118.954 403.925 118.03 400.267 118.03 396.058C118.03 389.686 119.938 384.632 123.753 380.895C127.608 377.119 132.583 375.231 138.68 375.231C144.777 375.231 149.752 377.119 153.607 380.895C157.462 384.632 159.389 389.686 159.389 396.058C159.389 400.267 158.445 403.925 156.557 407.032C154.708 410.139 152.23 412.48 149.123 414.053ZM188.634 387.326C188.634 385.438 187.946 384.14 186.569 383.432C185.193 382.724 182.872 382.37 179.607 382.37V392.577C182.675 392.577 184.937 392.203 186.392 391.456C187.887 390.669 188.634 389.293 188.634 387.326ZM179.607 407.15C179.607 413.05 177.306 416 172.704 416C170.384 416 168.673 415.39 167.571 414.171C166.509 412.912 165.978 410.71 165.978 407.563V382.665C165.978 380.384 166.588 378.653 167.807 377.473C169.066 376.254 170.698 375.644 172.704 375.644H185.094C189.932 375.644 193.846 376.785 196.835 379.066C199.825 381.308 201.319 384.199 201.319 387.739C201.319 390.414 200.749 392.518 199.608 394.052C198.507 395.547 196.717 396.648 194.239 397.356C196.127 397.474 197.878 398.398 199.49 400.129C201.103 401.82 201.909 403.944 201.909 406.501C201.909 409.097 201.654 411.103 201.142 412.519C200.67 413.896 199.982 414.82 199.077 415.292C198.173 415.764 196.894 416 195.242 416C192.922 416 191.211 415.528 190.109 414.584C189.047 413.601 188.516 412.126 188.516 410.159C188.516 407.72 188.28 405.852 187.808 404.554C187.336 403.217 186.727 402.351 185.979 401.958C185.232 401.565 184.19 401.368 182.852 401.368L179.607 401.427V407.15ZM222.602 407.15C222.602 410.218 222.032 412.46 220.891 413.876C219.751 415.292 218.02 416 215.699 416C213.418 416 211.727 415.39 210.625 414.171C209.563 412.952 209.032 410.769 209.032 407.622V382.665C209.032 377.945 211.255 375.585 215.699 375.585C217.981 375.585 219.692 376.018 220.832 376.883C222.012 377.748 222.602 379.499 222.602 382.134V407.15ZM252.368 407.15C252.368 409.392 252.093 411.182 251.542 412.519C250.991 413.817 250.224 414.722 249.241 415.233C248.297 415.744 247.038 416 245.465 416C243.144 416 241.453 415.39 240.391 414.171C239.368 412.912 238.837 410.71 238.798 407.563L238.68 385.792H233.665C231.187 385.792 229.319 385.399 228.06 384.612C226.841 383.825 226.231 382.429 226.231 380.423C226.231 379.204 226.467 378.24 226.939 377.532C227.45 376.824 228.198 376.332 229.181 376.057C230.164 375.742 231.482 375.585 233.134 375.585H258.386C260.589 375.585 262.182 375.978 263.165 376.765C264.148 377.552 264.64 378.909 264.64 380.836C264.64 382.134 264.345 383.157 263.755 383.904C263.204 384.612 262.457 385.104 261.513 385.379C260.569 385.654 259.35 385.792 257.855 385.792H252.368V407.15ZM284.541 407.15C284.541 410.218 283.97 412.46 282.83 413.876C281.689 415.292 279.958 416 277.638 416C275.356 416 273.665 415.39 272.564 414.171C271.502 412.952 270.971 410.769 270.971 407.622V382.665C270.971 377.945 273.193 375.585 277.638 375.585C279.919 375.585 281.63 376.018 282.771 376.883C283.951 377.748 284.541 379.499 284.541 382.134V407.15ZM316.121 392.046C318.206 392.046 319.661 392.38 320.487 393.049C321.352 393.718 321.785 394.858 321.785 396.471C321.785 397.808 321.274 398.772 320.251 399.362C319.268 399.913 317.714 400.188 315.59 400.188H306.032V406.442L318.835 406.501C321.038 406.501 322.611 406.835 323.555 407.504C324.538 408.133 325.03 409.274 325.03 410.926C325.03 412.814 324.46 414.132 323.319 414.879C322.218 415.626 320.526 416 318.245 416H299.129C296.808 416 295.097 415.39 293.996 414.171C292.934 412.912 292.403 410.71 292.403 407.563V382.665C292.403 377.945 294.645 375.585 299.129 375.585H318.245C320.526 375.585 322.218 375.939 323.319 376.647C324.46 377.355 325.03 378.633 325.03 380.482C325.03 382.213 324.538 383.432 323.555 384.14C322.611 384.809 321.038 385.143 318.835 385.143H305.973V392.046H316.121ZM346.998 375.172C351.679 375.172 355.671 376.136 358.975 378.063C362.279 379.99 363.931 382.036 363.931 384.199C363.931 384.789 363.794 385.3 363.518 385.733C363.282 386.126 362.968 386.421 362.574 386.618C362.22 386.775 361.827 386.854 361.394 386.854C360.686 386.854 359.624 386.5 358.208 385.792C356.792 385.045 355.219 384.317 353.488 383.609C351.758 382.862 350.165 382.488 348.709 382.488C346.389 382.488 345.228 383.432 345.228 385.32C345.228 385.91 345.405 386.48 345.759 387.031C346.153 387.542 346.762 388.093 347.588 388.683C348.414 389.234 349.221 389.725 350.007 390.158C350.794 390.591 351.876 391.181 353.252 391.928C354.629 392.636 355.789 393.265 356.733 393.816C359.762 395.547 361.886 397.199 363.105 398.772C364.325 400.345 364.934 402.155 364.934 404.2C364.934 412.342 359.447 416.413 348.473 416.413C346.31 416.413 344.206 416.197 342.16 415.764C340.154 415.331 338.384 414.761 336.85 414.053C335.356 413.345 334.018 412.558 332.838 411.693C331.698 410.828 330.832 409.943 330.242 409.038C329.652 408.133 329.357 407.288 329.357 406.501C329.357 405.636 329.633 404.908 330.183 404.318C330.773 403.689 331.619 403.374 332.72 403.374C333.546 403.374 335.533 403.905 338.679 404.967C341.826 405.99 344.363 406.501 346.29 406.501C348.06 406.501 348.945 405.891 348.945 404.672C348.945 404.318 348.867 404.003 348.709 403.728C348.591 403.413 348.355 403.118 348.001 402.843C347.687 402.528 347.313 402.253 346.88 402.017C346.487 401.742 345.917 401.407 345.169 401.014C344.461 400.621 343.734 400.227 342.986 399.834C342.278 399.441 341.334 398.929 340.154 398.3C338.974 397.671 337.834 397.041 336.732 396.412C335.277 395.586 334.018 394.563 332.956 393.344C331.934 392.125 331.186 390.925 330.714 389.745C330.242 388.526 330.006 387.405 330.006 386.382C330.006 383.078 331.481 380.384 334.431 378.299C337.381 376.214 341.57 375.172 346.998 375.172Z" fill="white"/>
<path d="M405.506 355.139C391.173 356.015 347.927 321.257 347.456 313.539C346.984 305.821 383.891 290.861 395.89 314.295C411.957 308.958 429.675 311.744 430.147 319.461C430.619 327.179 419.839 354.263 405.506 355.139Z" fill="#087E8B"/>
</g>
<defs>
<clipPath id="clip0_665_52">
<rect width="375" height="847" fill="white"/>
</clipPath>
</defs>
</svg>
