<svg width="375" height="847" viewBox="0 0 375 847" fill="none" xmlns="http://www.w3.org/2000/svg">
<g clip-path="url(#clip0_669_3)">
<rect width="375" height="847" fill="#F1F1F1"/>
<path d="M213.869 255.989C226.189 252.021 249.913 264.995 252.05 271.629C254.186 278.263 285.44 290.45 273.12 294.418C260.799 298.385 206.495 300.724 204.358 294.09C202.222 287.456 201.548 259.956 213.869 255.989Z" fill="#337096"/>
<path d="M215.606 448.416C227.556 452.316 250.567 439.564 252.639 433.043C254.712 426.523 285.026 414.543 273.076 410.643C261.126 406.743 208.454 404.445 206.381 410.965C204.309 417.486 203.656 444.516 215.606 448.416Z" fill="#337096"/>
<path d="M99.581 294.809C89.188 302.524 39.4234 297.555 35.2693 291.959C31.1153 286.362 51.6258 256.902 72.2192 268.695C81.7276 256.758 96.4792 250.143 100.633 255.739C104.787 261.336 109.974 287.095 99.581 294.809Z" fill="#087E8B"/>
<path d="M104.754 410.258C94.6731 402.675 46.4043 407.56 42.3751 413.06C38.3459 418.561 58.2399 447.519 78.2144 435.927C87.4369 447.661 101.745 454.163 105.774 448.662C109.804 443.161 114.834 417.841 104.754 410.258Z" fill="#087E8B"/>
<path d="M143.486 289.238C137.624 277.698 148.76 250.993 154.974 247.837C162.264 235.715 180.642 251.3 175.819 266C181.68 277.54 188.824 289.462 182.61 292.618C176.396 295.774 149.347 300.778 143.486 289.238Z" fill="#AFD2A4"/>
<path d="M147.405 415.735C141.719 427.078 152.521 453.327 158.548 456.429C165.619 468.344 183.444 453.025 178.766 438.576C184.451 427.233 191.38 415.514 185.353 412.412C179.326 409.31 153.09 404.392 147.405 415.735Z" fill="#AFD2A4"/>
<path d="M145.59 247.166C144.44 260.058 129.734 291.97 122.792 291.351C115.85 290.732 108.295 264.527 109.445 251.635C110.595 238.742 102.792 206.366 109.734 206.985C116.676 207.604 146.739 234.274 145.59 247.166Z" fill="#EC6664"/>
<path d="M148.406 455.558C147.291 442.886 133.027 411.518 126.294 412.127C119.561 412.735 112.232 438.493 113.348 451.166C114.463 463.838 106.895 495.662 113.628 495.054C120.361 494.445 149.521 468.23 148.406 455.558Z" fill="#EC6664"/>
<path d="M285.514 292.077C277.039 282.293 264.302 249.546 269.57 244.983C274.838 240.42 298.936 253.191 307.41 262.974C315.884 272.758 344.593 289.638 339.325 294.201C334.057 298.764 293.988 301.86 285.514 292.077Z" fill="#EC6664"/>
<path d="M285.972 412.944C277.752 422.561 265.398 454.75 270.508 459.235C275.617 463.72 298.991 451.167 307.21 441.55C315.43 431.934 343.276 415.341 338.166 410.856C333.056 406.371 294.192 403.328 285.972 412.944Z" fill="#EC6664"/>
<path d="M177.759 227.699C187.617 219.312 218.836 214.777 223.352 220.085C227.868 225.394 216.524 241.465 206.666 249.853C196.808 258.24 188.096 271.844 183.58 266.535C179.064 261.227 167.9 236.086 177.759 227.699Z" fill="#74C1DD"/>
<path d="M180.582 476.224C190.144 484.468 220.424 488.925 224.804 483.708C229.185 478.49 218.182 462.692 208.62 454.448C199.058 446.204 190.608 432.832 186.228 438.05C181.847 443.268 171.02 467.98 180.582 476.224Z" fill="#74C1DD"/>
<path d="M118.044 334.72L108.044 355.2C107.191 356.907 106.284 358.133 105.324 358.88C104.364 359.573 103.218 359.92 101.884 359.92C100.178 359.92 98.7377 359.333 97.5644 358.16C96.391 356.933 94.871 354.747 93.0044 351.6L83.7244 334.72V357.36C83.7244 359.653 83.191 361.333 82.1244 362.4C81.111 363.467 79.5644 364 77.4844 364C75.1377 364 73.431 363.493 72.3644 362.48C71.2977 361.413 70.7644 359.36 70.7644 356.32V321.44C70.7644 317.333 71.6977 314.24 73.5644 312.16C75.431 310.08 78.5777 309.04 83.0044 309.04C84.6577 309.04 86.0977 309.333 87.3244 309.92C88.551 310.453 89.4577 311.093 90.0444 311.84C90.6844 312.533 91.2977 313.413 91.8844 314.48L102.604 337.92L113.964 314.88C115.938 311.04 119.484 309.12 124.604 309.12C127.004 309.12 129.058 309.547 130.764 310.4C132.471 311.2 133.804 312.533 134.764 314.4C135.778 316.213 136.284 318.507 136.284 321.28V356.08C136.231 361.36 132.898 364 126.284 364C123.884 364 121.911 363.36 120.364 362.08C118.871 360.747 118.098 358.613 118.044 355.68V334.72Z" fill="#087E8B"/>
<path d="M173.582 352.8C175.395 352.8 176.942 352 178.222 350.4C179.555 348.8 180.489 346.827 181.022 344.48C181.609 342.133 181.902 339.627 181.902 336.96C181.902 334.24 181.609 331.68 181.022 329.28C180.435 326.827 179.475 324.747 178.142 323.04C176.862 321.333 175.342 320.48 173.582 320.48C171.875 320.48 170.382 321.333 169.102 323.04C167.822 324.747 166.862 326.827 166.222 329.28C165.582 331.733 165.262 334.293 165.262 336.96C165.262 339.627 165.555 342.133 166.142 344.48C166.782 346.827 167.742 348.8 169.022 350.4C170.355 352 171.875 352.8 173.582 352.8ZM187.742 361.36C183.529 363.44 178.782 364.48 173.502 364.48C168.275 364.48 163.555 363.44 159.342 361.36C155.182 359.227 151.849 356.053 149.342 351.84C146.835 347.627 145.582 342.667 145.582 336.96C145.582 328.32 148.169 321.467 153.342 316.4C158.569 311.28 165.315 308.72 173.582 308.72C181.849 308.72 188.595 311.28 193.822 316.4C199.049 321.467 201.662 328.32 201.662 336.96C201.662 342.667 200.382 347.627 197.822 351.84C195.315 356.053 191.955 359.227 187.742 361.36Z" fill="#AFD2A4"/>
<path d="M241.957 322.64C241.957 320.987 240.864 320.16 238.677 320.16C236.437 320.16 234.517 321.413 232.917 323.92C231.317 326.427 230.517 330.613 230.517 336.48C230.517 341.92 231.424 345.893 233.237 348.4C235.104 350.853 237.29 352.08 239.797 352.08C240.597 352.08 241.317 351.92 241.957 351.6C242.65 351.28 243.21 350.8 243.637 350.16C244.064 349.52 244.277 348.747 244.277 347.84C242.997 347.84 241.877 347.6 240.917 347.12C240.01 346.64 239.344 346.053 238.917 345.36C238.49 344.613 238.277 343.813 238.277 342.96C238.277 341.04 238.784 339.6 239.797 338.64C240.81 337.68 242.544 337.2 244.997 337.2H254.677C257.77 337.2 260.17 337.867 261.877 339.2C263.584 340.533 264.437 342.88 264.437 346.24C264.437 351.147 262.09 355.44 257.397 359.12C252.704 362.747 247.13 364.56 240.677 364.56C234.757 364.56 229.477 363.493 224.837 361.36C220.25 359.227 216.597 356.053 213.877 351.84C211.21 347.573 209.877 342.533 209.877 336.72C209.877 328.08 212.49 321.253 217.717 316.24C222.944 311.227 229.877 308.72 238.517 308.72C241.93 308.72 244.997 308.987 247.717 309.52C250.437 310 252.677 310.667 254.437 311.52C256.25 312.373 257.744 313.413 258.917 314.64C260.144 315.813 260.997 317.067 261.477 318.4C262.01 319.733 262.277 321.12 262.277 322.56C262.277 323.573 262.117 324.56 261.797 325.52C261.477 326.427 260.89 327.36 260.037 328.32C259.237 329.227 257.984 329.973 256.277 330.56C254.57 331.147 252.517 331.44 250.117 331.44C246.597 331.44 244.357 330.933 243.397 329.92C242.437 328.853 241.957 326.427 241.957 322.64Z" fill="#EC6664"/>
<path d="M292.375 352C292.375 356.16 291.602 359.2 290.055 361.12C288.508 363.04 286.162 364 283.015 364C279.922 364 277.628 363.173 276.135 361.52C274.695 359.867 273.975 356.907 273.975 352.64V318.8C273.975 312.4 276.988 309.2 283.015 309.2C286.108 309.2 288.428 309.787 289.975 310.96C291.575 312.133 292.375 314.507 292.375 318.08V352Z" fill="#74C1DD"/>
<path d="M38.8169 388.045C38.5809 388.045 38.3774 388 38.2065 387.911C38.0438 387.821 37.9014 387.707 37.7793 387.569C37.6572 387.431 37.5514 387.276 37.4619 387.105C37.3805 386.934 37.3114 386.767 37.2544 386.604L34.9351 379.915H34.6177V390.096C34.6177 390.356 34.6014 390.6 34.5688 390.828C34.5363 391.056 34.4631 391.259 34.3491 391.438C34.2433 391.609 34.0806 391.748 33.8608 391.854C33.6493 391.951 33.3563 392 32.9819 392C32.5588 392 32.2251 391.951 31.981 391.854C31.7368 391.748 31.5537 391.609 31.4316 391.438C31.3096 391.259 31.2323 391.056 31.1997 390.828C31.1672 390.6 31.1509 390.356 31.1509 390.096V377.693C31.1509 377.343 31.159 377.002 31.1753 376.668C31.1997 376.334 31.2689 376.037 31.3828 375.777C31.4967 375.516 31.6758 375.309 31.9199 375.154C32.1722 374.992 32.5262 374.91 32.9819 374.91H34.6421C34.9188 374.91 35.1507 374.922 35.3379 374.947C35.5332 374.963 35.7122 375.032 35.875 375.154C36.0378 375.268 36.1965 375.455 36.3511 375.716C36.5138 375.976 36.6888 376.347 36.876 376.827C37.0713 377.299 37.2951 377.905 37.5474 378.646C37.7996 379.378 38.1089 380.281 38.4751 381.355L38.7925 382.332H39.0854L39.4761 381.111C39.8097 380.086 40.0946 379.219 40.3306 378.511C40.5666 377.803 40.7741 377.221 40.9531 376.766C41.1322 376.302 41.2909 375.948 41.4292 375.704C41.5757 375.451 41.7262 375.268 41.8809 375.154C42.0436 375.032 42.2186 374.963 42.4058 374.947C42.5929 374.922 42.8208 374.91 43.0894 374.91H44.8716C45.3273 374.91 45.6772 374.992 45.9214 375.154C46.1737 375.309 46.3568 375.516 46.4707 375.777C46.5846 376.037 46.6497 376.334 46.666 376.668C46.6904 377.002 46.7026 377.343 46.7026 377.693V390.096C46.7026 390.356 46.6864 390.6 46.6538 390.828C46.6213 391.056 46.5439 391.259 46.4219 391.438C46.2998 391.609 46.1167 391.748 45.8726 391.854C45.6284 391.951 45.2948 392 44.8716 392C44.4972 392 44.2002 391.951 43.9805 391.854C43.7689 391.748 43.6061 391.609 43.4922 391.438C43.3864 391.259 43.3172 391.056 43.2847 390.828C43.2521 390.6 43.2358 390.356 43.2358 390.096V379.915H42.894L40.5991 386.604C40.534 386.767 40.4608 386.934 40.3794 387.105C40.298 387.276 40.1963 387.431 40.0742 387.569C39.9521 387.707 39.8097 387.821 39.647 387.911C39.4842 388 39.2889 388.045 39.061 388.045H38.8169ZM59.8374 389.241C59.8374 389.583 59.8252 389.921 59.8008 390.254C59.7764 390.58 59.7031 390.873 59.5811 391.133C59.459 391.394 59.2759 391.605 59.0317 391.768C58.7876 391.923 58.4458 392 58.0063 392C57.5588 392 57.2088 391.927 56.9565 391.78C56.7043 391.626 56.5171 391.443 56.395 391.231C56.2729 391.011 56.1956 390.783 56.1631 390.547C56.1387 390.311 56.1265 390.112 56.1265 389.949C56.0532 390.185 55.9474 390.425 55.8091 390.669C55.6789 390.914 55.508 391.133 55.2964 391.329C55.0848 391.524 54.8285 391.687 54.5273 391.817C54.2344 391.939 53.8885 392 53.4897 392C53.0422 392 52.5946 391.927 52.147 391.78C51.6994 391.634 51.2965 391.39 50.9385 391.048C50.5804 390.706 50.2874 390.263 50.0596 389.717C49.8398 389.164 49.73 388.484 49.73 387.679V384.139C49.73 383.325 49.8398 382.645 50.0596 382.1C50.2874 381.547 50.5804 381.103 50.9385 380.77C51.2965 380.428 51.6994 380.184 52.147 380.037C52.5946 379.891 53.0422 379.817 53.4897 379.817C53.8885 379.817 54.2344 379.878 54.5273 380C54.8285 380.123 55.0848 380.281 55.2964 380.477C55.508 380.672 55.6789 380.892 55.8091 381.136C55.9474 381.38 56.0532 381.624 56.1265 381.868C56.1265 381.461 56.1834 381.124 56.2974 380.855C56.4113 380.586 56.5578 380.375 56.7368 380.22C56.9159 380.057 57.1152 379.948 57.335 379.891C57.5628 379.826 57.7866 379.793 58.0063 379.793C58.4132 379.793 58.7388 379.874 58.9829 380.037C59.2271 380.192 59.4102 380.399 59.5322 380.66C59.6624 380.912 59.7438 381.209 59.7764 381.551C59.8171 381.884 59.8374 382.226 59.8374 382.576V389.241ZM53.4897 387.361C53.4897 387.581 53.4979 387.797 53.5142 388.008C53.5304 388.22 53.5752 388.411 53.6484 388.582C53.7217 388.753 53.8275 388.891 53.9658 388.997C54.1123 389.095 54.3117 389.144 54.564 389.144C54.8813 389.144 55.1377 389.074 55.333 388.936C55.5365 388.79 55.6951 388.57 55.8091 388.277C55.923 387.976 56.0003 387.601 56.041 387.154C56.0898 386.698 56.1183 386.157 56.1265 385.53C56.1265 385.278 56.1021 384.989 56.0532 384.664C56.0125 384.33 55.9352 384.017 55.8213 383.724C55.7074 383.431 55.5487 383.182 55.3452 382.979C55.1418 382.776 54.8813 382.674 54.564 382.674C54.3117 382.674 54.1123 382.727 53.9658 382.833C53.8275 382.93 53.7217 383.06 53.6484 383.223C53.5752 383.386 53.5304 383.573 53.5142 383.785C53.4979 383.988 53.4897 384.196 53.4897 384.407V387.361ZM64.3052 379.793V377.645C64.3052 377.303 64.3215 376.969 64.354 376.644C64.3947 376.318 64.4801 376.029 64.6104 375.777C64.7406 375.516 64.9277 375.309 65.1719 375.154C65.416 374.992 65.7456 374.91 66.1606 374.91C66.5675 374.91 66.8931 374.992 67.1372 375.154C67.3813 375.309 67.5645 375.516 67.6865 375.777C67.8167 376.029 67.8981 376.318 67.9307 376.644C67.9714 376.969 67.9917 377.303 67.9917 377.645V379.793H68.9927C69.2043 379.793 69.4159 379.805 69.6274 379.83C69.839 379.846 70.0262 379.903 70.189 380C70.3599 380.098 70.4941 380.245 70.5918 380.44C70.6976 380.635 70.7505 380.908 70.7505 381.258C70.7505 381.591 70.6976 381.856 70.5918 382.051C70.4941 382.247 70.3599 382.393 70.189 382.491C70.0262 382.588 69.839 382.653 69.6274 382.686C69.4159 382.71 69.2043 382.723 68.9927 382.723H67.9917V386.995C67.9917 387.158 67.9958 387.333 68.0039 387.52C68.0202 387.699 68.0649 387.866 68.1382 388.021C68.2114 388.175 68.3213 388.305 68.4678 388.411C68.6143 388.509 68.8218 388.558 69.0903 388.558C69.3833 388.558 69.6315 388.582 69.835 388.631C70.0465 388.672 70.2174 388.749 70.3477 388.863C70.486 388.977 70.5877 389.135 70.6528 389.339C70.7179 389.542 70.7505 389.803 70.7505 390.12C70.7505 390.446 70.6732 390.726 70.5186 390.962C70.3721 391.198 70.1727 391.394 69.9204 391.548C69.6681 391.703 69.3752 391.817 69.0415 391.89C68.7078 391.963 68.3579 392 67.9917 392C67.4139 392 66.9175 391.939 66.5024 391.817C66.0955 391.695 65.7537 391.524 65.4771 391.304C65.2085 391.076 64.9928 390.808 64.8301 390.499C64.6755 390.181 64.5575 389.827 64.4761 389.437C64.4028 389.046 64.354 388.627 64.3296 388.179C64.3133 387.723 64.3052 387.247 64.3052 386.751V382.723H63.6216C63.41 382.723 63.1984 382.71 62.9868 382.686C62.7834 382.653 62.6003 382.588 62.4375 382.491C62.2747 382.393 62.1405 382.247 62.0347 382.051C61.937 381.856 61.8882 381.591 61.8882 381.258C61.8882 380.908 61.937 380.635 62.0347 380.44C62.1405 380.245 62.2747 380.098 62.4375 380C62.6003 379.903 62.7834 379.846 62.9868 379.83C63.1984 379.805 63.41 379.793 63.6216 379.793H64.3052ZM74.9253 379.793V377.645C74.9253 377.303 74.9416 376.969 74.9741 376.644C75.0148 376.318 75.1003 376.029 75.2305 375.777C75.3607 375.516 75.5479 375.309 75.792 375.154C76.0361 374.992 76.3657 374.91 76.7808 374.91C77.1877 374.91 77.5132 374.992 77.7573 375.154C78.0015 375.309 78.1846 375.516 78.3066 375.777C78.4368 376.029 78.5182 376.318 78.5508 376.644C78.5915 376.969 78.6118 377.303 78.6118 377.645V379.793H79.6128C79.8244 379.793 80.036 379.805 80.2476 379.83C80.4591 379.846 80.6463 379.903 80.8091 380C80.98 380.098 81.1143 380.245 81.2119 380.44C81.3177 380.635 81.3706 380.908 81.3706 381.258C81.3706 381.591 81.3177 381.856 81.2119 382.051C81.1143 382.247 80.98 382.393 80.8091 382.491C80.6463 382.588 80.4591 382.653 80.2476 382.686C80.036 382.71 79.8244 382.723 79.6128 382.723H78.6118V386.995C78.6118 387.158 78.6159 387.333 78.624 387.52C78.6403 387.699 78.6851 387.866 78.7583 388.021C78.8315 388.175 78.9414 388.305 79.0879 388.411C79.2344 388.509 79.4419 388.558 79.7104 388.558C80.0034 388.558 80.2516 388.582 80.4551 388.631C80.6667 388.672 80.8376 388.749 80.9678 388.863C81.1061 388.977 81.2078 389.135 81.2729 389.339C81.3381 389.542 81.3706 389.803 81.3706 390.12C81.3706 390.446 81.2933 390.726 81.1387 390.962C80.9922 391.198 80.7928 391.394 80.5405 391.548C80.2882 391.703 79.9953 391.817 79.6616 391.89C79.328 391.963 78.978 392 78.6118 392C78.034 392 77.5376 391.939 77.1226 391.817C76.7157 391.695 76.3739 391.524 76.0972 391.304C75.8286 391.076 75.613 390.808 75.4502 390.499C75.2956 390.181 75.1776 389.827 75.0962 389.437C75.0229 389.046 74.9741 388.627 74.9497 388.179C74.9334 387.723 74.9253 387.247 74.9253 386.751V382.723H74.2417C74.0301 382.723 73.8185 382.71 73.6069 382.686C73.4035 382.653 73.2204 382.588 73.0576 382.491C72.8949 382.393 72.7606 382.247 72.6548 382.051C72.5571 381.856 72.5083 381.591 72.5083 381.258C72.5083 380.908 72.5571 380.635 72.6548 380.44C72.7606 380.245 72.8949 380.098 73.0576 380C73.2204 379.903 73.4035 379.846 73.6069 379.83C73.8185 379.805 74.0301 379.793 74.2417 379.793H74.9253ZM93.8218 385.042C93.8218 385.172 93.8136 385.327 93.7974 385.506C93.7811 385.677 93.716 385.844 93.6021 386.006C93.4963 386.161 93.3254 386.295 93.0894 386.409C92.8534 386.523 92.5197 386.58 92.0884 386.58H87.23V387.752C87.23 387.947 87.2544 388.151 87.3032 388.362C87.3521 388.574 87.4334 388.769 87.5474 388.948C87.6694 389.127 87.8281 389.274 88.0234 389.388C88.2188 389.502 88.4588 389.559 88.7437 389.559C89.0692 389.559 89.3174 389.522 89.4883 389.449C89.6673 389.367 89.8057 389.27 89.9033 389.156C90.0091 389.042 90.1027 388.92 90.1841 388.79C90.2655 388.659 90.3713 388.537 90.5015 388.423C90.6398 388.309 90.827 388.216 91.063 388.143C91.3071 388.061 91.6408 388.021 92.064 388.021C92.2674 388.021 92.4627 388.037 92.6499 388.069C92.8452 388.102 93.0161 388.163 93.1626 388.252C93.3091 388.342 93.4271 388.468 93.5166 388.631C93.6061 388.785 93.6509 388.989 93.6509 389.241C93.6509 389.77 93.484 390.214 93.1504 390.572C92.8167 390.922 92.3976 391.202 91.8931 391.414C91.3885 391.626 90.8392 391.776 90.2451 391.866C89.6592 391.955 89.1099 392 88.5972 392C87.9217 391.992 87.2788 391.906 86.6685 391.744C86.0581 391.581 85.5169 391.32 85.0449 390.962C84.5811 390.604 84.2108 390.136 83.9341 389.559C83.6574 388.981 83.519 388.273 83.519 387.435V384.578C83.519 383.805 83.6086 383.15 83.7876 382.613C83.9748 382.076 84.2148 381.628 84.5078 381.27C84.8008 380.912 85.1304 380.635 85.4966 380.44C85.8628 380.236 86.2331 380.086 86.6074 379.988C86.9818 379.891 87.3358 379.83 87.6694 379.805C88.0112 379.781 88.3042 379.769 88.5483 379.769C89.3703 379.769 90.0701 379.842 90.6479 379.988C91.2339 380.135 91.7222 380.326 92.1128 380.562C92.5034 380.798 92.8127 381.071 93.0405 381.38C93.2684 381.689 93.4393 382.011 93.5532 382.344C93.6672 382.67 93.7404 383.003 93.7729 383.345C93.8055 383.679 93.8218 383.992 93.8218 384.285V385.042ZM87.23 384.749H90.2817C90.2817 384.367 90.2695 384.029 90.2451 383.736C90.2288 383.435 90.1678 383.182 90.062 382.979C89.9644 382.776 89.8057 382.621 89.5859 382.515C89.3743 382.409 89.0692 382.356 88.6704 382.356C88.3368 382.356 88.0723 382.409 87.877 382.515C87.6898 382.621 87.5474 382.755 87.4497 382.918C87.3521 383.073 87.291 383.239 87.2666 383.418C87.2422 383.597 87.23 383.756 87.23 383.895V384.749ZM104.247 381.624C104.247 382.259 104.088 382.723 103.771 383.016C103.461 383.309 103.018 383.455 102.44 383.455C102.359 383.455 102.241 383.463 102.086 383.479C101.939 383.488 101.781 383.52 101.61 383.577C101.439 383.626 101.264 383.703 101.085 383.809C100.914 383.907 100.755 384.045 100.609 384.224C100.462 384.395 100.344 384.615 100.255 384.883C100.165 385.152 100.121 385.473 100.121 385.848V389.339C100.121 389.673 100.1 389.998 100.06 390.315C100.027 390.633 99.9456 390.918 99.8154 391.17C99.6852 391.414 99.498 391.613 99.2539 391.768C99.0098 391.923 98.6802 392 98.2651 392C97.8582 392 97.5368 391.923 97.3008 391.768C97.0648 391.613 96.8817 391.414 96.7515 391.17C96.6294 390.918 96.548 390.633 96.5073 390.315C96.4748 389.998 96.4585 389.673 96.4585 389.339V382.503C96.4585 382.161 96.4748 381.832 96.5073 381.514C96.548 381.189 96.6294 380.9 96.7515 380.647C96.8817 380.395 97.0648 380.196 97.3008 380.049C97.5368 379.895 97.8582 379.817 98.2651 379.817C98.6802 379.817 98.9976 379.911 99.2173 380.098C99.4451 380.277 99.612 380.513 99.7178 380.806C99.8236 381.091 99.8846 381.412 99.9009 381.771C99.9172 382.12 99.9253 382.462 99.9253 382.796H100.121C100.235 382.34 100.385 381.929 100.572 381.563C100.759 381.189 100.967 380.875 101.195 380.623C101.423 380.363 101.667 380.163 101.927 380.025C102.188 379.887 102.448 379.817 102.708 379.817C103.026 379.817 103.282 379.854 103.478 379.927C103.681 379.992 103.84 380.098 103.954 380.245C104.068 380.391 104.145 380.578 104.186 380.806C104.226 381.034 104.247 381.307 104.247 381.624ZM109.227 382.991C109.227 383.154 109.28 383.305 109.386 383.443C109.492 383.581 109.634 383.715 109.813 383.846C110 383.968 110.212 384.09 110.448 384.212C110.692 384.334 110.944 384.456 111.205 384.578C111.603 384.773 112.01 384.985 112.425 385.213C112.84 385.433 113.219 385.693 113.561 385.994C113.902 386.295 114.179 386.645 114.391 387.044C114.61 387.435 114.72 387.898 114.72 388.436C114.72 388.924 114.647 389.355 114.5 389.729C114.362 390.104 114.175 390.429 113.939 390.706C113.703 390.975 113.426 391.198 113.109 391.377C112.8 391.556 112.47 391.699 112.12 391.805C111.778 391.91 111.428 391.984 111.07 392.024C110.712 392.073 110.375 392.098 110.057 392.098C109.431 392.098 108.885 392.045 108.421 391.939C107.958 391.833 107.559 391.695 107.225 391.524C106.891 391.345 106.615 391.146 106.395 390.926C106.183 390.698 106.017 390.462 105.895 390.218C105.772 389.974 105.687 389.734 105.638 389.498C105.589 389.253 105.565 389.03 105.565 388.826C105.565 388.338 105.699 387.98 105.968 387.752C106.244 387.524 106.664 387.41 107.225 387.41C107.632 387.41 107.966 387.52 108.226 387.74C108.486 387.959 108.625 388.313 108.641 388.802C108.649 388.965 108.694 389.095 108.775 389.192C108.865 389.29 108.975 389.371 109.105 389.437C109.243 389.493 109.394 389.534 109.557 389.559C109.719 389.575 109.878 389.583 110.033 389.583C110.35 389.583 110.606 389.502 110.802 389.339C111.005 389.168 111.107 388.948 111.107 388.68C111.107 388.452 111.038 388.24 110.899 388.045C110.769 387.841 110.594 387.654 110.375 387.483C110.155 387.312 109.903 387.15 109.618 386.995C109.341 386.832 109.056 386.67 108.763 386.507C108.397 386.312 108.027 386.104 107.652 385.884C107.286 385.665 106.952 385.42 106.651 385.152C106.35 384.883 106.106 384.582 105.919 384.249C105.732 383.907 105.638 383.52 105.638 383.089C105.638 382.454 105.74 381.925 105.943 381.502C106.155 381.071 106.46 380.725 106.859 380.464C107.258 380.196 107.742 380.005 108.312 379.891C108.889 379.777 109.544 379.712 110.277 379.695H110.472C111.131 379.695 111.689 379.752 112.145 379.866C112.608 379.98 112.991 380.131 113.292 380.318C113.601 380.497 113.841 380.7 114.012 380.928C114.191 381.156 114.321 381.388 114.403 381.624C114.492 381.852 114.545 382.072 114.562 382.283C114.586 382.495 114.598 382.674 114.598 382.82C114.598 383.064 114.545 383.268 114.439 383.431C114.342 383.585 114.208 383.711 114.037 383.809C113.874 383.899 113.687 383.964 113.475 384.004C113.264 384.037 113.044 384.057 112.816 384.065C112.621 384.065 112.442 384.033 112.279 383.968C112.124 383.903 111.99 383.821 111.876 383.724C111.762 383.626 111.673 383.516 111.607 383.394C111.55 383.272 111.522 383.154 111.522 383.04C111.506 382.731 111.38 382.495 111.144 382.332C110.916 382.169 110.635 382.088 110.301 382.088C110.163 382.088 110.029 382.104 109.898 382.137C109.776 382.161 109.662 382.21 109.557 382.283C109.459 382.348 109.378 382.438 109.312 382.552C109.256 382.666 109.227 382.812 109.227 382.991ZM126.317 384.383C126.317 383.634 126.419 382.999 126.622 382.479C126.826 381.958 127.086 381.522 127.403 381.172C127.729 380.822 128.087 380.55 128.478 380.354C128.876 380.159 129.267 380.013 129.649 379.915C130.032 379.817 130.386 379.756 130.711 379.732C131.045 379.708 131.306 379.695 131.493 379.695C131.68 379.695 131.936 379.708 132.262 379.732C132.587 379.756 132.933 379.817 133.299 379.915C133.674 380.013 134.048 380.159 134.422 380.354C134.805 380.55 135.147 380.822 135.448 381.172C135.757 381.522 136.009 381.958 136.205 382.479C136.4 382.999 136.498 383.634 136.498 384.383V387.41C136.498 388.159 136.4 388.794 136.205 389.314C136.009 389.835 135.757 390.271 135.448 390.621C135.147 390.971 134.805 391.243 134.422 391.438C134.048 391.634 133.674 391.78 133.299 391.878C132.933 391.976 132.587 392.037 132.262 392.061C131.936 392.085 131.68 392.098 131.493 392.098C131.306 392.098 131.045 392.085 130.711 392.061C130.386 392.037 130.032 391.976 129.649 391.878C129.267 391.78 128.876 391.634 128.478 391.438C128.087 391.243 127.729 390.971 127.403 390.621C127.086 390.271 126.826 389.835 126.622 389.314C126.419 388.794 126.317 388.159 126.317 387.41V384.383ZM130.077 388.265C130.085 388.501 130.142 388.708 130.248 388.887C130.337 389.05 130.475 389.196 130.663 389.327C130.858 389.449 131.135 389.51 131.493 389.51C131.834 389.51 132.095 389.449 132.274 389.327C132.461 389.196 132.599 389.05 132.689 388.887C132.787 388.708 132.844 388.501 132.86 388.265V383.846C132.844 383.602 132.787 383.378 132.689 383.174C132.599 383.012 132.461 382.861 132.274 382.723C132.095 382.576 131.834 382.503 131.493 382.503C131.135 382.503 130.858 382.576 130.663 382.723C130.475 382.861 130.337 383.012 130.248 383.174C130.142 383.378 130.085 383.602 130.077 383.846V388.265ZM144.334 379.793C144.538 379.793 144.745 379.805 144.957 379.83C145.169 379.854 145.356 379.915 145.519 380.013C145.689 380.11 145.828 380.261 145.934 380.464C146.039 380.668 146.092 380.949 146.092 381.307C146.092 381.64 146.039 381.905 145.934 382.1C145.828 382.287 145.689 382.434 145.519 382.54C145.356 382.637 145.169 382.702 144.957 382.735C144.745 382.759 144.538 382.771 144.334 382.771H143.602V389.241C143.602 389.599 143.582 389.945 143.541 390.279C143.508 390.604 143.423 390.897 143.285 391.158C143.154 391.41 142.959 391.613 142.699 391.768C142.446 391.923 142.105 392 141.673 392C141.258 392 140.929 391.923 140.685 391.768C140.449 391.613 140.27 391.41 140.147 391.158C140.025 390.897 139.948 390.604 139.916 390.279C139.883 389.945 139.867 389.599 139.867 389.241V382.771H139.183C138.955 382.771 138.736 382.759 138.524 382.735C138.32 382.702 138.137 382.637 137.975 382.54C137.82 382.434 137.694 382.287 137.596 382.1C137.499 381.905 137.45 381.64 137.45 381.307C137.45 380.949 137.499 380.668 137.596 380.464C137.694 380.261 137.82 380.11 137.975 380.013C138.137 379.915 138.32 379.854 138.524 379.83C138.736 379.805 138.955 379.793 139.183 379.793H139.867C139.867 379.077 139.899 378.418 139.964 377.815C140.029 377.213 140.188 376.701 140.44 376.277C140.693 375.846 141.067 375.512 141.563 375.276C142.06 375.032 142.739 374.91 143.602 374.91C143.968 374.91 144.314 374.943 144.64 375.008C144.965 375.073 145.25 375.175 145.494 375.313C145.738 375.451 145.93 375.634 146.068 375.862C146.214 376.082 146.288 376.351 146.288 376.668C146.288 376.961 146.235 377.205 146.129 377.4C146.031 377.596 145.909 377.754 145.763 377.876C145.616 377.999 145.453 378.084 145.274 378.133C145.104 378.182 144.945 378.206 144.798 378.206C144.676 378.206 144.562 378.178 144.457 378.121C144.351 378.064 144.229 378.035 144.09 378.035C143.976 378.035 143.887 378.072 143.822 378.145C143.765 378.218 143.716 378.316 143.675 378.438C143.643 378.56 143.622 378.694 143.614 378.841C143.606 378.987 143.602 379.134 143.602 379.28V379.793H144.334ZM169.432 390.877C169.432 390.983 169.42 391.105 169.396 391.243C169.379 391.382 169.326 391.516 169.237 391.646C169.155 391.768 169.033 391.874 168.871 391.963C168.708 392.053 168.488 392.098 168.211 392.098C167.902 392.098 167.658 392.057 167.479 391.976C167.3 391.886 167.162 391.78 167.064 391.658C166.974 391.528 166.913 391.394 166.881 391.255C166.856 391.117 166.844 390.991 166.844 390.877V390.145C166.454 390.722 165.953 391.194 165.343 391.561C164.741 391.919 163.996 392.098 163.109 392.098C162.954 392.098 162.714 392.085 162.389 392.061C162.063 392.037 161.697 391.972 161.29 391.866C160.883 391.76 160.464 391.601 160.033 391.39C159.601 391.178 159.207 390.885 158.849 390.511C158.499 390.128 158.21 389.656 157.982 389.095C157.754 388.525 157.64 387.833 157.64 387.02V380.184C157.64 379.516 157.722 378.926 157.884 378.414C158.047 377.901 158.259 377.457 158.519 377.083C158.788 376.701 159.093 376.383 159.435 376.131C159.776 375.87 160.126 375.655 160.484 375.484C161.314 375.093 162.263 374.869 163.329 374.812C164.232 374.812 165.005 374.914 165.648 375.118C166.291 375.321 166.836 375.586 167.284 375.911C167.731 376.237 168.089 376.607 168.358 377.022C168.626 377.429 168.834 377.844 168.98 378.267C169.127 378.69 169.221 379.097 169.261 379.488C169.31 379.878 169.334 380.216 169.334 380.501C169.334 380.623 169.322 380.774 169.298 380.953C169.282 381.124 169.212 381.29 169.09 381.453C168.968 381.608 168.773 381.742 168.504 381.856C168.244 381.962 167.87 382.015 167.381 382.015C167.21 382.015 166.999 382.007 166.747 381.99C166.502 381.966 166.266 381.913 166.039 381.832C165.811 381.75 165.615 381.632 165.453 381.478C165.29 381.315 165.208 381.095 165.208 380.818C165.208 380.379 165.18 379.988 165.123 379.646C165.074 379.297 164.981 379 164.842 378.755C164.704 378.511 164.513 378.328 164.269 378.206C164.024 378.076 163.711 378.011 163.329 378.011C162.93 378.011 162.621 378.092 162.401 378.255C162.189 378.418 162.035 378.597 161.937 378.792C161.823 379.02 161.758 379.28 161.742 379.573V387.386C161.742 387.646 161.786 387.89 161.876 388.118C161.974 388.346 162.108 388.545 162.279 388.716C162.45 388.887 162.649 389.021 162.877 389.119C163.113 389.217 163.369 389.266 163.646 389.266C163.972 389.266 164.264 389.196 164.525 389.058C164.793 388.912 165.034 388.72 165.245 388.484C165.457 388.24 165.644 387.968 165.807 387.667C165.978 387.357 166.128 387.036 166.258 386.702H165.086C164.85 386.678 164.643 386.617 164.464 386.519C164.301 386.438 164.155 386.316 164.024 386.153C163.902 385.99 163.841 385.766 163.841 385.481C163.841 385.172 163.902 384.936 164.024 384.773C164.155 384.603 164.301 384.476 164.464 384.395C164.643 384.306 164.85 384.253 165.086 384.236H168.26C168.317 384.236 168.407 384.249 168.529 384.273C168.659 384.289 168.789 384.346 168.919 384.444C169.058 384.542 169.176 384.688 169.273 384.883C169.379 385.07 169.432 385.335 169.432 385.677V390.877ZM179.857 381.624C179.857 382.259 179.698 382.723 179.381 383.016C179.072 383.309 178.628 383.455 178.05 383.455C177.969 383.455 177.851 383.463 177.696 383.479C177.55 383.488 177.391 383.52 177.22 383.577C177.049 383.626 176.874 383.703 176.695 383.809C176.524 383.907 176.366 384.045 176.219 384.224C176.073 384.395 175.955 384.615 175.865 384.883C175.776 385.152 175.731 385.473 175.731 385.848V389.339C175.731 389.673 175.711 389.998 175.67 390.315C175.637 390.633 175.556 390.918 175.426 391.17C175.296 391.414 175.108 391.613 174.864 391.768C174.62 391.923 174.291 392 173.875 392C173.469 392 173.147 391.923 172.911 391.768C172.675 391.613 172.492 391.414 172.362 391.17C172.24 390.918 172.158 390.633 172.118 390.315C172.085 389.998 172.069 389.673 172.069 389.339V382.503C172.069 382.161 172.085 381.832 172.118 381.514C172.158 381.189 172.24 380.9 172.362 380.647C172.492 380.395 172.675 380.196 172.911 380.049C173.147 379.895 173.469 379.817 173.875 379.817C174.291 379.817 174.608 379.911 174.828 380.098C175.056 380.277 175.222 380.513 175.328 380.806C175.434 381.091 175.495 381.412 175.511 381.771C175.528 382.12 175.536 382.462 175.536 382.796H175.731C175.845 382.34 175.995 381.929 176.183 381.563C176.37 381.189 176.577 380.875 176.805 380.623C177.033 380.363 177.277 380.163 177.538 380.025C177.798 379.887 178.058 379.817 178.319 379.817C178.636 379.817 178.893 379.854 179.088 379.927C179.291 379.992 179.45 380.098 179.564 380.245C179.678 380.391 179.755 380.578 179.796 380.806C179.837 381.034 179.857 381.307 179.857 381.624ZM191.551 385.042C191.551 385.172 191.543 385.327 191.527 385.506C191.511 385.677 191.445 385.844 191.332 386.006C191.226 386.161 191.055 386.295 190.819 386.409C190.583 386.523 190.249 386.58 189.818 386.58H184.959V387.752C184.959 387.947 184.984 388.151 185.033 388.362C185.082 388.574 185.163 388.769 185.277 388.948C185.399 389.127 185.558 389.274 185.753 389.388C185.948 389.502 186.188 389.559 186.473 389.559C186.799 389.559 187.047 389.522 187.218 389.449C187.397 389.367 187.535 389.27 187.633 389.156C187.739 389.042 187.832 388.92 187.914 388.79C187.995 388.659 188.101 388.537 188.231 388.423C188.369 388.309 188.556 388.216 188.792 388.143C189.037 388.061 189.37 388.021 189.793 388.021C189.997 388.021 190.192 388.037 190.379 388.069C190.575 388.102 190.746 388.163 190.892 388.252C191.039 388.342 191.157 388.468 191.246 388.631C191.336 388.785 191.38 388.989 191.38 389.241C191.38 389.77 191.214 390.214 190.88 390.572C190.546 390.922 190.127 391.202 189.623 391.414C189.118 391.626 188.569 391.776 187.975 391.866C187.389 391.955 186.839 392 186.327 392C185.651 391.992 185.008 391.906 184.398 391.744C183.788 391.581 183.246 391.32 182.774 390.962C182.311 390.604 181.94 390.136 181.664 389.559C181.387 388.981 181.249 388.273 181.249 387.435V384.578C181.249 383.805 181.338 383.15 181.517 382.613C181.704 382.076 181.944 381.628 182.237 381.27C182.53 380.912 182.86 380.635 183.226 380.44C183.592 380.236 183.963 380.086 184.337 379.988C184.711 379.891 185.065 379.83 185.399 379.805C185.741 379.781 186.034 379.769 186.278 379.769C187.1 379.769 187.8 379.842 188.377 379.988C188.963 380.135 189.452 380.326 189.842 380.562C190.233 380.798 190.542 381.071 190.77 381.38C190.998 381.689 191.169 382.011 191.283 382.344C191.397 382.67 191.47 383.003 191.502 383.345C191.535 383.679 191.551 383.992 191.551 384.285V385.042ZM184.959 384.749H188.011C188.011 384.367 187.999 384.029 187.975 383.736C187.958 383.435 187.897 383.182 187.792 382.979C187.694 382.776 187.535 382.621 187.315 382.515C187.104 382.409 186.799 382.356 186.4 382.356C186.066 382.356 185.802 382.409 185.606 382.515C185.419 382.621 185.277 382.755 185.179 382.918C185.082 383.073 185.021 383.239 184.996 383.418C184.972 383.597 184.959 383.756 184.959 383.895V384.749ZM203.709 389.241C203.709 389.583 203.697 389.921 203.673 390.254C203.648 390.58 203.575 390.873 203.453 391.133C203.331 391.394 203.148 391.605 202.904 391.768C202.66 391.923 202.318 392 201.878 392C201.431 392 201.081 391.927 200.829 391.78C200.576 391.626 200.389 391.443 200.267 391.231C200.145 391.011 200.068 390.783 200.035 390.547C200.011 390.311 199.999 390.112 199.999 389.949C199.925 390.185 199.819 390.425 199.681 390.669C199.551 390.914 199.38 391.133 199.168 391.329C198.957 391.524 198.701 391.687 198.399 391.817C198.106 391.939 197.761 392 197.362 392C196.914 392 196.467 391.927 196.019 391.78C195.571 391.634 195.169 391.39 194.811 391.048C194.452 390.706 194.16 390.263 193.932 389.717C193.712 389.164 193.602 388.484 193.602 387.679V384.139C193.602 383.325 193.712 382.645 193.932 382.1C194.16 381.547 194.452 381.103 194.811 380.77C195.169 380.428 195.571 380.184 196.019 380.037C196.467 379.891 196.914 379.817 197.362 379.817C197.761 379.817 198.106 379.878 198.399 380C198.701 380.123 198.957 380.281 199.168 380.477C199.38 380.672 199.551 380.892 199.681 381.136C199.819 381.38 199.925 381.624 199.999 381.868C199.999 381.461 200.056 381.124 200.169 380.855C200.283 380.586 200.43 380.375 200.609 380.22C200.788 380.057 200.987 379.948 201.207 379.891C201.435 379.826 201.659 379.793 201.878 379.793C202.285 379.793 202.611 379.874 202.855 380.037C203.099 380.192 203.282 380.399 203.404 380.66C203.535 380.912 203.616 381.209 203.648 381.551C203.689 381.884 203.709 382.226 203.709 382.576V389.241ZM197.362 387.361C197.362 387.581 197.37 387.797 197.386 388.008C197.403 388.22 197.447 388.411 197.521 388.582C197.594 388.753 197.7 388.891 197.838 388.997C197.984 389.095 198.184 389.144 198.436 389.144C198.753 389.144 199.01 389.074 199.205 388.936C199.409 388.79 199.567 388.57 199.681 388.277C199.795 387.976 199.872 387.601 199.913 387.154C199.962 386.698 199.99 386.157 199.999 385.53C199.999 385.278 199.974 384.989 199.925 384.664C199.885 384.33 199.807 384.017 199.693 383.724C199.579 383.431 199.421 383.182 199.217 382.979C199.014 382.776 198.753 382.674 198.436 382.674C198.184 382.674 197.984 382.727 197.838 382.833C197.7 382.93 197.594 383.06 197.521 383.223C197.447 383.386 197.403 383.573 197.386 383.785C197.37 383.988 197.362 384.196 197.362 384.407V387.361ZM208.177 379.793V377.645C208.177 377.303 208.194 376.969 208.226 376.644C208.267 376.318 208.352 376.029 208.482 375.777C208.613 375.516 208.8 375.309 209.044 375.154C209.288 374.992 209.618 374.91 210.033 374.91C210.44 374.91 210.765 374.992 211.009 375.154C211.253 375.309 211.437 375.516 211.559 375.777C211.689 376.029 211.77 376.318 211.803 376.644C211.843 376.969 211.864 377.303 211.864 377.645V379.793H212.865C213.076 379.793 213.288 379.805 213.5 379.83C213.711 379.846 213.898 379.903 214.061 380C214.232 380.098 214.366 380.245 214.464 380.44C214.57 380.635 214.623 380.908 214.623 381.258C214.623 381.591 214.57 381.856 214.464 382.051C214.366 382.247 214.232 382.393 214.061 382.491C213.898 382.588 213.711 382.653 213.5 382.686C213.288 382.71 213.076 382.723 212.865 382.723H211.864V386.995C211.864 387.158 211.868 387.333 211.876 387.52C211.892 387.699 211.937 387.866 212.01 388.021C212.083 388.175 212.193 388.305 212.34 388.411C212.486 388.509 212.694 388.558 212.962 388.558C213.255 388.558 213.504 388.582 213.707 388.631C213.919 388.672 214.09 388.749 214.22 388.863C214.358 388.977 214.46 389.135 214.525 389.339C214.59 389.542 214.623 389.803 214.623 390.12C214.623 390.446 214.545 390.726 214.391 390.962C214.244 391.198 214.045 391.394 213.792 391.548C213.54 391.703 213.247 391.817 212.914 391.89C212.58 391.963 212.23 392 211.864 392C211.286 392 210.79 391.939 210.375 391.817C209.968 391.695 209.626 391.524 209.349 391.304C209.081 391.076 208.865 390.808 208.702 390.499C208.548 390.181 208.43 389.827 208.348 389.437C208.275 389.046 208.226 388.627 208.202 388.179C208.185 387.723 208.177 387.247 208.177 386.751V382.723H207.494C207.282 382.723 207.07 382.71 206.859 382.686C206.655 382.653 206.472 382.588 206.31 382.491C206.147 382.393 206.013 382.247 205.907 382.051C205.809 381.856 205.76 381.591 205.76 381.258C205.76 380.908 205.809 380.635 205.907 380.44C206.013 380.245 206.147 380.098 206.31 380C206.472 379.903 206.655 379.846 206.859 379.83C207.07 379.805 207.282 379.793 207.494 379.793H208.177ZM227.44 377.718C227.44 377.368 227.456 377.026 227.489 376.692C227.529 376.359 227.615 376.062 227.745 375.801C227.883 375.533 228.087 375.317 228.355 375.154C228.624 374.992 228.994 374.91 229.466 374.91C229.938 374.91 230.309 374.992 230.577 375.154C230.846 375.317 231.045 375.533 231.175 375.801C231.314 376.062 231.399 376.359 231.432 376.692C231.472 377.026 231.493 377.368 231.493 377.718V389.192C231.493 389.55 231.476 389.896 231.444 390.23C231.411 390.564 231.326 390.865 231.188 391.133C231.057 391.394 230.854 391.605 230.577 391.768C230.309 391.923 229.938 392 229.466 392C228.994 392 228.624 391.923 228.355 391.768C228.087 391.605 227.883 391.394 227.745 391.133C227.615 390.865 227.529 390.564 227.489 390.23C227.456 389.896 227.44 389.55 227.44 389.192V377.718ZM243.382 392C242.967 392 242.638 391.923 242.394 391.768C242.149 391.605 241.962 391.394 241.832 391.133C241.702 390.873 241.616 390.58 241.576 390.254C241.543 389.921 241.527 389.583 241.527 389.241V384.407C241.527 384.188 241.515 383.972 241.49 383.76C241.474 383.549 241.429 383.361 241.356 383.199C241.283 383.036 241.173 382.906 241.026 382.808C240.888 382.702 240.697 382.649 240.453 382.649C240.127 382.649 239.863 382.759 239.659 382.979C239.456 383.199 239.293 383.5 239.171 383.882C239.057 384.257 238.976 384.7 238.927 385.213C238.886 385.726 238.866 386.279 238.866 386.873V389.241C238.866 389.583 238.845 389.921 238.805 390.254C238.772 390.58 238.691 390.873 238.561 391.133C238.438 391.394 238.255 391.605 238.011 391.768C237.767 391.923 237.433 392 237.01 392C236.587 392 236.253 391.923 236.009 391.768C235.765 391.605 235.578 391.394 235.448 391.133C235.326 390.873 235.244 390.58 235.204 390.254C235.171 389.921 235.155 389.583 235.155 389.241V382.552C235.155 382.21 235.167 381.876 235.191 381.551C235.224 381.217 235.301 380.92 235.423 380.66C235.545 380.399 235.729 380.192 235.973 380.037C236.225 379.874 236.571 379.793 237.01 379.793C237.458 379.793 237.804 379.87 238.048 380.025C238.3 380.171 238.487 380.354 238.609 380.574C238.731 380.786 238.805 381.01 238.829 381.246C238.854 381.482 238.866 381.681 238.866 381.844C238.939 381.608 239.053 381.368 239.208 381.124C239.37 380.879 239.574 380.66 239.818 380.464C240.062 380.269 240.343 380.11 240.66 379.988C240.978 379.858 241.332 379.793 241.722 379.793C242.259 379.793 242.78 379.923 243.285 380.184C243.789 380.444 244.221 380.867 244.579 381.453C244.701 381.176 244.88 380.936 245.116 380.733C245.352 380.521 245.62 380.346 245.921 380.208C246.222 380.07 246.544 379.968 246.886 379.903C247.228 379.83 247.565 379.793 247.899 379.793C248.347 379.793 248.794 379.866 249.242 380.013C249.689 380.159 250.092 380.403 250.45 380.745C250.808 381.087 251.097 381.535 251.317 382.088C251.545 382.633 251.659 383.309 251.659 384.114V389.241C251.659 389.583 251.638 389.921 251.598 390.254C251.557 390.58 251.472 390.873 251.341 391.133C251.211 391.394 251.02 391.605 250.768 391.768C250.523 391.923 250.194 392 249.779 392C249.356 392 249.018 391.923 248.766 391.768C248.521 391.605 248.334 391.394 248.204 391.133C248.074 390.873 247.988 390.58 247.948 390.254C247.915 389.921 247.899 389.583 247.899 389.241V384.407C247.899 384.188 247.887 383.972 247.862 383.76C247.838 383.549 247.789 383.361 247.716 383.199C247.643 383.036 247.533 382.906 247.386 382.808C247.24 382.702 247.044 382.649 246.8 382.649C246.54 382.649 246.316 382.731 246.129 382.894C245.95 383.056 245.799 383.28 245.677 383.565C245.555 383.85 245.462 384.192 245.396 384.59C245.331 384.981 245.287 385.408 245.262 385.872V389.241C245.262 389.583 245.242 389.921 245.201 390.254C245.169 390.58 245.087 390.873 244.957 391.133C244.827 391.394 244.636 391.605 244.383 391.768C244.139 391.923 243.806 392 243.382 392ZM254.71 382.552C254.71 382.21 254.723 381.876 254.747 381.551C254.771 381.217 254.845 380.92 254.967 380.66C255.089 380.399 255.272 380.192 255.516 380.037C255.76 379.874 256.102 379.793 256.542 379.793C256.989 379.793 257.339 379.87 257.591 380.025C257.844 380.171 258.031 380.354 258.153 380.574C258.275 380.786 258.348 381.01 258.373 381.246C258.405 381.482 258.421 381.681 258.421 381.844C258.495 381.608 258.596 381.368 258.727 381.124C258.865 380.879 259.04 380.66 259.251 380.464C259.463 380.269 259.715 380.11 260.008 379.988C260.309 379.858 260.659 379.793 261.058 379.793C261.506 379.793 261.953 379.866 262.401 380.013C262.848 380.159 263.251 380.403 263.609 380.745C263.967 381.087 264.256 381.535 264.476 382.088C264.704 382.633 264.818 383.309 264.818 384.114V387.654C264.818 388.468 264.704 389.152 264.476 389.705C264.256 390.25 263.967 390.694 263.609 391.036C263.251 391.369 262.848 391.609 262.401 391.756C261.953 391.902 261.506 391.976 261.058 391.976C260.659 391.976 260.309 391.915 260.008 391.792C259.715 391.67 259.463 391.512 259.251 391.316C259.04 391.121 258.865 390.901 258.727 390.657C258.596 390.413 258.495 390.169 258.421 389.925V394.1C258.421 394.458 258.401 394.804 258.36 395.137C258.328 395.471 258.246 395.764 258.116 396.016C257.994 396.277 257.807 396.484 257.555 396.639C257.302 396.801 256.965 396.883 256.542 396.883C256.135 396.883 255.809 396.801 255.565 396.639C255.321 396.484 255.134 396.277 255.003 396.016C254.881 395.764 254.8 395.471 254.759 395.137C254.727 394.804 254.71 394.458 254.71 394.1V382.552ZM261.058 384.432C261.058 384.212 261.05 383.996 261.034 383.785C261.017 383.573 260.973 383.382 260.899 383.211C260.826 383.04 260.716 382.906 260.57 382.808C260.431 382.702 260.236 382.649 259.984 382.649C259.667 382.649 259.406 382.723 259.203 382.869C259.007 383.007 258.853 383.227 258.739 383.528C258.625 383.821 258.543 384.196 258.495 384.651C258.454 385.107 258.43 385.644 258.421 386.263C258.421 386.523 258.442 386.82 258.482 387.154C258.531 387.479 258.613 387.789 258.727 388.082C258.84 388.375 258.999 388.623 259.203 388.826C259.406 389.021 259.667 389.119 259.984 389.119C260.236 389.119 260.431 389.07 260.57 388.973C260.716 388.867 260.826 388.733 260.899 388.57C260.973 388.407 261.017 388.224 261.034 388.021C261.05 387.809 261.058 387.597 261.058 387.386V384.432ZM267.015 384.383C267.015 383.634 267.117 382.999 267.32 382.479C267.524 381.958 267.784 381.522 268.102 381.172C268.427 380.822 268.785 380.55 269.176 380.354C269.575 380.159 269.965 380.013 270.348 379.915C270.73 379.817 271.084 379.756 271.41 379.732C271.743 379.708 272.004 379.695 272.191 379.695C272.378 379.695 272.634 379.708 272.96 379.732C273.285 379.756 273.631 379.817 273.998 379.915C274.372 380.013 274.746 380.159 275.121 380.354C275.503 380.55 275.845 380.822 276.146 381.172C276.455 381.522 276.708 381.958 276.903 382.479C277.098 382.999 277.196 383.634 277.196 384.383V387.41C277.196 388.159 277.098 388.794 276.903 389.314C276.708 389.835 276.455 390.271 276.146 390.621C275.845 390.971 275.503 391.243 275.121 391.438C274.746 391.634 274.372 391.78 273.998 391.878C273.631 391.976 273.285 392.037 272.96 392.061C272.634 392.085 272.378 392.098 272.191 392.098C272.004 392.098 271.743 392.085 271.41 392.061C271.084 392.037 270.73 391.976 270.348 391.878C269.965 391.78 269.575 391.634 269.176 391.438C268.785 391.243 268.427 390.971 268.102 390.621C267.784 390.271 267.524 389.835 267.32 389.314C267.117 388.794 267.015 388.159 267.015 387.41V384.383ZM270.775 388.265C270.783 388.501 270.84 388.708 270.946 388.887C271.035 389.05 271.174 389.196 271.361 389.327C271.556 389.449 271.833 389.51 272.191 389.51C272.533 389.51 272.793 389.449 272.972 389.327C273.159 389.196 273.298 389.05 273.387 388.887C273.485 388.708 273.542 388.501 273.558 388.265V383.846C273.542 383.602 273.485 383.378 273.387 383.174C273.298 383.012 273.159 382.861 272.972 382.723C272.793 382.576 272.533 382.503 272.191 382.503C271.833 382.503 271.556 382.576 271.361 382.723C271.174 382.861 271.035 383.012 270.946 383.174C270.84 383.378 270.783 383.602 270.775 383.846V388.265ZM287.547 381.624C287.547 382.259 287.389 382.723 287.071 383.016C286.762 383.309 286.319 383.455 285.741 383.455C285.659 383.455 285.541 383.463 285.387 383.479C285.24 383.488 285.082 383.52 284.911 383.577C284.74 383.626 284.565 383.703 284.386 383.809C284.215 383.907 284.056 384.045 283.91 384.224C283.763 384.395 283.645 384.615 283.556 384.883C283.466 385.152 283.421 385.473 283.421 385.848V389.339C283.421 389.673 283.401 389.998 283.36 390.315C283.328 390.633 283.246 390.918 283.116 391.17C282.986 391.414 282.799 391.613 282.555 391.768C282.311 391.923 281.981 392 281.566 392C281.159 392 280.838 391.923 280.602 391.768C280.366 391.613 280.182 391.414 280.052 391.17C279.93 390.918 279.849 390.633 279.808 390.315C279.776 389.998 279.759 389.673 279.759 389.339V382.503C279.759 382.161 279.776 381.832 279.808 381.514C279.849 381.189 279.93 380.9 280.052 380.647C280.182 380.395 280.366 380.196 280.602 380.049C280.838 379.895 281.159 379.817 281.566 379.817C281.981 379.817 282.298 379.911 282.518 380.098C282.746 380.277 282.913 380.513 283.019 380.806C283.124 381.091 283.185 381.412 283.202 381.771C283.218 382.12 283.226 382.462 283.226 382.796H283.421C283.535 382.34 283.686 381.929 283.873 381.563C284.06 381.189 284.268 380.875 284.496 380.623C284.723 380.363 284.968 380.163 285.228 380.025C285.488 379.887 285.749 379.817 286.009 379.817C286.327 379.817 286.583 379.854 286.778 379.927C286.982 379.992 287.14 380.098 287.254 380.245C287.368 380.391 287.446 380.578 287.486 380.806C287.527 381.034 287.547 381.307 287.547 381.624ZM290.965 379.793V377.645C290.965 377.303 290.982 376.969 291.014 376.644C291.055 376.318 291.14 376.029 291.271 375.777C291.401 375.516 291.588 375.309 291.832 375.154C292.076 374.992 292.406 374.91 292.821 374.91C293.228 374.91 293.553 374.992 293.797 375.154C294.042 375.309 294.225 375.516 294.347 375.777C294.477 376.029 294.558 376.318 294.591 376.644C294.632 376.969 294.652 377.303 294.652 377.645V379.793H295.653C295.864 379.793 296.076 379.805 296.288 379.83C296.499 379.846 296.686 379.903 296.849 380C297.02 380.098 297.154 380.245 297.252 380.44C297.358 380.635 297.411 380.908 297.411 381.258C297.411 381.591 297.358 381.856 297.252 382.051C297.154 382.247 297.02 382.393 296.849 382.491C296.686 382.588 296.499 382.653 296.288 382.686C296.076 382.71 295.864 382.723 295.653 382.723H294.652V386.995C294.652 387.158 294.656 387.333 294.664 387.52C294.68 387.699 294.725 387.866 294.798 388.021C294.872 388.175 294.981 388.305 295.128 388.411C295.274 388.509 295.482 388.558 295.75 388.558C296.043 388.558 296.292 388.582 296.495 388.631C296.707 388.672 296.878 388.749 297.008 388.863C297.146 388.977 297.248 389.135 297.313 389.339C297.378 389.542 297.411 389.803 297.411 390.12C297.411 390.446 297.333 390.726 297.179 390.962C297.032 391.198 296.833 391.394 296.581 391.548C296.328 391.703 296.035 391.817 295.702 391.89C295.368 391.963 295.018 392 294.652 392C294.074 392 293.578 391.939 293.163 391.817C292.756 391.695 292.414 391.524 292.137 391.304C291.869 391.076 291.653 390.808 291.49 390.499C291.336 390.181 291.218 389.827 291.136 389.437C291.063 389.046 291.014 388.627 290.99 388.179C290.973 387.723 290.965 387.247 290.965 386.751V382.723H290.282C290.07 382.723 289.859 382.71 289.647 382.686C289.444 382.653 289.26 382.588 289.098 382.491C288.935 382.393 288.801 382.247 288.695 382.051C288.597 381.856 288.548 381.591 288.548 381.258C288.548 380.908 288.597 380.635 288.695 380.44C288.801 380.245 288.935 380.098 289.098 380C289.26 379.903 289.444 379.846 289.647 379.83C289.859 379.805 290.07 379.793 290.282 379.793H290.965ZM309.569 389.241C309.569 389.583 309.557 389.921 309.532 390.254C309.508 390.58 309.435 390.873 309.312 391.133C309.19 391.394 309.007 391.605 308.763 391.768C308.519 391.923 308.177 392 307.738 392C307.29 392 306.94 391.927 306.688 391.78C306.436 391.626 306.249 391.443 306.126 391.231C306.004 391.011 305.927 390.783 305.895 390.547C305.87 390.311 305.858 390.112 305.858 389.949C305.785 390.185 305.679 390.425 305.541 390.669C305.41 390.914 305.239 391.133 305.028 391.329C304.816 391.524 304.56 391.687 304.259 391.817C303.966 391.939 303.62 392 303.221 392C302.774 392 302.326 391.927 301.878 391.78C301.431 391.634 301.028 391.39 300.67 391.048C300.312 390.706 300.019 390.263 299.791 389.717C299.571 389.164 299.461 388.484 299.461 387.679V384.139C299.461 383.325 299.571 382.645 299.791 382.1C300.019 381.547 300.312 381.103 300.67 380.77C301.028 380.428 301.431 380.184 301.878 380.037C302.326 379.891 302.774 379.817 303.221 379.817C303.62 379.817 303.966 379.878 304.259 380C304.56 380.123 304.816 380.281 305.028 380.477C305.239 380.672 305.41 380.892 305.541 381.136C305.679 381.38 305.785 381.624 305.858 381.868C305.858 381.461 305.915 381.124 306.029 380.855C306.143 380.586 306.289 380.375 306.468 380.22C306.647 380.057 306.847 379.948 307.066 379.891C307.294 379.826 307.518 379.793 307.738 379.793C308.145 379.793 308.47 379.874 308.714 380.037C308.958 380.192 309.142 380.399 309.264 380.66C309.394 380.912 309.475 381.209 309.508 381.551C309.549 381.884 309.569 382.226 309.569 382.576V389.241ZM303.221 387.361C303.221 387.581 303.229 387.797 303.246 388.008C303.262 388.22 303.307 388.411 303.38 388.582C303.453 388.753 303.559 388.891 303.697 388.997C303.844 389.095 304.043 389.144 304.295 389.144C304.613 389.144 304.869 389.074 305.064 388.936C305.268 388.79 305.427 388.57 305.541 388.277C305.654 387.976 305.732 387.601 305.772 387.154C305.821 386.698 305.85 386.157 305.858 385.53C305.858 385.278 305.833 384.989 305.785 384.664C305.744 384.33 305.667 384.017 305.553 383.724C305.439 383.431 305.28 383.182 305.077 382.979C304.873 382.776 304.613 382.674 304.295 382.674C304.043 382.674 303.844 382.727 303.697 382.833C303.559 382.93 303.453 383.06 303.38 383.223C303.307 383.386 303.262 383.573 303.246 383.785C303.229 383.988 303.221 384.196 303.221 384.407V387.361ZM322.679 389.217C322.679 389.567 322.659 389.909 322.618 390.242C322.577 390.576 322.488 390.873 322.35 391.133C322.219 391.394 322.028 391.605 321.776 391.768C321.532 391.923 321.198 392 320.775 392C320.36 392 320.03 391.923 319.786 391.768C319.542 391.605 319.355 391.394 319.225 391.133C319.094 390.873 319.009 390.576 318.968 390.242C318.936 389.909 318.919 389.567 318.919 389.217V384.456C318.919 384.228 318.907 384.004 318.883 383.785C318.867 383.565 318.822 383.374 318.749 383.211C318.675 383.04 318.565 382.906 318.419 382.808C318.281 382.702 318.089 382.649 317.845 382.649C317.512 382.649 317.243 382.759 317.04 382.979C316.836 383.199 316.673 383.5 316.551 383.882C316.437 384.265 316.36 384.716 316.319 385.237C316.279 385.75 316.258 386.303 316.258 386.897V389.217C316.258 389.567 316.238 389.909 316.197 390.242C316.157 390.576 316.067 390.873 315.929 391.133C315.799 391.394 315.607 391.605 315.355 391.768C315.111 391.923 314.777 392 314.354 392C313.939 392 313.609 391.923 313.365 391.768C313.121 391.605 312.934 391.394 312.804 391.133C312.674 390.873 312.588 390.576 312.547 390.242C312.515 389.909 312.499 389.567 312.499 389.217V382.552C312.499 382.202 312.511 381.864 312.535 381.539C312.56 381.205 312.633 380.912 312.755 380.66C312.877 380.399 313.06 380.192 313.304 380.037C313.556 379.874 313.906 379.793 314.354 379.793C314.802 379.793 315.152 379.87 315.404 380.025C315.656 380.171 315.843 380.35 315.965 380.562C316.096 380.774 316.177 380.997 316.209 381.233C316.242 381.469 316.258 381.673 316.258 381.844C316.323 381.608 316.425 381.368 316.563 381.124C316.702 380.879 316.877 380.66 317.088 380.464C317.308 380.269 317.569 380.11 317.87 379.988C318.171 379.858 318.521 379.793 318.919 379.793C319.367 379.793 319.815 379.866 320.262 380.013C320.71 380.159 321.113 380.403 321.471 380.745C321.829 381.087 322.118 381.535 322.337 382.088C322.565 382.641 322.679 383.325 322.679 384.139V389.217ZM328.832 387.776C328.832 387.907 328.844 388.073 328.868 388.277C328.893 388.472 328.95 388.667 329.039 388.863C329.129 389.05 329.259 389.213 329.43 389.351C329.609 389.489 329.849 389.559 330.15 389.559C330.508 389.559 330.789 389.518 330.992 389.437C331.196 389.355 331.346 389.245 331.444 389.107C331.542 388.96 331.603 388.794 331.627 388.606C331.651 388.411 331.664 388.208 331.664 387.996C331.664 387.89 331.68 387.772 331.712 387.642C331.753 387.504 331.843 387.378 331.981 387.264C332.119 387.142 332.323 387.044 332.591 386.971C332.868 386.889 333.242 386.849 333.714 386.849C334.146 386.849 334.479 386.897 334.715 386.995C334.951 387.093 335.122 387.211 335.228 387.349C335.342 387.479 335.407 387.618 335.423 387.764C335.44 387.903 335.448 388.012 335.448 388.094C335.448 388.615 335.366 389.074 335.204 389.473C335.049 389.864 334.837 390.206 334.569 390.499C334.3 390.783 333.991 391.023 333.641 391.219C333.291 391.414 332.917 391.569 332.518 391.683C332.127 391.797 331.729 391.878 331.322 391.927C330.915 391.976 330.524 392 330.15 392C329.507 392 328.884 391.915 328.282 391.744C327.68 391.573 327.143 391.304 326.671 390.938C326.207 390.572 325.833 390.104 325.548 389.534C325.263 388.956 325.121 388.265 325.121 387.459V384.603C325.121 383.829 325.21 383.174 325.389 382.637C325.576 382.1 325.816 381.653 326.109 381.294C326.402 380.936 326.732 380.66 327.098 380.464C327.464 380.261 327.835 380.11 328.209 380.013C328.583 379.915 328.937 379.854 329.271 379.83C329.613 379.805 329.906 379.793 330.15 379.793C330.874 379.793 331.505 379.854 332.042 379.976C332.587 380.098 333.055 380.261 333.446 380.464C333.836 380.668 334.158 380.904 334.41 381.172C334.671 381.433 334.874 381.709 335.021 382.002C335.167 382.295 335.269 382.588 335.326 382.881C335.391 383.174 335.423 383.447 335.423 383.699C335.423 383.829 335.415 383.984 335.399 384.163C335.383 384.334 335.318 384.501 335.204 384.664C335.098 384.818 334.927 384.952 334.691 385.066C334.455 385.18 334.121 385.237 333.69 385.237C333.535 385.237 333.34 385.233 333.104 385.225C332.876 385.209 332.652 385.164 332.433 385.091C332.213 385.018 332.026 384.904 331.871 384.749C331.716 384.594 331.639 384.375 331.639 384.09C331.639 383.895 331.627 383.707 331.603 383.528C331.586 383.341 331.529 383.178 331.432 383.04C331.334 382.902 331.183 382.792 330.98 382.71C330.785 382.621 330.508 382.576 330.15 382.576C329.849 382.576 329.609 382.625 329.43 382.723C329.259 382.82 329.129 382.942 329.039 383.089C328.95 383.235 328.893 383.39 328.868 383.553C328.844 383.715 328.832 383.862 328.832 383.992V387.776ZM347.728 385.042C347.728 385.172 347.72 385.327 347.704 385.506C347.687 385.677 347.622 385.844 347.508 386.006C347.403 386.161 347.232 386.295 346.996 386.409C346.76 386.523 346.426 386.58 345.995 386.58H341.136V387.752C341.136 387.947 341.161 388.151 341.209 388.362C341.258 388.574 341.34 388.769 341.454 388.948C341.576 389.127 341.734 389.274 341.93 389.388C342.125 389.502 342.365 389.559 342.65 389.559C342.975 389.559 343.224 389.522 343.395 389.449C343.574 389.367 343.712 389.27 343.81 389.156C343.915 389.042 344.009 388.92 344.09 388.79C344.172 388.659 344.278 388.537 344.408 388.423C344.546 388.309 344.733 388.216 344.969 388.143C345.213 388.061 345.547 388.021 345.97 388.021C346.174 388.021 346.369 388.037 346.556 388.069C346.751 388.102 346.922 388.163 347.069 388.252C347.215 388.342 347.333 388.468 347.423 388.631C347.512 388.785 347.557 388.989 347.557 389.241C347.557 389.77 347.39 390.214 347.057 390.572C346.723 390.922 346.304 391.202 345.799 391.414C345.295 391.626 344.745 391.776 344.151 391.866C343.565 391.955 343.016 392 342.503 392C341.828 391.992 341.185 391.906 340.575 391.744C339.964 391.581 339.423 391.32 338.951 390.962C338.487 390.604 338.117 390.136 337.84 389.559C337.564 388.981 337.425 388.273 337.425 387.435V384.578C337.425 383.805 337.515 383.15 337.694 382.613C337.881 382.076 338.121 381.628 338.414 381.27C338.707 380.912 339.037 380.635 339.403 380.44C339.769 380.236 340.139 380.086 340.514 379.988C340.888 379.891 341.242 379.83 341.576 379.805C341.917 379.781 342.21 379.769 342.455 379.769C343.277 379.769 343.976 379.842 344.554 379.988C345.14 380.135 345.628 380.326 346.019 380.562C346.41 380.798 346.719 381.071 346.947 381.38C347.175 381.689 347.346 382.011 347.459 382.344C347.573 382.67 347.647 383.003 347.679 383.345C347.712 383.679 347.728 383.992 347.728 384.285V385.042ZM341.136 384.749H344.188C344.188 384.367 344.176 384.029 344.151 383.736C344.135 383.435 344.074 383.182 343.968 382.979C343.871 382.776 343.712 382.621 343.492 382.515C343.281 382.409 342.975 382.356 342.577 382.356C342.243 382.356 341.979 382.409 341.783 382.515C341.596 382.621 341.454 382.755 341.356 382.918C341.258 383.073 341.197 383.239 341.173 383.418C341.148 383.597 341.136 383.756 341.136 383.895V384.749Z" fill="white"/>
</g>
<defs>
<clipPath id="clip0_669_3">
<rect width="375" height="847" fill="white"/>
</clipPath>
</defs>
</svg>
