<?xml version="1.0" encoding="utf-8"?>
<!-- Generator: Adobe Illustrator 28.0.0, SVG Export Plug-In . SVG Version: 6.00 Build 0)  -->
<svg version="1.1" id="Layer_1" xmlns="http://www.w3.org/2000/svg" xmlns:xlink="http://www.w3.org/1999/xlink" x="0px" y="0px"
	 viewBox="0 0 375 847" style="enable-background:new 0 0 375 847;" xml:space="preserve">
<style type="text/css">
	.st0{clip-path:url(#SVGID_00000029760637833068749980000007397012320311422362_);}
	.st1{fill:#F1F1F1;}
	.st2{fill:#3C3C3C;}
	.st3{fill:#337096;}
	.st4{fill:#087E8B;}
	.st5{fill:#AFD2A4;}
	.st6{fill:#EC6664;}
	.st7{fill:#74C1DD;}
	.st8{fill:#FFFFFF;}
</style>
<g>
	<defs>
		<rect id="SVGID_1_" width="375" height="847"/>
	</defs>
	<clipPath id="SVGID_00000107589230686557675550000013412401455629220512_">
		<use xlink:href="#SVGID_1_"  style="overflow:visible;"/>
	</clipPath>
	<g style="clip-path:url(#SVGID_00000107589230686557675550000013412401455629220512_);">
		<rect class="st1" width="375" height="847"/>
		<rect class="st2" width="375" height="847"/>
		<path class="st3" d="M217,258.5c13.7-4.4,40,10,42.4,17.4c2.4,7.4,37,20.9,23.4,25.3c-13.7,4.4-73.9,7-76.3-0.4
			C204.1,293.4,203.3,262.9,217,258.5z"/>
		<path class="st3" d="M197.3,755.4c14.4,0.2,34.6,22.4,34.5,30.1c-0.1,7.7,28.3,31.7,14,31.5c-14.4-0.2-72.2-17.2-72.1-24.9
			C173.8,784.3,182.9,755.1,197.3,755.4z"/>
		<path class="st3" d="M160.6,489.4c-14,3.2-39-13.4-40.7-21c-1.7-7.5-35.1-24-21.1-27.2c14-3.2,74.2-0.5,76,7
			C176.6,455.7,174.6,486.2,160.6,489.4z"/>
		<path class="st4" d="M318.5-55.5c12.1-7.7,66.8,1.6,71,8.1c4.2,6.5-20.8,37.5-42.7,22.9C335.3-12,318.5-5.8,314.3-12.3
			C310.2-18.8,306.4-47.7,318.5-55.5z"/>
		<path class="st4" d="M90.2,301.6c-11.5,8.6-66.7,3-71.3-3.2c-4.6-6.2,18.1-38.9,41-25.8c10.5-13.2,26.9-20.6,31.5-14.4
			C96,264.4,101.8,293,90.2,301.6z"/>
		<path class="st4" d="M56.3,797.5c-12.2,7.6-66.8-2.1-70.9-8.7c-4.1-6.5,21.1-37.4,42.9-22.6c11.5-12.4,28.4-18.4,32.5-11.9
			C64.9,761,68.4,789.9,56.3,797.5z"/>
		<path class="st4" d="M287.5,449.4c11.5-8.6,66.7-3.5,71.4,2.7c4.7,6.2-17.9,39-40.8,26.1c-10.5,13.3-26.8,20.8-31.4,14.6
			C282,486.5,276,458,287.5,449.4z"/>
		<path class="st4" d="M-2.4-47.1c12.1-7.7,46.8,8.2,51,14.7c6.7,10.5-7,33.3-28.9,18.6C8.2-1.3-2.5,2.5-6.6-4
			C-10.8-10.5-14.5-39.4-2.4-47.1z"/>
		<path class="st4" d="M377.3,788.6c-12.2,7.6-46.8-8.6-50.9-15.1c-6.6-10.5,7.3-33.2,29.1-18.4c11.5-12.4,22.2-16.2,26.3-9.6
			C385.9,752,389.4,781,377.3,788.6z"/>
		<path class="st4" d="M-30.1,446.3c12.3-7.5,46.6,9.2,50.7,15.8c6.5,10.6-7.7,33.1-29.3,18c-11.7,12.2-22.4,15.9-26.4,9.3
			C-39.3,482.8-42.4,453.8-30.1,446.3z"/>
		<path class="st5" d="M136.9,295.4c-6.5-12.8,5.9-42.4,12.7-45.9c8.1-13.4,28.5,3.8,23.1,20.2c6.5,12.8,14.4,26,7.5,29.5
			C173.4,302.6,143.4,308.2,136.9,295.4z"/>
		<path class="st5" d="M101.2,811c-6.5-12.8,5.7-42.4,12.6-46c8-13.5,28.5,3.8,23.2,20.1c6.5,12.8,14.5,26,7.6,29.5
			C137.7,818.1,107.7,823.8,101.2,811z"/>
		<path class="st5" d="M241.2,451.6c6.4,12.9-6.3,42.4-13.2,45.8c-8.2,13.4-28.4-4.1-22.9-20.4c-6.4-12.9-14.2-26.2-7.2-29.6
			C204.7,444,234.8,438.7,241.2,451.6z"/>
		<path class="st6" d="M266.9,6.1c1.1-14.3,17.1-49.9,24.8-49.3c7.7,0.6,16.4,29.6,15.3,43.9c-1.1,14.3,7.9,50.1,0.2,49.5
			C299.5,49.7,265.8,20.5,266.9,6.1z"/>
		<path class="st6" d="M143.3,240.7c-1.3,14.3-17.6,49.7-25.3,49c-7.7-0.7-16.1-29.8-14.8-44.1c1.3-14.3-7.4-50.2,0.3-49.5
			C111.2,196.8,144.5,226.4,143.3,240.7z"/>
		<path class="st6" d="M109.3,733.3c-1.2,14.3-17.4,49.8-25.1,49.1c-7.7-0.7-16.2-29.7-14.9-44c1.2-14.3-7.5-50.2,0.2-49.5
			C77.1,689.5,110.5,719,109.3,733.3z"/>
		<path class="st6" d="M238.1,503.2c1.4-14.3,18.1-49.5,25.8-48.8c7.7,0.8,15.8,29.9,14.4,44.2c-1.4,14.3,6.9,50.3-0.8,49.5
			C269.7,547.4,236.7,517.5,238.1,503.2z"/>
		<path class="st6" d="M104.4-63.7c12.7,6.7,39,35.5,35.4,42.3c-3.6,6.8-33.7,3.3-46.4-3.4c-12.7-6.7-49.2-12.6-45.6-19.5
			C51.5-51.1,91.7-70.4,104.4-63.7z"/>
		<path class="st6" d="M297.5,298.5c-9.4-10.9-23.5-47.2-17.7-52.2c5.8-5.1,32.6,9.1,42,20c9.4,10.9,41.2,29.6,35.4,34.6
			C351.3,305.9,306.9,309.4,297.5,298.5z"/>
		<path class="st6" d="M270.3,806.4c-12.6-6.8-38.8-35.7-35.1-42.6c3.7-6.8,33.7-3.1,46.3,3.7c12.6,6.8,49.1,13,45.4,19.8
			C323.3,794.2,283,813.2,270.3,806.4z"/>
		<path class="st6" d="M78.6,446.8c9.3,11,23,47.4,17.1,52.4c-5.9,5-32.5-9.5-41.8-20.4c-9.3-11-40.9-30-35-35
			C24.8,438.8,69.3,435.9,78.6,446.8z"/>
		<path class="st7" d="M322.8,0.6c11.6-8.5,46.5-11.1,51.1-4.8c4.6,6.2-9.2,23.1-20.8,31.6c-11.6,8.5-22.3,22.9-26.9,16.7
			C321.7,37.8,311.3,9.1,322.8,0.6z"/>
		<path class="st7" d="M87.3,236.7c-11.7,8.4-46.6,10.6-51.1,4.3c-4.5-6.3,9.5-23,21.1-31.4s22.5-22.6,27-16.4
			C88.9,199.5,99,228.3,87.3,236.7z"/>
		<path class="st7" d="M52.4,738.5c-11.6,8.4-46.6,10.7-51.1,4.5c-4.5-6.3,9.4-23.1,21-31.5c11.6-8.4,22.4-22.7,27-16.4
			C53.8,701.3,64,730,52.4,738.5z"/>
		<path class="st7" d="M294.1,507.8c11.7-8.3,46.7-10.1,51.1-3.8c4.5,6.3-9.7,22.9-21.5,31.2s-22.7,22.4-27.2,16.1
			C292.1,545,282.3,516.1,294.1,507.8z"/>
		<path class="st7" d="M234.3,8.1c-10.8,9.4-45.4,14.8-50.5,9c-5.1-5.8,7.3-23.8,18.2-33.2c10.8-9.4,20.3-24.6,25.4-18.8
			C232.4-29.1,245.1-1.3,234.3,8.1z"/>
		<path class="st7" d="M177,227.1c10.9-9.3,45.6-14.3,50.6-8.4c5,5.9-7.6,23.7-18.5,33c-10.9,9.3-20.6,24.4-25.6,18.5
			C178.4,264.3,166,236.4,177,227.1z"/>
		<path class="st7" d="M143,732.6c10.9-9.3,45.5-14.5,50.6-8.6c5,5.9-7.5,23.7-18.4,33.1c-10.9,9.3-20.5,24.5-25.6,18.6
			C144.5,769.8,132.1,742,143,732.6z"/>
		<path class="st7" d="M205.1,517.9c-7.9,12-39.7,26.6-46.1,22.4c-6.5-4.2,0.6-24.9,8.5-36.9c7.9-12,12.9-29.2,19.4-25
			S213,505.9,205.1,517.9z"/>
		<path class="st3" d="M349.7,60.3c-0.1-14.4,21.6-35.1,29.4-35.1s31.1-29,31.2-14.6c0.1,14.4-15.7,72.6-23.4,72.6
			C379.1,83.2,349.8,74.7,349.7,60.3z"/>
		<path class="st3" d="M61.1,176.6c-0.1,14.4-22,34.9-29.7,34.8c-7.7-0.1-31.4,28.7-31.3,14.3c0.1-14.4,16.5-72.4,24.2-72.3
			C32,153.4,61.2,162.3,61.1,176.6z"/>
		<path class="st3" d="M25.9,678.5c0,14.4-21.9,34.9-29.6,34.9c-7.7,0-31.3,28.8-31.3,14.4c0-14.4,16.2-72.4,24-72.4
			C-3.3,655.4,26,664.1,25.9,678.5z"/>
		<path class="st3" d="M319.7,568.1c0.2-14.4,22.3-34.6,30.1-34.5c7.7,0.1,31.7-28.3,31.5-14c-0.2,14.4-17.2,72.2-24.9,72.1
			C348.6,591.6,319.5,582.5,319.7,568.1z"/>
		<path class="st3" d="M46.1,31.6C45.7,46,23.4,66,15.7,65.8c-7.7-0.2-32,28-31.6,13.7C-15.5,65.1,2,7.4,9.8,7.6
			C17.5,7.8,46.5,17.3,46.1,31.6z"/>
		<path class="st3" d="M364.3,208.6c0.5-14.4,23.1-34.2,30.8-33.9c7.7,0.3,32.3-27.7,31.7-13.3c-0.5,14.4-18.7,71.9-26.4,71.6
			C392.7,232.7,363.8,222.9,364.3,208.6z"/>
		<path class="st3" d="M329.3,709.5c0.5-14.4,22.9-34.2,30.7-34c7.7,0.3,32.2-27.8,31.7-13.4c-0.5,14.4-18.5,71.9-26.2,71.7
			C357.8,733.5,328.8,723.9,329.3,709.5z"/>
		<path class="st3" d="M10.8,523.1c-0.7,14.3-23.4,33.9-31.1,33.6c-7.7-0.4-32.6,27.3-31.9,13c0.7-14.3,19.4-71.7,27.1-71.3
			C-17.4,498.7,11.5,508.7,10.8,523.1z"/>
		<path class="st7" d="M69.9-22.8c14.3-1.4,45.6,14.3,46.3,22c0.7,7.7-19.8,15.1-34.1,16.5S51.3,24,50.6,16.3
			C49.8,8.6,55.6-21.4,69.9-22.8z"/>
		<path class="st7" d="M333.2,209.1c13.4,5,34.7,32.8,32,40.1c-2.7,7.2-24.4,4.9-37.9-0.1c-13.5-5-31.3-6.1-28.6-13.4
			C301.4,228.4,319.7,204.1,333.2,209.1z"/>
		<path class="st7" d="M305.1,763.7c-14.3,1.3-45.5-14.6-46.2-22.3c-0.7-7.7,19.9-15,34.2-16.3c14.3-1.3,30.9-8,31.6-0.3
			C325.4,732.5,319.4,762.4,305.1,763.7z"/>
		<path class="st7" d="M29.6,494.4c13.9-3.4,47.2,7.6,49,15.1c1.8,7.5-17.4,17.8-31.3,21.2s-29.3,12.6-31.2,5.1
			C14.2,528.4,15.6,497.9,29.6,494.4z"/>
		<path class="st6" d="M183.5,36.7c-1.6,14.3-18.6,49.3-26.3,48.5s-15.5-30.1-13.9-44.4s-6.4-50.4,1.3-49.5
			C152.3-7.9,185.1,22.4,183.5,36.7z"/>
		<path class="st6" d="M227,202.1c1.7-14.3,19.1-49.1,26.8-48.2c7.7,0.9,15.2,30.2,13.4,44.5c-1.7,14.3,5.8,50.4-1.8,49.5
			C257.8,246.9,225.3,216.3,227,202.1z"/>
		<path class="st6" d="M192,703.4c1.7-14.3,19-49.2,26.6-48.3c7.7,0.9,15.3,30.2,13.6,44.5c-1.7,14.3,6,50.4-1.7,49.5
			C222.8,748.2,190.3,717.7,192,703.4z"/>
		<path class="st6" d="M154,541c-1.9,14.2-19.6,48.9-27.3,47.9c-7.7-1-14.9-30.4-13-44.6c1.9-14.2-5.3-50.5,2.3-49.5
			C123.7,495.8,155.9,526.7,154,541z"/>
		<path class="st4" d="M125,65.3c-12.3,7.4-66.7-3.7-70.7-10.3c-4-6.6,22-36.9,43.4-21.6c11.8-12.1,28.8-17.8,32.8-11.1
			S137.3,57.9,125,65.3z"/>
		<path class="st4" d="M285.9,165.1c12.4-7.2,66.7,4.4,70.6,11.1c3.9,6.7-22.4,36.6-43.6,21.1c-12,12-29,17.5-32.9,10.8
			C276,201.3,273.5,172.3,285.9,165.1z"/>
		<path class="st4" d="M250.7,675.2c12.4-7.3,66.7,4.2,70.6,10.8c3.9,6.7-22.2,36.7-43.5,21.2c-11.9,12-29,17.6-32.9,10.9
			C241,711.5,238.3,682.5,250.7,675.2z"/>
		<path class="st4" d="M95.9,576.4c-12.5,7.1-66.6-5.1-70.4-11.8c-3.8-6.7,22.7-36.4,43.8-20.6c12.1-11.9,29.2-17.2,33-10.4
			C106.1,540.2,108.4,569.3,95.9,576.4z"/>
		<path class="st5" d="M227,64.5c-6.2-12.9,6.7-42.3,13.7-45.7c8.4-13.3,28.4,4.4,22.7,20.6c6.2,12.9,13.9,26.3,6.9,29.7
			C263.4,72.5,233.3,77.5,227,64.5z"/>
		<path class="st5" d="M183.8,173.7c6.1,13-7.2,42.2-14.2,45.5c-8.5,13.2-28.3-4.7-22.5-20.9c-6.1-13-13.6-26.5-6.6-29.7
			C147.5,165.4,177.7,160.7,183.8,173.7z"/>
		<path class="st5" d="M148.6,675.2c6.1,13-7,42.3-14,45.6c-8.5,13.2-28.4-4.6-22.6-20.8c-6.1-13-13.7-26.4-6.7-29.7
			C112.3,667,142.5,662.3,148.6,675.2z"/>
		<path class="st5" d="M199.9,573.7c-6-13.1,7.6-42.2,14.6-45.4c8.6-13.1,28.3,5,22.3,21.1c6,13.1,13.4,26.6,6.3,29.8
			C236.1,582.5,205.9,586.8,199.9,573.7z"/>
		<path class="st7" d="M175.4,78.7c2.1-14.2,24.8-40.8,32.5-39.7c7.7,1.1,9.9,22.8,7.9,37c-2.1,14.2,0.6,31.9-7.1,30.8
			C201,105.8,173.3,93,175.4,78.7z"/>
		<path class="st7" d="M235.6,154.1c-2.2,14.2-25.2,40.6-32.9,39.3c-7.6-1.2-9.7-22.9-7.5-37.1c2.2-14.2-0.3-31.9,7.4-30.7
			C210.3,126.8,237.8,139.9,235.6,154.1z"/>
		<path class="st7" d="M200.4,661.4c-2.2,14.2-25.1,40.6-32.8,39.5c-7.6-1.2-9.8-22.9-7.6-37.1c2.2-14.2-0.4-31.9,7.3-30.7
			S202.6,647.2,200.4,661.4z"/>
		<path class="st7" d="M145,591.9c2.4-14.2,25.7-40.3,33.3-39s9.5,23,7.1,37.2c-2.4,14.2-0.1,31.9-7.7,30.6
			C170.1,619.4,142.6,606,145,591.9z"/>
		<path class="st3" d="M306.4,53.9c14.3,0.6,34.1,23.2,33.8,30.9c-0.3,7.7,27.6,32.4,13.2,31.8C339.1,116,281.6,97.7,282,90
			S292.1,53.3,306.4,53.9z"/>
		<path class="st3" d="M104.3,183.5C90,182.8,70.5,160,70.8,152.3c0.4-7.7-27.2-32.7-12.9-31.9c14.3,0.7,71.6,19.7,71.2,27.4
			C128.8,155.4,118.6,184.2,104.3,183.5z"/>
		<path class="st3" d="M69.2,686.2c-14.3-0.7-33.9-23.4-33.6-31.1c0.4-7.7-27.3-32.6-13-31.9c14.3,0.7,71.7,19.4,71.3,27.2
			C93.5,658.1,83.5,686.9,69.2,686.2z"/>
		<path class="st3" d="M276.5,558.8c14.3,0.9,33.6,23.9,33.1,31.6c-0.5,7.7,26.9,32.9,12.6,32.1c-14.3-0.9-71.4-20.4-70.9-28.1
			C251.8,586.6,262.2,557.9,276.5,558.8z"/>
		<path class="st6" d="M256.5,140.7c-10.1-10.2-26.5-45.6-21-51c5.5-5.4,33.1,7,43.2,17.2c10.1,10.2,43.1,26.9,37.6,32.3
			C310.7,144.6,266.6,150.9,256.5,140.7z"/>
		<path class="st6" d="M155.1,97.3c10,10.3,26,45.9,20.5,51.2c-5.6,5.4-33-7.3-43-17.7c-10-10.3-42.8-27.3-37.2-32.7
			C101,92.8,145.2,87,155.1,97.3z"/>
		<path class="st6" d="M119.7,598.9c10,10.3,26.2,45.8,20.6,51.2c-5.5,5.4-33-7.2-43-17.5c-10-10.3-42.9-27.2-37.3-32.6
			S109.7,588.6,119.7,598.9z"/>
		<path class="st6" d="M224.8,644.5c-9.9-10.4-25.6-46.1-19.9-51.4c5.6-5.3,32.9,7.7,42.8,18.1c9.9,10.4,42.5,27.8,36.9,33.1
			C279,649.5,234.7,654.9,224.8,644.5z"/>
		<path class="st4" d="M375.7,166.1c-12.3,7.4-46.5-9.6-50.5-16.3c-6.4-10.7,8.1-33,29.5-17.7c11.8-12.1,22.6-15.6,26.5-9
			C385.2,129.7,388.1,158.7,375.7,166.1z"/>
		<path class="st4" d="M36.2,70.6c12.4-7.2,46.4,10.1,50.3,16.8c6.3,10.7-8.4,32.9-29.7,17.4c-12,12-22.7,15.4-26.6,8.7
			S23.8,77.8,36.2,70.6z"/>
		<path class="st4" d="M-2.3,575.6c12.4-7.3,46.5,10,50.4,16.7c6.3,10.7-8.3,33-29.6,17.5c-11.9,12-22.7,15.5-26.6,8.8
			C-12,611.9-14.7,582.8-2.3,575.6z"/>
		<path class="st4" d="M343.5,674.4c-12.5,7.1-46.3-10.6-50.2-17.3c-6.1-10.8,8.8-32.9,29.8-17.1c12.1-11.9,22.9-15.2,26.7-8.4
			C353.7,638.2,356,667.3,343.5,674.4z"/>
		<path class="st5" d="M-19.1,138.3c-6.6-12.8,5.6-42.5,12.4-46c8-13.5,28.5,3.7,23.3,20c6.6,12.8,14.6,25.9,7.7,29.5
			C17.5,145.3-12.5,151-19.1,138.3z"/>
		<path class="st5" d="M400.2,606c5.8,13.1-8.1,42.1-15.1,45.2c-8.8,13-28.2-5.3-22-21.3c-5.8-13.1-13-26.8-6-29.9
			C364.1,596.9,394.3,592.9,400.2,606z"/>
		<path class="st6" d="M-0.9,294.9c-13.8,4.1-52.7,1.9-54.9-5.5c-2.2-7.4,21.8-25.9,35.5-30c13.8-4.1,44-25.3,46.2-17.9
			C28.1,248.9,12.8,290.8-0.9,294.9z"/>
		<path class="st6" d="M406.9,493c-12.2,7.6-50.3,15.7-54.4,9.2c-4.1-6.6,14.2-30.7,26.4-38.3c12.2-7.6,35.8-36,39.8-29.5
			C422.8,441,419.1,485.4,406.9,493z"/>
		<path class="st3" d="M97.2,839.5c-7.6,12.2-37,18.1-43.6,14c-6.6-4.1-41.8,7.9-34.2-4.3c7.6-12.2,52.1-52.9,58.6-48.8
			C84.6,804.4,104.8,827.3,97.2,839.5z"/>
		<path class="st7" d="M371.1,820.7c0.9,14.3-15.9,45.1-23.6,45.5c-7.7,0.5-14.4-20.3-15.3-34.6c-0.9-14.3-7.1-31.1,0.6-31.6
			C340.5,799.5,370.3,806.3,371.1,820.7z"/>
		<path class="st6" d="M202.3,843.5c-1.2,14.3-17.3,49.8-25,49.2c-7.7-0.6-16.3-29.7-15.1-44c1.2-14.3-7.7-50.2,0-49.5
			C169.9,799.9,203.4,829.2,202.3,843.5z"/>
		<path class="st5" d="M306.8,855.7c-13.7,4.3-40.8-12.9-43.1-20.3c-11.9-10.2,8.6-27.4,23.7-19.4c13.7-4.3,28.1-9.9,30.4-2.5
			C320,820.9,320.5,851.4,306.8,855.7z"/>
		<path class="st6" d="M-21,845.4c-13.4-5.1-43.1-30.4-40.3-37.7c2.8-7.2,33-7.4,46.4-2.3c13.4,5.1,50.3,6.6,47.6,13.8
			C29.9,826.5-7.6,850.6-21,845.4z"/>
		<path class="st7" d="M154.1,842.6c4,13.8-5.7,47.4-13.2,49.6c-7.4,2.1-18.5-16.7-22.5-30.5c-4-13.8-13.7-28.8-6.3-31
			C119.6,828.6,150.2,828.8,154.1,842.6z"/>
		<path class="st4" d="M243.7,886.4c-13.4-5.2-37.9-55-35.1-62.2c2.8-7.2,42.6-5.2,43.6,21.1c16.8,1.9,31.7,11.9,28.9,19.1
			C278.3,871.6,257.1,891.6,243.7,886.4z"/>
		<path class="st4" d="M120.5,353.5l-9.4,19.2c-0.8,1.6-1.7,2.8-2.6,3.5c-0.9,0.6-2,1-3.2,1c-1.6,0-2.9-0.5-4.1-1.6
			c-1.1-1.1-2.5-3.2-4.3-6.1l-8.7-15.8v21.2c0,2.1-0.5,3.7-1.5,4.7c-1,1-2.4,1.5-4.4,1.5c-2.2,0-3.8-0.5-4.8-1.4
			c-1-1-1.5-2.9-1.5-5.8v-32.7c0-3.9,0.9-6.8,2.6-8.7c1.8-1.9,4.7-2.9,8.8-2.9c1.6,0,2.9,0.3,4.1,0.8c1.1,0.5,2,1.1,2.5,1.8
			c0.6,0.6,1.2,1.5,1.7,2.5l10,22l10.6-21.6c1.9-3.6,5.2-5.4,10-5.4c2.2,0,4.2,0.4,5.8,1.2c1.6,0.8,2.9,2,3.8,3.8
			c0.9,1.7,1.4,3.9,1.4,6.5v32.6c-0.1,4.9-3.2,7.4-9.4,7.4c-2.2,0-4.1-0.6-5.6-1.8c-1.4-1.2-2.1-3.2-2.2-6V353.5z"/>
		<path class="st5" d="M172.6,370.5c1.7,0,3.2-0.8,4.4-2.2c1.2-1.5,2.1-3.4,2.6-5.5c0.6-2.2,0.8-4.6,0.8-7.1c0-2.5-0.3-4.9-0.8-7.2
			c-0.6-2.3-1.4-4.2-2.7-5.9c-1.2-1.6-2.6-2.4-4.3-2.4c-1.6,0-3,0.8-4.2,2.4s-2.1,3.5-2.7,5.9c-0.6,2.3-0.9,4.7-0.9,7.2
			s0.3,4.9,0.8,7.1c0.6,2.2,1.5,4,2.7,5.5C169.6,369.8,171,370.5,172.6,370.5z M185.9,378.5c-4,2-8.4,2.9-13.4,2.9
			c-4.9,0-9.3-1-13.3-2.9c-3.9-2-7-5-9.4-8.9c-2.4-4-3.5-8.6-3.5-14c0-8.1,2.4-14.5,7.3-19.3c4.9-4.8,11.2-7.2,19-7.2
			s14.1,2.4,19,7.2c4.9,4.8,7.3,11.2,7.3,19.3c0,5.4-1.2,10-3.6,14C193,373.5,189.8,376.5,185.9,378.5z"/>
		<path class="st6" d="M236.7,342.2c0-1.6-1-2.3-3.1-2.3c-2.1,0-3.9,1.2-5.4,3.5c-1.5,2.4-2.2,6.3-2.2,11.8c0,5.1,0.8,8.8,2.6,11.2
			c1.8,2.3,3.8,3.5,6.1,3.5c0.8,0,1.4-0.2,2-0.5c0.7-0.3,1.2-0.8,1.6-1.4c0.4-0.6,0.6-1.3,0.6-2.2c-1.2,0-2.2-0.2-3.1-0.7
			c-0.9-0.4-1.5-1-1.9-1.6c-0.4-0.7-0.6-1.4-0.6-2.2c0-1.8,0.5-3.1,1.4-4s2.6-1.4,4.9-1.4h9.1c2.9,0,5.2,0.6,6.8,1.9
			c1.6,1.2,2.4,3.5,2.4,6.6c0,4.6-2.2,8.6-6.6,12.1c-4.4,3.4-9.6,5.1-15.7,5.1c-5.6,0-10.5-1-14.8-3c-4.3-2-7.7-5-10.3-8.9
			c-2.5-4-3.8-8.7-3.8-14.2c0-8.1,2.4-14.5,7.4-19.2c4.9-4.7,11.4-7.1,19.5-7.1c3.2,0,6.1,0.2,8.6,0.8c2.6,0.5,4.6,1.1,6.3,1.9
			c1.7,0.8,3.1,1.8,4.2,2.9c1.1,1.1,1.9,2.3,2.4,3.5c0.5,1.2,0.8,2.5,0.8,3.9c0,1-0.1,1.9-0.4,2.8c-0.3,0.9-0.9,1.7-1.6,2.6
			c-0.8,0.9-1.9,1.6-3.5,2.1c-1.6,0.6-3.5,0.8-5.8,0.8c-3.3,0-5.4-0.5-6.3-1.4C237.1,348,236.7,345.8,236.7,342.2z"/>
		<path class="st7" d="M283.9,369.8c0,3.9-0.7,6.8-2.2,8.5c-1.4,1.8-3.6,2.7-6.6,2.7c-2.9,0-5.1-0.8-6.5-2.3c-1.4-1.5-2-4.3-2-8.3
			v-31.7c0-6,2.8-9,8.5-9c2.9,0,5.1,0.5,6.5,1.6c1.5,1.1,2.2,3.3,2.2,6.7V369.8z"/>
		<path class="st4" d="M405.5,310.1c-14.3,0.9-57.6-33.9-58.1-41.6c-0.5-7.7,36.4-22.7,48.4,0.8c16.1-5.3,33.8-2.6,34.3,5.2
			C430.6,282.2,419.8,309.3,405.5,310.1z"/>
		<path class="st8" d="M26.8,412.7c-0.3,0-0.5,0-0.7-0.1c-0.2-0.1-0.3-0.2-0.5-0.4c-0.1-0.1-0.2-0.3-0.3-0.5
			c-0.1-0.2-0.2-0.4-0.2-0.5l-2.5-7.2h-0.3v11c0,0.3,0,0.5-0.1,0.8c0,0.2-0.1,0.5-0.2,0.7c-0.1,0.2-0.3,0.3-0.5,0.4
			c-0.2,0.1-0.5,0.2-0.9,0.2c-0.5,0-0.8-0.1-1.1-0.2c-0.3-0.1-0.5-0.3-0.6-0.4c-0.1-0.2-0.2-0.4-0.3-0.7c0-0.2-0.1-0.5-0.1-0.8
			v-13.4c0-0.4,0-0.7,0-1.1c0-0.4,0.1-0.7,0.2-1c0.1-0.3,0.3-0.5,0.6-0.7c0.3-0.2,0.7-0.3,1.1-0.3h1.8c0.3,0,0.5,0,0.8,0
			c0.2,0,0.4,0.1,0.6,0.2c0.2,0.1,0.3,0.3,0.5,0.6c0.2,0.3,0.4,0.7,0.6,1.2c0.2,0.5,0.5,1.2,0.7,2c0.3,0.8,0.6,1.8,1,2.9l0.3,1.1
			h0.3l0.4-1.3c0.4-1.1,0.7-2,0.9-2.8c0.3-0.8,0.5-1.4,0.7-1.9c0.2-0.5,0.4-0.9,0.5-1.1c0.2-0.3,0.3-0.5,0.5-0.6
			c0.2-0.1,0.4-0.2,0.6-0.2c0.2,0,0.4,0,0.7,0h1.9c0.5,0,0.9,0.1,1.1,0.3c0.3,0.2,0.5,0.4,0.6,0.7c0.1,0.3,0.2,0.6,0.2,1
			c0,0.4,0,0.7,0,1.1v13.4c0,0.3,0,0.5-0.1,0.8c0,0.2-0.1,0.5-0.3,0.7c-0.1,0.2-0.3,0.3-0.6,0.4c-0.3,0.1-0.6,0.2-1.1,0.2
			c-0.4,0-0.7-0.1-1-0.2c-0.2-0.1-0.4-0.3-0.5-0.4c-0.1-0.2-0.2-0.4-0.2-0.7c0-0.2-0.1-0.5-0.1-0.8v-11h-0.4l-2.5,7.2
			c-0.1,0.2-0.1,0.4-0.2,0.5c-0.1,0.2-0.2,0.4-0.3,0.5c-0.1,0.2-0.3,0.3-0.5,0.4c-0.2,0.1-0.4,0.1-0.6,0.1H26.8z M49.5,414
			c0,0.4,0,0.7,0,1.1c0,0.4-0.1,0.7-0.2,0.9c-0.1,0.3-0.3,0.5-0.6,0.7c-0.3,0.2-0.6,0.2-1.1,0.2c-0.5,0-0.9-0.1-1.1-0.2
			c-0.3-0.2-0.5-0.4-0.6-0.6c-0.1-0.2-0.2-0.5-0.3-0.7c0-0.3,0-0.5,0-0.6c-0.1,0.3-0.2,0.5-0.3,0.8c-0.1,0.3-0.3,0.5-0.6,0.7
			s-0.5,0.4-0.8,0.5c-0.3,0.1-0.7,0.2-1.1,0.2c-0.5,0-1-0.1-1.5-0.2c-0.5-0.2-0.9-0.4-1.3-0.8c-0.4-0.4-0.7-0.8-0.9-1.4
			c-0.2-0.6-0.4-1.3-0.4-2.2v-3.8c0-0.9,0.1-1.6,0.4-2.2c0.2-0.6,0.6-1.1,0.9-1.4c0.4-0.4,0.8-0.6,1.3-0.8c0.5-0.2,1-0.2,1.5-0.2
			c0.4,0,0.8,0.1,1.1,0.2c0.3,0.1,0.6,0.3,0.8,0.5s0.4,0.4,0.6,0.7c0.1,0.3,0.3,0.5,0.3,0.8c0-0.4,0.1-0.8,0.2-1.1
			c0.1-0.3,0.3-0.5,0.5-0.7c0.2-0.2,0.4-0.3,0.6-0.4c0.2-0.1,0.5-0.1,0.7-0.1c0.4,0,0.8,0.1,1.1,0.3c0.3,0.2,0.5,0.4,0.6,0.7
			c0.1,0.3,0.2,0.6,0.3,1c0,0.4,0.1,0.7,0.1,1.1V414z M42.6,412c0,0.2,0,0.5,0,0.7c0,0.2,0.1,0.4,0.1,0.6c0.1,0.2,0.2,0.3,0.3,0.4
			c0.2,0.1,0.4,0.2,0.6,0.2c0.3,0,0.6-0.1,0.8-0.2c0.2-0.2,0.4-0.4,0.5-0.7c0.1-0.3,0.2-0.7,0.3-1.2c0.1-0.5,0.1-1.1,0.1-1.8
			c0-0.3,0-0.6-0.1-0.9c0-0.4-0.1-0.7-0.3-1c-0.1-0.3-0.3-0.6-0.5-0.8c-0.2-0.2-0.5-0.3-0.8-0.3c-0.3,0-0.5,0.1-0.6,0.2
			c-0.1,0.1-0.3,0.2-0.3,0.4c-0.1,0.2-0.1,0.4-0.1,0.6c0,0.2,0,0.4,0,0.7V412z M54.3,403.8v-2.3c0-0.4,0-0.7,0.1-1.1
			c0-0.4,0.1-0.7,0.3-0.9c0.1-0.3,0.3-0.5,0.6-0.7c0.3-0.2,0.6-0.3,1.1-0.3c0.4,0,0.8,0.1,1.1,0.3c0.3,0.2,0.5,0.4,0.6,0.7
			c0.1,0.3,0.2,0.6,0.3,0.9c0,0.4,0.1,0.7,0.1,1.1v2.3h1.1c0.2,0,0.5,0,0.7,0c0.2,0,0.4,0.1,0.6,0.2c0.2,0.1,0.3,0.3,0.4,0.5
			c0.1,0.2,0.2,0.5,0.2,0.9c0,0.4-0.1,0.6-0.2,0.9c-0.1,0.2-0.3,0.4-0.4,0.5c-0.2,0.1-0.4,0.2-0.6,0.2c-0.2,0-0.5,0-0.7,0h-1.1v4.6
			c0,0.2,0,0.4,0,0.6c0,0.2,0.1,0.4,0.1,0.5s0.2,0.3,0.4,0.4c0.2,0.1,0.4,0.2,0.7,0.2c0.3,0,0.6,0,0.8,0.1c0.2,0,0.4,0.1,0.6,0.3
			c0.1,0.1,0.3,0.3,0.3,0.5c0.1,0.2,0.1,0.5,0.1,0.8c0,0.4-0.1,0.7-0.3,0.9c-0.2,0.3-0.4,0.5-0.6,0.6c-0.3,0.2-0.6,0.3-0.9,0.4
			c-0.4,0.1-0.7,0.1-1.1,0.1c-0.6,0-1.2-0.1-1.6-0.2c-0.4-0.1-0.8-0.3-1.1-0.6c-0.3-0.2-0.5-0.5-0.7-0.9c-0.2-0.3-0.3-0.7-0.4-1.1
			c-0.1-0.4-0.1-0.9-0.2-1.4c0-0.5,0-1,0-1.5V407h-0.7c-0.2,0-0.5,0-0.7,0c-0.2,0-0.4-0.1-0.6-0.2c-0.2-0.1-0.3-0.3-0.4-0.5
			c-0.1-0.2-0.2-0.5-0.2-0.9c0-0.4,0.1-0.7,0.2-0.9c0.1-0.2,0.3-0.4,0.4-0.5c0.2-0.1,0.4-0.2,0.6-0.2c0.2,0,0.5,0,0.7,0H54.3z
			 M65.8,403.8v-2.3c0-0.4,0-0.7,0.1-1.1c0-0.4,0.1-0.7,0.3-0.9c0.1-0.3,0.3-0.5,0.6-0.7c0.3-0.2,0.6-0.3,1.1-0.3
			c0.4,0,0.8,0.1,1.1,0.3c0.3,0.2,0.5,0.4,0.6,0.7c0.1,0.3,0.2,0.6,0.3,0.9c0,0.4,0.1,0.7,0.1,1.1v2.3h1.1c0.2,0,0.5,0,0.7,0
			c0.2,0,0.4,0.1,0.6,0.2c0.2,0.1,0.3,0.3,0.4,0.5c0.1,0.2,0.2,0.5,0.2,0.9c0,0.4-0.1,0.6-0.2,0.9c-0.1,0.2-0.3,0.4-0.4,0.5
			c-0.2,0.1-0.4,0.2-0.6,0.2c-0.2,0-0.5,0-0.7,0h-1.1v4.6c0,0.2,0,0.4,0,0.6c0,0.2,0.1,0.4,0.1,0.5c0.1,0.2,0.2,0.3,0.4,0.4
			c0.2,0.1,0.4,0.2,0.7,0.2c0.3,0,0.6,0,0.8,0.1c0.2,0,0.4,0.1,0.6,0.3c0.1,0.1,0.3,0.3,0.3,0.5s0.1,0.5,0.1,0.8
			c0,0.4-0.1,0.7-0.3,0.9c-0.2,0.3-0.4,0.5-0.6,0.6c-0.3,0.2-0.6,0.3-0.9,0.4c-0.4,0.1-0.7,0.1-1.1,0.1c-0.6,0-1.2-0.1-1.6-0.2
			c-0.4-0.1-0.8-0.3-1.1-0.6c-0.3-0.2-0.5-0.5-0.7-0.9c-0.2-0.3-0.3-0.7-0.4-1.1c-0.1-0.4-0.1-0.9-0.2-1.4c0-0.5,0-1,0-1.5V407h-0.7
			c-0.2,0-0.5,0-0.7,0c-0.2,0-0.4-0.1-0.6-0.2c-0.2-0.1-0.3-0.3-0.4-0.5c-0.1-0.2-0.2-0.5-0.2-0.9c0-0.4,0.1-0.7,0.2-0.9
			c0.1-0.2,0.3-0.4,0.4-0.5c0.2-0.1,0.4-0.2,0.6-0.2c0.2,0,0.5,0,0.7,0H65.8z M86.2,409.5c0,0.1,0,0.3,0,0.5c0,0.2-0.1,0.4-0.2,0.5
			c-0.1,0.2-0.3,0.3-0.6,0.4c-0.3,0.1-0.6,0.2-1.1,0.2h-5.2v1.3c0,0.2,0,0.4,0.1,0.7c0.1,0.2,0.1,0.4,0.3,0.6
			c0.1,0.2,0.3,0.4,0.5,0.5c0.2,0.1,0.5,0.2,0.8,0.2c0.4,0,0.6,0,0.8-0.1c0.2-0.1,0.3-0.2,0.4-0.3c0.1-0.1,0.2-0.3,0.3-0.4
			c0.1-0.1,0.2-0.3,0.3-0.4c0.1-0.1,0.4-0.2,0.6-0.3c0.3-0.1,0.6-0.1,1.1-0.1c0.2,0,0.4,0,0.6,0.1c0.2,0,0.4,0.1,0.6,0.2
			c0.2,0.1,0.3,0.2,0.4,0.4c0.1,0.2,0.1,0.4,0.1,0.7c0,0.6-0.2,1.1-0.5,1.4c-0.4,0.4-0.8,0.7-1.4,0.9c-0.5,0.2-1.1,0.4-1.8,0.5
			c-0.6,0.1-1.2,0.1-1.8,0.1c-0.7,0-1.4-0.1-2.1-0.3c-0.7-0.2-1.2-0.5-1.8-0.8c-0.5-0.4-0.9-0.9-1.2-1.5s-0.4-1.4-0.4-2.3V409
			c0-0.8,0.1-1.5,0.3-2.1c0.2-0.6,0.5-1.1,0.8-1.5c0.3-0.4,0.7-0.7,1.1-0.9c0.4-0.2,0.8-0.4,1.2-0.5c0.4-0.1,0.8-0.2,1.1-0.2
			c0.4,0,0.7,0,0.9,0c0.9,0,1.6,0.1,2.3,0.2c0.6,0.2,1.2,0.4,1.6,0.6s0.8,0.5,1,0.9c0.2,0.3,0.4,0.7,0.6,1c0.1,0.4,0.2,0.7,0.2,1.1
			c0,0.4,0.1,0.7,0.1,1V409.5z M79.1,409.2h3.3c0-0.4,0-0.8,0-1.1c0-0.3-0.1-0.6-0.2-0.8c-0.1-0.2-0.3-0.4-0.5-0.5
			c-0.2-0.1-0.6-0.2-1-0.2c-0.4,0-0.6,0.1-0.9,0.2c-0.2,0.1-0.4,0.3-0.5,0.4c-0.1,0.2-0.2,0.3-0.2,0.5c0,0.2,0,0.4,0,0.5V409.2z
			 M97.5,405.8c0,0.7-0.2,1.2-0.5,1.5c-0.3,0.3-0.8,0.5-1.4,0.5c-0.1,0-0.2,0-0.4,0c-0.2,0-0.3,0-0.5,0.1c-0.2,0.1-0.4,0.1-0.6,0.3
			c-0.2,0.1-0.4,0.3-0.5,0.4c-0.2,0.2-0.3,0.4-0.4,0.7c-0.1,0.3-0.1,0.6-0.1,1v3.8c0,0.4,0,0.7-0.1,1.1c0,0.3-0.1,0.6-0.3,0.9
			c-0.1,0.3-0.3,0.5-0.6,0.6c-0.3,0.2-0.6,0.2-1.1,0.2c-0.4,0-0.8-0.1-1-0.2c-0.3-0.2-0.5-0.4-0.6-0.6c-0.1-0.3-0.2-0.6-0.3-0.9
			c0-0.3-0.1-0.7-0.1-1.1v-7.4c0-0.4,0-0.7,0.1-1.1c0-0.4,0.1-0.7,0.3-0.9c0.1-0.3,0.3-0.5,0.6-0.6c0.3-0.2,0.6-0.2,1-0.2
			c0.4,0,0.8,0.1,1,0.3c0.2,0.2,0.4,0.4,0.5,0.8c0.1,0.3,0.2,0.7,0.2,1c0,0.4,0,0.7,0,1.1H93c0.1-0.5,0.3-0.9,0.5-1.3
			c0.2-0.4,0.4-0.7,0.7-1c0.2-0.3,0.5-0.5,0.8-0.6c0.3-0.1,0.6-0.2,0.8-0.2c0.3,0,0.6,0,0.8,0.1c0.2,0.1,0.4,0.2,0.5,0.3
			c0.1,0.2,0.2,0.4,0.3,0.6C97.4,405.2,97.5,405.5,97.5,405.8z M102.8,407.3c0,0.2,0.1,0.3,0.2,0.5c0.1,0.1,0.3,0.3,0.5,0.4
			c0.2,0.1,0.4,0.3,0.7,0.4c0.3,0.1,0.5,0.3,0.8,0.4c0.4,0.2,0.9,0.4,1.3,0.7c0.4,0.2,0.9,0.5,1.2,0.8c0.4,0.3,0.7,0.7,0.9,1.1
			c0.2,0.4,0.4,0.9,0.4,1.5c0,0.5-0.1,1-0.2,1.4c-0.2,0.4-0.4,0.8-0.6,1.1c-0.3,0.3-0.6,0.5-0.9,0.7c-0.3,0.2-0.7,0.3-1.1,0.5
			c-0.4,0.1-0.7,0.2-1.1,0.2c-0.4,0.1-0.8,0.1-1.1,0.1c-0.7,0-1.3-0.1-1.8-0.2c-0.5-0.1-0.9-0.3-1.3-0.4c-0.4-0.2-0.7-0.4-0.9-0.6
			c-0.2-0.2-0.4-0.5-0.5-0.8c-0.1-0.3-0.2-0.5-0.3-0.8c-0.1-0.3-0.1-0.5-0.1-0.7c0-0.5,0.1-0.9,0.4-1.2c0.3-0.2,0.8-0.4,1.4-0.4
			c0.4,0,0.8,0.1,1.1,0.4s0.4,0.6,0.4,1.1c0,0.2,0.1,0.3,0.1,0.4c0.1,0.1,0.2,0.2,0.4,0.3c0.2,0.1,0.3,0.1,0.5,0.1
			c0.2,0,0.3,0,0.5,0c0.3,0,0.6-0.1,0.8-0.3c0.2-0.2,0.3-0.4,0.3-0.7c0-0.2-0.1-0.5-0.2-0.7c-0.1-0.2-0.3-0.4-0.6-0.6
			c-0.2-0.2-0.5-0.4-0.8-0.5c-0.3-0.2-0.6-0.4-0.9-0.5c-0.4-0.2-0.8-0.4-1.2-0.7c-0.4-0.2-0.8-0.5-1.1-0.8c-0.3-0.3-0.6-0.6-0.8-1
			c-0.2-0.4-0.3-0.8-0.3-1.3c0-0.7,0.1-1.3,0.3-1.7c0.2-0.5,0.6-0.8,1-1.1c0.4-0.3,1-0.5,1.6-0.6c0.6-0.1,1.3-0.2,2.1-0.2h0.2
			c0.7,0,1.3,0.1,1.8,0.2c0.5,0.1,0.9,0.3,1.2,0.5c0.3,0.2,0.6,0.4,0.8,0.7c0.2,0.2,0.3,0.5,0.4,0.8c0.1,0.2,0.2,0.5,0.2,0.7
			c0,0.2,0,0.4,0,0.6c0,0.3-0.1,0.5-0.2,0.7c-0.1,0.2-0.3,0.3-0.4,0.4c-0.2,0.1-0.4,0.2-0.6,0.2c-0.2,0-0.5,0.1-0.7,0.1
			c-0.2,0-0.4,0-0.6-0.1c-0.2-0.1-0.3-0.2-0.4-0.3c-0.1-0.1-0.2-0.2-0.3-0.4c-0.1-0.1-0.1-0.3-0.1-0.4c0-0.3-0.2-0.6-0.4-0.8
			c-0.2-0.2-0.5-0.3-0.9-0.3c-0.1,0-0.3,0-0.4,0.1c-0.1,0-0.3,0.1-0.4,0.2c-0.1,0.1-0.2,0.2-0.3,0.3
			C102.9,406.9,102.8,407.1,102.8,407.3z M121.3,408.8c0-0.8,0.1-1.5,0.3-2.1c0.2-0.6,0.5-1,0.8-1.4c0.4-0.4,0.7-0.7,1.2-0.9
			c0.4-0.2,0.9-0.4,1.3-0.5c0.4-0.1,0.8-0.2,1.1-0.2c0.4,0,0.6,0,0.8,0c0.2,0,0.5,0,0.8,0c0.4,0,0.7,0.1,1.1,0.2
			c0.4,0.1,0.8,0.3,1.2,0.5c0.4,0.2,0.8,0.5,1.1,0.9c0.3,0.4,0.6,0.8,0.8,1.4c0.2,0.6,0.3,1.2,0.3,2.1v3.3c0,0.8-0.1,1.5-0.3,2.1
			c-0.2,0.6-0.5,1-0.8,1.4c-0.3,0.4-0.7,0.7-1.1,0.9c-0.4,0.2-0.8,0.4-1.2,0.5c-0.4,0.1-0.8,0.2-1.1,0.2c-0.4,0-0.6,0-0.8,0
			c-0.2,0-0.5,0-0.8,0c-0.4,0-0.7-0.1-1.1-0.2c-0.4-0.1-0.8-0.3-1.3-0.5c-0.4-0.2-0.8-0.5-1.2-0.9c-0.3-0.4-0.6-0.8-0.8-1.4
			c-0.2-0.6-0.3-1.2-0.3-2.1V408.8z M125.4,413c0,0.3,0.1,0.5,0.2,0.7c0.1,0.2,0.2,0.3,0.4,0.5c0.2,0.1,0.5,0.2,0.9,0.2
			c0.4,0,0.7-0.1,0.8-0.2c0.2-0.1,0.4-0.3,0.4-0.5c0.1-0.2,0.2-0.4,0.2-0.7v-4.8c0-0.3-0.1-0.5-0.2-0.7c-0.1-0.2-0.2-0.3-0.4-0.5
			c-0.2-0.2-0.5-0.2-0.8-0.2c-0.4,0-0.7,0.1-0.9,0.2c-0.2,0.1-0.4,0.3-0.4,0.5c-0.1,0.2-0.2,0.5-0.2,0.7V413z M140.8,403.8
			c0.2,0,0.4,0,0.7,0c0.2,0,0.4,0.1,0.6,0.2c0.2,0.1,0.3,0.3,0.4,0.5c0.1,0.2,0.2,0.5,0.2,0.9c0,0.4-0.1,0.6-0.2,0.9
			c-0.1,0.2-0.3,0.4-0.4,0.5c-0.2,0.1-0.4,0.2-0.6,0.2c-0.2,0-0.5,0-0.7,0H140v7c0,0.4,0,0.8-0.1,1.1c0,0.4-0.1,0.7-0.3,0.9
			c-0.1,0.3-0.4,0.5-0.6,0.7c-0.3,0.2-0.6,0.2-1.1,0.2c-0.4,0-0.8-0.1-1.1-0.2c-0.3-0.2-0.4-0.4-0.6-0.7c-0.1-0.3-0.2-0.6-0.2-0.9
			c0-0.4-0.1-0.7-0.1-1.1v-7h-0.7c-0.2,0-0.5,0-0.7,0c-0.2,0-0.4-0.1-0.6-0.2c-0.2-0.1-0.3-0.3-0.4-0.5c-0.1-0.2-0.2-0.5-0.2-0.9
			c0-0.4,0.1-0.7,0.2-0.9c0.1-0.2,0.2-0.4,0.4-0.5c0.2-0.1,0.4-0.2,0.6-0.2c0.2,0,0.5,0,0.7,0h0.7c0-0.8,0-1.5,0.1-2.1
			c0.1-0.7,0.2-1.2,0.5-1.7c0.3-0.5,0.7-0.8,1.2-1.1c0.5-0.3,1.3-0.4,2.2-0.4c0.4,0,0.8,0,1.1,0.1c0.4,0.1,0.7,0.2,0.9,0.3
			c0.3,0.1,0.5,0.3,0.6,0.6c0.2,0.2,0.2,0.5,0.2,0.9c0,0.3-0.1,0.6-0.2,0.8c-0.1,0.2-0.2,0.4-0.4,0.5c-0.2,0.1-0.3,0.2-0.5,0.3
			c-0.2,0.1-0.4,0.1-0.5,0.1c-0.1,0-0.3,0-0.4-0.1c-0.1-0.1-0.2-0.1-0.4-0.1c-0.1,0-0.2,0-0.3,0.1c-0.1,0.1-0.1,0.2-0.2,0.3
			c0,0.1-0.1,0.3-0.1,0.4c0,0.2,0,0.3,0,0.5v0.6H140.8z M167.9,415.8c0,0.1,0,0.2,0,0.4c0,0.1-0.1,0.3-0.2,0.4
			c-0.1,0.1-0.2,0.2-0.4,0.3c-0.2,0.1-0.4,0.1-0.7,0.1c-0.3,0-0.6,0-0.8-0.1c-0.2-0.1-0.3-0.2-0.4-0.3c-0.1-0.1-0.2-0.3-0.2-0.4
			c0-0.2,0-0.3,0-0.4V415c-0.4,0.6-1,1.1-1.6,1.5c-0.6,0.4-1.5,0.6-2.4,0.6c-0.2,0-0.4,0-0.8,0c-0.4,0-0.7-0.1-1.2-0.2
			c-0.4-0.1-0.9-0.3-1.4-0.5c-0.5-0.2-0.9-0.5-1.3-0.9c-0.4-0.4-0.7-0.9-0.9-1.5c-0.2-0.6-0.4-1.4-0.4-2.2v-7.4
			c0-0.7,0.1-1.4,0.3-1.9c0.2-0.6,0.4-1,0.7-1.4c0.3-0.4,0.6-0.8,1-1c0.4-0.3,0.7-0.5,1.1-0.7c0.9-0.4,1.9-0.7,3.1-0.7
			c1,0,1.8,0.1,2.5,0.3c0.7,0.2,1.3,0.5,1.8,0.9c0.5,0.4,0.9,0.8,1.2,1.2c0.3,0.4,0.5,0.9,0.7,1.3s0.3,0.9,0.3,1.3
			c0.1,0.4,0.1,0.8,0.1,1.1c0,0.1,0,0.3,0,0.5c0,0.2-0.1,0.4-0.2,0.5c-0.1,0.2-0.3,0.3-0.6,0.4c-0.3,0.1-0.7,0.2-1.2,0.2
			c-0.2,0-0.4,0-0.7,0c-0.3,0-0.5-0.1-0.8-0.2c-0.2-0.1-0.5-0.2-0.6-0.4c-0.2-0.2-0.3-0.4-0.3-0.7c0-0.5,0-0.9-0.1-1.3
			c-0.1-0.4-0.2-0.7-0.3-1c-0.2-0.3-0.4-0.5-0.6-0.6c-0.3-0.1-0.6-0.2-1-0.2c-0.4,0-0.8,0.1-1,0.3c-0.2,0.2-0.4,0.4-0.5,0.6
			c-0.1,0.2-0.2,0.5-0.2,0.8v8.4c0,0.3,0,0.5,0.1,0.8c0.1,0.2,0.3,0.5,0.4,0.6c0.2,0.2,0.4,0.3,0.6,0.4c0.3,0.1,0.5,0.2,0.8,0.2
			c0.4,0,0.7-0.1,0.9-0.2c0.3-0.2,0.5-0.4,0.8-0.6c0.2-0.3,0.4-0.6,0.6-0.9c0.2-0.3,0.3-0.7,0.5-1h-1.3c-0.3,0-0.5-0.1-0.7-0.2
			c-0.2-0.1-0.3-0.2-0.5-0.4c-0.1-0.2-0.2-0.4-0.2-0.7c0-0.3,0.1-0.6,0.2-0.8c0.1-0.2,0.3-0.3,0.5-0.4c0.2-0.1,0.4-0.2,0.7-0.2h3.4
			c0.1,0,0.2,0,0.3,0c0.1,0,0.3,0.1,0.4,0.2c0.1,0.1,0.3,0.3,0.4,0.5c0.1,0.2,0.2,0.5,0.2,0.9V415.8z M179.1,405.8
			c0,0.7-0.2,1.2-0.5,1.5c-0.3,0.3-0.8,0.5-1.4,0.5c-0.1,0-0.2,0-0.4,0c-0.2,0-0.3,0-0.5,0.1c-0.2,0.1-0.4,0.1-0.6,0.3
			c-0.2,0.1-0.4,0.3-0.5,0.4c-0.2,0.2-0.3,0.4-0.4,0.7c-0.1,0.3-0.1,0.6-0.1,1v3.8c0,0.4,0,0.7-0.1,1.1c0,0.3-0.1,0.6-0.3,0.9
			c-0.1,0.3-0.3,0.5-0.6,0.6c-0.3,0.2-0.6,0.2-1.1,0.2c-0.4,0-0.8-0.1-1-0.2c-0.3-0.2-0.5-0.4-0.6-0.6c-0.1-0.3-0.2-0.6-0.3-0.9
			c0-0.3-0.1-0.7-0.1-1.1v-7.4c0-0.4,0-0.7,0.1-1.1c0-0.4,0.1-0.7,0.3-0.9c0.1-0.3,0.3-0.5,0.6-0.6c0.3-0.2,0.6-0.2,1-0.2
			c0.4,0,0.8,0.1,1,0.3c0.2,0.2,0.4,0.4,0.5,0.8c0.1,0.3,0.2,0.7,0.2,1c0,0.4,0,0.7,0,1.1h0.2c0.1-0.5,0.3-0.9,0.5-1.3
			c0.2-0.4,0.4-0.7,0.7-1c0.2-0.3,0.5-0.5,0.8-0.6c0.3-0.1,0.6-0.2,0.8-0.2c0.3,0,0.6,0,0.8,0.1c0.2,0.1,0.4,0.2,0.5,0.3
			c0.1,0.2,0.2,0.4,0.3,0.6C179.1,405.2,179.1,405.5,179.1,405.8z M191.8,409.5c0,0.1,0,0.3,0,0.5c0,0.2-0.1,0.4-0.2,0.5
			c-0.1,0.2-0.3,0.3-0.6,0.4c-0.3,0.1-0.6,0.2-1.1,0.2h-5.2v1.3c0,0.2,0,0.4,0.1,0.7c0.1,0.2,0.1,0.4,0.3,0.6
			c0.1,0.2,0.3,0.4,0.5,0.5c0.2,0.1,0.5,0.2,0.8,0.2c0.4,0,0.6,0,0.8-0.1c0.2-0.1,0.3-0.2,0.4-0.3c0.1-0.1,0.2-0.3,0.3-0.4
			c0.1-0.1,0.2-0.3,0.3-0.4c0.1-0.1,0.4-0.2,0.6-0.3c0.3-0.1,0.6-0.1,1.1-0.1c0.2,0,0.4,0,0.6,0.1c0.2,0,0.4,0.1,0.6,0.2
			c0.2,0.1,0.3,0.2,0.4,0.4c0.1,0.2,0.1,0.4,0.1,0.7c0,0.6-0.2,1.1-0.5,1.4c-0.4,0.4-0.8,0.7-1.4,0.9c-0.5,0.2-1.1,0.4-1.8,0.5
			c-0.6,0.1-1.2,0.1-1.8,0.1c-0.7,0-1.4-0.1-2.1-0.3s-1.2-0.5-1.8-0.8c-0.5-0.4-0.9-0.9-1.2-1.5c-0.3-0.6-0.4-1.4-0.4-2.3V409
			c0-0.8,0.1-1.5,0.3-2.1c0.2-0.6,0.5-1.1,0.8-1.5c0.3-0.4,0.7-0.7,1.1-0.9c0.4-0.2,0.8-0.4,1.2-0.5c0.4-0.1,0.8-0.2,1.1-0.2
			c0.4,0,0.7,0,0.9,0c0.9,0,1.6,0.1,2.3,0.2c0.6,0.2,1.2,0.4,1.6,0.6s0.8,0.5,1,0.9c0.2,0.3,0.4,0.7,0.6,1c0.1,0.4,0.2,0.7,0.2,1.1
			c0,0.4,0.1,0.7,0.1,1V409.5z M184.6,409.2h3.3c0-0.4,0-0.8,0-1.1c0-0.3-0.1-0.6-0.2-0.8c-0.1-0.2-0.3-0.4-0.5-0.5
			c-0.2-0.1-0.6-0.2-1-0.2c-0.4,0-0.6,0.1-0.9,0.2c-0.2,0.1-0.4,0.3-0.5,0.4c-0.1,0.2-0.2,0.3-0.2,0.5c0,0.2,0,0.4,0,0.5V409.2z
			 M204.9,414c0,0.4,0,0.7,0,1.1c0,0.4-0.1,0.7-0.2,0.9c-0.1,0.3-0.3,0.5-0.6,0.7c-0.3,0.2-0.6,0.2-1.1,0.2c-0.5,0-0.9-0.1-1.1-0.2
			c-0.3-0.2-0.5-0.4-0.6-0.6c-0.1-0.2-0.2-0.5-0.2-0.7c0-0.3,0-0.5,0-0.6c-0.1,0.3-0.2,0.5-0.3,0.8c-0.1,0.3-0.3,0.5-0.6,0.7
			c-0.2,0.2-0.5,0.4-0.8,0.5c-0.3,0.1-0.7,0.2-1.1,0.2c-0.5,0-1-0.1-1.5-0.2c-0.5-0.2-0.9-0.4-1.3-0.8c-0.4-0.4-0.7-0.8-0.9-1.4
			c-0.2-0.6-0.4-1.3-0.4-2.2v-3.8c0-0.9,0.1-1.6,0.4-2.2c0.2-0.6,0.6-1.1,0.9-1.4c0.4-0.4,0.8-0.6,1.3-0.8c0.5-0.2,1-0.2,1.5-0.2
			c0.4,0,0.8,0.1,1.1,0.2c0.3,0.1,0.6,0.3,0.8,0.5c0.2,0.2,0.4,0.4,0.6,0.7c0.1,0.3,0.3,0.5,0.3,0.8c0-0.4,0.1-0.8,0.2-1.1
			c0.1-0.3,0.3-0.5,0.5-0.7c0.2-0.2,0.4-0.3,0.6-0.4c0.2-0.1,0.5-0.1,0.7-0.1c0.4,0,0.8,0.1,1.1,0.3c0.3,0.2,0.5,0.4,0.6,0.7
			c0.1,0.3,0.2,0.6,0.3,1c0,0.4,0.1,0.7,0.1,1.1V414z M198,412c0,0.2,0,0.5,0,0.7c0,0.2,0.1,0.4,0.1,0.6c0.1,0.2,0.2,0.3,0.3,0.4
			c0.2,0.1,0.4,0.2,0.6,0.2c0.3,0,0.6-0.1,0.8-0.2c0.2-0.2,0.4-0.4,0.5-0.7c0.1-0.3,0.2-0.7,0.2-1.2c0.1-0.5,0.1-1.1,0.1-1.8
			c0-0.3,0-0.6-0.1-0.9c0-0.4-0.1-0.7-0.2-1c-0.1-0.3-0.3-0.6-0.5-0.8c-0.2-0.2-0.5-0.3-0.8-0.3c-0.3,0-0.5,0.1-0.6,0.2
			c-0.1,0.1-0.3,0.2-0.3,0.4c-0.1,0.2-0.1,0.4-0.1,0.6c0,0.2,0,0.4,0,0.7V412z M209.7,403.8v-2.3c0-0.4,0-0.7,0.1-1.1
			c0-0.4,0.1-0.7,0.3-0.9c0.1-0.3,0.3-0.5,0.6-0.7c0.3-0.2,0.6-0.3,1.1-0.3c0.4,0,0.8,0.1,1.1,0.3c0.3,0.2,0.5,0.4,0.6,0.7
			c0.1,0.3,0.2,0.6,0.3,0.9c0,0.4,0.1,0.7,0.1,1.1v2.3h1.1c0.2,0,0.5,0,0.7,0c0.2,0,0.4,0.1,0.6,0.2c0.2,0.1,0.3,0.3,0.4,0.5
			c0.1,0.2,0.2,0.5,0.2,0.9c0,0.4-0.1,0.6-0.2,0.9c-0.1,0.2-0.3,0.4-0.4,0.5c-0.2,0.1-0.4,0.2-0.6,0.2c-0.2,0-0.5,0-0.7,0h-1.1v4.6
			c0,0.2,0,0.4,0,0.6c0,0.2,0.1,0.4,0.1,0.5s0.2,0.3,0.4,0.4c0.2,0.1,0.4,0.2,0.7,0.2c0.3,0,0.6,0,0.8,0.1c0.2,0,0.4,0.1,0.6,0.3
			c0.1,0.1,0.3,0.3,0.3,0.5c0.1,0.2,0.1,0.5,0.1,0.8c0,0.4-0.1,0.7-0.2,0.9c-0.2,0.3-0.4,0.5-0.6,0.6c-0.3,0.2-0.6,0.3-0.9,0.4
			c-0.4,0.1-0.7,0.1-1.1,0.1c-0.6,0-1.2-0.1-1.6-0.2c-0.4-0.1-0.8-0.3-1.1-0.6c-0.3-0.2-0.5-0.5-0.7-0.9c-0.2-0.3-0.3-0.7-0.4-1.1
			c-0.1-0.4-0.1-0.9-0.2-1.4c0-0.5,0-1,0-1.5V407H209c-0.2,0-0.5,0-0.7,0c-0.2,0-0.4-0.1-0.6-0.2c-0.2-0.1-0.3-0.3-0.4-0.5
			c-0.1-0.2-0.2-0.5-0.2-0.9c0-0.4,0.1-0.7,0.2-0.9c0.1-0.2,0.3-0.4,0.4-0.5c0.2-0.1,0.4-0.2,0.6-0.2c0.2,0,0.5,0,0.7,0H209.7z
			 M230.5,401.6c0-0.4,0-0.7,0.1-1.1c0-0.4,0.1-0.7,0.3-1c0.1-0.3,0.4-0.5,0.7-0.7c0.3-0.2,0.7-0.3,1.2-0.3c0.5,0,0.9,0.1,1.2,0.3
			c0.3,0.2,0.5,0.4,0.6,0.7c0.2,0.3,0.2,0.6,0.3,1c0,0.4,0.1,0.7,0.1,1.1V414c0,0.4,0,0.8-0.1,1.1c0,0.4-0.1,0.7-0.3,1
			c-0.1,0.3-0.4,0.5-0.7,0.7c-0.3,0.2-0.7,0.2-1.2,0.2c-0.5,0-0.9-0.1-1.2-0.2c-0.3-0.2-0.5-0.4-0.7-0.7c-0.1-0.3-0.2-0.6-0.3-1
			c0-0.4-0.1-0.7-0.1-1.1V401.6z M247.7,417c-0.4,0-0.8-0.1-1.1-0.2c-0.3-0.2-0.5-0.4-0.6-0.7c-0.1-0.3-0.2-0.6-0.3-0.9
			c0-0.4-0.1-0.7-0.1-1.1v-5.2c0-0.2,0-0.5,0-0.7c0-0.2-0.1-0.4-0.1-0.6c-0.1-0.2-0.2-0.3-0.4-0.4c-0.1-0.1-0.4-0.2-0.6-0.2
			c-0.4,0-0.6,0.1-0.9,0.4c-0.2,0.2-0.4,0.6-0.5,1c-0.1,0.4-0.2,0.9-0.3,1.4c0,0.6-0.1,1.2-0.1,1.8v2.6c0,0.4,0,0.7-0.1,1.1
			c0,0.4-0.1,0.7-0.3,0.9c-0.1,0.3-0.3,0.5-0.6,0.7c-0.3,0.2-0.6,0.2-1.1,0.2s-0.8-0.1-1.1-0.2c-0.3-0.2-0.5-0.4-0.6-0.7
			c-0.1-0.3-0.2-0.6-0.3-0.9c0-0.4-0.1-0.7-0.1-1.1v-7.2c0-0.4,0-0.7,0-1.1c0-0.4,0.1-0.7,0.2-1c0.1-0.3,0.3-0.5,0.6-0.7
			c0.3-0.2,0.6-0.3,1.1-0.3c0.5,0,0.9,0.1,1.1,0.3c0.3,0.2,0.5,0.4,0.6,0.6c0.1,0.2,0.2,0.5,0.2,0.7c0,0.3,0,0.5,0,0.6
			c0.1-0.3,0.2-0.5,0.4-0.8c0.2-0.3,0.4-0.5,0.7-0.7c0.3-0.2,0.6-0.4,0.9-0.5c0.3-0.1,0.7-0.2,1.1-0.2c0.6,0,1.1,0.1,1.7,0.4
			c0.5,0.3,1,0.7,1.4,1.4c0.1-0.3,0.3-0.6,0.6-0.8c0.3-0.2,0.5-0.4,0.9-0.6c0.3-0.2,0.7-0.3,1-0.3c0.4-0.1,0.7-0.1,1.1-0.1
			c0.5,0,1,0.1,1.5,0.2c0.5,0.2,0.9,0.4,1.3,0.8c0.4,0.4,0.7,0.9,0.9,1.5c0.2,0.6,0.4,1.3,0.4,2.2v5.5c0,0.4,0,0.7-0.1,1.1
			c0,0.4-0.1,0.7-0.3,0.9c-0.1,0.3-0.3,0.5-0.6,0.7c-0.3,0.2-0.6,0.2-1.1,0.2c-0.5,0-0.8-0.1-1.1-0.2c-0.3-0.2-0.5-0.4-0.6-0.7
			c-0.1-0.3-0.2-0.6-0.3-0.9c0-0.4-0.1-0.7-0.1-1.1v-5.2c0-0.2,0-0.5,0-0.7c0-0.2-0.1-0.4-0.2-0.6c-0.1-0.2-0.2-0.3-0.4-0.4
			c-0.2-0.1-0.4-0.2-0.6-0.2c-0.3,0-0.5,0.1-0.7,0.3c-0.2,0.2-0.4,0.4-0.5,0.7c-0.1,0.3-0.2,0.7-0.3,1.1c-0.1,0.4-0.1,0.9-0.1,1.4
			v3.6c0,0.4,0,0.7-0.1,1.1c0,0.4-0.1,0.7-0.3,0.9c-0.1,0.3-0.3,0.5-0.6,0.7C248.6,416.9,248.2,417,247.7,417z M260,406.8
			c0-0.4,0-0.7,0-1.1c0-0.4,0.1-0.7,0.2-1c0.1-0.3,0.3-0.5,0.6-0.7c0.3-0.2,0.6-0.3,1.1-0.3c0.5,0,0.9,0.1,1.1,0.3
			c0.3,0.2,0.5,0.4,0.6,0.6c0.1,0.2,0.2,0.5,0.2,0.7c0,0.3,0.1,0.5,0.1,0.6c0.1-0.3,0.2-0.5,0.3-0.8c0.1-0.3,0.3-0.5,0.6-0.7
			c0.2-0.2,0.5-0.4,0.8-0.5c0.3-0.1,0.7-0.2,1.1-0.2c0.5,0,1,0.1,1.5,0.2c0.5,0.2,0.9,0.4,1.3,0.8s0.7,0.9,0.9,1.5
			c0.2,0.6,0.4,1.3,0.4,2.2v3.8c0,0.9-0.1,1.6-0.4,2.2c-0.2,0.6-0.5,1.1-0.9,1.4c-0.4,0.4-0.8,0.6-1.3,0.8c-0.5,0.2-1,0.2-1.5,0.2
			c-0.4,0-0.8-0.1-1.1-0.2c-0.3-0.1-0.6-0.3-0.8-0.5c-0.2-0.2-0.4-0.4-0.6-0.7c-0.1-0.3-0.3-0.5-0.3-0.8v4.5c0,0.4,0,0.8-0.1,1.1
			c0,0.4-0.1,0.7-0.3,0.9c-0.1,0.3-0.3,0.5-0.6,0.7c-0.3,0.2-0.6,0.3-1.1,0.3c-0.4,0-0.8-0.1-1.1-0.3c-0.3-0.2-0.5-0.4-0.6-0.7
			c-0.1-0.3-0.2-0.6-0.3-0.9c0-0.4-0.1-0.7-0.1-1.1V406.8z M266.8,408.8c0-0.2,0-0.5,0-0.7c0-0.2-0.1-0.4-0.1-0.6
			c-0.1-0.2-0.2-0.3-0.4-0.4c-0.1-0.1-0.4-0.2-0.6-0.2c-0.3,0-0.6,0.1-0.8,0.2c-0.2,0.1-0.4,0.4-0.5,0.7c-0.1,0.3-0.2,0.7-0.3,1.2
			c0,0.5-0.1,1.1-0.1,1.7c0,0.3,0,0.6,0.1,1c0.1,0.4,0.1,0.7,0.3,1c0.1,0.3,0.3,0.6,0.5,0.8c0.2,0.2,0.5,0.3,0.8,0.3
			c0.3,0,0.5-0.1,0.6-0.2c0.2-0.1,0.3-0.3,0.4-0.4c0.1-0.2,0.1-0.4,0.1-0.6c0-0.2,0-0.5,0-0.7V408.8z M273.3,408.8
			c0-0.8,0.1-1.5,0.3-2.1c0.2-0.6,0.5-1,0.8-1.4c0.4-0.4,0.7-0.7,1.2-0.9c0.4-0.2,0.9-0.4,1.3-0.5c0.4-0.1,0.8-0.2,1.1-0.2
			c0.4,0,0.6,0,0.8,0s0.5,0,0.8,0c0.4,0,0.7,0.1,1.1,0.2c0.4,0.1,0.8,0.3,1.2,0.5c0.4,0.2,0.8,0.5,1.1,0.9c0.3,0.4,0.6,0.8,0.8,1.4
			c0.2,0.6,0.3,1.2,0.3,2.1v3.3c0,0.8-0.1,1.5-0.3,2.1c-0.2,0.6-0.5,1-0.8,1.4c-0.3,0.4-0.7,0.7-1.1,0.9c-0.4,0.2-0.8,0.4-1.2,0.5
			c-0.4,0.1-0.8,0.2-1.1,0.2c-0.4,0-0.6,0-0.8,0s-0.5,0-0.8,0c-0.4,0-0.7-0.1-1.1-0.2c-0.4-0.1-0.8-0.3-1.3-0.5
			c-0.4-0.2-0.8-0.5-1.2-0.9c-0.3-0.4-0.6-0.8-0.8-1.4c-0.2-0.6-0.3-1.2-0.3-2.1V408.8z M277.3,413c0,0.3,0.1,0.5,0.2,0.7
			c0.1,0.2,0.2,0.3,0.4,0.5c0.2,0.1,0.5,0.2,0.9,0.2c0.4,0,0.7-0.1,0.8-0.2c0.2-0.1,0.4-0.3,0.4-0.5c0.1-0.2,0.2-0.4,0.2-0.7v-4.8
			c0-0.3-0.1-0.5-0.2-0.7c-0.1-0.2-0.2-0.3-0.4-0.5c-0.2-0.2-0.5-0.2-0.8-0.2c-0.4,0-0.7,0.1-0.9,0.2c-0.2,0.1-0.4,0.3-0.4,0.5
			c-0.1,0.2-0.2,0.5-0.2,0.7V413z M295.4,405.8c0,0.7-0.2,1.2-0.5,1.5c-0.3,0.3-0.8,0.5-1.4,0.5c-0.1,0-0.2,0-0.4,0
			c-0.2,0-0.3,0-0.5,0.1c-0.2,0.1-0.4,0.1-0.6,0.3c-0.2,0.1-0.4,0.3-0.5,0.4c-0.2,0.2-0.3,0.4-0.4,0.7c-0.1,0.3-0.1,0.6-0.1,1v3.8
			c0,0.4,0,0.7-0.1,1.1c0,0.3-0.1,0.6-0.3,0.9c-0.1,0.3-0.3,0.5-0.6,0.6s-0.6,0.2-1.1,0.2c-0.4,0-0.8-0.1-1-0.2s-0.5-0.4-0.6-0.6
			c-0.1-0.3-0.2-0.6-0.3-0.9c0-0.3-0.1-0.7-0.1-1.1v-7.4c0-0.4,0-0.7,0.1-1.1c0-0.4,0.1-0.7,0.3-0.9c0.1-0.3,0.3-0.5,0.6-0.6
			c0.3-0.2,0.6-0.2,1-0.2c0.4,0,0.8,0.1,1,0.3c0.2,0.2,0.4,0.4,0.5,0.8c0.1,0.3,0.2,0.7,0.2,1c0,0.4,0,0.7,0,1.1h0.2
			c0.1-0.5,0.3-0.9,0.5-1.3c0.2-0.4,0.4-0.7,0.7-1c0.2-0.3,0.5-0.5,0.8-0.6c0.3-0.1,0.6-0.2,0.8-0.2c0.3,0,0.6,0,0.8,0.1
			c0.2,0.1,0.4,0.2,0.5,0.3c0.1,0.2,0.2,0.4,0.2,0.6C295.4,405.2,295.4,405.5,295.4,405.8z M299.1,403.8v-2.3c0-0.4,0-0.7,0.1-1.1
			c0-0.4,0.1-0.7,0.3-0.9c0.1-0.3,0.3-0.5,0.6-0.7c0.3-0.2,0.6-0.3,1.1-0.3c0.4,0,0.8,0.1,1.1,0.3c0.3,0.2,0.5,0.4,0.6,0.7
			c0.1,0.3,0.2,0.6,0.3,0.9c0,0.4,0.1,0.7,0.1,1.1v2.3h1.1c0.2,0,0.5,0,0.7,0c0.2,0,0.4,0.1,0.6,0.2c0.2,0.1,0.3,0.3,0.4,0.5
			c0.1,0.2,0.2,0.5,0.2,0.9c0,0.4-0.1,0.6-0.2,0.9c-0.1,0.2-0.2,0.4-0.4,0.5c-0.2,0.1-0.4,0.2-0.6,0.2c-0.2,0-0.5,0-0.7,0h-1.1v4.6
			c0,0.2,0,0.4,0,0.6c0,0.2,0.1,0.4,0.1,0.5c0.1,0.2,0.2,0.3,0.4,0.4c0.2,0.1,0.4,0.2,0.7,0.2c0.3,0,0.6,0,0.8,0.1
			c0.2,0,0.4,0.1,0.6,0.3c0.1,0.1,0.3,0.3,0.3,0.5s0.1,0.5,0.1,0.8c0,0.4-0.1,0.7-0.2,0.9c-0.2,0.3-0.4,0.5-0.6,0.6
			s-0.6,0.3-0.9,0.4c-0.4,0.1-0.7,0.1-1.1,0.1c-0.6,0-1.2-0.1-1.6-0.2c-0.4-0.1-0.8-0.3-1.1-0.6c-0.3-0.2-0.5-0.5-0.7-0.9
			c-0.2-0.3-0.3-0.7-0.4-1.1c-0.1-0.4-0.1-0.9-0.2-1.4c0-0.5,0-1,0-1.5V407h-0.7c-0.2,0-0.5,0-0.7,0c-0.2,0-0.4-0.1-0.6-0.2
			c-0.2-0.1-0.3-0.3-0.4-0.5c-0.1-0.2-0.2-0.5-0.2-0.9c0-0.4,0.1-0.7,0.2-0.9c0.1-0.2,0.3-0.4,0.4-0.5c0.2-0.1,0.4-0.2,0.6-0.2
			c0.2,0,0.5,0,0.7,0H299.1z M319.2,414c0,0.4,0,0.7,0,1.1c0,0.4-0.1,0.7-0.2,0.9c-0.1,0.3-0.3,0.5-0.6,0.7
			c-0.3,0.2-0.6,0.2-1.1,0.2c-0.5,0-0.9-0.1-1.1-0.2c-0.3-0.2-0.5-0.4-0.6-0.6c-0.1-0.2-0.2-0.5-0.3-0.7c0-0.3,0-0.5,0-0.6
			c-0.1,0.3-0.2,0.5-0.3,0.8c-0.1,0.3-0.3,0.5-0.6,0.7c-0.2,0.2-0.5,0.4-0.8,0.5c-0.3,0.1-0.7,0.2-1.1,0.2c-0.5,0-1-0.1-1.5-0.2
			c-0.5-0.2-0.9-0.4-1.3-0.8c-0.4-0.4-0.7-0.8-1-1.4c-0.2-0.6-0.4-1.3-0.4-2.2v-3.8c0-0.9,0.1-1.6,0.4-2.2c0.2-0.6,0.6-1.1,1-1.4
			c0.4-0.4,0.8-0.6,1.3-0.8c0.5-0.2,1-0.2,1.5-0.2c0.4,0,0.8,0.1,1.1,0.2c0.3,0.1,0.6,0.3,0.8,0.5c0.2,0.2,0.4,0.4,0.6,0.7
			c0.1,0.3,0.3,0.5,0.3,0.8c0-0.4,0.1-0.8,0.2-1.1c0.1-0.3,0.3-0.5,0.5-0.7c0.2-0.2,0.4-0.3,0.6-0.4c0.2-0.1,0.5-0.1,0.7-0.1
			c0.4,0,0.8,0.1,1.1,0.3c0.3,0.2,0.5,0.4,0.6,0.7c0.1,0.3,0.2,0.6,0.3,1c0,0.4,0.1,0.7,0.1,1.1V414z M312.4,412c0,0.2,0,0.5,0,0.7
			c0,0.2,0.1,0.4,0.1,0.6c0.1,0.2,0.2,0.3,0.3,0.4c0.2,0.1,0.4,0.2,0.6,0.2c0.3,0,0.6-0.1,0.8-0.2c0.2-0.2,0.4-0.4,0.5-0.7
			c0.1-0.3,0.2-0.7,0.2-1.2c0.1-0.5,0.1-1.1,0.1-1.8c0-0.3,0-0.6-0.1-0.9c0-0.4-0.1-0.7-0.2-1c-0.1-0.3-0.3-0.6-0.5-0.8
			c-0.2-0.2-0.5-0.3-0.8-0.3c-0.3,0-0.5,0.1-0.6,0.2c-0.1,0.1-0.3,0.2-0.3,0.4s-0.1,0.4-0.1,0.6c0,0.2,0,0.4,0,0.7V412z M333.4,414
			c0,0.4,0,0.7-0.1,1.1c0,0.4-0.1,0.7-0.3,1c-0.1,0.3-0.3,0.5-0.6,0.7c-0.3,0.2-0.6,0.2-1.1,0.2c-0.4,0-0.8-0.1-1.1-0.2
			c-0.3-0.2-0.5-0.4-0.6-0.7c-0.1-0.3-0.2-0.6-0.3-1c0-0.4-0.1-0.7-0.1-1.1v-5.1c0-0.2,0-0.5,0-0.7c0-0.2-0.1-0.4-0.1-0.6
			c-0.1-0.2-0.2-0.3-0.4-0.4c-0.1-0.1-0.4-0.2-0.6-0.2c-0.4,0-0.7,0.1-0.9,0.4c-0.2,0.2-0.4,0.6-0.5,1c-0.1,0.4-0.2,0.9-0.2,1.5
			c0,0.6-0.1,1.2-0.1,1.8v2.5c0,0.4,0,0.7-0.1,1.1c0,0.4-0.1,0.7-0.3,1c-0.1,0.3-0.3,0.5-0.6,0.7c-0.3,0.2-0.6,0.2-1.1,0.2
			c-0.4,0-0.8-0.1-1.1-0.2c-0.3-0.2-0.5-0.4-0.6-0.7c-0.1-0.3-0.2-0.6-0.3-1c0-0.4-0.1-0.7-0.1-1.1v-7.2c0-0.4,0-0.7,0-1.1
			c0-0.4,0.1-0.7,0.2-0.9c0.1-0.3,0.3-0.5,0.6-0.7c0.3-0.2,0.6-0.3,1.1-0.3c0.5,0,0.9,0.1,1.1,0.3c0.3,0.2,0.5,0.4,0.6,0.6
			c0.1,0.2,0.2,0.5,0.3,0.7c0,0.3,0.1,0.5,0.1,0.7c0.1-0.3,0.2-0.5,0.3-0.8c0.1-0.3,0.3-0.5,0.6-0.7c0.2-0.2,0.5-0.4,0.8-0.5
			c0.3-0.1,0.7-0.2,1.1-0.2c0.5,0,1,0.1,1.5,0.2c0.5,0.2,0.9,0.4,1.3,0.8c0.4,0.4,0.7,0.9,0.9,1.5c0.2,0.6,0.4,1.3,0.4,2.2V414z
			 M340,412.4c0,0.1,0,0.3,0,0.5c0,0.2,0.1,0.4,0.2,0.6c0.1,0.2,0.2,0.4,0.4,0.5c0.2,0.1,0.5,0.2,0.8,0.2c0.4,0,0.7,0,0.9-0.1
			c0.2-0.1,0.4-0.2,0.5-0.4c0.1-0.2,0.2-0.3,0.2-0.5c0-0.2,0-0.4,0-0.7c0-0.1,0-0.2,0.1-0.4c0-0.1,0.1-0.3,0.3-0.4
			c0.1-0.1,0.4-0.2,0.7-0.3c0.3-0.1,0.7-0.1,1.2-0.1c0.5,0,0.8,0.1,1.1,0.2c0.3,0.1,0.4,0.2,0.6,0.4c0.1,0.1,0.2,0.3,0.2,0.4
			c0,0.2,0,0.3,0,0.4c0,0.6-0.1,1.1-0.3,1.5c-0.2,0.4-0.4,0.8-0.7,1.1c-0.3,0.3-0.6,0.6-1,0.8s-0.8,0.4-1.2,0.5
			c-0.4,0.1-0.9,0.2-1.3,0.3c-0.4,0.1-0.9,0.1-1.3,0.1c-0.7,0-1.4-0.1-2-0.3c-0.7-0.2-1.2-0.5-1.7-0.9c-0.5-0.4-0.9-0.9-1.2-1.5
			c-0.3-0.6-0.5-1.4-0.5-2.2V409c0-0.8,0.1-1.5,0.3-2.1c0.2-0.6,0.5-1.1,0.8-1.5c0.3-0.4,0.7-0.7,1.1-0.9c0.4-0.2,0.8-0.4,1.2-0.5
			c0.4-0.1,0.8-0.2,1.1-0.2c0.4,0,0.7,0,0.9,0c0.8,0,1.5,0.1,2,0.2c0.6,0.1,1.1,0.3,1.5,0.5c0.4,0.2,0.8,0.5,1,0.8
			c0.3,0.3,0.5,0.6,0.7,0.9c0.2,0.3,0.3,0.6,0.3,0.9c0.1,0.3,0.1,0.6,0.1,0.9c0,0.1,0,0.3,0,0.5c0,0.2-0.1,0.4-0.2,0.5
			c-0.1,0.2-0.3,0.3-0.6,0.4c-0.3,0.1-0.6,0.2-1.1,0.2c-0.2,0-0.4,0-0.6,0c-0.2,0-0.5-0.1-0.7-0.1c-0.2-0.1-0.4-0.2-0.6-0.4
			s-0.3-0.4-0.3-0.7c0-0.2,0-0.4,0-0.6c0-0.2-0.1-0.4-0.2-0.5c-0.1-0.1-0.3-0.3-0.5-0.4c-0.2-0.1-0.5-0.1-0.9-0.1
			c-0.3,0-0.6,0.1-0.8,0.2c-0.2,0.1-0.3,0.2-0.4,0.4c-0.1,0.2-0.2,0.3-0.2,0.5c0,0.2,0,0.3,0,0.5V412.4z M360.4,409.5
			c0,0.1,0,0.3,0,0.5c0,0.2-0.1,0.4-0.2,0.5c-0.1,0.2-0.3,0.3-0.6,0.4c-0.3,0.1-0.6,0.2-1.1,0.2h-5.2v1.3c0,0.2,0,0.4,0.1,0.7
			c0.1,0.2,0.1,0.4,0.3,0.6c0.1,0.2,0.3,0.4,0.5,0.5c0.2,0.1,0.5,0.2,0.8,0.2c0.4,0,0.6,0,0.8-0.1c0.2-0.1,0.3-0.2,0.4-0.3
			c0.1-0.1,0.2-0.3,0.3-0.4c0.1-0.1,0.2-0.3,0.3-0.4c0.1-0.1,0.4-0.2,0.6-0.3c0.3-0.1,0.6-0.1,1.1-0.1c0.2,0,0.4,0,0.6,0.1
			c0.2,0,0.4,0.1,0.6,0.2c0.2,0.1,0.3,0.2,0.4,0.4c0.1,0.2,0.1,0.4,0.1,0.7c0,0.6-0.2,1.1-0.5,1.4c-0.4,0.4-0.8,0.7-1.4,0.9
			c-0.5,0.2-1.1,0.4-1.8,0.5c-0.6,0.1-1.2,0.1-1.8,0.1c-0.7,0-1.4-0.1-2.1-0.3s-1.2-0.5-1.8-0.8c-0.5-0.4-0.9-0.9-1.2-1.5
			c-0.3-0.6-0.4-1.4-0.4-2.3V409c0-0.8,0.1-1.5,0.3-2.1c0.2-0.6,0.5-1.1,0.8-1.5c0.3-0.4,0.7-0.7,1.1-0.9c0.4-0.2,0.8-0.4,1.2-0.5
			c0.4-0.1,0.8-0.2,1.1-0.2c0.4,0,0.7,0,0.9,0c0.9,0,1.6,0.1,2.3,0.2c0.6,0.2,1.2,0.4,1.6,0.6c0.4,0.3,0.8,0.5,1,0.9
			c0.2,0.3,0.4,0.7,0.6,1c0.1,0.4,0.2,0.7,0.2,1.1c0,0.4,0.1,0.7,0.1,1V409.5z M353.3,409.2h3.3c0-0.4,0-0.8,0-1.1
			c0-0.3-0.1-0.6-0.2-0.8c-0.1-0.2-0.3-0.4-0.5-0.5c-0.2-0.1-0.6-0.2-1-0.2c-0.4,0-0.6,0.1-0.9,0.2c-0.2,0.1-0.4,0.3-0.5,0.4
			c-0.1,0.2-0.2,0.3-0.2,0.5c0,0.2,0,0.4,0,0.5V409.2z"/>
	</g>
</g>
</svg>
