<svg width="375" height="847" viewBox="0 0 375 847" fill="none" xmlns="http://www.w3.org/2000/svg">
<g clip-path="url(#clip0_669_3)">
<rect width="375" height="847" fill="#F1F1F1"/>
<rect width="375" height="847" fill="#3C3C3C"/>
<path d="M217.013 258.486C230.681 254.084 257.001 268.477 259.371 275.836C261.741 283.196 296.414 296.717 282.746 301.118C269.078 305.52 208.832 308.114 206.462 300.755C204.092 293.395 203.345 262.887 217.013 258.486Z" fill="#337096"/>
<path d="M197.287 755.381C211.644 755.622 231.917 777.734 231.787 785.465C231.657 793.196 260.118 817.175 245.76 816.934C231.403 816.693 173.539 799.721 173.669 791.99C173.799 784.259 182.93 755.14 197.287 755.381Z" fill="#337096"/>
<path d="M160.641 489.357C146.641 492.548 121.679 475.912 119.96 468.373C118.242 460.835 84.882 444.338 98.8823 441.147C112.883 437.955 173.125 440.632 174.843 448.17C176.561 455.709 174.642 486.165 160.641 489.357Z" fill="#337096"/>
<path d="M318.527 -55.4761C330.626 -63.2084 385.315 -53.8526 389.478 -47.3373C393.642 -40.8221 368.66 -9.80848 346.784 -24.4556C335.336 -11.9816 318.498 -5.80424 314.334 -12.3195C310.171 -18.8347 306.427 -47.7438 318.527 -55.4761Z" fill="#087E8B"/>
<path d="M90.2227 301.553C78.6927 310.112 23.484 304.599 18.8755 298.39C14.267 292.182 37.0213 259.499 59.8676 272.582C70.4161 259.339 86.7815 252 91.39 258.209C95.9985 264.417 101.753 292.994 90.2227 301.553Z" fill="#087E8B"/>
<path d="M56.2503 797.544C44.0931 805.185 -10.5241 795.421 -14.6389 788.875C-18.7536 782.329 6.45931 751.503 28.2258 766.313C39.7665 753.925 56.6503 747.874 60.765 754.42C64.8798 760.966 68.4075 789.902 56.2503 797.544Z" fill="#087E8B"/>
<path d="M287.475 449.352C298.945 440.713 354.191 445.842 358.842 452.018C363.494 458.194 340.968 491.035 318.031 478.111C307.575 491.427 291.261 498.879 286.609 492.703C281.958 486.527 276.005 457.99 287.475 449.352Z" fill="#087E8B"/>
<path d="M-2.44123 -47.1307C9.65851 -54.8631 44.3746 -38.9236 48.5382 -32.4083C55.2303 -21.9362 41.4926 0.860153 19.616 -13.787C8.16821 -1.31301 -2.46989 2.5411 -6.63344 -3.97414C-10.797 -10.4894 -14.541 -39.3984 -2.44123 -47.1307Z" fill="#087E8B"/>
<path d="M377.271 788.598C365.114 796.24 330.518 780.041 326.404 773.495C319.79 762.973 333.698 740.28 355.464 755.09C367.005 742.702 377.671 738.928 381.786 745.474C385.901 752.02 389.429 780.956 377.271 788.598Z" fill="#087E8B"/>
<path d="M-30.1459 446.335C-17.8878 438.857 16.4889 455.516 20.5159 462.116C26.9885 472.726 12.779 495.231 -8.78782 480.131C-20.4929 492.364 -31.209 495.996 -35.236 489.395C-39.2629 482.795 -42.4041 453.814 -30.1459 446.335Z" fill="#087E8B"/>
<path d="M136.93 295.372C130.427 282.569 142.782 252.944 149.676 249.442C157.763 235.994 178.152 253.284 172.8 269.592C179.303 282.394 187.228 295.621 180.335 299.122C173.441 302.624 143.433 308.174 136.93 295.372Z" fill="#AFD2A4"/>
<path d="M101.195 811.01C94.6509 798.228 106.911 768.563 113.794 765.04C121.838 751.566 142.281 768.791 136.982 785.116C143.526 797.898 151.493 811.098 144.611 814.622C137.728 818.145 107.738 823.792 101.195 811.01Z" fill="#AFD2A4"/>
<path d="M241.166 451.611C247.538 464.479 234.883 493.978 227.954 497.409C219.73 510.774 199.519 493.278 205.035 477.025C198.663 464.157 190.873 450.851 197.802 447.42C204.731 443.988 234.793 438.743 241.166 451.611Z" fill="#AFD2A4"/>
<path d="M266.945 6.14198C268.068 -8.17344 284.004 -43.7484 291.713 -43.1437C299.421 -42.539 308.112 -13.5581 306.989 0.757307C305.866 15.0727 314.905 50.897 307.197 50.2923C299.489 49.6876 265.822 20.4574 266.945 6.14198Z" fill="#EC6664"/>
<path d="M143.264 240.698C141.989 255 125.674 290.404 117.973 289.717C110.272 289.03 101.89 259.958 103.166 245.655C104.441 231.353 95.7847 195.434 103.486 196.121C111.188 196.808 144.54 226.395 143.264 240.698Z" fill="#EC6664"/>
<path d="M109.291 733.313C108.061 747.62 91.8592 783.074 84.1556 782.412C76.4521 781.75 67.9778 752.705 69.2078 738.398C70.4379 724.092 61.667 688.201 69.3705 688.863C77.0741 689.525 110.521 719.006 109.291 733.313Z" fill="#EC6664"/>
<path d="M238.073 503.207C239.494 488.918 256.167 453.682 263.861 454.447C271.555 455.213 279.641 484.368 278.22 498.657C276.799 512.946 285.09 548.951 277.396 548.186C269.702 547.42 236.652 517.496 238.073 503.207Z" fill="#EC6664"/>
<path d="M104.366 -63.7109C117.061 -57.0008 143.395 -28.2593 139.781 -21.4234C136.168 -14.5875 106.118 -18.1068 93.4224 -24.8169C80.7273 -31.527 44.2568 -37.4419 47.8699 -44.2778C51.4831 -51.1136 91.6706 -70.421 104.366 -63.7109Z" fill="#EC6664"/>
<path d="M297.496 298.522C288.094 287.668 273.964 251.338 279.808 246.276C285.652 241.213 312.386 255.382 321.788 266.235C331.189 277.089 363.038 295.816 357.194 300.879C351.349 305.941 306.897 309.376 297.496 298.522Z" fill="#EC6664"/>
<path d="M270.344 806.379C257.699 799.575 231.581 770.637 235.245 763.828C238.909 757.02 268.933 760.763 281.577 767.568C294.222 774.373 330.647 780.56 326.983 787.369C323.319 794.178 282.988 813.184 270.344 806.379Z" fill="#EC6664"/>
<path d="M78.5567 446.832C87.837 457.79 101.563 494.274 95.6632 499.271C89.763 504.268 63.1882 489.804 53.9079 478.847C44.6276 467.889 12.9881 448.81 18.8884 443.812C24.7886 438.815 69.2764 435.874 78.5567 446.832Z" fill="#EC6664"/>
<path d="M322.837 0.576902C334.405 -7.93114 369.307 -10.5001 373.888 -4.27148C378.47 1.95714 364.656 18.8524 353.088 27.3604C341.521 35.8685 330.813 50.2391 326.232 44.0105C321.651 37.7818 311.27 9.08495 322.837 0.576902Z" fill="#74C1DD"/>
<path d="M87.3168 236.666C75.6593 245.051 40.7312 247.247 36.2166 240.97C31.7021 234.693 45.6953 217.946 57.3528 209.562C69.0103 201.178 79.8708 186.922 84.3854 193.199C88.9 199.476 98.9743 228.282 87.3168 236.666Z" fill="#74C1DD"/>
<path d="M52.3591 738.46C40.7284 746.882 5.80748 749.19 1.27292 742.927C-3.26165 736.664 10.6781 719.873 22.3088 711.451C33.9395 703.03 44.7546 688.74 49.2891 695.003C53.8237 701.265 63.9898 730.039 52.3591 738.46Z" fill="#74C1DD"/>
<path d="M294.068 507.806C305.81 499.541 340.759 497.7 345.209 504.022C349.66 510.345 335.497 526.949 323.755 535.214C312.013 543.479 301.008 557.624 296.558 551.301C292.107 544.979 282.326 516.072 294.068 507.806Z" fill="#74C1DD"/>
<path d="M234.276 8.08731C223.439 17.5082 188.861 22.9081 183.788 17.0728C178.715 11.2376 191.109 -6.72548 201.946 -16.1464C212.783 -25.5673 222.286 -40.7614 227.359 -34.9261C232.432 -29.0908 245.113 -1.33359 234.276 8.08731Z" fill="#74C1DD"/>
<path d="M176.953 227.101C187.89 217.796 222.523 212.765 227.533 218.654C232.544 224.543 219.959 242.373 209.023 251.678C198.086 260.983 188.421 276.075 183.411 270.186C178.4 264.297 166.016 236.406 176.953 227.101Z" fill="#74C1DD"/>
<path d="M142.974 732.612C153.881 723.272 188.498 718.131 193.527 724.004C198.556 729.877 186.029 747.747 175.122 757.087C164.215 766.426 154.598 781.549 149.569 775.676C144.54 769.803 132.067 741.952 142.974 732.612Z" fill="#74C1DD"/>
<path d="M205.104 517.874C197.233 529.884 165.422 544.474 158.955 540.236C152.488 535.998 159.536 515.344 167.407 503.333C175.277 491.323 180.296 474.119 186.763 478.357C193.23 482.595 212.974 505.864 205.104 517.874Z" fill="#74C1DD"/>
<path d="M349.717 60.3304C349.657 45.9711 371.338 25.2395 379.07 25.2071C386.802 25.1747 410.179 -3.78296 410.239 10.5763C410.3 24.9356 394.545 83.1427 386.813 83.1751C379.081 83.2075 349.777 74.6897 349.717 60.3304Z" fill="#337096"/>
<path d="M61.0752 176.63C60.9823 190.989 39.0812 211.488 31.3493 211.438C23.6175 211.388 -0.0670619 240.095 0.0258763 225.736C0.118814 211.377 16.493 153.341 24.2249 153.391C31.9567 153.441 61.1681 162.271 61.0752 176.63Z" fill="#337096"/>
<path d="M25.9263 678.507C25.8792 692.867 4.04351 713.436 -3.68843 713.41C-11.4204 713.385 -35.0133 742.167 -34.9662 727.808C-34.919 713.448 -18.7299 655.361 -10.9979 655.386C-3.26596 655.411 25.9735 664.148 25.9263 678.507Z" fill="#337096"/>
<path d="M319.698 568.107C319.937 553.749 342.045 533.474 349.776 533.602C357.507 533.731 381.482 505.266 381.243 519.624C381.004 533.981 364.041 591.848 356.31 591.719C348.579 591.59 319.459 582.464 319.698 568.107Z" fill="#337096"/>
<path d="M46.1302 31.6052C45.7488 45.9596 23.4402 66.0146 15.7109 65.8092C7.98164 65.6038 -16.275 93.8287 -15.8936 79.4744C-15.5121 65.1201 2.02509 7.42501 9.75435 7.63042C17.4836 7.83582 46.5117 17.2509 46.1302 31.6052Z" fill="#337096"/>
<path d="M364.339 208.591C364.873 194.241 387.394 174.425 395.121 174.713C402.848 175.001 427.404 147.036 426.869 161.385C426.335 175.735 408.183 233.24 400.457 232.952C392.73 232.664 363.804 222.94 364.339 208.591Z" fill="#337096"/>
<path d="M329.29 709.501C329.779 695.15 352.237 675.263 359.964 675.526C367.692 675.789 392.159 647.746 391.67 662.097C391.181 676.448 373.213 734.011 365.486 733.747C357.758 733.484 328.801 723.852 329.29 709.501Z" fill="#337096"/>
<path d="M10.7753 523.066C10.095 537.409 -12.6264 556.995 -20.3497 556.629C-28.073 556.263 -52.9122 583.976 -52.2319 569.633C-51.5516 555.29 -32.8167 497.972 -25.0934 498.339C-17.3701 498.705 11.4557 508.723 10.7753 523.066Z" fill="#337096"/>
<path d="M69.8936 -22.7703C84.1865 -24.1507 115.477 -8.47554 116.22 -0.779361C116.963 6.91682 96.4443 14.3492 82.1514 15.7296C67.8585 17.11 51.3003 23.9655 50.557 16.2693C49.8137 8.57313 55.6007 -21.3899 69.8936 -22.7703Z" fill="#74C1DD"/>
<path d="M333.162 209.081C346.611 214.111 367.852 241.926 365.143 249.168C362.435 256.41 340.735 254.086 327.286 249.056C313.836 244.025 295.949 242.921 298.657 235.679C301.366 228.437 319.712 204.051 333.162 209.081Z" fill="#74C1DD"/>
<path d="M305.121 763.698C290.818 764.971 259.646 749.063 258.96 741.361C258.274 733.659 278.848 726.381 293.151 725.107C307.454 723.834 324.063 717.102 324.749 724.804C325.434 732.505 319.424 762.424 305.121 763.698Z" fill="#74C1DD"/>
<path d="M29.5733 494.448C43.5177 491.021 76.7414 502.02 78.5867 509.529C80.432 517.038 61.1992 527.351 47.2547 530.778C33.3102 534.205 17.9136 543.377 16.0683 535.868C14.223 528.359 15.6288 497.875 29.5733 494.448Z" fill="#74C1DD"/>
<path d="M183.49 36.653C181.927 50.9271 164.904 85.9952 157.218 85.1537C149.532 84.3122 141.736 55.0777 143.299 40.8036C144.862 26.5295 136.929 -9.55585 144.615 -8.71435C152.301 -7.87284 185.052 22.3789 183.49 36.653Z" fill="#EC6664"/>
<path d="M227.041 202.078C228.756 187.822 246.151 152.937 253.828 153.861C261.505 154.784 268.988 184.1 267.273 198.357C265.558 212.613 273.106 248.781 265.429 247.858C257.753 246.934 225.326 216.335 227.041 202.078Z" fill="#EC6664"/>
<path d="M191.972 703.427C193.642 689.165 210.926 654.225 218.605 655.124C226.285 656.023 233.862 685.315 232.193 699.577C230.523 713.839 238.186 749.982 230.506 749.084C222.827 748.185 190.303 717.689 191.972 703.427Z" fill="#EC6664"/>
<path d="M154 540.973C152.14 555.211 134.391 589.917 126.724 588.916C119.057 587.914 111.872 558.524 113.732 544.286C115.591 530.047 108.412 493.804 116.079 494.806C123.746 495.807 155.86 526.734 154 540.973Z" fill="#EC6664"/>
<path d="M124.952 65.275C112.621 72.6316 58.2456 61.5982 54.2843 54.958C50.3231 48.3178 76.2469 18.0871 97.6627 33.4002C109.489 21.2842 126.509 15.6276 130.47 22.2678C134.431 28.908 137.284 57.9185 124.952 65.275Z" fill="#087E8B"/>
<path d="M285.88 165.082C298.29 157.858 352.544 169.47 356.434 176.152C360.324 182.834 334.08 212.787 312.828 197.246C300.874 209.235 283.794 214.71 279.904 208.028C276.014 201.346 273.471 172.307 285.88 165.082Z" fill="#087E8B"/>
<path d="M250.722 675.243C263.108 667.979 317.399 679.419 321.311 686.088C325.222 692.758 299.073 722.794 277.772 707.321C265.856 719.348 248.794 724.878 244.883 718.208C240.971 711.538 238.335 682.507 250.722 675.243Z" fill="#087E8B"/>
<path d="M95.8792 576.37C83.3969 583.468 29.2634 571.305 25.4413 564.583C21.6192 557.862 48.1669 528.178 69.2591 543.934C81.3349 532.067 98.4691 526.766 102.291 533.487C106.113 540.208 108.362 569.272 95.8792 576.37Z" fill="#087E8B"/>
<path d="M227.029 64.5262C220.785 51.5955 233.733 22.2241 240.695 18.8618C249.051 5.57909 269.088 23.275 263.41 39.4722C269.655 52.4029 277.312 65.7857 270.35 69.148C263.387 72.5103 233.274 77.4568 227.029 64.5262Z" fill="#AFD2A4"/>
<path d="M183.801 173.742C189.907 186.739 176.647 215.971 169.649 219.259C161.152 232.451 141.305 214.543 147.155 198.407C141.049 185.411 133.534 171.947 140.532 168.659C147.53 165.371 177.695 160.746 183.801 173.742Z" fill="#AFD2A4"/>
<path d="M148.642 675.229C154.789 688.206 141.623 717.48 134.635 720.79C126.18 734.01 106.276 716.165 112.075 700.01C105.927 687.033 98.37 673.594 105.358 670.283C112.345 666.973 142.495 662.252 148.642 675.229Z" fill="#AFD2A4"/>
<path d="M199.95 573.747C193.976 560.689 207.532 531.593 214.564 528.377C223.194 515.271 242.858 533.38 236.844 549.456C242.818 562.514 250.195 576.053 243.164 579.27C236.133 582.486 205.923 586.805 199.95 573.747Z" fill="#AFD2A4"/>
<path d="M175.394 78.7452C177.483 64.5386 200.207 37.9231 207.857 39.048C215.507 40.1729 217.799 61.8758 215.71 76.0825C213.621 90.2891 216.303 108.008 208.654 106.884C201.004 105.759 173.304 92.9518 175.394 78.7452Z" fill="#74C1DD"/>
<path d="M235.585 154.075C233.345 168.259 210.338 194.63 202.7 193.424C195.063 192.217 193.002 170.491 195.243 156.308C197.483 142.124 194.99 124.377 202.627 125.584C210.264 126.79 237.826 139.892 235.585 154.075Z" fill="#74C1DD"/>
<path d="M200.383 661.396C198.188 675.587 175.265 702.032 167.623 700.85C159.982 699.668 157.852 677.948 160.048 663.758C162.243 649.567 159.693 631.828 167.334 633.01C174.975 634.192 202.578 647.206 200.383 661.396Z" fill="#74C1DD"/>
<path d="M145.029 591.887C147.413 577.727 170.687 551.591 178.312 552.875C185.937 554.159 187.776 575.905 185.392 590.065C183.007 604.225 185.32 621.996 177.696 620.712C170.071 619.428 142.644 606.047 145.029 591.887Z" fill="#74C1DD"/>
<path d="M306.415 53.9214C320.763 54.4967 340.514 77.0742 340.205 84.7999C339.895 92.5257 367.79 117.161 353.442 116.586C339.094 116.011 281.641 97.696 281.951 89.9702C282.261 82.2444 292.067 53.3461 306.415 53.9214Z" fill="#337096"/>
<path d="M104.307 183.5C89.966 182.772 70.456 159.985 70.8482 152.263C71.2403 144.541 43.6098 119.609 57.9507 120.338C72.2917 121.066 129.546 139.992 129.154 147.714C128.762 155.436 118.648 184.228 104.307 183.5Z" fill="#337096"/>
<path d="M69.1797 686.24C54.8365 685.557 35.254 662.833 35.6215 655.11C35.989 647.386 8.27918 622.543 22.6224 623.225C36.9655 623.908 94.28 642.652 93.9124 650.375C93.5449 658.098 83.5229 686.922 69.1797 686.24Z" fill="#337096"/>
<path d="M276.538 558.797C290.871 559.671 310.149 582.655 309.678 590.373C309.207 598.091 336.583 623.302 322.25 622.428C307.918 621.554 250.858 602.047 251.329 594.329C251.8 586.611 262.206 557.923 276.538 558.797Z" fill="#337096"/>
<path d="M256.506 140.655C246.427 130.427 229.994 95.0788 235.501 89.6518C241.009 84.2248 268.597 96.6476 278.675 106.876C288.754 117.104 321.74 133.748 316.233 139.175C310.725 144.602 266.585 150.883 256.506 140.655Z" fill="#EC6664"/>
<path d="M155.138 97.3041C165.107 107.639 181.162 143.16 175.597 148.528C170.033 153.896 142.578 141.18 132.609 130.845C122.64 120.51 89.8339 103.515 95.3988 98.1473C100.964 92.7793 145.168 86.9692 155.138 97.3041Z" fill="#EC6664"/>
<path d="M119.735 598.882C129.737 609.185 145.906 644.655 140.358 650.041C134.81 655.426 107.316 642.798 97.314 632.495C87.3121 622.192 54.4516 605.302 59.9994 599.916C65.5472 594.53 109.733 588.579 119.735 598.882Z" fill="#EC6664"/>
<path d="M224.835 644.473C214.971 634.037 199.277 598.354 204.896 593.043C210.516 587.732 237.839 600.727 247.703 611.162C257.566 621.598 290.198 638.925 284.579 644.236C278.96 649.548 234.698 654.908 224.835 644.473Z" fill="#EC6664"/>
<path d="M375.732 166.065C363.401 173.421 329.191 156.422 325.23 149.781C318.863 139.108 333.295 116.745 354.711 132.058C366.537 119.942 377.289 116.417 381.25 123.057C385.211 129.698 388.064 158.708 375.732 166.065Z" fill="#087E8B"/>
<path d="M36.1888 70.6242C48.5984 63.3996 82.6246 80.7631 86.5148 87.4452C92.7675 98.1855 78.0976 120.393 56.8463 104.853C44.8917 116.842 34.1032 120.252 30.213 113.57C26.3228 106.888 23.7792 77.8488 36.1888 70.6242Z" fill="#087E8B"/>
<path d="M-2.29784 575.582C10.0886 568.318 44.1701 585.572 48.0815 592.242C54.3685 602.962 39.7694 625.217 18.4687 609.744C6.55238 621.771 -4.22527 625.216 -8.13673 618.546C-12.0482 611.877 -14.6843 582.846 -2.29784 575.582Z" fill="#087E8B"/>
<path d="M343.506 674.36C331.024 681.458 297.176 663.75 293.354 657.028C287.21 646.225 302.105 624.167 323.197 639.923C335.273 628.056 346.096 624.755 349.918 631.477C353.74 638.198 355.988 667.262 343.506 674.36Z" fill="#087E8B"/>
<path d="M-19.0944 138.255C-25.68 125.494 -13.5172 95.7893 -6.64632 92.2432C1.35367 78.7432 21.8536 95.9006 16.6081 112.243C23.1937 125.003 31.2041 138.178 24.3333 141.724C17.4624 145.27 -12.5088 151.015 -19.0944 138.255Z" fill="#AFD2A4"/>
<path d="M400.168 606.025C405.989 619.152 392.094 648.087 385.026 651.222C376.243 664.226 356.792 645.889 362.993 629.884C357.172 616.758 349.953 603.133 357.021 599.999C364.089 596.865 394.347 592.899 400.168 606.025Z" fill="#AFD2A4"/>
<path d="M-0.936021 294.886C-14.7079 298.951 -53.6284 296.776 -55.8175 289.361C-58.0066 281.945 -34.0434 263.474 -20.2716 259.408C-6.49968 255.343 23.731 234.102 25.9201 241.517C28.1092 248.933 12.8359 290.82 -0.936021 294.886Z" fill="#EC6664"/>
<path d="M406.931 492.989C394.722 500.547 356.609 508.729 352.54 502.155C348.47 495.581 366.704 471.436 378.913 463.878C391.122 456.32 414.669 427.849 418.739 434.423C422.809 440.997 419.141 485.431 406.931 492.989Z" fill="#EC6664"/>
<path d="M97.1946 839.456C89.5684 851.623 60.1621 857.551 53.6106 853.444C47.0592 849.338 11.8218 861.311 19.448 849.144C27.0741 836.977 71.5077 796.211 78.0591 800.317C84.6105 804.423 104.821 827.289 97.1946 839.456Z" fill="#337096"/>
<path d="M371.15 820.656C372.026 834.989 355.258 865.707 347.54 866.179C339.823 866.65 333.118 845.882 332.242 831.55C331.366 817.217 325.098 800.427 332.816 799.956C340.533 799.484 370.274 806.323 371.15 820.656Z" fill="#74C1DD"/>
<path d="M202.256 843.535C201.073 857.845 184.988 893.353 177.283 892.716C169.577 892.079 161.007 863.062 162.19 848.752C163.373 834.441 154.485 798.579 162.19 799.216C169.896 799.853 203.439 829.224 202.256 843.535Z" fill="#EC6664"/>
<path d="M306.757 855.671C293.045 859.932 265.914 842.778 263.62 835.394C251.721 825.164 272.189 807.968 287.367 815.982C301.079 811.721 315.449 806.129 317.743 813.513C320.037 820.897 320.47 851.411 306.757 855.671Z" fill="#AFD2A4"/>
<path d="M-21.0319 845.436C-34.4488 840.319 -64.0821 814.993 -61.3271 807.769C-58.5721 800.544 -28.3165 800.383 -14.8995 805.5C-1.48258 810.616 35.4365 812.052 32.6815 819.277C29.9265 826.501 -7.61492 850.552 -21.0319 845.436Z" fill="#EC6664"/>
<path d="M154.124 842.605C158.093 856.405 148.398 890.033 140.968 892.17C133.537 894.307 122.48 875.491 118.512 861.691C114.543 847.891 104.778 832.864 112.208 830.727C119.639 828.59 150.155 828.805 154.124 842.605Z" fill="#74C1DD"/>
<path d="M243.739 886.38C230.372 881.135 205.801 831.389 208.625 824.191C211.45 816.993 251.224 818.979 252.23 845.287C269.051 847.218 283.944 857.211 281.12 864.409C278.295 871.606 257.106 891.625 243.739 886.38Z" fill="#087E8B"/>
<path d="M120.51 353.55L111.135 372.75C110.335 374.35 109.485 375.5 108.585 376.2C107.685 376.85 106.61 377.175 105.36 377.175C103.76 377.175 102.41 376.625 101.31 375.525C100.21 374.375 98.7854 372.325 97.0354 369.375L88.3354 353.55V374.775C88.3354 376.925 87.8354 378.5 86.8354 379.5C85.8854 380.5 84.4354 381 82.4854 381C80.2854 381 78.6854 380.525 77.6854 379.575C76.6854 378.575 76.1854 376.65 76.1854 373.8V341.1C76.1854 337.25 77.0604 334.35 78.8104 332.4C80.5604 330.45 83.5104 329.475 87.6604 329.475C89.2104 329.475 90.5604 329.75 91.7104 330.3C92.8604 330.8 93.7104 331.4 94.2604 332.1C94.8604 332.75 95.4354 333.575 95.9854 334.575L106.035 356.55L116.685 334.95C118.535 331.35 121.86 329.55 126.66 329.55C128.91 329.55 130.835 329.95 132.435 330.75C134.035 331.5 135.285 332.75 136.185 334.5C137.135 336.2 137.61 338.35 137.61 340.95V373.575C137.56 378.525 134.435 381 128.235 381C125.985 381 124.135 380.4 122.685 379.2C121.285 377.95 120.56 375.95 120.51 373.2V353.55Z" fill="#087E8B"/>
<path d="M172.577 370.5C174.277 370.5 175.727 369.75 176.927 368.25C178.177 366.75 179.052 364.9 179.552 362.7C180.102 360.5 180.377 358.15 180.377 355.65C180.377 353.1 180.102 350.7 179.552 348.45C179.002 346.15 178.102 344.2 176.852 342.6C175.652 341 174.227 340.2 172.577 340.2C170.977 340.2 169.577 341 168.377 342.6C167.177 344.2 166.277 346.15 165.677 348.45C165.077 350.75 164.777 353.15 164.777 355.65C164.777 358.15 165.052 360.5 165.602 362.7C166.202 364.9 167.102 366.75 168.302 368.25C169.552 369.75 170.977 370.5 172.577 370.5ZM185.852 378.525C181.902 380.475 177.452 381.45 172.502 381.45C167.602 381.45 163.177 380.475 159.227 378.525C155.327 376.525 152.202 373.55 149.852 369.6C147.502 365.65 146.327 361 146.327 355.65C146.327 347.55 148.752 341.125 153.602 336.375C158.502 331.575 164.827 329.175 172.577 329.175C180.327 329.175 186.652 331.575 191.552 336.375C196.452 341.125 198.902 347.55 198.902 355.65C198.902 361 197.702 365.65 195.302 369.6C192.952 373.55 189.802 376.525 185.852 378.525Z" fill="#AFD2A4"/>
<path d="M236.678 342.225C236.678 340.675 235.653 339.9 233.603 339.9C231.503 339.9 229.703 341.075 228.203 343.425C226.703 345.775 225.953 349.7 225.953 355.2C225.953 360.3 226.803 364.025 228.503 366.375C230.253 368.675 232.303 369.825 234.653 369.825C235.403 369.825 236.078 369.675 236.678 369.375C237.328 369.075 237.853 368.625 238.253 368.025C238.653 367.425 238.853 366.7 238.853 365.85C237.653 365.85 236.603 365.625 235.703 365.175C234.853 364.725 234.228 364.175 233.828 363.525C233.428 362.825 233.228 362.075 233.228 361.275C233.228 359.475 233.703 358.125 234.653 357.225C235.603 356.325 237.228 355.875 239.528 355.875H248.603C251.503 355.875 253.753 356.5 255.353 357.75C256.953 359 257.753 361.2 257.753 364.35C257.753 368.95 255.553 372.975 251.153 376.425C246.753 379.825 241.528 381.525 235.478 381.525C229.928 381.525 224.978 380.525 220.628 378.525C216.328 376.525 212.903 373.55 210.353 369.6C207.853 365.6 206.603 360.875 206.603 355.425C206.603 347.325 209.053 340.925 213.953 336.225C218.853 331.525 225.353 329.175 233.453 329.175C236.653 329.175 239.528 329.425 242.078 329.925C244.628 330.375 246.728 331 248.378 331.8C250.078 332.6 251.478 333.575 252.578 334.725C253.728 335.825 254.528 337 254.978 338.25C255.478 339.5 255.728 340.8 255.728 342.15C255.728 343.1 255.578 344.025 255.278 344.925C254.978 345.775 254.428 346.65 253.628 347.55C252.878 348.4 251.703 349.1 250.103 349.65C248.503 350.2 246.578 350.475 244.328 350.475C241.028 350.475 238.928 350 238.028 349.05C237.128 348.05 236.678 345.775 236.678 342.225Z" fill="#EC6664"/>
<path d="M283.945 369.75C283.945 373.65 283.22 376.5 281.77 378.3C280.32 380.1 278.12 381 275.17 381C272.27 381 270.12 380.225 268.72 378.675C267.37 377.125 266.695 374.35 266.695 370.35V338.625C266.695 332.625 269.52 329.625 275.17 329.625C278.07 329.625 280.245 330.175 281.695 331.275C283.195 332.375 283.945 334.6 283.945 337.95V369.75Z" fill="#74C1DD"/>
<path d="M405.506 310.139C391.173 311.015 347.927 276.257 347.456 268.539C346.984 260.821 383.891 245.861 395.89 269.295C411.957 263.958 429.675 266.744 430.147 274.461C430.619 282.179 419.839 309.263 405.506 310.139Z" fill="#087E8B"/>
<path d="M26.8022 412.729C26.5474 412.729 26.3276 412.68 26.1431 412.583C25.9673 412.487 25.8135 412.364 25.6816 412.214C25.5498 412.065 25.4355 411.898 25.3389 411.713C25.251 411.529 25.1763 411.349 25.1147 411.173L22.6099 403.948H22.2671V414.943C22.2671 415.225 22.2495 415.488 22.2144 415.734C22.1792 415.98 22.1001 416.2 21.9771 416.394C21.8628 416.578 21.687 416.728 21.4497 416.842C21.2212 416.947 20.9048 417 20.5005 417C20.0435 417 19.6831 416.947 19.4194 416.842C19.1558 416.728 18.958 416.578 18.8262 416.394C18.6943 416.2 18.6108 415.98 18.5757 415.734C18.5405 415.488 18.5229 415.225 18.5229 414.943V401.549C18.5229 401.171 18.5317 400.802 18.5493 400.441C18.5757 400.081 18.6504 399.76 18.7734 399.479C18.8965 399.198 19.0898 398.974 19.3535 398.807C19.626 398.631 20.0083 398.543 20.5005 398.543H22.2935C22.5923 398.543 22.8428 398.556 23.0449 398.583C23.2559 398.6 23.4492 398.675 23.625 398.807C23.8008 398.93 23.9722 399.132 24.1392 399.413C24.3149 399.694 24.5039 400.094 24.7061 400.613C24.917 401.123 25.1587 401.777 25.4312 402.577C25.7036 403.368 26.0376 404.344 26.4331 405.504L26.7759 406.559H27.0923L27.5142 405.24C27.8745 404.133 28.1821 403.197 28.437 402.432C28.6919 401.667 28.916 401.039 29.1094 400.547C29.3027 400.046 29.4741 399.664 29.6235 399.4C29.7817 399.127 29.9443 398.93 30.1113 398.807C30.2871 398.675 30.4761 398.6 30.6782 398.583C30.8804 398.556 31.1265 398.543 31.4165 398.543H33.3413C33.8335 398.543 34.2114 398.631 34.4751 398.807C34.7476 398.974 34.9453 399.198 35.0684 399.479C35.1914 399.76 35.2617 400.081 35.2793 400.441C35.3057 400.802 35.3188 401.171 35.3188 401.549V414.943C35.3188 415.225 35.3013 415.488 35.2661 415.734C35.231 415.98 35.1475 416.2 35.0156 416.394C34.8838 416.578 34.686 416.728 34.4224 416.842C34.1587 416.947 33.7983 417 33.3413 417C32.937 417 32.6162 416.947 32.3789 416.842C32.1504 416.728 31.9746 416.578 31.8516 416.394C31.7373 416.2 31.6626 415.98 31.6274 415.734C31.5923 415.488 31.5747 415.225 31.5747 414.943V403.948H31.2056L28.7271 411.173C28.6567 411.349 28.5776 411.529 28.4897 411.713C28.4019 411.898 28.292 412.065 28.1602 412.214C28.0283 412.364 27.8745 412.487 27.6987 412.583C27.5229 412.68 27.312 412.729 27.0659 412.729H26.8022ZM49.5044 414.021C49.5044 414.39 49.4912 414.754 49.4648 415.115C49.4385 415.466 49.3594 415.783 49.2275 416.064C49.0957 416.345 48.8979 416.574 48.6343 416.75C48.3706 416.917 48.0015 417 47.5269 417C47.0435 417 46.6655 416.921 46.3931 416.763C46.1206 416.596 45.9185 416.398 45.7866 416.169C45.6548 415.932 45.5713 415.686 45.5361 415.431C45.5098 415.176 45.4966 414.961 45.4966 414.785C45.4175 415.04 45.3032 415.299 45.1538 415.563C45.0132 415.827 44.8286 416.064 44.6001 416.275C44.3716 416.486 44.0947 416.662 43.7695 416.802C43.4531 416.934 43.0796 417 42.6489 417C42.1655 417 41.6821 416.921 41.1987 416.763C40.7153 416.604 40.2803 416.341 39.8936 415.972C39.5068 415.603 39.1904 415.124 38.9443 414.535C38.707 413.937 38.5884 413.203 38.5884 412.333V408.51C38.5884 407.631 38.707 406.897 38.9443 406.308C39.1904 405.71 39.5068 405.231 39.8936 404.871C40.2803 404.502 40.7153 404.238 41.1987 404.08C41.6821 403.922 42.1655 403.843 42.6489 403.843C43.0796 403.843 43.4531 403.909 43.7695 404.041C44.0947 404.172 44.3716 404.344 44.6001 404.555C44.8286 404.766 45.0132 405.003 45.1538 405.267C45.3032 405.53 45.4175 405.794 45.4966 406.058C45.4966 405.618 45.5581 405.253 45.6812 404.963C45.8042 404.673 45.9624 404.445 46.1558 404.278C46.3491 404.102 46.5645 403.983 46.8018 403.922C47.0479 403.852 47.2896 403.816 47.5269 403.816C47.9663 403.816 48.3179 403.904 48.5815 404.08C48.8452 404.247 49.043 404.471 49.1748 404.752C49.3154 405.025 49.4033 405.346 49.4385 405.715C49.4824 406.075 49.5044 406.444 49.5044 406.822V414.021ZM42.6489 411.99C42.6489 412.228 42.6577 412.46 42.6753 412.689C42.6929 412.917 42.7412 413.124 42.8203 413.309C42.8994 413.493 43.0137 413.643 43.1631 413.757C43.3213 413.862 43.5366 413.915 43.8091 413.915C44.1519 413.915 44.4287 413.84 44.6396 413.691C44.8594 413.533 45.0308 413.295 45.1538 412.979C45.2769 412.654 45.3604 412.25 45.4043 411.766C45.457 411.274 45.4878 410.689 45.4966 410.013C45.4966 409.74 45.4702 409.428 45.4175 409.077C45.3735 408.716 45.29 408.378 45.167 408.062C45.0439 407.745 44.8726 407.477 44.6528 407.257C44.4331 407.038 44.1519 406.928 43.8091 406.928C43.5366 406.928 43.3213 406.985 43.1631 407.099C43.0137 407.205 42.8994 407.345 42.8203 407.521C42.7412 407.697 42.6929 407.899 42.6753 408.127C42.6577 408.347 42.6489 408.571 42.6489 408.8V411.99ZM54.3296 403.816V401.496C54.3296 401.127 54.3472 400.767 54.3823 400.415C54.4263 400.063 54.5186 399.751 54.6592 399.479C54.7998 399.198 55.002 398.974 55.2656 398.807C55.5293 398.631 55.8853 398.543 56.3335 398.543C56.7729 398.543 57.1245 398.631 57.3882 398.807C57.6519 398.974 57.8496 399.198 57.9814 399.479C58.1221 399.751 58.21 400.063 58.2451 400.415C58.2891 400.767 58.311 401.127 58.311 401.496V403.816H59.3921C59.6206 403.816 59.8491 403.83 60.0776 403.856C60.3062 403.874 60.5083 403.935 60.6841 404.041C60.8687 404.146 61.0137 404.304 61.1191 404.515C61.2334 404.726 61.2905 405.021 61.2905 405.398C61.2905 405.759 61.2334 406.044 61.1191 406.255C61.0137 406.466 60.8687 406.625 60.6841 406.73C60.5083 406.835 60.3062 406.906 60.0776 406.941C59.8491 406.967 59.6206 406.98 59.3921 406.98H58.311V411.595C58.311 411.771 58.3154 411.959 58.3242 412.162C58.3418 412.355 58.3901 412.535 58.4692 412.702C58.5483 412.869 58.667 413.01 58.8252 413.124C58.9834 413.229 59.2075 413.282 59.4976 413.282C59.814 413.282 60.082 413.309 60.3018 413.361C60.5303 413.405 60.7148 413.489 60.8555 413.612C61.0049 413.735 61.1147 413.906 61.1851 414.126C61.2554 414.346 61.2905 414.627 61.2905 414.97C61.2905 415.321 61.207 415.625 61.04 415.879C60.8818 416.134 60.6665 416.345 60.394 416.512C60.1216 416.679 59.8052 416.802 59.4448 416.881C59.0845 416.96 58.7065 417 58.311 417C57.687 417 57.1509 416.934 56.7026 416.802C56.2632 416.67 55.894 416.486 55.5952 416.249C55.3052 416.002 55.0723 415.712 54.8965 415.378C54.7295 415.036 54.6021 414.653 54.5142 414.231C54.4351 413.81 54.3823 413.357 54.356 412.874C54.3384 412.381 54.3296 411.867 54.3296 411.331V406.98H53.5913C53.3628 406.98 53.1343 406.967 52.9058 406.941C52.686 406.906 52.4883 406.835 52.3125 406.73C52.1367 406.625 51.9917 406.466 51.8774 406.255C51.772 406.044 51.7192 405.759 51.7192 405.398C51.7192 405.021 51.772 404.726 51.8774 404.515C51.9917 404.304 52.1367 404.146 52.3125 404.041C52.4883 403.935 52.686 403.874 52.9058 403.856C53.1343 403.83 53.3628 403.816 53.5913 403.816H54.3296ZM65.7993 403.816V401.496C65.7993 401.127 65.8169 400.767 65.8521 400.415C65.896 400.063 65.9883 399.751 66.1289 399.479C66.2695 399.198 66.4717 398.974 66.7354 398.807C66.999 398.631 67.355 398.543 67.8032 398.543C68.2427 398.543 68.5942 398.631 68.8579 398.807C69.1216 398.974 69.3193 399.198 69.4512 399.479C69.5918 399.751 69.6797 400.063 69.7148 400.415C69.7588 400.767 69.7808 401.127 69.7808 401.496V403.816H70.8618C71.0903 403.816 71.3188 403.83 71.5474 403.856C71.7759 403.874 71.978 403.935 72.1538 404.041C72.3384 404.146 72.4834 404.304 72.5889 404.515C72.7031 404.726 72.7603 405.021 72.7603 405.398C72.7603 405.759 72.7031 406.044 72.5889 406.255C72.4834 406.466 72.3384 406.625 72.1538 406.73C71.978 406.835 71.7759 406.906 71.5474 406.941C71.3188 406.967 71.0903 406.98 70.8618 406.98H69.7808V411.595C69.7808 411.771 69.7852 411.959 69.7939 412.162C69.8115 412.355 69.8599 412.535 69.939 412.702C70.0181 412.869 70.1367 413.01 70.2949 413.124C70.4531 413.229 70.6772 413.282 70.9673 413.282C71.2837 413.282 71.5518 413.309 71.7715 413.361C72 413.405 72.1846 413.489 72.3252 413.612C72.4746 413.735 72.5845 413.906 72.6548 414.126C72.7251 414.346 72.7603 414.627 72.7603 414.97C72.7603 415.321 72.6768 415.625 72.5098 415.879C72.3516 416.134 72.1362 416.345 71.8638 416.512C71.5913 416.679 71.2749 416.802 70.9146 416.881C70.5542 416.96 70.1763 417 69.7808 417C69.1567 417 68.6206 416.934 68.1724 416.802C67.7329 416.67 67.3638 416.486 67.0649 416.249C66.7749 416.002 66.542 415.712 66.3662 415.378C66.1992 415.036 66.0718 414.653 65.9839 414.231C65.9048 413.81 65.8521 413.357 65.8257 412.874C65.8081 412.381 65.7993 411.867 65.7993 411.331V406.98H65.061C64.8325 406.98 64.604 406.967 64.3755 406.941C64.1558 406.906 63.958 406.835 63.7822 406.73C63.6064 406.625 63.4614 406.466 63.3472 406.255C63.2417 406.044 63.189 405.759 63.189 405.398C63.189 405.021 63.2417 404.726 63.3472 404.515C63.4614 404.304 63.6064 404.146 63.7822 404.041C63.958 403.935 64.1558 403.874 64.3755 403.856C64.604 403.83 64.8325 403.816 65.061 403.816H65.7993ZM86.2075 409.485C86.2075 409.626 86.1987 409.793 86.1812 409.986C86.1636 410.171 86.0933 410.351 85.9702 410.527C85.856 410.694 85.6714 410.839 85.4165 410.962C85.1616 411.085 84.8013 411.146 84.3354 411.146H79.0884V412.412C79.0884 412.623 79.1147 412.843 79.1675 413.071C79.2202 413.3 79.3081 413.511 79.4312 413.704C79.563 413.897 79.7344 414.056 79.9453 414.179C80.1562 414.302 80.4155 414.363 80.7231 414.363C81.0747 414.363 81.3428 414.324 81.5273 414.245C81.7207 414.157 81.8701 414.051 81.9756 413.928C82.0898 413.805 82.1909 413.673 82.2788 413.533C82.3667 413.392 82.481 413.26 82.6216 413.137C82.771 413.014 82.9731 412.913 83.228 412.834C83.4917 412.746 83.8521 412.702 84.3091 412.702C84.5288 412.702 84.7397 412.72 84.9419 412.755C85.1528 412.79 85.3374 412.856 85.4956 412.953C85.6538 413.049 85.7812 413.186 85.8779 413.361C85.9746 413.528 86.0229 413.748 86.0229 414.021C86.0229 414.592 85.8428 415.071 85.4824 415.458C85.1221 415.835 84.6694 416.139 84.1245 416.367C83.5796 416.596 82.9863 416.758 82.3447 416.855C81.7119 416.952 81.1187 417 80.5649 417C79.8354 416.991 79.1411 416.899 78.4819 416.723C77.8228 416.547 77.2383 416.266 76.7285 415.879C76.2275 415.493 75.8276 414.987 75.5288 414.363C75.23 413.739 75.0806 412.975 75.0806 412.069V408.984C75.0806 408.149 75.1772 407.442 75.3706 406.862C75.5728 406.282 75.832 405.798 76.1484 405.412C76.4648 405.025 76.8208 404.726 77.2163 404.515C77.6118 404.295 78.0117 404.133 78.416 404.027C78.8203 403.922 79.2026 403.856 79.563 403.83C79.9321 403.803 80.2485 403.79 80.5122 403.79C81.3999 403.79 82.1558 403.869 82.7798 404.027C83.4126 404.186 83.9399 404.392 84.3618 404.647C84.7837 404.902 85.1177 405.196 85.3638 405.53C85.6099 405.864 85.7944 406.211 85.9175 406.572C86.0405 406.923 86.1196 407.284 86.1548 407.653C86.1899 408.013 86.2075 408.352 86.2075 408.668V409.485ZM79.0884 409.169H82.3843C82.3843 408.756 82.3711 408.391 82.3447 408.075C82.3271 407.75 82.2612 407.477 82.147 407.257C82.0415 407.038 81.8701 406.871 81.6328 406.756C81.4043 406.642 81.0747 406.585 80.644 406.585C80.2837 406.585 79.998 406.642 79.7871 406.756C79.585 406.871 79.4312 407.016 79.3257 407.191C79.2202 407.358 79.1543 407.539 79.1279 407.732C79.1016 407.925 79.0884 408.097 79.0884 408.246V409.169ZM97.4663 405.794C97.4663 406.479 97.2949 406.98 96.9521 407.297C96.6182 407.613 96.1392 407.771 95.5151 407.771C95.4272 407.771 95.2998 407.78 95.1328 407.798C94.9746 407.807 94.8032 407.842 94.6187 407.903C94.4341 407.956 94.2451 408.04 94.0518 408.154C93.8672 408.259 93.6958 408.409 93.5376 408.602C93.3794 408.787 93.252 409.024 93.1553 409.314C93.0586 409.604 93.0103 409.951 93.0103 410.355V414.126C93.0103 414.486 92.9883 414.838 92.9443 415.181C92.9092 415.523 92.8213 415.831 92.6807 416.104C92.54 416.367 92.3379 416.583 92.0742 416.75C91.8105 416.917 91.4546 417 91.0063 417C90.5669 417 90.2197 416.917 89.9648 416.75C89.71 416.583 89.5122 416.367 89.3716 416.104C89.2397 415.831 89.1519 415.523 89.1079 415.181C89.0728 414.838 89.0552 414.486 89.0552 414.126V406.743C89.0552 406.374 89.0728 406.018 89.1079 405.675C89.1519 405.324 89.2397 405.012 89.3716 404.739C89.5122 404.467 89.71 404.251 89.9648 404.093C90.2197 403.926 90.5669 403.843 91.0063 403.843C91.4546 403.843 91.7974 403.944 92.0347 404.146C92.2808 404.339 92.4609 404.594 92.5752 404.911C92.6895 405.218 92.7554 405.565 92.7729 405.952C92.7905 406.33 92.7993 406.699 92.7993 407.06H93.0103C93.1333 406.567 93.2959 406.124 93.498 405.728C93.7002 405.324 93.9243 404.985 94.1704 404.713C94.4165 404.432 94.6802 404.216 94.9614 404.067C95.2427 403.917 95.5239 403.843 95.8052 403.843C96.1479 403.843 96.4248 403.882 96.6357 403.961C96.8555 404.032 97.0269 404.146 97.1499 404.304C97.2729 404.462 97.3564 404.665 97.4004 404.911C97.4443 405.157 97.4663 405.451 97.4663 405.794ZM102.845 407.271C102.845 407.446 102.902 407.609 103.017 407.758C103.131 407.908 103.285 408.053 103.478 408.193C103.68 408.325 103.909 408.457 104.164 408.589C104.427 408.721 104.7 408.853 104.981 408.984C105.412 409.195 105.851 409.424 106.299 409.67C106.748 409.907 107.156 410.188 107.525 410.514C107.895 410.839 108.193 411.217 108.422 411.647C108.659 412.069 108.778 412.57 108.778 413.15C108.778 413.678 108.699 414.144 108.541 414.548C108.391 414.952 108.189 415.304 107.934 415.603C107.679 415.893 107.38 416.134 107.038 416.328C106.704 416.521 106.348 416.675 105.97 416.789C105.601 416.903 105.223 416.982 104.836 417.026C104.449 417.079 104.084 417.105 103.742 417.105C103.065 417.105 102.476 417.048 101.975 416.934C101.474 416.82 101.043 416.67 100.683 416.486C100.323 416.292 100.024 416.077 99.7866 415.84C99.5581 415.594 99.3779 415.339 99.2461 415.075C99.1143 414.812 99.022 414.552 98.9692 414.297C98.9165 414.034 98.8901 413.792 98.8901 413.572C98.8901 413.045 99.0352 412.658 99.3252 412.412C99.624 412.166 100.077 412.043 100.683 412.043C101.123 412.043 101.483 412.162 101.764 412.399C102.045 412.636 102.195 413.019 102.212 413.546C102.221 413.722 102.27 413.862 102.357 413.968C102.454 414.073 102.573 414.161 102.713 414.231C102.863 414.293 103.025 414.337 103.201 414.363C103.377 414.381 103.548 414.39 103.715 414.39C104.058 414.39 104.335 414.302 104.546 414.126C104.766 413.941 104.875 413.704 104.875 413.414C104.875 413.168 104.801 412.939 104.651 412.729C104.511 412.509 104.322 412.307 104.084 412.122C103.847 411.938 103.575 411.762 103.267 411.595C102.968 411.419 102.661 411.243 102.344 411.067C101.949 410.856 101.549 410.632 101.145 410.395C100.749 410.158 100.389 409.894 100.063 409.604C99.7383 409.314 99.4746 408.989 99.2725 408.628C99.0703 408.259 98.9692 407.842 98.9692 407.376C98.9692 406.69 99.0791 406.119 99.2988 405.662C99.5273 405.196 99.8569 404.823 100.288 404.542C100.718 404.251 101.241 404.045 101.856 403.922C102.48 403.799 103.188 403.729 103.979 403.711H104.19C104.902 403.711 105.504 403.772 105.996 403.896C106.497 404.019 106.91 404.181 107.235 404.383C107.569 404.577 107.829 404.796 108.013 405.042C108.207 405.289 108.347 405.539 108.435 405.794C108.532 406.04 108.589 406.277 108.606 406.506C108.633 406.734 108.646 406.928 108.646 407.086C108.646 407.35 108.589 407.569 108.475 407.745C108.369 407.912 108.224 408.048 108.04 408.154C107.864 408.25 107.662 408.321 107.433 408.365C107.205 408.4 106.967 408.422 106.721 408.431C106.51 408.431 106.317 408.396 106.141 408.325C105.974 408.255 105.829 408.167 105.706 408.062C105.583 407.956 105.486 407.837 105.416 407.706C105.354 407.574 105.324 407.446 105.324 407.323C105.306 406.989 105.17 406.734 104.915 406.559C104.669 406.383 104.366 406.295 104.005 406.295C103.856 406.295 103.711 406.312 103.57 406.348C103.438 406.374 103.315 406.427 103.201 406.506C103.096 406.576 103.008 406.673 102.938 406.796C102.876 406.919 102.845 407.077 102.845 407.271ZM121.302 408.773C121.302 407.965 121.412 407.279 121.632 406.717C121.852 406.154 122.133 405.684 122.476 405.306C122.827 404.928 123.214 404.634 123.636 404.423C124.066 404.212 124.488 404.054 124.901 403.948C125.314 403.843 125.697 403.777 126.048 403.75C126.409 403.724 126.69 403.711 126.892 403.711C127.094 403.711 127.371 403.724 127.723 403.75C128.074 403.777 128.448 403.843 128.843 403.948C129.248 404.054 129.652 404.212 130.056 404.423C130.469 404.634 130.838 404.928 131.164 405.306C131.498 405.684 131.77 406.154 131.981 406.717C132.192 407.279 132.297 407.965 132.297 408.773V412.043C132.297 412.852 132.192 413.537 131.981 414.1C131.77 414.662 131.498 415.132 131.164 415.51C130.838 415.888 130.469 416.183 130.056 416.394C129.652 416.604 129.248 416.763 128.843 416.868C128.448 416.974 128.074 417.04 127.723 417.066C127.371 417.092 127.094 417.105 126.892 417.105C126.69 417.105 126.409 417.092 126.048 417.066C125.697 417.04 125.314 416.974 124.901 416.868C124.488 416.763 124.066 416.604 123.636 416.394C123.214 416.183 122.827 415.888 122.476 415.51C122.133 415.132 121.852 414.662 121.632 414.1C121.412 413.537 121.302 412.852 121.302 412.043V408.773ZM125.363 412.966C125.372 413.221 125.433 413.445 125.547 413.638C125.644 413.814 125.793 413.972 125.996 414.113C126.207 414.245 126.505 414.311 126.892 414.311C127.261 414.311 127.542 414.245 127.736 414.113C127.938 413.972 128.087 413.814 128.184 413.638C128.29 413.445 128.351 413.221 128.369 412.966V408.193C128.351 407.93 128.29 407.688 128.184 407.468C128.087 407.292 127.938 407.13 127.736 406.98C127.542 406.822 127.261 406.743 126.892 406.743C126.505 406.743 126.207 406.822 125.996 406.98C125.793 407.13 125.644 407.292 125.547 407.468C125.433 407.688 125.372 407.93 125.363 408.193V412.966ZM140.761 403.816C140.981 403.816 141.205 403.83 141.434 403.856C141.662 403.882 141.864 403.948 142.04 404.054C142.225 404.159 142.374 404.322 142.488 404.542C142.603 404.761 142.66 405.064 142.66 405.451C142.66 405.812 142.603 406.097 142.488 406.308C142.374 406.51 142.225 406.668 142.04 406.783C141.864 406.888 141.662 406.958 141.434 406.994C141.205 407.02 140.981 407.033 140.761 407.033H139.97V414.021C139.97 414.407 139.948 414.781 139.904 415.141C139.869 415.493 139.777 415.809 139.627 416.09C139.487 416.363 139.276 416.583 138.995 416.75C138.722 416.917 138.353 417 137.887 417C137.439 417 137.083 416.917 136.819 416.75C136.564 416.583 136.371 416.363 136.239 416.09C136.107 415.809 136.024 415.493 135.989 415.141C135.954 414.781 135.936 414.407 135.936 414.021V407.033H135.198C134.952 407.033 134.714 407.02 134.486 406.994C134.266 406.958 134.068 406.888 133.893 406.783C133.726 406.668 133.589 406.51 133.484 406.308C133.378 406.097 133.326 405.812 133.326 405.451C133.326 405.064 133.378 404.761 133.484 404.542C133.589 404.322 133.726 404.159 133.893 404.054C134.068 403.948 134.266 403.882 134.486 403.856C134.714 403.83 134.952 403.816 135.198 403.816H135.936C135.936 403.043 135.971 402.331 136.042 401.681C136.112 401.03 136.283 400.477 136.556 400.02C136.828 399.554 137.232 399.193 137.769 398.938C138.305 398.675 139.039 398.543 139.97 398.543C140.366 398.543 140.739 398.578 141.091 398.648C141.442 398.719 141.75 398.829 142.014 398.978C142.277 399.127 142.484 399.325 142.633 399.571C142.792 399.809 142.871 400.099 142.871 400.441C142.871 400.758 142.813 401.021 142.699 401.232C142.594 401.443 142.462 401.615 142.304 401.747C142.146 401.878 141.97 401.971 141.776 402.023C141.592 402.076 141.42 402.103 141.262 402.103C141.13 402.103 141.007 402.072 140.893 402.01C140.779 401.949 140.647 401.918 140.498 401.918C140.375 401.918 140.278 401.958 140.208 402.037C140.146 402.116 140.093 402.221 140.049 402.353C140.014 402.485 139.992 402.63 139.983 402.788C139.975 402.946 139.97 403.104 139.97 403.263V403.816H140.761ZM167.867 415.787C167.867 415.901 167.854 416.033 167.827 416.183C167.81 416.332 167.752 416.477 167.656 416.618C167.568 416.75 167.436 416.864 167.26 416.96C167.084 417.057 166.847 417.105 166.548 417.105C166.214 417.105 165.951 417.062 165.757 416.974C165.564 416.877 165.415 416.763 165.309 416.631C165.212 416.49 165.146 416.345 165.111 416.196C165.085 416.046 165.072 415.91 165.072 415.787V414.996C164.65 415.62 164.109 416.13 163.45 416.525C162.8 416.912 161.996 417.105 161.038 417.105C160.871 417.105 160.611 417.092 160.26 417.066C159.908 417.04 159.513 416.969 159.073 416.855C158.634 416.741 158.181 416.569 157.715 416.341C157.25 416.112 156.823 415.796 156.437 415.392C156.059 414.979 155.747 414.469 155.5 413.862C155.254 413.247 155.131 412.5 155.131 411.621V404.238C155.131 403.518 155.219 402.88 155.395 402.327C155.571 401.773 155.799 401.294 156.081 400.89C156.371 400.477 156.7 400.134 157.069 399.861C157.438 399.58 157.816 399.347 158.203 399.163C159.1 398.741 160.124 398.499 161.275 398.438C162.25 398.438 163.085 398.547 163.78 398.767C164.474 398.987 165.063 399.272 165.546 399.624C166.03 399.976 166.417 400.375 166.707 400.824C166.997 401.263 167.221 401.711 167.379 402.168C167.537 402.625 167.638 403.065 167.682 403.487C167.735 403.909 167.761 404.273 167.761 404.581C167.761 404.713 167.748 404.875 167.722 405.069C167.704 405.253 167.629 405.434 167.498 405.609C167.366 405.776 167.155 405.921 166.865 406.044C166.583 406.159 166.179 406.216 165.652 406.216C165.467 406.216 165.239 406.207 164.966 406.189C164.703 406.163 164.448 406.106 164.202 406.018C163.956 405.93 163.745 405.803 163.569 405.636C163.393 405.46 163.305 405.223 163.305 404.924C163.305 404.449 163.274 404.027 163.213 403.658C163.16 403.28 163.059 402.959 162.91 402.696C162.76 402.432 162.554 402.234 162.29 402.103C162.026 401.962 161.688 401.892 161.275 401.892C160.844 401.892 160.51 401.979 160.273 402.155C160.044 402.331 159.877 402.524 159.772 402.735C159.649 402.981 159.579 403.263 159.561 403.579V412.017C159.561 412.298 159.609 412.562 159.706 412.808C159.812 413.054 159.957 413.269 160.141 413.454C160.326 413.638 160.541 413.783 160.787 413.889C161.042 413.994 161.319 414.047 161.618 414.047C161.969 414.047 162.286 413.972 162.567 413.823C162.857 413.665 163.116 413.458 163.345 413.203C163.573 412.939 163.775 412.645 163.951 412.32C164.136 411.986 164.298 411.639 164.439 411.278H163.173C162.918 411.252 162.694 411.186 162.501 411.081C162.325 410.993 162.167 410.861 162.026 410.685C161.895 410.509 161.829 410.268 161.829 409.96C161.829 409.626 161.895 409.371 162.026 409.195C162.167 409.011 162.325 408.875 162.501 408.787C162.694 408.69 162.918 408.633 163.173 408.615H166.601C166.663 408.615 166.759 408.628 166.891 408.655C167.032 408.672 167.172 408.734 167.313 408.839C167.462 408.945 167.59 409.103 167.695 409.314C167.81 409.516 167.867 409.802 167.867 410.171V415.787ZM179.125 405.794C179.125 406.479 178.954 406.98 178.611 407.297C178.277 407.613 177.798 407.771 177.174 407.771C177.086 407.771 176.959 407.78 176.792 407.798C176.634 407.807 176.462 407.842 176.278 407.903C176.093 407.956 175.904 408.04 175.711 408.154C175.526 408.259 175.355 408.409 175.197 408.602C175.039 408.787 174.911 409.024 174.814 409.314C174.718 409.604 174.669 409.951 174.669 410.355V414.126C174.669 414.486 174.647 414.838 174.604 415.181C174.568 415.523 174.48 415.831 174.34 416.104C174.199 416.367 173.997 416.583 173.733 416.75C173.47 416.917 173.114 417 172.666 417C172.226 417 171.879 416.917 171.624 416.75C171.369 416.583 171.171 416.367 171.031 416.104C170.899 415.831 170.811 415.523 170.767 415.181C170.732 414.838 170.714 414.486 170.714 414.126V406.743C170.714 406.374 170.732 406.018 170.767 405.675C170.811 405.324 170.899 405.012 171.031 404.739C171.171 404.467 171.369 404.251 171.624 404.093C171.879 403.926 172.226 403.843 172.666 403.843C173.114 403.843 173.457 403.944 173.694 404.146C173.94 404.339 174.12 404.594 174.234 404.911C174.349 405.218 174.415 405.565 174.432 405.952C174.45 406.33 174.458 406.699 174.458 407.06H174.669C174.792 406.567 174.955 406.124 175.157 405.728C175.359 405.324 175.583 404.985 175.83 404.713C176.076 404.432 176.339 404.216 176.621 404.067C176.902 403.917 177.183 403.843 177.464 403.843C177.807 403.843 178.084 403.882 178.295 403.961C178.515 404.032 178.686 404.146 178.809 404.304C178.932 404.462 179.016 404.665 179.06 404.911C179.104 405.157 179.125 405.451 179.125 405.794ZM191.755 409.485C191.755 409.626 191.747 409.793 191.729 409.986C191.711 410.171 191.641 410.351 191.518 410.527C191.404 410.694 191.219 410.839 190.964 410.962C190.709 411.085 190.349 411.146 189.883 411.146H184.636V412.412C184.636 412.623 184.663 412.843 184.715 413.071C184.768 413.3 184.856 413.511 184.979 413.704C185.111 413.897 185.282 414.056 185.493 414.179C185.704 414.302 185.963 414.363 186.271 414.363C186.623 414.363 186.891 414.324 187.075 414.245C187.269 414.157 187.418 414.051 187.523 413.928C187.638 413.805 187.739 413.673 187.827 413.533C187.915 413.392 188.029 413.26 188.169 413.137C188.319 413.014 188.521 412.913 188.776 412.834C189.04 412.746 189.4 412.702 189.857 412.702C190.077 412.702 190.288 412.72 190.49 412.755C190.701 412.79 190.885 412.856 191.043 412.953C191.202 413.049 191.329 413.186 191.426 413.361C191.522 413.528 191.571 413.748 191.571 414.021C191.571 414.592 191.391 415.071 191.03 415.458C190.67 415.835 190.217 416.139 189.672 416.367C189.127 416.596 188.534 416.758 187.893 416.855C187.26 416.952 186.667 417 186.113 417C185.383 416.991 184.689 416.899 184.03 416.723C183.371 416.547 182.786 416.266 182.276 415.879C181.775 415.493 181.375 414.987 181.077 414.363C180.778 413.739 180.628 412.975 180.628 412.069V408.984C180.628 408.149 180.725 407.442 180.918 406.862C181.121 406.282 181.38 405.798 181.696 405.412C182.013 405.025 182.369 404.726 182.764 404.515C183.16 404.295 183.56 404.133 183.964 404.027C184.368 403.922 184.75 403.856 185.111 403.83C185.48 403.803 185.796 403.79 186.06 403.79C186.948 403.79 187.704 403.869 188.328 404.027C188.96 404.186 189.488 404.392 189.91 404.647C190.332 404.902 190.666 405.196 190.912 405.53C191.158 405.864 191.342 406.211 191.465 406.572C191.588 406.923 191.667 407.284 191.703 407.653C191.738 408.013 191.755 408.352 191.755 408.668V409.485ZM184.636 409.169H187.932C187.932 408.756 187.919 408.391 187.893 408.075C187.875 407.75 187.809 407.477 187.695 407.257C187.589 407.038 187.418 406.871 187.181 406.756C186.952 406.642 186.623 406.585 186.192 406.585C185.832 406.585 185.546 406.642 185.335 406.756C185.133 406.871 184.979 407.016 184.874 407.191C184.768 407.358 184.702 407.539 184.676 407.732C184.649 407.925 184.636 408.097 184.636 408.246V409.169ZM204.886 414.021C204.886 414.39 204.873 414.754 204.847 415.115C204.82 415.466 204.741 415.783 204.609 416.064C204.478 416.345 204.28 416.574 204.016 416.75C203.752 416.917 203.383 417 202.909 417C202.425 417 202.047 416.921 201.775 416.763C201.502 416.596 201.3 416.398 201.168 416.169C201.037 415.932 200.953 415.686 200.918 415.431C200.892 415.176 200.878 414.961 200.878 414.785C200.799 415.04 200.685 415.299 200.536 415.563C200.395 415.827 200.21 416.064 199.982 416.275C199.753 416.486 199.477 416.662 199.151 416.802C198.835 416.934 198.461 417 198.031 417C197.547 417 197.064 416.921 196.581 416.763C196.097 416.604 195.662 416.341 195.275 415.972C194.889 415.603 194.572 415.124 194.326 414.535C194.089 413.937 193.97 413.203 193.97 412.333V408.51C193.97 407.631 194.089 406.897 194.326 406.308C194.572 405.71 194.889 405.231 195.275 404.871C195.662 404.502 196.097 404.238 196.581 404.08C197.064 403.922 197.547 403.843 198.031 403.843C198.461 403.843 198.835 403.909 199.151 404.041C199.477 404.172 199.753 404.344 199.982 404.555C200.21 404.766 200.395 405.003 200.536 405.267C200.685 405.53 200.799 405.794 200.878 406.058C200.878 405.618 200.94 405.253 201.063 404.963C201.186 404.673 201.344 404.445 201.538 404.278C201.731 404.102 201.946 403.983 202.184 403.922C202.43 403.852 202.671 403.816 202.909 403.816C203.348 403.816 203.7 403.904 203.963 404.08C204.227 404.247 204.425 404.471 204.557 404.752C204.697 405.025 204.785 405.346 204.82 405.715C204.864 406.075 204.886 406.444 204.886 406.822V414.021ZM198.031 411.99C198.031 412.228 198.04 412.46 198.057 412.689C198.075 412.917 198.123 413.124 198.202 413.309C198.281 413.493 198.396 413.643 198.545 413.757C198.703 413.862 198.918 413.915 199.191 413.915C199.534 413.915 199.811 413.84 200.021 413.691C200.241 413.533 200.413 413.295 200.536 412.979C200.659 412.654 200.742 412.25 200.786 411.766C200.839 411.274 200.87 410.689 200.878 410.013C200.878 409.74 200.852 409.428 200.799 409.077C200.755 408.716 200.672 408.378 200.549 408.062C200.426 407.745 200.254 407.477 200.035 407.257C199.815 407.038 199.534 406.928 199.191 406.928C198.918 406.928 198.703 406.985 198.545 407.099C198.396 407.205 198.281 407.345 198.202 407.521C198.123 407.697 198.075 407.899 198.057 408.127C198.04 408.347 198.031 408.571 198.031 408.8V411.99ZM209.711 403.816V401.496C209.711 401.127 209.729 400.767 209.764 400.415C209.808 400.063 209.9 399.751 210.041 399.479C210.182 399.198 210.384 398.974 210.647 398.807C210.911 398.631 211.267 398.543 211.715 398.543C212.155 398.543 212.506 398.631 212.77 398.807C213.034 398.974 213.231 399.198 213.363 399.479C213.504 399.751 213.592 400.063 213.627 400.415C213.671 400.767 213.693 401.127 213.693 401.496V403.816H214.774C215.002 403.816 215.231 403.83 215.459 403.856C215.688 403.874 215.89 403.935 216.066 404.041C216.25 404.146 216.396 404.304 216.501 404.515C216.615 404.726 216.672 405.021 216.672 405.398C216.672 405.759 216.615 406.044 216.501 406.255C216.396 406.466 216.25 406.625 216.066 406.73C215.89 406.835 215.688 406.906 215.459 406.941C215.231 406.967 215.002 406.98 214.774 406.98H213.693V411.595C213.693 411.771 213.697 411.959 213.706 412.162C213.724 412.355 213.772 412.535 213.851 412.702C213.93 412.869 214.049 413.01 214.207 413.124C214.365 413.229 214.589 413.282 214.879 413.282C215.196 413.282 215.464 413.309 215.684 413.361C215.912 413.405 216.097 413.489 216.237 413.612C216.387 413.735 216.497 413.906 216.567 414.126C216.637 414.346 216.672 414.627 216.672 414.97C216.672 415.321 216.589 415.625 216.422 415.879C216.264 416.134 216.048 416.345 215.776 416.512C215.503 416.679 215.187 416.802 214.827 416.881C214.466 416.96 214.088 417 213.693 417C213.069 417 212.533 416.934 212.084 416.802C211.645 416.67 211.276 416.486 210.977 416.249C210.687 416.002 210.454 415.712 210.278 415.378C210.111 415.036 209.984 414.653 209.896 414.231C209.817 413.81 209.764 413.357 209.738 412.874C209.72 412.381 209.711 411.867 209.711 411.331V406.98H208.973C208.745 406.98 208.516 406.967 208.288 406.941C208.068 406.906 207.87 406.835 207.694 406.73C207.519 406.625 207.374 406.466 207.259 406.255C207.154 406.044 207.101 405.759 207.101 405.398C207.101 405.021 207.154 404.726 207.259 404.515C207.374 404.304 207.519 404.146 207.694 404.041C207.87 403.935 208.068 403.874 208.288 403.856C208.516 403.83 208.745 403.816 208.973 403.816H209.711ZM230.515 401.575C230.515 401.197 230.533 400.828 230.568 400.468C230.612 400.107 230.704 399.787 230.845 399.505C230.994 399.215 231.214 398.982 231.504 398.807C231.794 398.631 232.194 398.543 232.704 398.543C233.213 398.543 233.613 398.631 233.903 398.807C234.193 398.982 234.409 399.215 234.549 399.505C234.699 399.787 234.791 400.107 234.826 400.468C234.87 400.828 234.892 401.197 234.892 401.575V413.968C234.892 414.354 234.875 414.728 234.839 415.088C234.804 415.449 234.712 415.774 234.562 416.064C234.422 416.345 234.202 416.574 233.903 416.75C233.613 416.917 233.213 417 232.704 417C232.194 417 231.794 416.917 231.504 416.75C231.214 416.574 230.994 416.345 230.845 416.064C230.704 415.774 230.612 415.449 230.568 415.088C230.533 414.728 230.515 414.354 230.515 413.968V401.575ZM247.733 417C247.285 417 246.929 416.917 246.665 416.75C246.401 416.574 246.199 416.345 246.059 416.064C245.918 415.783 245.826 415.466 245.782 415.115C245.747 414.754 245.729 414.39 245.729 414.021V408.8C245.729 408.562 245.716 408.33 245.689 408.101C245.672 407.873 245.624 407.67 245.544 407.495C245.465 407.319 245.347 407.178 245.188 407.073C245.039 406.958 244.833 406.901 244.569 406.901C244.217 406.901 243.932 407.02 243.712 407.257C243.492 407.495 243.316 407.82 243.185 408.233C243.062 408.637 242.974 409.116 242.921 409.67C242.877 410.224 242.855 410.821 242.855 411.463V414.021C242.855 414.39 242.833 414.754 242.789 415.115C242.754 415.466 242.666 415.783 242.525 416.064C242.394 416.345 242.196 416.574 241.932 416.75C241.668 416.917 241.308 417 240.851 417C240.394 417 240.034 416.917 239.77 416.75C239.506 416.574 239.304 416.345 239.164 416.064C239.032 415.783 238.944 415.466 238.9 415.115C238.865 414.754 238.847 414.39 238.847 414.021V406.796C238.847 406.427 238.86 406.066 238.887 405.715C238.922 405.354 239.005 405.034 239.137 404.752C239.269 404.471 239.467 404.247 239.73 404.08C240.003 403.904 240.376 403.816 240.851 403.816C241.334 403.816 241.708 403.9 241.972 404.067C242.244 404.225 242.446 404.423 242.578 404.66C242.71 404.889 242.789 405.13 242.815 405.385C242.842 405.64 242.855 405.855 242.855 406.031C242.934 405.776 243.057 405.517 243.224 405.253C243.4 404.99 243.62 404.752 243.883 404.542C244.147 404.331 244.45 404.159 244.793 404.027C245.136 403.887 245.518 403.816 245.94 403.816C246.52 403.816 247.083 403.957 247.627 404.238C248.172 404.52 248.638 404.977 249.025 405.609C249.157 405.311 249.35 405.051 249.605 404.832C249.86 404.603 250.15 404.414 250.475 404.265C250.8 404.115 251.147 404.005 251.517 403.935C251.886 403.856 252.25 403.816 252.611 403.816C253.094 403.816 253.578 403.896 254.061 404.054C254.544 404.212 254.979 404.476 255.366 404.845C255.753 405.214 256.065 405.697 256.302 406.295C256.548 406.884 256.671 407.613 256.671 408.483V414.021C256.671 414.39 256.649 414.754 256.605 415.115C256.562 415.466 256.469 415.783 256.329 416.064C256.188 416.345 255.981 416.574 255.709 416.75C255.445 416.917 255.089 417 254.641 417C254.184 417 253.819 416.917 253.547 416.75C253.283 416.574 253.081 416.345 252.94 416.064C252.8 415.783 252.708 415.466 252.664 415.115C252.628 414.754 252.611 414.39 252.611 414.021V408.8C252.611 408.562 252.598 408.33 252.571 408.101C252.545 407.873 252.492 407.67 252.413 407.495C252.334 407.319 252.215 407.178 252.057 407.073C251.899 406.958 251.688 406.901 251.424 406.901C251.143 406.901 250.901 406.989 250.699 407.165C250.506 407.341 250.343 407.583 250.211 407.89C250.08 408.198 249.979 408.567 249.908 408.998C249.838 409.419 249.79 409.881 249.763 410.382V414.021C249.763 414.39 249.741 414.754 249.697 415.115C249.662 415.466 249.574 415.783 249.434 416.064C249.293 416.345 249.086 416.574 248.814 416.75C248.55 416.917 248.19 417 247.733 417ZM259.967 406.796C259.967 406.427 259.98 406.066 260.007 405.715C260.033 405.354 260.112 405.034 260.244 404.752C260.376 404.471 260.574 404.247 260.837 404.08C261.101 403.904 261.47 403.816 261.945 403.816C262.428 403.816 262.806 403.9 263.079 404.067C263.351 404.225 263.553 404.423 263.685 404.66C263.817 404.889 263.896 405.13 263.922 405.385C263.958 405.64 263.975 405.855 263.975 406.031C264.054 405.776 264.164 405.517 264.305 405.253C264.454 404.99 264.643 404.752 264.872 404.542C265.1 404.331 265.373 404.159 265.689 404.027C266.014 403.887 266.392 403.816 266.823 403.816C267.306 403.816 267.79 403.896 268.273 404.054C268.756 404.212 269.191 404.476 269.578 404.845C269.965 405.214 270.277 405.697 270.514 406.295C270.76 406.884 270.883 407.613 270.883 408.483V412.307C270.883 413.186 270.76 413.924 270.514 414.521C270.277 415.11 269.965 415.589 269.578 415.958C269.191 416.319 268.756 416.578 268.273 416.736C267.79 416.895 267.306 416.974 266.823 416.974C266.392 416.974 266.014 416.908 265.689 416.776C265.373 416.644 265.1 416.473 264.872 416.262C264.643 416.051 264.454 415.813 264.305 415.55C264.164 415.286 264.054 415.022 263.975 414.759V419.268C263.975 419.654 263.953 420.028 263.909 420.388C263.874 420.749 263.786 421.065 263.646 421.337C263.514 421.619 263.312 421.843 263.039 422.01C262.767 422.186 262.402 422.273 261.945 422.273C261.505 422.273 261.154 422.186 260.89 422.01C260.626 421.843 260.424 421.619 260.284 421.337C260.152 421.065 260.064 420.749 260.02 420.388C259.985 420.028 259.967 419.654 259.967 419.268V406.796ZM266.823 408.826C266.823 408.589 266.814 408.356 266.796 408.127C266.779 407.899 266.73 407.692 266.651 407.508C266.572 407.323 266.454 407.178 266.295 407.073C266.146 406.958 265.935 406.901 265.663 406.901C265.32 406.901 265.039 406.98 264.819 407.139C264.608 407.288 264.441 407.525 264.318 407.851C264.195 408.167 264.107 408.571 264.054 409.063C264.01 409.556 263.984 410.136 263.975 410.804C263.975 411.085 263.997 411.406 264.041 411.766C264.094 412.118 264.182 412.452 264.305 412.768C264.428 413.084 264.599 413.353 264.819 413.572C265.039 413.783 265.32 413.889 265.663 413.889C265.935 413.889 266.146 413.836 266.295 413.73C266.454 413.616 266.572 413.471 266.651 413.295C266.73 413.12 266.779 412.922 266.796 412.702C266.814 412.474 266.823 412.245 266.823 412.017V408.826ZM273.256 408.773C273.256 407.965 273.366 407.279 273.586 406.717C273.806 406.154 274.087 405.684 274.43 405.306C274.781 404.928 275.168 404.634 275.59 404.423C276.021 404.212 276.442 404.054 276.855 403.948C277.269 403.843 277.651 403.777 278.002 403.75C278.363 403.724 278.644 403.711 278.846 403.711C279.048 403.711 279.325 403.724 279.677 403.75C280.028 403.777 280.402 403.843 280.797 403.948C281.202 404.054 281.606 404.212 282.01 404.423C282.423 404.634 282.792 404.928 283.118 405.306C283.452 405.684 283.724 406.154 283.935 406.717C284.146 407.279 284.251 407.965 284.251 408.773V412.043C284.251 412.852 284.146 413.537 283.935 414.1C283.724 414.662 283.452 415.132 283.118 415.51C282.792 415.888 282.423 416.183 282.01 416.394C281.606 416.604 281.202 416.763 280.797 416.868C280.402 416.974 280.028 417.04 279.677 417.066C279.325 417.092 279.048 417.105 278.846 417.105C278.644 417.105 278.363 417.092 278.002 417.066C277.651 417.04 277.269 416.974 276.855 416.868C276.442 416.763 276.021 416.604 275.59 416.394C275.168 416.183 274.781 415.888 274.43 415.51C274.087 415.132 273.806 414.662 273.586 414.1C273.366 413.537 273.256 412.852 273.256 412.043V408.773ZM277.317 412.966C277.326 413.221 277.387 413.445 277.501 413.638C277.598 413.814 277.748 413.972 277.95 414.113C278.161 414.245 278.459 414.311 278.846 414.311C279.215 414.311 279.497 414.245 279.69 414.113C279.892 413.972 280.042 413.814 280.138 413.638C280.244 413.445 280.305 413.221 280.323 412.966V408.193C280.305 407.93 280.244 407.688 280.138 407.468C280.042 407.292 279.892 407.13 279.69 406.98C279.497 406.822 279.215 406.743 278.846 406.743C278.459 406.743 278.161 406.822 277.95 406.98C277.748 407.13 277.598 407.292 277.501 407.468C277.387 407.688 277.326 407.93 277.317 408.193V412.966ZM295.431 405.794C295.431 406.479 295.26 406.98 294.917 407.297C294.583 407.613 294.104 407.771 293.48 407.771C293.392 407.771 293.265 407.78 293.098 407.798C292.939 407.807 292.768 407.842 292.583 407.903C292.399 407.956 292.21 408.04 292.017 408.154C291.832 408.259 291.661 408.409 291.502 408.602C291.344 408.787 291.217 409.024 291.12 409.314C291.023 409.604 290.975 409.951 290.975 410.355V414.126C290.975 414.486 290.953 414.838 290.909 415.181C290.874 415.523 290.786 415.831 290.646 416.104C290.505 416.367 290.303 416.583 290.039 416.75C289.775 416.917 289.419 417 288.971 417C288.532 417 288.185 416.917 287.93 416.75C287.675 416.583 287.477 416.367 287.336 416.104C287.205 415.831 287.117 415.523 287.073 415.181C287.038 414.838 287.02 414.486 287.02 414.126V406.743C287.02 406.374 287.038 406.018 287.073 405.675C287.117 405.324 287.205 405.012 287.336 404.739C287.477 404.467 287.675 404.251 287.93 404.093C288.185 403.926 288.532 403.843 288.971 403.843C289.419 403.843 289.762 403.944 290 404.146C290.246 404.339 290.426 404.594 290.54 404.911C290.654 405.218 290.72 405.565 290.738 405.952C290.755 406.33 290.764 406.699 290.764 407.06H290.975C291.098 406.567 291.261 406.124 291.463 405.728C291.665 405.324 291.889 404.985 292.135 404.713C292.381 404.432 292.645 404.216 292.926 404.067C293.208 403.917 293.489 403.843 293.77 403.843C294.113 403.843 294.39 403.882 294.601 403.961C294.82 404.032 294.992 404.146 295.115 404.304C295.238 404.462 295.321 404.665 295.365 404.911C295.409 405.157 295.431 405.451 295.431 405.794ZM299.123 403.816V401.496C299.123 401.127 299.14 400.767 299.175 400.415C299.219 400.063 299.312 399.751 299.452 399.479C299.593 399.198 299.795 398.974 300.059 398.807C300.322 398.631 300.678 398.543 301.126 398.543C301.566 398.543 301.917 398.631 302.181 398.807C302.445 398.974 302.643 399.198 302.774 399.479C302.915 399.751 303.003 400.063 303.038 400.415C303.082 400.767 303.104 401.127 303.104 401.496V403.816H304.185C304.414 403.816 304.642 403.83 304.871 403.856C305.099 403.874 305.301 403.935 305.477 404.041C305.662 404.146 305.807 404.304 305.912 404.515C306.026 404.726 306.083 405.021 306.083 405.398C306.083 405.759 306.026 406.044 305.912 406.255C305.807 406.466 305.662 406.625 305.477 406.73C305.301 406.835 305.099 406.906 304.871 406.941C304.642 406.967 304.414 406.98 304.185 406.98H303.104V411.595C303.104 411.771 303.108 411.959 303.117 412.162C303.135 412.355 303.183 412.535 303.262 412.702C303.341 412.869 303.46 413.01 303.618 413.124C303.776 413.229 304 413.282 304.291 413.282C304.607 413.282 304.875 413.309 305.095 413.361C305.323 413.405 305.508 413.489 305.648 413.612C305.798 413.735 305.908 413.906 305.978 414.126C306.048 414.346 306.083 414.627 306.083 414.97C306.083 415.321 306 415.625 305.833 415.879C305.675 416.134 305.459 416.345 305.187 416.512C304.915 416.679 304.598 416.802 304.238 416.881C303.877 416.96 303.5 417 303.104 417C302.48 417 301.944 416.934 301.496 416.802C301.056 416.67 300.687 416.486 300.388 416.249C300.098 416.002 299.865 415.712 299.689 415.378C299.522 415.036 299.395 414.653 299.307 414.231C299.228 413.81 299.175 413.357 299.149 412.874C299.131 412.381 299.123 411.867 299.123 411.331V406.98H298.384C298.156 406.98 297.927 406.967 297.699 406.941C297.479 406.906 297.281 406.835 297.105 406.73C296.93 406.625 296.785 406.466 296.67 406.255C296.565 406.044 296.512 405.759 296.512 405.398C296.512 405.021 296.565 404.726 296.67 404.515C296.785 404.304 296.93 404.146 297.105 404.041C297.281 403.935 297.479 403.874 297.699 403.856C297.927 403.83 298.156 403.816 298.384 403.816H299.123ZM319.214 414.021C319.214 414.39 319.201 414.754 319.175 415.115C319.148 415.466 319.069 415.783 318.938 416.064C318.806 416.345 318.608 416.574 318.344 416.75C318.081 416.917 317.711 417 317.237 417C316.753 417 316.375 416.921 316.103 416.763C315.831 416.596 315.628 416.398 315.497 416.169C315.365 415.932 315.281 415.686 315.246 415.431C315.22 415.176 315.207 414.961 315.207 414.785C315.127 415.04 315.013 415.299 314.864 415.563C314.723 415.827 314.539 416.064 314.31 416.275C314.082 416.486 313.805 416.662 313.479 416.802C313.163 416.934 312.79 417 312.359 417C311.875 417 311.392 416.921 310.909 416.763C310.425 416.604 309.99 416.341 309.604 415.972C309.217 415.603 308.9 415.124 308.654 414.535C308.417 413.937 308.298 413.203 308.298 412.333V408.51C308.298 407.631 308.417 406.897 308.654 406.308C308.9 405.71 309.217 405.231 309.604 404.871C309.99 404.502 310.425 404.238 310.909 404.08C311.392 403.922 311.875 403.843 312.359 403.843C312.79 403.843 313.163 403.909 313.479 404.041C313.805 404.172 314.082 404.344 314.31 404.555C314.539 404.766 314.723 405.003 314.864 405.267C315.013 405.53 315.127 405.794 315.207 406.058C315.207 405.618 315.268 405.253 315.391 404.963C315.514 404.673 315.672 404.445 315.866 404.278C316.059 404.102 316.274 403.983 316.512 403.922C316.758 403.852 317 403.816 317.237 403.816C317.676 403.816 318.028 403.904 318.292 404.08C318.555 404.247 318.753 404.471 318.885 404.752C319.025 405.025 319.113 405.346 319.148 405.715C319.192 406.075 319.214 406.444 319.214 406.822V414.021ZM312.359 411.99C312.359 412.228 312.368 412.46 312.385 412.689C312.403 412.917 312.451 413.124 312.53 413.309C312.609 413.493 312.724 413.643 312.873 413.757C313.031 413.862 313.247 413.915 313.519 413.915C313.862 413.915 314.139 413.84 314.35 413.691C314.569 413.533 314.741 413.295 314.864 412.979C314.987 412.654 315.07 412.25 315.114 411.766C315.167 411.274 315.198 410.689 315.207 410.013C315.207 409.74 315.18 409.428 315.127 409.077C315.083 408.716 315 408.378 314.877 408.062C314.754 407.745 314.583 407.477 314.363 407.257C314.143 407.038 313.862 406.928 313.519 406.928C313.247 406.928 313.031 406.985 312.873 407.099C312.724 407.205 312.609 407.345 312.53 407.521C312.451 407.697 312.403 407.899 312.385 408.127C312.368 408.347 312.359 408.571 312.359 408.8V411.99ZM333.374 413.994C333.374 414.372 333.352 414.741 333.308 415.102C333.264 415.462 333.167 415.783 333.018 416.064C332.877 416.345 332.67 416.574 332.398 416.75C332.134 416.917 331.774 417 331.317 417C330.869 417 330.513 416.917 330.249 416.75C329.985 416.574 329.783 416.345 329.643 416.064C329.502 415.783 329.41 415.462 329.366 415.102C329.331 414.741 329.313 414.372 329.313 413.994V408.853C329.313 408.606 329.3 408.365 329.273 408.127C329.256 407.89 329.208 407.684 329.128 407.508C329.049 407.323 328.931 407.178 328.772 407.073C328.623 406.958 328.417 406.901 328.153 406.901C327.792 406.901 327.502 407.02 327.283 407.257C327.063 407.495 326.887 407.82 326.755 408.233C326.632 408.646 326.549 409.134 326.505 409.696C326.461 410.25 326.439 410.848 326.439 411.489V413.994C326.439 414.372 326.417 414.741 326.373 415.102C326.329 415.462 326.232 415.783 326.083 416.064C325.942 416.345 325.736 416.574 325.463 416.75C325.2 416.917 324.839 417 324.382 417C323.934 417 323.578 416.917 323.314 416.75C323.051 416.574 322.849 416.345 322.708 416.064C322.567 415.783 322.475 415.462 322.431 415.102C322.396 414.741 322.378 414.372 322.378 413.994V406.796C322.378 406.418 322.392 406.053 322.418 405.702C322.444 405.341 322.523 405.025 322.655 404.752C322.787 404.471 322.985 404.247 323.249 404.08C323.521 403.904 323.899 403.816 324.382 403.816C324.866 403.816 325.244 403.9 325.516 404.067C325.789 404.225 325.991 404.418 326.123 404.647C326.263 404.875 326.351 405.117 326.386 405.372C326.421 405.627 326.439 405.847 326.439 406.031C326.509 405.776 326.619 405.517 326.769 405.253C326.918 404.99 327.107 404.752 327.335 404.542C327.573 404.331 327.854 404.159 328.179 404.027C328.504 403.887 328.882 403.816 329.313 403.816C329.796 403.816 330.28 403.896 330.763 404.054C331.247 404.212 331.682 404.476 332.068 404.845C332.455 405.214 332.767 405.697 333.004 406.295C333.25 406.893 333.374 407.631 333.374 408.51V413.994ZM340.018 412.438C340.018 412.579 340.031 412.759 340.058 412.979C340.084 413.19 340.146 413.401 340.242 413.612C340.339 413.814 340.479 413.99 340.664 414.139C340.857 414.289 341.117 414.363 341.442 414.363C341.829 414.363 342.132 414.319 342.352 414.231C342.571 414.144 342.734 414.025 342.839 413.875C342.945 413.717 343.011 413.537 343.037 413.335C343.063 413.124 343.077 412.904 343.077 412.676C343.077 412.562 343.094 412.434 343.129 412.293C343.173 412.144 343.27 412.008 343.419 411.885C343.569 411.753 343.789 411.647 344.079 411.568C344.377 411.48 344.782 411.437 345.292 411.437C345.757 411.437 346.118 411.489 346.373 411.595C346.627 411.7 346.812 411.828 346.926 411.977C347.049 412.118 347.12 412.267 347.137 412.425C347.155 412.575 347.164 412.693 347.164 412.781C347.164 413.344 347.076 413.84 346.9 414.271C346.733 414.693 346.504 415.062 346.214 415.378C345.924 415.686 345.59 415.945 345.212 416.156C344.834 416.367 344.43 416.534 344 416.657C343.578 416.78 343.147 416.868 342.708 416.921C342.268 416.974 341.846 417 341.442 417C340.748 417 340.075 416.908 339.425 416.723C338.774 416.539 338.194 416.249 337.685 415.853C337.184 415.458 336.779 414.952 336.472 414.337C336.164 413.713 336.01 412.966 336.01 412.096V409.011C336.01 408.176 336.107 407.468 336.3 406.888C336.502 406.308 336.762 405.825 337.078 405.438C337.395 405.051 337.75 404.752 338.146 404.542C338.542 404.322 338.941 404.159 339.346 404.054C339.75 403.948 340.132 403.882 340.493 403.856C340.862 403.83 341.178 403.816 341.442 403.816C342.224 403.816 342.905 403.882 343.485 404.014C344.074 404.146 344.58 404.322 345.001 404.542C345.423 404.761 345.771 405.016 346.043 405.306C346.324 405.587 346.544 405.886 346.702 406.203C346.86 406.519 346.97 406.835 347.032 407.152C347.102 407.468 347.137 407.763 347.137 408.035C347.137 408.176 347.128 408.343 347.111 408.536C347.093 408.721 347.023 408.901 346.9 409.077C346.786 409.244 346.601 409.389 346.346 409.512C346.091 409.635 345.731 409.696 345.265 409.696C345.098 409.696 344.887 409.692 344.632 409.683C344.386 409.666 344.145 409.617 343.907 409.538C343.67 409.459 343.468 409.336 343.301 409.169C343.134 409.002 343.05 408.765 343.05 408.457C343.05 408.246 343.037 408.044 343.011 407.851C342.993 407.648 342.932 407.473 342.826 407.323C342.721 407.174 342.558 407.055 342.338 406.967C342.127 406.871 341.829 406.822 341.442 406.822C341.117 406.822 340.857 406.875 340.664 406.98C340.479 407.086 340.339 407.218 340.242 407.376C340.146 407.534 340.084 407.701 340.058 407.877C340.031 408.053 340.018 408.211 340.018 408.352V412.438ZM360.426 409.485C360.426 409.626 360.417 409.793 360.4 409.986C360.382 410.171 360.312 410.351 360.189 410.527C360.075 410.694 359.89 410.839 359.635 410.962C359.38 411.085 359.02 411.146 358.554 411.146H353.307V412.412C353.307 412.623 353.333 412.843 353.386 413.071C353.439 413.3 353.527 413.511 353.65 413.704C353.782 413.897 353.953 414.056 354.164 414.179C354.375 414.302 354.634 414.363 354.942 414.363C355.293 414.363 355.562 414.324 355.746 414.245C355.939 414.157 356.089 414.051 356.194 413.928C356.309 413.805 356.41 413.673 356.498 413.533C356.585 413.392 356.7 413.26 356.84 413.137C356.99 413.014 357.192 412.913 357.447 412.834C357.71 412.746 358.071 412.702 358.528 412.702C358.748 412.702 358.958 412.72 359.161 412.755C359.372 412.79 359.556 412.856 359.714 412.953C359.873 413.049 360 413.186 360.097 413.361C360.193 413.528 360.242 413.748 360.242 414.021C360.242 414.592 360.062 415.071 359.701 415.458C359.341 415.835 358.888 416.139 358.343 416.367C357.798 416.596 357.205 416.758 356.563 416.855C355.931 416.952 355.337 417 354.784 417C354.054 416.991 353.36 416.899 352.701 416.723C352.042 416.547 351.457 416.266 350.947 415.879C350.446 415.493 350.046 414.987 349.748 414.363C349.449 413.739 349.299 412.975 349.299 412.069V408.984C349.299 408.149 349.396 407.442 349.589 406.862C349.792 406.282 350.051 405.798 350.367 405.412C350.684 405.025 351.04 404.726 351.435 404.515C351.831 404.295 352.23 404.133 352.635 404.027C353.039 403.922 353.421 403.856 353.782 403.83C354.151 403.803 354.467 403.79 354.731 403.79C355.619 403.79 356.375 403.869 356.999 404.027C357.631 404.186 358.159 404.392 358.581 404.647C359.002 404.902 359.336 405.196 359.583 405.53C359.829 405.864 360.013 406.211 360.136 406.572C360.259 406.923 360.338 407.284 360.374 407.653C360.409 408.013 360.426 408.352 360.426 408.668V409.485ZM353.307 409.169H356.603C356.603 408.756 356.59 408.391 356.563 408.075C356.546 407.75 356.48 407.477 356.366 407.257C356.26 407.038 356.089 406.871 355.852 406.756C355.623 406.642 355.293 406.585 354.863 406.585C354.502 406.585 354.217 406.642 354.006 406.756C353.804 406.871 353.65 407.016 353.544 407.191C353.439 407.358 353.373 407.539 353.347 407.732C353.32 407.925 353.307 408.097 353.307 408.246V409.169Z" fill="white"/>
</g>
<defs>
<clipPath id="clip0_669_3">
<rect width="375" height="847" fill="white"/>
</clipPath>
</defs>
</svg>
